<?xml version="1.0" encoding="UTF-8"?>
<!DOCTYPE svg PUBLIC "-//W3C//DTD SVG 1.1//EN" "http://www.w3.org/Graphics/SVG/1.1/DTD/svg11.dtd">
<!-- Creator: CorelDRAW -->
<svg xmlns="http://www.w3.org/2000/svg" xml:space="preserve" width="2550px" height="3300px" style="shape-rendering:geometricPrecision; text-rendering:geometricPrecision; image-rendering:optimizeQuality; fill-rule:evenodd; clip-rule:evenodd"
viewBox="0 0 2550 3300">
 <defs>
  <style type="text/css">
   <![CDATA[
    .fil0 {fill:#003399;fill-rule:nonzero}
    .fil1 {fill:#666666;fill-rule:nonzero}
   ]]>
  </style>
    <clipPath id="id0">
     <rect transform="matrix(1.28286 0 0 1.28286 1871.39 -1105.44)" x="1275" y="1347.51" width="315.019" height="302.487"/>
    </clipPath>
 </defs>
 <g id="Capa_x0020_1">
  <metadata id="CorelCorpID_0Corel-Layer"/>
  <g id="_51756328">
   <image id="_51756592" style="clip-path:url(#id0)" transform="matrix(1.28286 0 0 1.28286 1871.39 -1105.44)" x="913.852" y="1203.92" width="1041.67" height="833.331" xlink:href="ingastec_Images\ingastec_ImgID1.png"/>
   <polygon id="_51756472" class="fil0" points="4012.96,709.7 4012.96,871.597 3970.84,871.597 3970.84,709.7 "/>
   <polygon id="_51756472" class="fil0" points="4123.86,709.7 4123.86,871.597 4086.97,871.597 4065.05,798.005 4065.05,871.597 4029.86,871.597 4029.86,709.7 4065.05,709.7 4088.67,782.61 4088.67,709.7 "/>
   <path id="_51756472" class="fil0" d="M4237.36 769.298l-42.0862 0 0 -14.7118c0,-9.25039 -0.409843,-15.0531 -1.19528,-17.4083 -0.818504,-2.32087 -2.69646,-3.48189 -5.7,-3.48189 -2.62795,0 -4.3689,0.989764 -5.32441,3.00354 -0.922441,1.97953 -1.39961,7.13386 -1.39961,15.3945l0 77.6882c0,7.27087 0.477165,12.0496 1.39961,14.3705 0.955512,2.2878 2.79803,3.44764 5.59724,3.44764 3.07205,0 5.15433,-1.29685 6.2811,-3.89055 1.09252,-2.62913 1.63819,-7.68071 1.63819,-15.2244l0 -19.1835 -8.49921 0 0 -24.6094 49.2886 0 0 86.9043 -26.4874 0 -3.89173 -11.6055c-2.86654,5.01732 -6.48543,8.7378 -10.8543,11.2642 -4.3689,2.49213 -9.52323,3.75472 -15.4618,3.75472 -7.06654,0 -13.6878,-1.74094 -19.8319,-5.15433 -6.17835,-3.44764 -10.8555,-7.67953 -14.0634,-12.7665 -3.20906,-5.05157 -5.18858,-10.376 -6.00827,-15.9402 -0.784252,-5.56417 -1.19409,-13.9264 -1.19409,-25.0535l0 -48.0957c0,-15.4618 0.819685,-26.6917 2.49213,-33.6898 1.67244,-7.0311 6.45118,-13.448 14.3705,-19.2508 7.88386,-5.83701 18.0909,-8.77323 30.652,-8.77323 12.3224,0 22.5626,2.52638 30.6862,7.6122 8.12362,5.05157 13.448,11.0929 15.9059,18.0567 2.45787,6.96378 3.68622,17.0669 3.68622,30.3449l0 6.99803z"/>
   <path id="_51756472" class="fil0" d="M4326.38 709.7l24.0992 161.897 -43.1114 0 -2.08228 -29.1165 -15.1205 0 -2.49213 29.1165 -43.5898 0 21.4028 -161.897 60.8941 0zm-22.2886 104.108c-2.15079,-18.3295 -4.26732,-40.9949 -6.41693,-67.9264 -4.26732,30.9602 -6.92953,53.5902 -7.9878,67.9264l14.4047 0z"/>
   <path id="_51756472" class="fil0" d="M4446.87 758.682l-39.0827 0 0 -11.9811c0,-5.59843 -0.512598,-9.18189 -1.50236,-10.7185 -0.989764,-1.53543 -2.6622,-2.28661 -5.01732,-2.28661 -2.52638,0 -4.4374,1.02402 -5.73425,3.1063 -1.29803,2.04803 -1.94646,5.18858 -1.94646,9.38622 0,5.39409 0.716929,9.49016 2.18504,12.2209 1.39961,2.73071 5.39291,6.00709 11.9126,9.89882 18.7394,11.1272 30.5161,20.2406 35.3965,27.3744 4.8815,7.13386 7.30512,18.6378 7.30512,34.5094 0,11.537 -1.36535,20.0374 -4.06181,25.4988 -2.69646,5.46142 -7.91929,10.0689 -15.6331,13.7551 -7.74921,3.6874 -16.7256,5.56417 -27,5.56417 -11.2642,0 -20.8902,-2.15079 -28.8437,-6.41693 -7.98661,-4.26732 -13.2094,-9.69449 -15.6673,-16.2827 -2.45787,-6.62126 -3.68622,-15.9744 -3.68622,-28.1256l0 -10.5815 39.0827 0 0 19.6949c0,6.07559 0.54685,9.96732 1.63937,11.7083 1.12559,1.70669 3.07205,2.5937 5.87008,2.5937 2.79921,0 4.8815,-1.09252 6.24685,-3.31063 1.36535,-2.18504 2.04803,-5.46142 2.04803,-9.79606 0,-9.52323 -1.29685,-15.7701 -3.89173,-18.7063 -2.6622,-2.93504 -9.24921,-7.81654 -19.6949,-14.6776 -10.4787,-6.9626 -17.4083,-11.9799 -20.8217,-15.1205 -3.37913,-3.14055 -6.2126,-7.4752 -8.43071,-13.0051 -2.25354,-5.52992 -3.34488,-12.5953 -3.34488,-21.1972 0,-12.3909 1.56969,-21.4701 4.74449,-27.2043 3.14055,-5.73543 8.26063,-10.2059 15.326,-13.4492 7.06535,-3.20906 15.5988,-4.84724 25.6004,-4.84724 10.9571,0 20.2748,1.7752 27.9555,5.29134 7.71378,3.54921 12.7996,7.98661 15.326,13.3807 2.49213,5.35866 3.72047,14.472 3.72047,27.3402l0 6.38386z"/>
   <polygon id="_51756472" class="fil0" points="4548.39,709.7 4548.39,742.093 4523.4,742.093 4523.4,871.597 4481.31,871.597 4481.31,742.093 4456.4,742.093 4456.4,709.7 "/>
   <polygon id="_51756472" class="fil0" points="4558.01,709.7 4628.23,709.7 4628.23,742.093 4600.13,742.093 4600.13,772.779 4626.42,772.779 4626.42,803.602 4600.13,803.602 4600.13,839.204 4631.03,839.204 4631.03,871.597 4558.01,871.597 "/>
   <path id="_51756472" class="fil0" d="M4741.41 780.288l-42.0862 0 0 -28.1941c0,-8.19213 -0.478346,-13.3122 -1.36535,-15.3602 -0.888189,-2.01378 -2.86772,-3.0378 -5.93976,-3.0378 -3.48189,0 -5.66575,1.22835 -6.62126,3.68622 -0.922441,2.49213 -1.39961,7.81654 -1.39961,16.0087l0 75.1972c0,7.88504 0.477165,13.0051 1.39961,15.3945 0.955512,2.42362 3.0378,3.61772 6.31417,3.61772 3.14055,0 5.18858,-1.19409 6.14409,-3.61772 0.955512,-2.38937 1.46811,-8.02205 1.46811,-16.8969l0 -20.2748 42.0862 0 0 6.27992c0,16.7256 -1.19409,28.6051 -3.54921,35.602 -2.35512,6.99803 -7.6122,13.1421 -15.7016,18.398 -8.08937,5.25709 -18.0909,7.91929 -29.935,7.91929 -12.3567,0 -22.5283,-2.25236 -30.5161,-6.72402 -7.9878,-4.47165 -13.3122,-10.65 -15.9059,-18.535 -2.59488,-7.91929 -3.89173,-19.7976 -3.89173,-35.6705l0 -47.2748c0,-11.674 0.409843,-20.4118 1.19409,-26.2488 0.819685,-5.83701 3.1748,-11.4697 7.16811,-16.8626 3.96024,-5.39291 9.45591,-9.65906 16.487,-12.7654 7.03228,-3.07205 15.1217,-4.64291 24.235,-4.64291 12.4252,0 22.6654,2.42362 30.7205,7.20236 8.0563,4.81299 13.3465,10.787 15.9071,17.9551 2.5252,7.16811 3.7878,18.3295 3.7878,33.4512l0 15.3933z"/>
   <polygon id="_51756352" class="fil1" points="4021.55,955.382 4021.55,902.704 4034.88,902.704 4048.99,942.979 4063.32,902.704 4076.58,902.704 4076.58,955.382 4066.81,955.382 4066.81,915.891 4053.2,955.382 4044.93,955.382 4031.31,915.891 4031.31,955.382 "/>
   <path id="_51756352" class="fil1" d="M4124.69 915.891l0 39.4913 -8.69646 0 0 -5.34567 -0.142913 0c-1.18819,1.71024 -2.75551,3.1122 -4.70433,4.20472 -1.94882,1.0937 -3.9685,1.82953 -6.05906,2.20984 -0.427559,0.0484252 -0.866929,0.0956693 -1.31929,0.142913 -0.451181,0.0472441 -0.890551,0.0708661 -1.31811,0.0708661 -3.04134,0 -5.79803,-0.582283 -8.2689,-1.74567 -2.47087,-1.16457 -4.5626,-2.7685 -6.27283,-4.81181 -1.5685,-1.90157 -2.78031,-4.08661 -3.63543,-6.55866 -0.855118,-2.47087 -1.28268,-5.08465 -1.28268,-7.84016 0,-2.75669 0.392126,-5.29961 1.1752,-7.62756 0.784252,-2.32913 2.07992,-4.51535 3.88583,-6.55866 1.99606,-2.32795 4.21772,-4.05118 6.66496,-5.16732 2.44724,-1.11732 5.12008,-1.67598 8.0185,-1.67598 2.70945,0 5.20394,0.582283 7.48465,1.74685 2.28189,1.16457 4.20591,2.86299 5.77441,5.09646l0 -5.6315 8.69646 0zm-8.9811 19.6748c0,-3.27874 -1.05827,-6.04724 -3.17244,-8.30433 -2.11535,-2.25709 -4.85906,-3.3626 -8.23346,-3.31535 -3.4689,-0.0472441 -6.30827,1.0937 -8.51811,3.42165 -2.20984,2.32913 -3.31417,5.22756 -3.31417,8.69646 0,3.2315 1.15157,5.95276 3.45709,8.1626 2.30433,2.20984 5.04921,3.29055 8.23228,3.24331 3.42165,0.0472441 6.20197,-1.0689 8.34094,-3.35079 2.1378,-2.28071 3.20787,-5.10827 3.20787,-8.48268l0 -0.0708661z"/>
   <path id="_51756352" class="fil1" d="M4131.75 955.382l0 -39.4913 8.76732 0 0 3.63543 0.142913 0c1.0937,-1.47283 2.5311,-2.61378 4.31339,-3.42165 1.7811,-0.807874 3.64724,-1.28268 5.59488,-1.42559 0.142913,0 0.285827,0 0.427559,0 0.142913,0 0.285827,0 0.427559,0 0.190157,0 0.380315,0 0.570472,0 0.190157,0 0.380315,0.0248031 0.570472,0.0720472 1.90157,0.141732 3.74291,0.641339 5.52402,1.49646 1.78228,0.855118 3.31535,1.97244 4.59803,3.35079 0.190157,0.190157 0.368504,0.368504 0.535039,0.533858 0.166535,0.166535 0.320079,0.368504 0.462992,0.605906 1.52126,2.13898 2.42362,4.41969 2.70945,6.84331 0.284646,2.42362 0.427559,4.89567 0.427559,7.41378l0 20.387 -9.48071 0 0 -18.6047c0,-0.570472 0,-1.18819 0,-1.85315 0,-0.666142 -0.023622,-1.3311 -0.0720472,-1.99606 -0.0944882,-1.04528 -0.261024,-2.05512 -0.498425,-3.02953 -0.237402,-0.974409 -0.594094,-1.86496 -1.0689,-2.67283 -0.617717,-0.950787 -1.4622,-1.71142 -2.5311,-2.28189 -1.0689,-0.570472 -2.17441,-0.902362 -3.31417,-0.998031 -0.0484252,0 -0.10748,0 -0.178346,0 -0.0720472,0 -0.154724,0 -0.249213,0 -0.142913,0 -0.297638,0 -0.464173,0 -0.166535,0 -0.343701,0.023622 -0.533858,0.0720472 -1.0937,0.141732 -2.1626,0.510236 -3.20787,1.10433 -1.04528,0.594094 -1.85315,1.36654 -2.42362,2.31732 -0.475984,0.759449 -0.831496,1.65118 -1.07008,2.67283 -0.237402,1.02165 -0.379134,2.05512 -0.427559,3.10039 -0.0472441,0.617717 -0.0708661,1.23543 -0.0708661,1.85315 0,0.617717 0,1.21181 0,1.78228 0,0.142913 0,0.274016 0,0.392126 0,0.119291 0,0.225591 0,0.32126l0 17.8205 -9.48071 0z"/>
   <polygon id="_51756352" class="fil1" points="4175.95,955.382 4175.95,924.302 4171.31,924.302 4171.31,915.891 4175.95,915.891 4175.95,902.704 4185.43,902.704 4185.43,915.891 4191.13,915.891 4191.13,924.302 4185.43,924.302 4185.43,955.382 "/>
   <path id="_51756352" class="fil1" d="M4234.9 939.842l-30.652 0c0.713386,2.32913 2.0315,4.18228 3.95669,5.56063 1.92402,1.37717 4.0748,2.06693 6.45118,2.06693 1.80591,0 3.50433,-0.309449 5.09646,-0.927165 1.59213,-0.617717 2.83937,-1.44921 3.74291,-2.49449l10.4787 -0.0708661c-1.18819,3.56339 -3.6,6.56929 -7.23543,9.01654 -3.63543,2.44724 -7.54488,3.67087 -11.726,3.67087 -5.75079,0 -10.6571,-2.00787 -14.7201,-6.02244 -4.06299,-4.01575 -6.09449,-8.89961 -6.09449,-14.6492 0,-5.84528 2.01969,-10.8591 6.05906,-15.0402 4.03937,-4.18228 9.00472,-6.27402 14.8972,-6.27402 5.65512,0 10.4433,2.07992 14.3646,6.22559 3.92008,4.14685 5.88071,8.95866 5.88071,14.4591 0,0.617717 -0.0366142,1.22362 -0.10748,1.81772 -0.0708661,0.582283 -0.154724,1.16457 -0.249213,1.73386 -0.0472441,0.190157 -0.0838583,0.356693 -0.10748,0.499606 -0.023622,0.142913 -0.0354331,0.284646 -0.0354331,0.427559zm-30.7937 -8.41181l21.7406 0c-0.759449,-2.32795 -2.1378,-4.15748 -4.13386,-5.48858 -1.99606,-1.32992 -4.20591,-1.99606 -6.62953,-1.99606 -0.0944882,0 -0.190157,0 -0.284646,0 -0.0956693,0 -0.190157,0 -0.285827,0 -2.28071,0.142913 -4.41969,0.879921 -6.41575,2.22165 -1.99488,1.34291 -3.32598,3.10157 -3.99094,5.26299z"/>
   <path id="_51756352" class="fil1" d="M4241.53 955.382l0 -39.4913 8.76732 0 0 3.63543 0.142913 0c1.0937,-1.47283 2.5311,-2.61378 4.31339,-3.42165 1.7811,-0.807874 3.64724,-1.28268 5.59488,-1.42559 0.142913,0 0.285827,0 0.427559,0 0.142913,0 0.285827,0 0.427559,0 0.190157,0 0.380315,0 0.570472,0 0.190157,0 0.380315,0.0248031 0.570472,0.0720472 1.90157,0.141732 3.74291,0.641339 5.52402,1.49646 1.78228,0.855118 3.31535,1.97244 4.59803,3.35079 0.190157,0.190157 0.368504,0.368504 0.535039,0.533858 0.166535,0.166535 0.320079,0.368504 0.462992,0.605906 1.52126,2.13898 2.42362,4.41969 2.70945,6.84331 0.284646,2.42362 0.427559,4.89567 0.427559,7.41378l0 20.387 -9.48071 0 0 -18.6047c0,-0.570472 0,-1.18819 0,-1.85315 0,-0.666142 -0.023622,-1.3311 -0.0720472,-1.99606 -0.0944882,-1.04528 -0.261024,-2.05512 -0.498425,-3.02953 -0.237402,-0.974409 -0.594094,-1.86496 -1.0689,-2.67283 -0.617717,-0.950787 -1.4622,-1.71142 -2.5311,-2.28189 -1.0689,-0.570472 -2.17441,-0.902362 -3.31417,-0.998031 -0.0484252,0 -0.10748,0 -0.178346,0 -0.0720472,0 -0.154724,0 -0.249213,0 -0.142913,0 -0.297638,0 -0.464173,0 -0.166535,0 -0.343701,0.023622 -0.533858,0.0720472 -1.0937,0.141732 -2.1626,0.510236 -3.20787,1.10433 -1.04528,0.594094 -1.85315,1.36654 -2.42362,2.31732 -0.475984,0.759449 -0.831496,1.65118 -1.07008,2.67283 -0.237402,1.02165 -0.379134,2.05512 -0.427559,3.10039 -0.0472441,0.617717 -0.0708661,1.23543 -0.0708661,1.85315 0,0.617717 0,1.21181 0,1.78228 0,0.142913 0,0.274016 0,0.392126 0,0.119291 0,0.225591 0,0.32126l0 17.8205 -9.48071 0z"/>
   <path id="_51756352" class="fil1" d="M4312.6 942.55l10.6925 0c-1.28268,4.22953 -3.77835,7.63937 -7.48465,10.2295 -3.7063,2.59016 -7.74567,3.88465 -12.1181,3.88465 -0.190157,0 -0.403937,0 -0.641339,0 -0.237402,0 -0.451181,-0.023622 -0.641339,-0.0708661 -2.47205,-0.142913 -4.88268,-0.713386 -7.23543,-1.71024 -2.35276,-0.998031 -4.40787,-2.35276 -6.16654,-4.06417 -2.1378,-2.04331 -3.74173,-4.39488 -4.81063,-7.05709 -1.07008,-2.66102 -1.60394,-5.44016 -1.60394,-8.33976 0,-5.79803 2.06693,-10.7043 6.20079,-14.7201 4.13504,-4.01575 9.07677,-6.02362 14.8276,-6.02362 4.37126,0 8.44724,1.3311 12.2244,3.99213 3.77835,2.66102 6.26102,6.1311 7.44921,10.4079l-10.6925 -0.0720472c-1.04528,-1.71024 -2.31614,-2.9811 -3.81378,-3.8126 -1.49646,-0.832677 -3.26693,-1.24843 -5.31024,-1.24843 -3.37441,0 -6.11811,1.11732 -8.23346,3.35079 -2.11417,2.23346 -3.17126,4.99016 -3.17126,8.2689 0,3.4689 1.11614,6.32008 3.34961,8.55354 2.23346,2.23346 5.08465,3.35079 8.55354,3.35079 1.75866,0 3.40984,-0.43937 4.95472,-1.31929 1.54488,-0.87874 2.7685,-2.05512 3.67087,-3.52795l0 -0.0720472z"/>
   <path id="_51756352" class="fil1" d="M4329.92 955.382l0 -39.4913 9.48071 0 0 39.4913 -9.48071 0zm0 -44.0528l0 -8.62559 9.48071 0 0 8.62559 -9.48071 0z"/>
   <path id="_51756352" class="fil1" d="M4366.63 914.608c5.79803,0.0472441 10.6925,2.15079 14.6846,6.30827 3.99213,4.15866 5.98819,9.1122 5.98819,14.863 0,5.84528 -2.06811,10.787 -6.20197,14.8264 -4.13504,4.03937 -9.10039,6.05906 -14.8984,6.05906 -5.70236,0 -10.6098,-2.04331 -14.7201,-6.12992 -4.11024,-4.08661 -6.16535,-9.00591 -6.16535,-14.7555 0,-5.93976 2.07874,-10.9417 6.23622,-15.0047 4.15866,-4.06417 9.18425,-6.09567 15.0768,-6.09567l0 -0.0708661zm-0.427559 9.26693c-0.284646,0.0472441 -0.570472,0.0826772 -0.855118,0.10748 -0.285827,0.023622 -0.570472,0.0590551 -0.855118,0.106299 -1.18819,0.237402 -2.35276,0.664961 -3.4937,1.28268 -1.13976,0.617717 -2.11417,1.35472 -2.92205,2.20984 -1.0937,1.0937 -1.91339,2.34094 -2.45906,3.74291 -0.54685,1.40197 -0.819685,2.88661 -0.819685,4.45512 0,3.18425 1.09252,5.92795 3.27874,8.23346 2.18622,2.30433 4.89449,3.45709 8.12598,3.45709 3.37441,0 6.15354,-1.11732 8.33976,-3.3626 2.18622,-2.23346 3.27992,-5.02559 3.27992,-8.36339 0,-3.24331 -1.11732,-6.03543 -3.35079,-8.36457 -2.23346,-2.33976 -4.99016,-3.50433 -8.2689,-3.50433zm-6.3437 -12.189l-3.56457 -6.55866 16.0382 -9.48071 3.77835 7.41378 -16.252 8.62559z"/>
   <path id="_51756352" class="fil1" d="M4392.65 955.382l0 -39.4913 8.76732 0 0 3.63543 0.142913 0c1.0937,-1.47283 2.5311,-2.61378 4.31339,-3.42165 1.7811,-0.807874 3.64724,-1.28268 5.59488,-1.42559 0.142913,0 0.285827,0 0.427559,0 0.142913,0 0.285827,0 0.427559,0 0.190157,0 0.380315,0 0.570472,0 0.190157,0 0.380315,0.0248031 0.570472,0.0720472 1.90157,0.141732 3.74291,0.641339 5.52402,1.49646 1.78228,0.855118 3.31535,1.97244 4.59803,3.35079 0.190157,0.190157 0.368504,0.368504 0.535039,0.533858 0.166535,0.166535 0.320079,0.368504 0.462992,0.605906 1.52126,2.13898 2.42362,4.41969 2.70945,6.84331 0.284646,2.42362 0.427559,4.89567 0.427559,7.41378l0 20.387 -9.48071 0 0 -18.6047c0,-0.570472 0,-1.18819 0,-1.85315 0,-0.666142 -0.023622,-1.3311 -0.0720472,-1.99606 -0.0944882,-1.04528 -0.261024,-2.05512 -0.498425,-3.02953 -0.237402,-0.974409 -0.594094,-1.86496 -1.0689,-2.67283 -0.617717,-0.950787 -1.4622,-1.71142 -2.5311,-2.28189 -1.0689,-0.570472 -2.17441,-0.902362 -3.31417,-0.998031 -0.0484252,0 -0.10748,0 -0.178346,0 -0.0720472,0 -0.154724,0 -0.249213,0 -0.142913,0 -0.297638,0 -0.464173,0 -0.166535,0 -0.343701,0.023622 -0.533858,0.0720472 -1.0937,0.141732 -2.1626,0.510236 -3.20787,1.10433 -1.04528,0.594094 -1.85315,1.36654 -2.42362,2.31732 -0.475984,0.759449 -0.831496,1.65118 -1.07008,2.67283 -0.237402,1.02165 -0.379134,2.05512 -0.427559,3.10039 -0.0472441,0.617717 -0.0708661,1.23543 -0.0708661,1.85315 0,0.617717 0,1.21181 0,1.78228 0,0.142913 0,0.274016 0,0.392126 0,0.119291 0,0.225591 0,0.32126l0 17.8205 -9.48071 0z"/>
   <path id="_51756352" class="fil1" d="M4494.09 941.054l11.3339 0c-1.99606,4.75276 -5.25118,8.52992 -9.76535,11.3339 -4.51535,2.80394 -9.29173,4.22953 -14.328,4.27677 -0.0484252,0 -0.10748,0 -0.178346,0 -0.0720472,0 -0.131102,0 -0.178346,0 -7.55669,0 -13.9961,-2.72008 -19.3181,-8.16142 -5.32205,-5.44134 -7.98307,-11.9161 -7.98307,-19.4244 0,-7.46102 2.67283,-13.8768 8.0185,-19.2472 5.34685,-5.36929 11.6787,-8.05394 18.9969,-8.05394 5.2748,0 10.2531,1.4374 14.9339,4.3122 4.68189,2.8748 8.04331,6.78307 10.0866,11.726l-11.1201 -0.0708661c-1.61575,-1.94882 -3.65906,-3.51732 -6.12992,-4.70551 -2.47087,-1.18819 -5.0374,-1.78228 -7.69843,-1.78228 -4.8,0 -8.88661,1.79409 -12.261,5.38228 -3.37441,3.58819 -5.06102,7.85315 -5.06102,12.7961 0,4.65709 1.72205,8.79094 5.1685,12.4028 3.44528,3.61181 7.52008,5.41772 12.2244,5.41772 2.61378,0 5.0374,-0.54685 7.27087,-1.63937 2.23346,-1.0937 4.22953,-2.59016 5.98819,-4.49173l0 -0.0708661z"/>
   <path id="_51756352" class="fil1" d="M4536.64 915.891l9.48071 0 0 39.4913 -8.69646 0 0 -4.20591 -0.142913 0c-0.998031,1.94882 -2.3752,3.35079 -4.13386,4.20591 -1.75866,0.855118 -3.7311,1.28268 -5.91614,1.28268 -2.32913,0 -4.57441,-0.43937 -6.73701,-1.31811 -2.1626,-0.879921 -4.0748,-2.24528 -5.7378,-4.09843 -1.75866,-1.90157 -2.82756,-3.90945 -3.20787,-6.02362 -0.380315,-2.11535 -0.570472,-4.4315 -0.570472,-6.95079l0 -22.3831 9.48071 0 0 19.389c0,0.618898 0.011811,1.24843 0.0354331,1.88976 0.023622,0.641339 0.0590551,1.29449 0.10748,1.96063 0.0944882,0.759449 0.225591,1.50827 0.392126,2.24528 0.165354,0.735827 0.392126,1.41378 0.676772,2.0315 0.664961,1.28268 1.59213,2.28071 2.78031,2.99409 1.18819,0.712205 2.51811,1.0689 3.99213,1.0689 3.18307,0 5.29843,-1.05709 6.3437,-3.17244 1.04528,-2.11417 1.63937,-4.4315 1.78228,-6.94961 0.0472441,-0.333071 0.0708661,-0.666142 0.0708661,-0.998031 0,-0.333071 0,-0.666142 0,-0.998031l0 -19.461z"/>
   <path id="_51756352" class="fil1" d="M4553.75 955.382l0 -39.4913 8.62559 0 0 3.56457 0.141732 0c1.04646,-1.61575 2.23465,-2.81575 3.56457,-3.6 1.3311,-0.784252 2.97047,-1.17638 4.91811,-1.17638l0.713386 -0.0708661 0 9.19606c-0.333071,0.0472441 -0.664961,0.0826772 -0.998031,0.106299 -0.333071,0.023622 -0.664961,0.0838583 -0.998031,0.178346 -0.664961,0.142913 -1.32992,0.344882 -1.99606,0.605906 -0.664961,0.261024 -1.25906,0.605906 -1.78228,1.03346 -1.18701,0.950787 -1.93583,2.05512 -2.24528,3.31535 -0.308268,1.25906 -0.462992,2.60079 -0.462992,4.02756 0,0.188976 0,0.367323 0,0.533858 0,0.166535 0,0.344882 0,0.535039l0 21.2421 -9.48071 0z"/>
   <path id="_51756352" class="fil1" d="M4576.56 955.382l0 -39.4913 9.48071 0 0 39.4913 -9.48071 0zm0 -44.0528l0 -8.62559 9.48071 0 0 8.62559 -9.48071 0z"/>
   <path id="_51756352" class="fil1" d="M4621.97 942.55l10.6925 0c-1.28268,4.22953 -3.77835,7.63937 -7.48465,10.2295 -3.7063,2.59016 -7.74567,3.88465 -12.1181,3.88465 -0.190157,0 -0.403937,0 -0.641339,0 -0.237402,0 -0.451181,-0.023622 -0.641339,-0.0708661 -2.47205,-0.142913 -4.88268,-0.713386 -7.23543,-1.71024 -2.35276,-0.998031 -4.40787,-2.35276 -6.16654,-4.06417 -2.1378,-2.04331 -3.74173,-4.39488 -4.81063,-7.05709 -1.07008,-2.66102 -1.60394,-5.44016 -1.60394,-8.33976 0,-5.79803 2.06693,-10.7043 6.20079,-14.7201 4.13504,-4.01575 9.07677,-6.02362 14.8276,-6.02362 4.37126,0 8.44724,1.3311 12.2244,3.99213 3.77835,2.66102 6.26102,6.1311 7.44921,10.4079l-10.6925 -0.0720472c-1.04528,-1.71024 -2.31614,-2.9811 -3.81378,-3.8126 -1.49646,-0.832677 -3.26693,-1.24843 -5.31024,-1.24843 -3.37441,0 -6.11811,1.11732 -8.23346,3.35079 -2.11417,2.23346 -3.17126,4.99016 -3.17126,8.2689 0,3.4689 1.11614,6.32008 3.34961,8.55354 2.23346,2.23346 5.08465,3.35079 8.55354,3.35079 1.75866,0 3.40984,-0.43937 4.95472,-1.31929 1.54488,-0.87874 2.7685,-2.05512 3.67087,-3.52795l0 -0.0720472z"/>
   <path id="_51756352" class="fil1" d="M4658.89 914.608c5.79803,0.0472441 10.6925,2.15079 14.6846,6.30827 3.99213,4.15866 5.98819,9.1122 5.98819,14.863 0,5.84528 -2.06811,10.787 -6.20197,14.8264 -4.13504,4.03937 -9.10039,6.05906 -14.8984,6.05906 -5.70236,0 -10.6098,-2.04331 -14.7201,-6.12992 -4.11024,-4.08661 -6.16535,-9.00591 -6.16535,-14.7555 0,-5.93976 2.07874,-10.9417 6.23622,-15.0047 4.15866,-4.06417 9.18425,-6.09567 15.0768,-6.09567l0 -0.0708661zm-0.427559 9.26693c-0.284646,0.0472441 -0.570472,0.0826772 -0.855118,0.10748 -0.285827,0.023622 -0.570472,0.0590551 -0.855118,0.106299 -1.18819,0.237402 -2.35276,0.664961 -3.4937,1.28268 -1.13976,0.617717 -2.11417,1.35472 -2.92205,2.20984 -1.0937,1.0937 -1.91339,2.34094 -2.45906,3.74291 -0.54685,1.40197 -0.819685,2.88661 -0.819685,4.45512 0,3.18425 1.09252,5.92795 3.27874,8.23346 2.18622,2.30433 4.89449,3.45709 8.12598,3.45709 3.37441,0 6.15354,-1.11732 8.33976,-3.3626 2.18622,-2.23346 3.27992,-5.02559 3.27992,-8.36339 0,-3.24331 -1.11732,-6.03543 -3.35079,-8.36457 -2.23346,-2.33976 -4.99016,-3.50433 -8.2689,-3.50433zm-6.3437 -12.189l-3.56457 -6.55866 16.0382 -9.48071 3.77835 7.41378 -16.252 8.62559z"/>
  </g>
 </g>
</svg>
