<?xml version="1.0" encoding="UTF-8" standalone="no"?>
<svg xmlns:rdf="http://www.w3.org/1999/02/22-rdf-syntax-ns#" xmlns="http://www.w3.org/2000/svg" height="70.663mm" width="217.47mm" version="1.1" xmlns:cc="http://creativecommons.org/ns#" xmlns:xlink="http://www.w3.org/1999/xlink" viewBox="0 0 770.57008 250.37907" xmlns:dc="http://purl.org/dc/elements/1.1/">
 <defs>
  <style type="text/css"><![CDATA[
    .fil0 {fill:#003399;fill-rule:nonzero}
    .fil1 {fill:#666666;fill-rule:nonzero}
   ]]></style>
  <clipPath id="a">
   <rect transform="matrix(1.2829 0 0 1.2829 1871.4 -1105.4)" height="302.49" width="315.02" y="1347.5" x="1275"/>
  </clipPath>
 </defs>
 <g transform="translate(862.43 -167.17)">
  <g style="image-rendering:optimizeQuality;text-rendering:geometricPrecision;shape-rendering:geometricPrecision" fill-rule="evenodd" clip-rule="evenodd" transform="translate(-4833.3 -539.11)">
   <image clip-path="url(#a)" width="1041.7" xlink:href="/mnt/discocomp/rori/ingenieria/programacion/web_v2/p3/ingastec/public/images/ingastec_Images\ingastec_ImgID1.png" transform="matrix(1.2829 0 0 1.2829 1871.4 -1105.4)" height="833.33" y="1203.9" x="913.85"/>
   <g fill-rule="nonzero" fill="#039">
    <polygon points="4013 709.7 4013 871.6 3970.8 871.6 3970.8 709.7" class="fil0"/>
    <polygon points="4088.7 782.61 4088.7 709.7 4123.9 709.7 4123.9 871.6 4087 871.6 4065 798 4065 871.6 4029.9 871.6 4029.9 709.7 4065 709.7" class="fil0"/>
    <path d="m4237.4 769.3h-42.086v-14.712c0-9.2504-0.4098-15.053-1.1953-17.408-0.8185-2.3209-2.6964-3.4819-5.7-3.4819-2.6279 0-4.3689 0.98976-5.3244 3.0035-0.9224 1.9795-1.3996 7.1339-1.3996 15.394v77.688c0 7.2709 0.4772 12.05 1.3996 14.37 0.9555 2.2878 2.798 3.4476 5.5972 3.4476 3.0721 0 5.1544-1.2968 6.2811-3.8906 1.0926-2.6291 1.6382-7.6807 1.6382-15.224v-19.184h-8.4992v-24.609h49.289v86.904h-26.487l-3.8917-11.606c-2.8665 5.0173-6.4854 8.7378-10.854 11.264-4.3689 2.4921-9.5232 3.7547-15.462 3.7547-7.0665 0-13.688-1.7409-19.832-5.1543-6.1784-3.4476-10.856-7.6795-14.063-12.766-3.2091-5.0516-5.1886-10.376-6.0083-15.94-0.7842-5.5642-1.1941-13.926-1.1941-25.054v-48.096c0-15.462 0.8197-26.692 2.4922-33.69 1.6724-7.0311 6.4511-13.448 14.37-19.251 7.8838-5.837 18.091-8.7732 30.652-8.7732 12.322 0 22.563 2.5264 30.686 7.6122 8.1236 5.0516 13.448 11.093 15.906 18.057 2.4578 6.9638 3.6862 17.067 3.6862 30.345v6.998z" class="fil0"/>
    <path d="m4326.4 709.7 24.099 161.9h-43.111l-2.0823-29.116h-15.12l-2.4921 29.116h-43.59l21.403-161.9h60.894zm-22.289 104.11c-2.1508-18.33-4.2673-40.995-6.4169-67.926-4.2674 30.96-6.9296 53.59-7.9878 67.926h14.405z" class="fil0"/>
    <path d="m4446.9 758.68h-39.083v-11.981c0-5.5984-0.5126-9.1819-1.5024-10.718-0.9897-1.5354-2.6622-2.2866-5.0173-2.2866-2.5264 0-4.4374 1.024-5.7342 3.1063-1.2981 2.048-1.9465 5.1886-1.9465 9.3862 0 5.3941 0.7169 9.4902 2.185 12.221 1.3997 2.7307 5.393 6.0071 11.913 9.8988 18.739 11.127 30.516 20.241 35.396 27.374 4.8815 7.1339 7.3052 18.638 7.3052 34.509 0 11.537-1.3654 20.037-4.0618 25.499-2.6965 5.4614-7.9193 10.069-15.633 13.755-7.7493 3.6874-16.726 5.5642-27 5.5642-11.264 0-20.89-2.1508-28.844-6.4169-7.9867-4.2673-13.209-9.6945-15.667-16.283-2.4579-6.6213-3.6863-15.974-3.6863-28.126v-10.582h39.083v19.695c0 6.0756 0.5469 9.9673 1.6394 11.708 1.1256 1.7067 3.0721 2.5937 5.8701 2.5937 2.7992 0 4.8815-1.0925 6.2468-3.3106 1.3654-2.185 2.0481-5.4614 2.0481-9.7961 0-9.5232-1.2969-15.77-3.8918-18.706-2.6622-2.935-9.2492-7.8165-19.695-14.678-10.479-6.9626-17.408-11.98-20.822-15.12-3.3791-3.1406-6.2126-7.4752-8.4307-13.005-2.2535-5.5299-3.3449-12.595-3.3449-21.197 0-12.391 1.5697-21.47 4.7445-27.204 3.1406-5.7354 8.2607-10.206 15.326-13.449 7.0654-3.2091 15.599-4.8472 25.6-4.8472 10.957 0 20.275 1.7752 27.956 5.2913 7.7138 3.5492 12.8 7.9866 15.326 13.381 2.4922 5.3587 3.7205 14.472 3.7205 27.34v6.3839z" class="fil0"/>
    <polygon points="4548.4 709.7 4548.4 742.09 4523.4 742.09 4523.4 871.6 4481.3 871.6 4481.3 742.09 4456.4 742.09 4456.4 709.7" class="fil0"/>
    <polygon points="4600.1 839.2 4631 839.2 4631 871.6 4558 871.6 4558 709.7 4628.2 709.7 4628.2 742.09 4600.1 742.09 4600.1 772.78 4626.4 772.78 4626.4 803.6 4600.1 803.6" class="fil0"/>
    <path d="m4741.4 780.29h-42.086v-28.194c0-8.1921-0.4783-13.312-1.3654-15.36-0.8881-2.0138-2.8677-3.0378-5.9397-3.0378-3.4819 0-5.6658 1.2284-6.6213 3.6862-0.9224 2.4921-1.3996 7.8165-1.3996 16.009v75.197c0 7.885 0.4772 13.005 1.3996 15.394 0.9555 2.4236 3.0378 3.6177 6.3142 3.6177 3.1405 0 5.1886-1.1941 6.1441-3.6177 0.9555-2.3894 1.4681-8.022 1.4681-16.897v-20.275h42.086v6.2799c0 16.726-1.1941 28.605-3.5492 35.602-2.3551 6.998-7.6122 13.142-15.702 18.398-8.0894 5.2571-18.091 7.9193-29.935 7.9193-12.357 0-22.528-2.2524-30.516-6.724-7.9878-4.4716-13.312-10.65-15.906-18.535-2.5949-7.9193-3.8917-19.798-3.8917-35.67v-47.275c0-11.674 0.4098-20.412 1.194-26.249 0.8197-5.837 3.1748-11.47 7.1682-16.863 3.9602-5.3929 9.4559-9.6591 16.487-12.765 7.0322-3.072 15.122-4.6429 24.235-4.6429 12.425 0 22.665 2.4236 30.72 7.2024 8.0563 4.813 13.346 10.787 15.907 17.955 2.5252 7.1681 3.7878 18.33 3.7878 33.451v15.393z" class="fil0"/>
   </g>
   <g fill-rule="nonzero" fill="#666">
    <polygon points="4066.8 915.89 4053.2 955.38 4044.9 955.38 4031.3 915.89 4031.3 955.38 4021.6 955.38 4021.6 902.7 4034.9 902.7 4049 942.98 4063.3 902.7 4076.6 902.7 4076.6 955.38 4066.8 955.38" class="fil1"/>
    <path d="m4124.7 915.89v39.491h-8.6965v-5.3457h-0.1429c-1.1882 1.7102-2.7555 3.1122-4.7043 4.2047-1.9488 1.0937-3.9685 1.8295-6.0591 2.2098-0.4275 0.0484-0.8669 0.0957-1.3193 0.14291-0.4511 0.0472-0.8905 0.0709-1.3181 0.0709-3.0413 0-5.798-0.58228-8.2689-1.7457-2.4708-1.1646-4.5626-2.7685-6.2728-4.8118-1.5685-1.9016-2.7803-4.0866-3.6354-6.5587-0.8551-2.4709-1.2827-5.0846-1.2827-7.8402 0-2.7567 0.3921-5.2996 1.1752-7.6276 0.7842-2.3291 2.0799-4.5154 3.8858-6.5587 1.9961-2.328 4.2177-4.0512 6.665-5.1673 2.4472-1.1173 5.1201-1.676 8.0185-1.676 2.7094 0 5.2039 0.58228 7.4846 1.7468 2.2819 1.1646 4.2059 2.863 5.7744 5.0965v-5.6315h8.6965zm-8.9811 19.675c0-3.2787-1.0583-6.0472-3.1724-8.3043-2.1154-2.2571-4.8591-3.3626-8.2335-3.3154-3.4689-0.0472-6.3083 1.0937-8.5181 3.4216-2.2099 2.3291-3.3142 5.2276-3.3142 8.6965 0 3.2315 1.1516 5.9528 3.4571 8.1626 2.3043 2.2098 5.0492 3.2906 8.2323 3.2433 3.4216 0.0472 6.202-1.0689 8.3409-3.3508 2.1378-2.2807 3.2079-5.1083 3.2079-8.4827v-0.0709z" class="fil1"/>
    <path d="m4131.8 955.38v-39.491h8.7673v3.6354h0.1429c1.0937-1.4728 2.5311-2.6138 4.3134-3.4216 1.7811-0.80787 3.6473-1.2827 5.5949-1.4256h0.4276 0.4275 0.5705c0.1901 0 0.3803 0.0248 0.5705 0.072 1.9015 0.14173 3.7429 0.64134 5.524 1.4965 1.7823 0.85512 3.3153 1.9724 4.598 3.3508 0.1902 0.19015 0.3685 0.3685 0.5351 0.53386 0.1665 0.16653 0.32 0.3685 0.4629 0.6059 1.5213 2.139 2.4237 4.4197 2.7095 6.8433 0.2846 2.4236 0.4276 4.8957 0.4276 7.4138v20.387h-9.4808v-18.605-1.8532c0-0.66614-0.024-1.3311-0.072-1.9961-0.095-1.0453-0.261-2.0551-0.4984-3.0295-0.2374-0.97441-0.5941-1.865-1.0689-2.6728-0.6177-0.95079-1.4622-1.7114-2.5311-2.2819-1.0689-0.57047-2.1744-0.90236-3.3142-0.99803h-0.1783-0.2493-0.4641c-0.1666 0-0.3437 0.0236-0.5339 0.0721-1.0937 0.14173-2.1626 0.51023-3.2079 1.1043-1.0452 0.59409-1.8531 1.3665-2.4236 2.3173-0.476 0.75945-0.8315 1.6512-1.0701 2.6728-0.2374 1.0216-0.3791 2.0551-0.4275 3.1004-0.047 0.61771-0.071 1.2354-0.071 1.8532v1.7823 0.39212 0.32126 17.82h-9.4807z" class="fil1"/>
    <polygon points="4191.1 915.89 4191.1 924.3 4185.4 924.3 4185.4 955.38 4176 955.38 4176 924.3 4171.3 924.3 4171.3 915.89 4176 915.89 4176 902.7 4185.4 902.7 4185.4 915.89" class="fil1"/>
    <path d="m4234.9 939.84h-30.652c0.7134 2.3291 2.0315 4.1823 3.9567 5.5606 1.924 1.3772 4.0748 2.0669 6.4512 2.0669 1.8059 0 3.5043-0.30945 5.0964-0.92717 1.5922-0.61771 2.8394-1.4492 3.7429-2.4945l10.479-0.0709c-1.1882 3.5634-3.6 6.5693-7.2354 9.0165s-7.5449 3.6709-11.726 3.6709c-5.7508 0-10.657-2.0079-14.72-6.0224-4.063-4.0158-6.0945-8.8996-6.0945-14.649 0-5.8453 2.0197-10.859 6.0591-15.04 4.0393-4.1823 9.0047-6.274 14.897-6.274 5.6551 0 10.443 2.0799 14.365 6.2256 3.9201 4.1468 5.8807 8.9587 5.8807 14.459 0 0.61772-0.037 1.2236-0.1075 1.8177-0.071 0.58228-0.1547 1.1646-0.2492 1.7339-0.047 0.19016-0.084 0.35669-0.1075 0.4996-0.024 0.14292-0.035 0.28465-0.035 0.42756zm-30.794-8.4118h21.741c-0.7594-2.328-2.1378-4.1575-4.1339-5.4886-1.996-1.3299-4.2059-1.9961-6.6295-1.9961h-0.2846-0.2859c-2.2807 0.14291-4.4197 0.87992-6.4157 2.2216-1.9949 1.3429-3.326 3.1016-3.991 5.263z" class="fil1"/>
    <path d="m4241.5 955.38v-39.491h8.7673v3.6354h0.1429c1.0937-1.4728 2.5311-2.6138 4.3134-3.4216 1.7811-0.80787 3.6473-1.2827 5.5949-1.4256h0.4276 0.4275 0.5705c0.1901 0 0.3803 0.0248 0.5705 0.072 1.9015 0.14173 3.7429 0.64134 5.524 1.4965 1.7823 0.85512 3.3153 1.9724 4.598 3.3508 0.1902 0.19015 0.3685 0.3685 0.5351 0.53386 0.1665 0.16653 0.32 0.3685 0.4629 0.6059 1.5213 2.139 2.4237 4.4197 2.7095 6.8433 0.2846 2.4236 0.4276 4.8957 0.4276 7.4138v20.387h-9.4808v-18.605-1.8532c0-0.66614-0.024-1.3311-0.072-1.9961-0.095-1.0453-0.261-2.0551-0.4984-3.0295-0.2374-0.97441-0.5941-1.865-1.0689-2.6728-0.6177-0.95079-1.4622-1.7114-2.5311-2.2819-1.0689-0.57047-2.1744-0.90236-3.3142-0.99803h-0.1783-0.2493-0.4641c-0.1666 0-0.3437 0.0236-0.5339 0.0721-1.0937 0.14173-2.1626 0.51023-3.2079 1.1043-1.0452 0.59409-1.8531 1.3665-2.4236 2.3173-0.476 0.75945-0.8315 1.6512-1.0701 2.6728-0.2374 1.0216-0.3791 2.0551-0.4275 3.1004-0.047 0.61771-0.071 1.2354-0.071 1.8532v1.7823 0.39212 0.32126 17.82h-9.4807z" class="fil1"/>
    <path d="m4312.6 942.55h10.692c-1.2827 4.2295-3.7783 7.6394-7.4847 10.23-3.7063 2.5902-7.7456 3.8846-12.118 3.8846h-0.6414c-0.2374 0-0.4512-0.0236-0.6413-0.0709-2.4721-0.14291-4.8827-0.71338-7.2355-1.7102-2.3527-0.99803-4.4078-2.3528-6.1665-4.0642-2.1378-2.0433-3.7417-4.3949-4.8106-7.0571-1.0701-2.661-1.604-5.4402-1.604-8.3398 0-5.798 2.067-10.704 6.2008-14.72 4.1351-4.0158 9.0768-6.0236 14.828-6.0236 4.3713 0 8.4473 1.3311 12.224 3.9921 3.7784 2.661 6.261 6.1311 7.4492 10.408l-10.692-0.072c-1.0452-1.7102-2.3161-2.9811-3.8137-3.8126-1.4965-0.83268-3.267-1.2484-5.3103-1.2484-3.3744 0-6.1181 1.1173-8.2334 3.3508-2.1142 2.2335-3.1713 4.9902-3.1713 8.2689 0 3.4689 1.1161 6.3201 3.3496 8.5535 2.2335 2.2335 5.0847 3.3508 8.5535 3.3508 1.7587 0 3.4099-0.43937 4.9548-1.3193 1.5448-0.87874 2.7685-2.0551 3.6708-3.528v-0.072z" class="fil1"/>
    <path d="m4329.9 955.38v-39.491h9.4807v39.491h-9.4807zm0-44.053v-8.6256h9.4807v8.6256h-9.4807z" class="fil1"/>
    <path d="m4366.6 914.61c5.798 0.0472 10.692 2.1508 14.685 6.3083 3.9921 4.1587 5.9882 9.1122 5.9882 14.863 0 5.8453-2.0681 10.787-6.202 14.826-4.135 4.0394-9.1004 6.0591-14.898 6.0591-5.7023 0-10.61-2.0433-14.72-6.1299-4.1102-4.0866-6.1653-9.0059-6.1653-14.756 0-5.9398 2.0787-10.942 6.2362-15.005 4.1586-4.0642 9.1842-6.0957 15.077-6.0957v-0.0709zm-0.4276 9.2669c-0.2846 0.0472-0.5704 0.0827-0.8551 0.10748-0.2858 0.0236-0.5704 0.0591-0.8551 0.1063-1.1882 0.2374-2.3528 0.66496-3.4937 1.2827-1.1398 0.61772-2.1142 1.3547-2.922 2.2098-1.0937 1.0937-1.9134 2.3409-2.4591 3.7429-0.5469 1.402-0.8197 2.8866-0.8197 4.4551 0 3.1842 1.0925 5.928 3.2787 8.2335 2.1863 2.3043 4.8945 3.4571 8.126 3.4571 3.3744 0 6.1536-1.1173 8.3398-3.3626 2.1862-2.2335 3.2799-5.0256 3.2799-8.3634 0-3.2433-1.1173-6.0354-3.3508-8.3646-2.2334-2.3398-4.9901-3.5043-8.2689-3.5043zm-6.3437-12.189-3.5645-6.5587 16.038-9.4807 3.7783 7.4138-16.252 8.6256z" class="fil1"/>
    <path d="m4392.6 955.38v-39.491h8.7673v3.6354h0.1429c1.0937-1.4728 2.5311-2.6138 4.3134-3.4216 1.7811-0.80787 3.6473-1.2827 5.5949-1.4256h0.4276 0.4275 0.5705c0.1901 0 0.3803 0.0248 0.5705 0.072 1.9015 0.14173 3.7429 0.64134 5.524 1.4965 1.7823 0.85512 3.3153 1.9724 4.598 3.3508 0.1902 0.19015 0.3685 0.3685 0.5351 0.53386 0.1665 0.16653 0.32 0.3685 0.4629 0.6059 1.5213 2.139 2.4237 4.4197 2.7095 6.8433 0.2846 2.4236 0.4276 4.8957 0.4276 7.4138v20.387h-9.4808v-18.605-1.8532c0-0.66614-0.024-1.3311-0.072-1.9961-0.094-1.0453-0.261-2.0551-0.4984-3.0295-0.2374-0.97441-0.5941-1.865-1.0689-2.6728-0.6177-0.95079-1.4622-1.7114-2.5311-2.2819-1.0689-0.57047-2.1744-0.90236-3.3142-0.99803h-0.1783-0.2493-0.4641c-0.1666 0-0.3437 0.0236-0.5339 0.0721-1.0937 0.14173-2.1626 0.51023-3.2079 1.1043-1.0452 0.59409-1.8531 1.3665-2.4236 2.3173-0.476 0.75945-0.8315 1.6512-1.0701 2.6728-0.2374 1.0216-0.3791 2.0551-0.4275 3.1004-0.047 0.61771-0.071 1.2354-0.071 1.8532v1.7823 0.39212 0.32126 17.82h-9.4807z" class="fil1"/>
    <path d="m4494.1 941.05h11.334c-1.9961 4.7528-5.2512 8.5299-9.7654 11.334-4.5153 2.8039-9.2917 4.2295-14.328 4.2768h-0.1783-0.1783c-7.5567 0-13.996-2.7201-19.318-8.1614-5.3221-5.4413-7.9831-11.916-7.9831-19.424 0-7.461 2.6728-13.877 8.0185-19.247 5.3468-5.3693 11.679-8.0539 18.997-8.0539 5.2748 0 10.253 1.4374 14.934 4.3122 4.6819 2.8748 8.0433 6.7831 10.087 11.726l-11.12-0.0709c-1.6158-1.9488-3.6591-3.5173-6.1299-4.7055-2.4709-1.1882-5.0374-1.7823-7.6985-1.7823-4.8 0-8.8866 1.7941-12.261 5.3823s-5.061 7.8532-5.061 12.796c0 4.6571 1.7221 8.7909 5.1685 12.403 3.4453 3.6118 7.5201 5.4177 12.224 5.4177 2.6138 0 5.0374-0.54685 7.2709-1.6394 2.2334-1.0937 4.2295-2.5902 5.9882-4.4917v-0.0709z" class="fil1"/>
    <path d="m4536.6 915.89h9.4807v39.491h-8.6965v-4.2059h-0.1429c-0.998 1.9488-2.3752 3.3508-4.1338 4.2059-1.7587 0.85512-3.7311 1.2827-5.9162 1.2827-2.3291 0-4.5744-0.43937-6.737-1.3181-2.1626-0.87992-4.0748-2.2453-5.7378-4.0984-1.7586-1.9016-2.8275-3.9094-3.2078-6.0236-0.3804-2.1154-0.5705-4.4315-0.5705-6.9508v-22.383h9.4807v19.389c0 0.6189 0.012 1.2484 0.035 1.8898 0.024 0.64134 0.059 1.2945 0.1075 1.9606 0.094 0.75945 0.2256 1.5083 0.3921 2.2453 0.1654 0.73583 0.3922 1.4138 0.6768 2.0315 0.665 1.2827 1.5921 2.2807 2.7803 2.9941 1.1882 0.71221 2.5181 1.0689 3.9921 1.0689 3.1831 0 5.2985-1.0571 6.3437-3.1724 1.0453-2.1142 1.6394-4.4315 1.7823-6.9496 0.047-0.33307 0.071-0.66614 0.071-0.99803v-0.99803-19.461z" class="fil1"/>
    <path d="m4553.8 955.38v-39.491h8.6256v3.5646h0.1417c1.0465-1.6158 2.2347-2.8158 3.5646-3.6 1.3311-0.78425 2.9705-1.1764 4.9181-1.1764l0.7134-0.0709v9.1961c-0.3331 0.0472-0.665 0.0827-0.998 0.1063-0.3331 0.0236-0.665 0.0839-0.9981 0.17835-0.6649 0.14291-1.3299 0.34488-1.996 0.6059-0.665 0.26103-1.2591 0.60591-1.7823 1.0335-1.187 0.95079-1.9358 2.0551-2.2453 3.3154-0.3083 1.2591-0.463 2.6008-0.463 4.0276v0.53386 0.53504 21.242h-9.4807z" class="fil1"/>
    <path d="m4576.6 955.38v-39.491h9.4807v39.491h-9.4807zm0-44.053v-8.6256h9.4807v8.6256h-9.4807z" class="fil1"/>
    <path d="m4622 942.55h10.692c-1.2827 4.2295-3.7783 7.6394-7.4847 10.23-3.7063 2.5902-7.7456 3.8846-12.118 3.8846h-0.6413c-0.2374 0-0.4512-0.0236-0.6413-0.0709-2.4721-0.14291-4.8827-0.71338-7.2355-1.7102-2.3527-0.99803-4.4078-2.3528-6.1665-4.0642-2.1378-2.0433-3.7417-4.3949-4.8106-7.0571-1.0701-2.661-1.604-5.4402-1.604-8.3398 0-5.798 2.067-10.704 6.2008-14.72 4.1351-4.0158 9.0768-6.0236 14.828-6.0236 4.3713 0 8.4473 1.3311 12.224 3.9921 3.7784 2.661 6.261 6.1311 7.4492 10.408l-10.692-0.072c-1.0452-1.7102-2.3161-2.9811-3.8137-3.8126-1.4965-0.83268-3.267-1.2484-5.3103-1.2484-3.3744 0-6.1181 1.1173-8.2334 3.3508-2.1142 2.2335-3.1713 4.9902-3.1713 8.2689 0 3.4689 1.1161 6.3201 3.3496 8.5535 2.2335 2.2335 5.0847 3.3508 8.5535 3.3508 1.7587 0 3.4099-0.43937 4.9548-1.3193 1.5448-0.87874 2.7685-2.0551 3.6708-3.528v-0.072z" class="fil1"/>
    <path d="m4658.9 914.61c5.798 0.0472 10.692 2.1508 14.685 6.3083 3.9921 4.1587 5.9882 9.1122 5.9882 14.863 0 5.8453-2.0681 10.787-6.202 14.826-4.135 4.0394-9.1004 6.0591-14.898 6.0591-5.7023 0-10.61-2.0433-14.72-6.1299-4.1102-4.0866-6.1653-9.0059-6.1653-14.756 0-5.9398 2.0787-10.942 6.2362-15.005 4.1586-4.0642 9.1842-6.0957 15.077-6.0957v-0.0709zm-0.4276 9.2669c-0.2846 0.0472-0.5704 0.0827-0.8551 0.10748-0.2858 0.0236-0.5704 0.0591-0.8551 0.1063-1.1882 0.2374-2.3528 0.66496-3.4937 1.2827-1.1398 0.61772-2.1142 1.3547-2.922 2.2098-1.0937 1.0937-1.9134 2.3409-2.4591 3.7429-0.5469 1.402-0.8197 2.8866-0.8197 4.4551 0 3.1842 1.0925 5.928 3.2787 8.2335 2.1863 2.3043 4.8945 3.4571 8.126 3.4571 3.3744 0 6.1536-1.1173 8.3398-3.3626 2.1862-2.2335 3.2799-5.0256 3.2799-8.3634 0-3.2433-1.1173-6.0354-3.3508-8.3646-2.2334-2.3398-4.9901-3.5043-8.2689-3.5043zm-6.3437-12.189-3.5645-6.5587 16.038-9.4807 3.7783 7.4138-16.252 8.6256z" class="fil1"/>
   </g>
  </g>
 </g>
</svg>
