<?xml version="1.0" standalone="no"?>
<!DOCTYPE svg PUBLIC "-//W3C//DTD SVG 1.1//EN" "http://www.w3.org/Graphics/SVG/1.1/DTD/svg11.dtd" >
<svg xmlns="http://www.w3.org/2000/svg" xmlns:xlink="http://www.w3.org/1999/xlink" version="1.1">
<metadata>
Created by FontForge 20150824 at Mon May  2 09:44:21 2016
 By Everything Fonts
SkarpaLT  (c) 2011 by Aga Silva. All rights reserved.
</metadata>
<defs>
<font id="SkarpaLt" horiz-adv-x="648" >
  <font-face 
    font-family="SkarpaLt"
    font-weight="200"
    font-stretch="normal"
    units-per-em="1024"
    panose-1="2 1 2 6 0 0 0 0 1 0"
    ascent="819"
    descent="-205"
    x-height="407"
    cap-height="860"
    bbox="50 -304 1136 1042"
    underline-thickness="0"
    underline-position="-300"
    unicode-range="U+0020-2248"
  />
<missing-glyph horiz-adv-x="898" 
 />
    <glyph glyph-name=".notdef" horiz-adv-x="898" 
 />
    <glyph glyph-name=".notdef" horiz-adv-x="898" 
 />
    <glyph glyph-name=".null" horiz-adv-x="901" 
 />
    <glyph glyph-name="nonmarkingreturn" horiz-adv-x="901" 
 />
    <glyph glyph-name="space" unicode=" " horiz-adv-x="399" 
 />
    <glyph glyph-name="glyph_132" unicode="!" horiz-adv-x="142" 
d="M91 838q6 0 10 -4.5t4 -9.5v-590q0 -5 -4 -9.5t-9.5 -4.5t-10 4.5t-4.5 9.5v590q0 11 12 14h2zM132 11q0 -17 -12 -29t-28 -12q-17 0 -29.5 12t-12.5 29t12.5 29t29 12t28.5 -12t12 -29z" />
    <glyph glyph-name="quotedbl" unicode="&#x22;" horiz-adv-x="252" 
d="M161 532q-6 0 -10 4t-4 10q0 4 2 7l41 63q-13 4 -21 15t-8 25q0 17 11.5 28.5t28.5 11.5t29 -11.5t12 -28.5q0 -19 -14 -31l-56 -87q-2 -4 -7 -6h-4zM64 532q-5 0 -9.5 4t-4.5 10q0 4 3 7l41 63q-13 4 -21 15t-8 25q0 17 11.5 28.5t28.5 11.5t28.5 -11.5t11.5 -28.5
q0 -18 -11 -29l-2 -2l-56 -87q-2 -4 -7 -6h-5z" />
    <glyph glyph-name="glyph_110" unicode="#" horiz-adv-x="510" 
d="M206 524q5 0 9.5 -4.5t4.5 -9.5v-113h112v112q0 10 9 14h5q5 0 9.5 -4t4.5 -10v-112h126q6 0 10 -4.5t4 -9.5q0 -6 -4 -10t-10 -4h-126v-140h126q6 0 10 -4.5t4 -9.5q0 -6 -4 -10t-10 -4h-126v-113q0 -5 -4.5 -9.5t-9.5 -4.5q-6 0 -10 4.5t-4 9.5v113h-112v-113
q0 -5 -4.5 -9.5t-9.5 -4.5q-6 0 -10 4.5t-4 9.5v113h-126q-1 -1 -2 -1q-6 0 -10 4.5t-4 10.5q0 5 4 9t9 5h129v140h-126q-1 -1 -2 -1q-6 0 -10 4.5t-4 10.5q0 5 4 9t9 5h129v112q0 10 9 14h2q1 1 3 1zM220 229h112v140h-112v-140z" />
    <glyph glyph-name="glyph_126" unicode="$" horiz-adv-x="564" 
d="M274 988q6 0 10 -4.5t4 -9.5v-128q12 1 14 1q25 0 49 -7v133q0 10 9 14h5q6 0 10 -4t4 -10v-142q53 -23 86 -72t33 -108v-1q0 -5 -4 -9.5t-10 -4.5t-10 4.5t-4 9.5v1q0 48 -25 88t-66 61v-329q77 -25 126 -91.5t49 -148.5q0 -84 -49 -150t-126 -91v-138q0 -5 -4 -9.5
t-10 -4.5t-10 4.5t-4 9.5v131q-24 -4 -49 -4h-14v-127q0 -5 -4 -9.5t-10 -4.5t-10 4.5t-4 9.5v130q-90 15 -150 85.5t-60 163.5q0 6 4 10t10 4t10 -4t4 -10q0 -82 52 -144t130 -77v450q-67 14 -110.5 67.5t-43.5 123t43.5 123t110.5 67.5v132q0 10 10 14l1 0.5t2 0.5h1z
M288 818v-335h21q21 -1 42 -5v333q-24 8 -49 8q-3 0 -14 -1zM169.5 754q-35.5 -45 -35.5 -103.5t35.5 -103.5t90.5 -59v325q-55 -14 -90.5 -59zM288 7h14q25 0 49 5v437q-21 5 -43 6q-1 -1 -2 -1t-1 1h-17v-448zM379 20q65 24 106 81.5t41 129.5q0 71 -41 128.5t-106 81.5
v-421z" />
    <glyph glyph-name="glyph_83" unicode="%" 
d="M168 862q22 0 39 -21q19 -23 23 -63q4 -46 -13.5 -85.5t-45 -51t-50.5 11.5t-27.5 69t12.5 85.5t44 51.5q7 2 14 3h4zM624 862q6 0 10 -4t4 -10q0 -4 -2 -8l-560 -840q-4 -6 -12 -6q-6 0 -10 4t-4 10q0 4 2 8l560 840q3 5 9 6h3zM155 806q-17 -7 -26.5 -29t-7.5 -44
t15.5 -34t30.5 -5t27 29t8 44q-2 19 -12.5 31t-25.5 11zM571 197q19 -23 23 -63q4 -46 -13.5 -85.5t-44.5 -50.5q-10 -4 -18 -4q-18 0 -33 15q-23 23 -27.5 69t12.5 85.5t44 51.5q7 2 14 3q24 2 43 -21zM519 162q-17 -7 -26.5 -29t-7.5 -44t15.5 -34t30.5 -5t27 29t8 44
q-2 19 -12.5 31t-25.5 11z" />
    <glyph glyph-name="ampersand" unicode="&#x26;" horiz-adv-x="776" 
d="M496 783q42 -49 27 -114q-16 -62 -76 -103q-2 -1 -3 -1h-1v-1q-26 -17 -136 -77l232 -295q25 77 8 160v1q-2 12 8 14h3q4 0 9 -4t6 -9q19 -97 -15 -187l78 -100v0q35 -44 61 -41q23 2 44 42q3 6 10 6q5 0 9.5 -4.5t4.5 -10.5q1 -4 0 -8q-27 -50 -62 -53h-6q-36 0 -79 52
l-70 89q-25 -52 -66 -87.5t-94 -47.5q-2 -1 -4 -1h-2q-29 -8 -58 -8q-24 0 -48 6q-54 13 -98.5 43.5t-76 75.5t-40.5 93l-1 8q-10 69 25 127q31 51 97 98q33 23 85 52l-69 89q-3 2 -3 5q-33 47 -19 104q15 62 75 102q55 37 118 37h13q72 -4 114 -52zM268 774
q-55 -36 -67 -89q-12 -50 19 -86q2 -2 3 -5l66 -84q119 65 139 78q1 2 3 3q54 36 67 88q12 50 -20 87q-33 38 -94 41q-62 3 -116 -33zM198 421q-63 -44 -91 -91q-32 -54 -21 -115q8 -41 36 -80t67.5 -66.5t87 -40t94.5 1.5h6l1 1q50 12 89 47t61 87l-242 310
q-56 -31 -88 -54z" />
    <glyph glyph-name="quotesingle" unicode="'" horiz-adv-x="155" 
d="M64 531q-5 0 -9.5 4t-4.5 10q0 4 3 7l41 63q-13 4 -21 15t-8 25q0 17 11.5 28.5t28.5 11.5t28.5 -11.5t11.5 -28.5q0 -18 -11 -29l-2 -2l-56 -87q-2 -4 -7 -6h-5z" />
    <glyph glyph-name="glyph_104" unicode="(" horiz-adv-x="166" 
d="M152 976q4 -6 4 -14q0 -9 -4 -15t-10 -6q-27 0 -45.5 -21.5t-18.5 -50.5v-1040q1 -2 1 -5q0 -29 18 -50.5t45 -21.5q6 0 10 -6t4 -15t-4 -15t-9 -6q-32 0 -58 25.5t-33 65.5v1q-2 6 -2 12v1066q0 3 2 8v5q7 40 32.5 64.5t57.5 24.5q6 0 10 -6z" />
    <glyph glyph-name="glyph_105" unicode=")" horiz-adv-x="168" 
d="M66 982q32 0 57.5 -24.5t32.5 -64.5v-4l0.5 -1.5l0.5 -1.5q1 -2 1 -6v-1064q0 -2 -1 -6l-0.5 -1.5l-0.5 -1.5v-4q-7 -38 -33 -64t-58 -26q-5 0 -9 6t-4 15t4 15t10 6q27 0 45.5 21t18.5 51v1042q0 29 -18.5 50.5t-45.5 21.5h-2q-6 0 -10 6t-4 15q0 18 12 20h4z" />
    <glyph glyph-name="glyph_85" unicode="*" horiz-adv-x="486" 
d="M264 613q6 0 10 -4.5t4 -9.5v-165l116 116q2 3 7 4h3q6 0 10 -4t4 -10t-4 -10l-117 -116h165q6 0 10 -4t4 -10t-4 -10t-10 -4h-165l117 -116q5 -5 5 -11t-4.5 -10t-9.5 -4q-7 0 -11 5l-116 116v-165q0 -5 -4 -9.5t-10 -4.5q-5 0 -9.5 4t-4.5 9q0 1 -1 3v3h1v161
l-116 -117q-4 -5 -11 -5q-6 0 -10 4t-4 10t5 11l116 116h-166q-6 0 -10 4t-4 10q0 5 4 9.5t9 4.5h167l-116 116q-5 5 -5 10q0 11 11 14h3q7 0 11 -4l116 -117v166q0 11 11 14h3z" />
    <glyph glyph-name="glyph_119" unicode="+" horiz-adv-x="510" 
d="M276 621q6 0 10 -4.5t4 -9.5v-197h196q6 0 10 -4.5t4 -9.5q0 -6 -4 -10t-10 -4h-196v-197q0 -5 -4 -9.5t-10 -4.5t-10 4.5t-4 9.5v197h-196q-1 -1 -2 -1q-6 0 -10 4.5t-4 10.5q0 5 3.5 9t8.5 5h200v196q0 10 9 14h2q2 1 3 1z" />
    <glyph glyph-name="comma" unicode="," horiz-adv-x="155" 
d="M64 -79q-5 0 -9.5 4t-4.5 10q0 4 3 7l41 63q-13 4 -21 15t-8 25q0 17 11.5 28.5t28.5 11.5t28.5 -11.5t11.5 -28.5q0 -18 -11 -29l-2 -2l-56 -87q-2 -4 -7 -6h-5z" />
    <glyph glyph-name="glyph_90" unicode="-" horiz-adv-x="510" 
d="M486 419q6 0 10 -4t4 -10t-4 -10t-10 -4h-422q-6 0 -10 4t-4 10q0 12 12 14h424z" />
    <glyph glyph-name="period" unicode="." horiz-adv-x="142" 
d="M132 46q0 -17 -12.5 -29t-28.5 -12q-17 0 -29 12t-12 29t12 29t29 12q16 0 28.5 -12t12.5 -29z" />
    <glyph glyph-name="glyph_103" unicode="/" horiz-adv-x="368" 
d="M344 862q6 0 10 -4.5t4 -9.5q0 -3 -1 -6l-280 -840q-3 -10 -13 -10q-6 0 -10 4.5t-4 10.5v4l280 840q2 7 10 10h2q1 1 2 1z" />
    <glyph glyph-name="glyph_53" unicode="0" horiz-adv-x="546" 
d="M464.5 780q56.5 -88 68.5 -229q3 -34 3 -67q0 -81 -17 -161q-24 -113 -75 -194.5t-115 -112.5q-33 -16 -64 -16t-61 16q-60 30 -100.5 111.5t-50.5 197.5q-3 33 -3 67q0 81 17 161q24 112 75 193.5t116 112.5q32 15 64 15h8q78 -6 134.5 -94zM260 820q-60 -29 -107 -105
t-69 -177t-13 -205q7 -77 30 -140t57.5 -99.5t77.5 -49t89 10.5q61 29 107.5 105t69 177.5t13.5 205.5q-11 126 -63 206t-124 85q-33 2 -68 -14z" />
    <glyph glyph-name="glyph_54" unicode="1" horiz-adv-x="324" 
d="M301 872h2l1 -1h2q0 -1 1 -1h1q2 -2 4 -5v-1l2 -6v-847q0 -5 -4.5 -9.5t-9.5 -4.5q-6 0 -10 4.5t-4 9.5v822l-214 -128q-3 -2 -7 -2q-6 0 -10.5 4t-4.5 10q0 8 7 12l231 138q3 4 7 5h2v1q2 0 4 -1z" />
    <glyph glyph-name="glyph_55" unicode="2" horiz-adv-x="574" 
d="M346 874q94 0 152 -68q55 -66 46.5 -159.5t-74.5 -170.5v-1l-1 -1q-1 -2 -3 -3l-357 -447h441q6 0 10 -4.5t4 -9.5q0 -6 -4 -10t-10 -4h-475l-1 1q-2 0 -3 1h-1v1h-1q-4 4 -4 10q0 5 2 9l4 4l366 456v1q0 1 1 1v1q2 2 3 4q1 0 2.5 1.5t1.5 2.5l1 1q62 70 70.5 155.5
t-39.5 142.5q-52 62 -142 58t-164.5 -73t-89.5 -162.5t38 -155.5q4 -4 4 -10t-4 -10t-10 -4q-7 0 -11 6q-48 57 -48 134q0 20 3 42q16 104 98 181q83 76 184 80h11z" />
    <glyph glyph-name="glyph_56" unicode="3" horiz-adv-x="545" 
d="M354 866q80 0 121 -54q45 -58 17 -144q-16 -51 -55 -96t-92 -75l14 -2q71 -12 119.5 -62t55.5 -125q1 -13 1 -27q0 -85 -55 -160q-65 -88 -168 -114q-32 -7 -62 -7q-50 0 -96 21q-73 35 -103 111q-1 2 -1 5q0 6 4.5 10t9.5 4q11 0 14 -10q25 -66 88 -95.5t139 -10.5
q92 22 151 102t50.5 168.5t-78.5 134.5t-161 23h-3t-3 -1h-1q-2 -1 -3 -1q-6 0 -10.5 4.5t-4.5 10.5q0 11 12 14q70 15 130.5 68.5t80.5 117.5q24 72 -12 119t-111 43q-77 -4 -151 -61.5t-98 -131.5q-1 -11 -13 -11q-6 0 -10 4t-4 10q0 3 1 6q27 84 106 145.5t167 66.5h14z
" />
    <glyph glyph-name="glyph_57" unicode="4" horiz-adv-x="606" 
d="M492 871v-1h3v-1h1q0 -1 1 -1h1q2 -2 3 -5q1 -1 1 -2v-602h80q6 0 10 -4t4 -10t-4 -10t-10 -4h-80v-222q0 -5 -4 -9.5t-10 -4.5t-10 4.5t-4 9.5v222h-414q-1 0 -2 1h-1v1q-1 0 -1 1h-2v1l-2 2v1q0 1 -1 2h-1v8l1 1v2l2 2v1q1 1 2 1l1 1q0 1 1 1l417 603q1 2 3 4v1
q3 4 7 6h8zM92 259h382v552z" />
    <glyph glyph-name="glyph_58" unicode="5" horiz-adv-x="530" 
d="M64 887q3 0 5 -1h372q6 0 10 -4t4 -10t-4 -10t-10 -4h-362v-424q42 59 102.5 91.5t123.5 30.5q50 -1 95 -24q89 -48 113 -155q7 -33 7 -65q0 -75 -38 -147q-36 -68 -96 -111.5t-125 -50.5q-13 -1 -25 -1q-52 0 -102 23q-47 25 -77 70q-3 4 -3 8q0 6 4.5 10t9.5 4
q8 0 12 -6q27 -40 67 -61q77 -42 168.5 -4.5t141.5 132.5q50 96 29 192t-99 137q-77 42 -167.5 6t-140.5 -130q-1 0 -1 -0.5v-0.5v-1l-1 -1q-1 -2 -1 -3q-3 -3 -6 -4q-1 -1 -2 -1h-1q-1 -1 -3 -1q-11 0 -13 11v1q-1 1 -1 2t1 3v484q-1 1 -1 2q0 10 11 13h3z" />
    <glyph glyph-name="glyph_59" unicode="6" horiz-adv-x="558" 
d="M395 860q3 0 5 -1l2 -2q0 1 0.5 1t1.5 -1t1 -2q1 -1 1.5 -1t0.5 -1q2 -3 2 -7t-3 -8l-230 -396q45 31 97 44q51 13 98 6q71 -12 120 -62.5t56 -124.5q1 -13 1 -27q0 -85 -56 -161q-65 -88 -167 -113q-33 -8 -64 -8q-64 0 -119 36q-81 53 -91 153q-1 13 -1 25q0 63 32 124
q1 3 2 5l299 513q2 7 9 8h3zM280 459q-10 -2 -23 -7q-12 -4 -21 -8q-83 -38 -127 -119q-1 0 -1 -1q-36 -66 -29 -136q9 -89 78.5 -134.5t161 -23t150.5 103t50 169.5q-6 65 -47.5 108.5t-103.5 53.5q-21 3 -43 1q-22 -1 -45 -7z" />
    <glyph glyph-name="glyph_60" unicode="7" horiz-adv-x="560" 
d="M540 865l1 -1h1v-1h2l2 -2q0 -1 1 -2v-1h1q1 -1 1 -3l1 -1v-7l-1 -1q0 -1 -1 -2q0 -2 -1 -3l-469 -844q-4 -8 -12 -8q-6 0 -10 4.5t-4 10.5q0 3 2 7l458 826h-446q-1 -1 -2 -1q-6 0 -10 4.5t-4 10.5q0 12 12 14h478z" />
    <glyph glyph-name="glyph_61" unicode="8" horiz-adv-x="558" 
d="M409 847q39 -8 67 -30.5t39 -56.5t4 -72q-14 -79 -87 -145q-31 -28 -68 -48q1 0 4 -0.5t4 -0.5q71 -12 119.5 -62.5t55.5 -124.5q1 -14 1 -27q0 -86 -55 -161q-65 -88 -167 -113q-34 -8 -65 -8q-64 0 -119 36q-81 53 -91 154q-1 13 -1 26q0 66 35 129q41 74 115 116
q-46 5 -77 31q-28 22 -39 56t-4 72q14 79 86.5 145t161.5 83q23 4 41 4q19 0 40 -3zM334 818q-82 -15 -148.5 -75.5t-78.5 -128.5q-12 -66 33 -103q46 -37 125 -22q82 14 148.5 74.5t78.5 129.5q11 66 -33 102q-24 19 -55 24q-18 3 -34 3q-15 0 -36 -4zM280 462
q-92 -23 -151 -103t-50 -168.5t78.5 -134.5t161 -23t151 102.5t50.5 168.5q-7 66 -48.5 109.5t-103.5 53.5q-21 3 -43 2q-22 -2 -45 -7z" />
    <glyph glyph-name="glyph_62" unicode="9" horiz-adv-x="558" 
d="M333 873q20 0 38 -3q71 -11 120 -62t56 -127q1 -13 1 -26q0 -62 -32 -125v-2h-0.5t-0.5 -1q-1 -1 -1.5 -2t-7.5 -13l-291 -509q-2 -10 -13 -10q-6 0 -10 4t-4 9.5t4 9.5l230 406q-47 -34 -97 -47q-102 -26 -183 28.5t-91 156.5q-1 14 -1 27q0 87 56 164q64 89 166 115
q24 6 51 7h10zM279 839q-91 -23 -150 -104.5t-50 -172t78 -137t161 -23t151 104.5t50 172q-6 67 -48 111.5t-104 53.5q-20 3 -43 2q-22 -1 -45 -7z" />
    <glyph glyph-name="glyph_150" unicode=":" horiz-adv-x="143" 
d="M132 44q0 -17 -12.5 -29t-28.5 -12q-17 0 -29 12t-12 29t12 29t28.5 12t29 -12t12.5 -29zM133 445q0 -17 -12 -29t-28.5 -12t-29 12t-12.5 29t12.5 28.5t29.5 11.5q16 0 28 -11.5t12 -28.5z" />
    <glyph glyph-name="glyph_151" unicode=";" horiz-adv-x="160" 
d="M146 49q0 -18 -15 -30l-54 -86q-4 -7 -13 -7q-6 0 -10 4t-4 10q0 4 3 8l40 63q-12 4 -20.5 14.5t-8.5 23.5q0 17 12.5 29.5t29 12.5t28.5 -12.5t12 -29.5zM150 445q0 -17 -12 -29t-28.5 -12t-29 12t-12.5 29t12.5 28.5t29.5 11.5q16 0 28 -11.5t12 -28.5z" />
    <glyph glyph-name="glyph_106" unicode="&#x3c;" horiz-adv-x="652" 
d="M628 865q6 0 10 -4t4 -10q0 -10 -9 -13l-545 -409l545 -408q6 -5 6 -12q0 -6 -4 -10t-10 -4q-5 0 -9 3l-557 418q-5 2 -7 6v1q-1 1 -1 2v1l-1 1v4q1 1 1 2v1l1 1v1l2 2q0 1 1 2l1 1h1l2 1q0 1 1 1l556 418q2 1 5 2q3 2 6 2h1z" />
    <glyph glyph-name="glyph_120" unicode="=" horiz-adv-x="512" 
d="M488 488q5 0 9.5 -4t4.5 -10t-4.5 -10t-9.5 -4h-423q-6 0 -10.5 4t-4.5 10q0 12 12 14h426zM488 348q5 0 9.5 -4t4.5 -10t-4.5 -10t-9.5 -4h-423q-6 0 -10.5 4t-4.5 10q0 12 12 14h426z" />
    <glyph glyph-name="glyph_107" unicode="&#x3e;" horiz-adv-x="650" 
d="M64 864q5 0 9 -3l554 -415h1q5 -1 8.5 -5t3.5 -9t-3 -9q0 -1 -1 -2v-1h-1q-1 -1 -2 -1l-2 -1l-2 -2l-556 -417q-4 -3 -8 -3q-6 0 -10 4t-4 10q0 7 5 11l545 409l-545 409q-6 4 -6 11q0 11 10 14h4z" />
    <glyph glyph-name="glyph_133" unicode="?" horiz-adv-x="434" 
d="M424 659q0 -75 -53 -130t-128 -57h-6q-49 0 -84 -34.5t-35 -83.5t35 -83.5t84.5 -34.5t84 34.5t34.5 83.5q0 6 4 10t9.5 4t10 -4t4.5 -10q0 -60 -43 -103t-103.5 -43t-104 43t-43.5 103t43.5 103t103.5 43h5q64 2 109 48.5t45 110.5q0 66 -46.5 112.5t-112.5 46.5
t-112.5 -46.5t-46.5 -112.5q0 -6 -4 -10t-10 -4t-10 4t-4 10q0 78 55 132.5t133 54.5q77 0 131.5 -54.5t54.5 -132.5zM242 56q17 0 29 -12t12 -29t-12 -29t-29 -12t-28.5 12t-11.5 29q0 15 9 26.5t23 14.5h8z" />
    <glyph glyph-name="glyph_111" unicode="@" horiz-adv-x="531" 
d="M284 487q8 0 18 -1q51 -4 93 -28q34 -20 60 -53t39 -73q13 -36 13 -70q0 -50 -30 -94q-26 -38 -73 -47q-26 -6 -45 4q-20 10 -29 38q-20 -15 -47 -22q-13 -4 -20 -5q-30 -3 -58 8q-39 16 -47 52q-8 35 19 68q26 32 69 43q42 11 78 -3q1 -1 2.5 -2t2.5 -1v32q0 27 -36 41
q-28 9 -58.5 3t-43.5 -24q-5 -5 -12 -5q-6 0 -10 4t-4 10q0 5 3 9q21 27 60 35q38 8 75 -6q24 -9 39 -27t15 -40v-156q0 -2 -1 -5q5 -16 16 -22q11 -5 26 -2t31.5 14t24.5 22q41 60 14 139q-12 35 -35 64.5t-52 45.5q-77 45 -166 14q-1 0 -3 -0.5t-3 -1.5q-40 -16 -72 -46
q-65 -60 -59 -141q5 -81 78 -136t173.5 -50.5t166.5 65.5q4 5 11 5q5 0 9.5 -4t4.5 -10q0 -7 -6 -11q-74 -69 -183 -74h-17q-99 0 -176 57q-83 62 -89 156v14q0 85 69 150q31 29 79 49q1 2 3 3h3q1 1 2 1h1l1 1q1 1 3 1h2q36 11 64 12h7zM268 283q-4 -1 -15 -4
q-35 -9 -55 -32q-18 -22 -13 -45q5 -21 30 -31q26 -11 60 -2.5t54 30.5v70q-7 5 -15 8q-14 6 -30 6q-7 1 -16 0z" />
    <glyph glyph-name="glyph_27" unicode="A" 
d="M349 836l1 -1q1 0 2 -1h1v-1h1v-1h1l2 -4q0 -1 0.5 -1.5t0.5 -1.5v-2l280 -808v-5q0 -6 -4 -10t-10 -4q-10 0 -14 10l-97 282h-338l-97 -282q-4 -10 -14 -10q-6 0 -10 4t-4 10v5l280 809v1q0 1 0.5 1.5t0.5 1.5v2q1 0 1 1v1q1 0 2 1t2 1q1 2 3 2h10zM186 321h316
l-158 457z" />
    <glyph glyph-name="glyph_28" unicode="B" horiz-adv-x="446" 
d="M160 866q2 -1 3 -1q95 -8 158.5 -76t58.5 -159q-3 -62 -39 -112t-93 -77q78 -15 131 -72.5t57 -134.5v-13q0 -85 -60 -149q-66 -69 -164 -74h-150q-2 0 -4 1h-1v1h-1q-6 4 -6 12q0 4 2 7v405q-2 3 -2 8q0 4 2 7v405q-2 3 -2 7q0 8 6 12q2 1 3 2h1q1 0 1.5 0.5t1.5 0.5h97
zM80 446h69q82 2 140.5 55.5t62.5 130.5q5 81 -52.5 141t-144.5 65h-75v-392zM80 26h131q87 5 144.5 65t52.5 141q-4 76 -62 129.5t-140 56.5h-126v-392z" />
    <glyph glyph-name="glyph_29" unicode="C" horiz-adv-x="804" 
d="M486 862q125 0 231 -67q6 -5 6 -13q0 -6 -4 -10t-10 -4q-5 0 -8 2q-93 59 -201 63.5t-204 -45t-155 -142.5t-63.5 -201.5t45.5 -204.5t143 -155q121 -77 262.5 -61t242.5 117q4 3 9 3t9.5 -4t4.5 -10q0 -5 -3 -8q-108 -108 -259 -125q-27 -2 -52 -2q-122 0 -229 66
q-99 63 -152 166q-49 95 -49 201q0 8 1 18q4 115 67 215q59 93 153 145.5t201 55.5h14z" />
    <glyph glyph-name="glyph_30" unicode="D" horiz-adv-x="714" 
d="M292 869l1 -1h2q112 -3 206.5 -62t148.5 -158.5t54 -215.5q-1 -116 -56 -214t-149.5 -156.5t-206.5 -60.5h-232v1h-3v1h-1q-6 4 -6 12q0 3 2 6v827q-2 3 -2 6q0 10 10 14q1 0 2 1h230zM80 29h212q105 2 193 56.5t139 146.5t52 200q0 109 -51 202.5t-139 148.5t-194 58
h-212v-812z" />
    <glyph glyph-name="glyph_31" unicode="E" horiz-adv-x="370" 
d="M346 864q6 0 10 -4t4 -10t-4 -10t-10 -4h-268v-392h268q6 0 10 -4t4 -10t-4 -10t-10 -4h-268v-392h268q6 0 10 -4t4 -10t-4 -10t-10 -4h-286q-1 1 -3 2t-3 2q0 1 -1 1v1q-1 1 -2 3t-1 5v841q0 9 8 13h288z" />
    <glyph glyph-name="glyph_32" unicode="F" horiz-adv-x="374" 
d="M350 864q6 0 10 -4t4 -10t-4 -10t-10 -4h-272v-392h272q6 0 10 -4t4 -10t-4 -10t-10 -4h-272v-406q0 -6 -4 -10t-10 -4t-10 4t-4 10v841q0 10 9 13h291z" />
    <glyph glyph-name="glyph_33" unicode="G" horiz-adv-x="806" 
d="M484 863q125 0 231 -67q7 -4 7 -12q0 -6 -4 -10t-10 -4q-4 0 -8 2q-93 59 -201 63t-204 -46.5t-154.5 -143.5t-62.5 -201.5t46 -204t143 -154.5q120 -75 259.5 -60.5t240.5 112.5v289h-155q-6 0 -10 4t-4 10t3.5 10t8.5 4h174q1 0 2 -1q1 0 1 -1h1q7 -4 7 -12v-301
q1 -2 1 -5q0 -4 -2 -7v-1q0 -1 -1 -2l-0.5 -0.5t-1.5 -0.5q-1 -2 -3 -3q-108 -106 -258 -122q-26 -3 -51 -3q-121 0 -227 66q-99 63 -152 166q-50 95 -50 202v16q4 115 67 215q59 93 153 146t200 57h14z" />
    <glyph glyph-name="glyph_34" unicode="H" horiz-adv-x="650" 
d="M65 863q6 0 10 -4t4 -10v-406h532v406q0 12 12 14h2q6 0 10 -4t4 -10v-417q1 -2 1 -3q0 -2 -1 -4v-416q0 -6 -4 -10t-9 -4q-6 0 -10.5 4t-4.5 10v406h-532v-406q0 -6 -4 -10t-9 -4q-6 0 -10.5 4t-4.5 10v414q-1 3 -1 6t1 5v416q0 10 10 13h4z" />
    <glyph glyph-name="glyph_35" unicode="I" horiz-adv-x="88" 
d="M64 860q6 0 10 -4t4 -10v-840q0 -6 -4 -10t-10 -4t-10 4t-4 10v841q0 10 10 13h4z" />
    <glyph glyph-name="glyph_36" unicode="J" horiz-adv-x="368" 
d="M354 864q4 -4 4 -10v-704q-1 -64 -47 -108q-45 -42 -106 -42h-5q-62 1 -106 46t-44 108q0 11 10 14h4q6 0 10 -4t4 -10q0 -52 36 -88.5t87 -37.5q53 -2 90.5 34.5t38.5 88.5v703q0 11 10 14h4q6 0 10 -4z" />
    <glyph glyph-name="glyph_37" unicode="K" horiz-adv-x="512" 
d="M74 863.5q4 -4.5 4 -9.5v-525l398 532q4 4 9 6h3q5 0 9.5 -4t4.5 -10q0 -5 -4 -9l-290 -387q1 -1 2 -3l289 -433q3 -3 3 -8q0 -6 -4.5 -10.5t-10.5 -4.5q-8 0 -12 7l-285 428l-112 -149v-271q0 -6 -4 -10t-10 -4t-10 4t-4 10v840q0 11 11 14q1 0 3 1q6 0 10 -4.5z" />
    <glyph glyph-name="glyph_38" unicode="L" horiz-adv-x="372" 
d="M74 862q4 -4 4 -10v-826h270q6 0 10 -4.5t4 -9.5q0 -6 -4 -10t-10 -4h-284q-6 0 -10 4t-4 10v840q0 11 10 14h4q6 0 10 -4z" />
    <glyph glyph-name="glyph_39" unicode="M" horiz-adv-x="676" 
d="M542 865h1q1 0 3 -1h1q1 0 3 -1l2 -2l2 -2q0 -1 1 -2v-1q0 -2 1 -3v-4l110 -836v-2q0 -6 -4 -10t-10 -4q-5 0 -9 3.5t-5 8.5l-100 759l-166 -760q0 -6 -4 -10t-10 -4t-10 4t-4 10l-166 760l-100 -759q-1 -5 -5 -8.5t-9 -3.5q-6 0 -10 4t-4 10v2l110 840q2 11 13 12h1
q12 0 14 -11l170 -776l170 774v3l1 1v1q0 1 1 1q2 4 6 5l2 2h2q1 1 2 1v-1z" />
    <glyph glyph-name="glyph_40" unicode="N" 
d="M68 870l2 -2h1q2 -2 4 -5l2 -2v-1l533 -798v794q0 11 11 14h3q5 0 9.5 -4t4.5 -10v-842q0 -6 -4 -10t-10 -4q-4 0 -8 3t-6 8l-532 799v-795q0 -5 -4.5 -9.5t-10 -4.5t-9.5 4.5t-4 9.5v847q1 0 1 1q1 2 3 3q1 1 3 2v1q1 0 2 1h9z" />
    <glyph glyph-name="glyph_41" unicode="O" horiz-adv-x="928" 
d="M791 740q58 -58 92.5 -138.5t34.5 -168.5t-34.5 -168.5t-92.5 -138.5t-138.5 -92.5t-168.5 -34.5t-168.5 34.5t-138.5 92.5t-92.5 138.5t-34.5 168.5t34.5 168.5t92.5 138.5t138.5 92.5t168.5 34.5t168.5 -34.5t138.5 -92.5zM132.5 636.5q-54.5 -93.5 -54.5 -203.5
t54.5 -203.5t148 -148t203.5 -54.5t203.5 54.5t148 148t54.5 203.5t-54.5 203.5t-148 148t-203.5 54.5t-203.5 -54.5t-148 -148z" />
    <glyph glyph-name="glyph_42" unicode="P" horiz-adv-x="452" 
d="M217 864q98 -5 164 -74q61 -63 61 -147q0 -7 -1 -15q-4 -88 -70.5 -149t-159.5 -63h-133v-406q0 -6 -4 -10t-10 -4t-10 4t-4 10v841q0 10 10 13h157zM78 444h132q82 2 140.5 55.5t62.5 130.5q5 81 -53 141.5t-144 64.5h-138v-392z" />
    <glyph glyph-name="glyph_43" unicode="Q" horiz-adv-x="930" 
d="M791 736.5q58 -58.5 92.5 -138.5t34.5 -168q0 -85 -30.5 -161.5t-86.5 -135.5l114 -114q5 -4 5 -11q0 -5 -4 -9.5t-10 -4.5q-7 0 -11 6l-114 114q-60 -56 -136 -87t-161 -31q-88 0 -168.5 34t-138.5 92.5t-92.5 138.5t-34.5 169q0 88 34.5 168t92.5 138.5t138.5 93
t169.5 34.5q88 0 168 -34.5t138 -93zM132.5 633.5q-54.5 -93.5 -54.5 -204t54.5 -204t148 -147.5t203.5 -54q159 0 277 110l-62 62q-4 4 -4 10q0 11 11 14h2q7 0 11 -5l62 -62q109 117 109 277q0 110 -54 203.5t-147.5 148t-204 54.5t-204 -54.5t-148 -148z" />
    <glyph glyph-name="glyph_44" unicode="R" horiz-adv-x="512" 
d="M213 864q97 -5 163 -74t61 -162q-4 -75 -55 -132t-127 -74l243 -405q4 -4 4 -9q0 -6 -4.5 -10t-9.5 -4q-10 0 -14 9l-248 415q-17 -2 -19 -2h-127v-406q0 -6 -4 -10t-10 -4t-10 4t-4 10v414q-2 3 -2 6t2 6v408q-1 3 -1 6q0 7 6 12h1q1 1 3 1v1h152zM80 444h126
q82 2 140.5 55.5t62.5 130.5q4 81 -53.5 141.5t-144.5 64.5h-131v-392z" />
    <glyph glyph-name="glyph_45" unicode="S" horiz-adv-x="564" 
d="M498 673q0 -6 -4 -10t-10 -4t-10 4t-4 10q0 70 -49 119t-119 49t-119 -49t-49 -119t49 -119t119 -49h7q102 -3 173.5 -76.5t71.5 -175.5q0 -104 -74 -178t-178 -74t-178 74t-74 178q0 6 4 10t10 4t10 -4t4 -10q0 -93 65.5 -158.5t158.5 -65.5t158.5 65.5t65.5 158.5
q0 91 -63.5 156t-154.5 68h-6q-81 0 -138.5 57.5t-57.5 138.5t57.5 138.5t138.5 57.5t138.5 -57.5t57.5 -138.5z" />
    <glyph glyph-name="glyph_46" unicode="T" horiz-adv-x="650" 
d="M626 864q6 0 10 -4t4 -10q0 -7 -4 -11t-10 -4h-266v-824q0 -6 -4 -10t-10 -4t-10 4t-4 10v824h-268q-6 0 -10 4t-4 11q0 12 12 14h564z" />
    <glyph glyph-name="glyph_47" unicode="U" 
d="M64 864q6 0 10 -4t4 -10v-632q1 -79 78 -136q79 -59 190 -58q111 0 189 59q76 58 75 138v629q0 12 11 14h3q6 0 10 -4t4 -10v-644q0 -3 -2 -6v-2q-10 -80 -84 -136q-85 -65 -206 -66h-4q-118 0 -203 63q-77 57 -87 140v1h-0.5t-0.5 1v1q-1 2 -1 4v645q0 10 10 13h4z" />
    <glyph glyph-name="glyph_48" unicode="V" 
d="M64 870q10 0 13 -10l267 -801l267 801q2 8 11 10h2q6 0 10 -4t4 -10q0 -2 -1 -5l-278 -835v-2q0 -8 -8 -12q-1 -1 -2 -1v-1h-9q-1 0 -1 1q-1 0 -2 1h-1l-1 1q-6 4 -6 11v2l-278 835q-1 3 -1 6q0 9 9 13h5z" />
    <glyph glyph-name="glyph_49" unicode="W" horiz-adv-x="978" 
d="M954 868q5 0 9.5 -4.5t4.5 -9.5q0 -3 -1 -5l-221 -836l-1 -3q-1 -1 -1 -3v-1l-1 -1q-3 -4 -7 -5q-3 -2 -5 -2t-3 1q-1 0 -2 1v-1l-1 1h-1q-4 3 -6 7v4l-209 787l-209 -789q-2 -10 -13 -10t-14 10l-222 840q-1 2 -1 4q0 11 11 14h3q11 0 14 -11l209 -788l208 788
q3 11 14 11t13 -11l210 -788l208 788q2 8 9 11q2 0 3 1h2z" />
    <glyph glyph-name="glyph_50" unicode="X" horiz-adv-x="650" 
d="M626 866q5 0 9.5 -4.5t4.5 -9.5t-3 -9l-275 -412l275 -412q2 -4 2 -8q0 -6 -4 -10.5t-10 -4.5q-8 0 -12 7l-268 402l-268 -402q-5 -7 -12 -7q-6 0 -10 4.5t-4 10.5q0 4 2 8l275 412l-275 412q-3 3 -3 8q0 11 12 14h3q7 0 12 -6l268 -403l268 403q3 4 9 6q1 0 1 1h3z" />
    <glyph glyph-name="glyph_51" unicode="Y" horiz-adv-x="650" 
d="M626 857q5 0 9.5 -4.5t4.5 -9.5t-3 -9l-279 -418v-415q0 -5 -4 -9.5t-9 -4.5q-6 0 -10.5 4.5t-4.5 9.5v416l-277 417q-3 3 -3 8q0 11 12 14h3q7 0 12 -6l268 -403l268 403q3 4 9 6q1 0 3 1h1z" />
    <glyph glyph-name="glyph_52" unicode="Z" horiz-adv-x="652" 
d="M630 867q3 0 5 -2q1 0 1 -1h1v-1q1 0 2 -1v-1h1v-4q1 0 1 -1v-7h-1q0 -1 -0.5 -2l-1 -2t-0.5 -2l-544 -816h534q5 0 9.5 -4t4.5 -10t-4.5 -10t-9.5 -4h-563q-2 0 -4 1h-2v2h-3v1q-4 5 -4 10q0 7 5 11h1q0 1 1 1l541 814h-535q-6 0 -10.5 4t-4.5 10q0 12 12 14h568z" />
    <glyph glyph-name="glyph_112" unicode="[" horiz-adv-x="228" 
d="M204 982q6 0 10 -5.5t4 -13.5t-4 -13.5t-10 -5.5h-126v-1102h126q6 0 10 -5.5t4 -13.5q0 -9 -4 -14.5t-10 -5.5h-140q-6 0 -10 5.5t-4 14.5v1141q0 13 9 18h145z" />
    <glyph glyph-name="glyph_101" unicode="\" horiz-adv-x="368" 
d="M64 861q11 0 14 -10l280 -840v-4q0 -6 -4 -10t-10 -4q-10 0 -13 10l-280 840q-1 2 -1 5q0 10 9 13h5z" />
    <glyph glyph-name="glyph_113" unicode="]" horiz-adv-x="230" 
d="M206 -195l-140 -2q-6 0 -10 5.5t-4 14t4 14t10 5.5l126 1l-2 1106h-126q-6 0 -10 5.5t-4 13.5t4 13.5t10 5.5h140q6 0 10 -5.5t4 -13.5l2 -1145v-1q0 -12 -9 -17h-5z" />
    <glyph glyph-name="asciicircum" unicode="^" horiz-adv-x="204" 
d="M64 896q-3 0 -5 1t-4 3l-1 1q0 1 -1 1q-1 1 -1 2l-1 1v2q-1 1 -1 2v2q0 3 2 6q6 21 20 36q6 7 9 9q4 4 10 7q10 6 22 8q5 1 11 1q24 0 44 -17t26 -45v-3q0 -7 -7 -11v-1q-4 -2 -7 -2h-1q-2 0 -5 1q-2 1 -3 2t-2 1q-3 3 -3 7q-8 40 -42 40q-6 0 -14 -3q-19 -6 -28 -28
q-2 -4 -4 -10q0 -6 -4 -9q-2 -1 -3 -1l-1 -1l-4 -2h-2z" />
    <glyph glyph-name="underscore" unicode="_" horiz-adv-x="510" 
d="M486 -8q6 0 10 -4t4 -10t-4 -10t-10 -4h-422q-6 0 -10 4t-4 10q0 12 12 14h424z" />
    <glyph glyph-name="grave" unicode="`" horiz-adv-x="184" 
d="M61 978h4q5 0 8 -3l79 -62l22 -17l-6 -9l-1 -1l-2 -4q-1 0 -2 -1l-1 -1q-2 -1 -5 -1h-6l-2 2h-1q-1 1 -2 0l-1 1l-2 2l-86 69q-7 3 -7 9v3q0 9 9 12q1 1 2 1z" />
    <glyph glyph-name="glyph_1" unicode="a" horiz-adv-x="454" 
d="M178.5 228.5q-44.5 -18.5 -72.5 -50.5q-36 -43 -26 -85q2 -10 7 -19q15 -29 52 -43q51 -21 115.5 -4t101.5 61q1 2 3 3v121q-13 12 -36 22q-26 11 -56 11q-44 2 -88.5 -16.5zM234 422q35 -2 63 -13q37 -13 60.5 -37.5t28.5 -53.5v-2q1 -1 1 -4v-260q1 -12 11 -18
q12 -10 31 -10h1q5 0 9.5 -4t4.5 -9q0 -6 -4.5 -10t-9.5 -4h-1q-28 0 -48 15q-18 14 -21 35v3h-1v1l-2.5 -2.5t-2.5 -1.5q-12 -9 -28 -20q-31 -19 -64 -27q-14 -3 -34 -6q-12 -1 -23 -1q-41 0 -77 14q-62 24 -75 80q-3 13 -3 25q0 43 35 83q32 38 82 58.5t101 18.5
q36 -1 65 -13q12 -5 25 -12h1v58q0 24 -19 45.5t-52 33.5q-53 19 -110 7t-84 -45q-4 -5 -11 -5q-6 0 -10 3.5t-4 9.5q0 5 3 9q22 28 59 43.5t80 16.5q8 0 23 -1z" />
    <glyph glyph-name="glyph_2" unicode="b" horiz-adv-x="381" 
d="M78 349v-291q44 -29 95.5 -28t94.5 31q59 40 72 110.5t-27 129.5q-25 37 -63 56.5t-80 19.5q-50 -1 -92 -28zM74 727q4 -4 4 -10v-337q62 34 130 21q81 -15 128 -84q35 -52 35 -113q0 -18 -3 -38q-15 -82 -83 -129q-46 -32 -102 -35t-105 24v-20q0 -6 -4 -10t-10 -4
t-10 4t-4 10v710q0 11 11 14q1 1 3 1q6 0 10 -4z" />
    <glyph glyph-name="glyph_3" unicode="c" horiz-adv-x="436" 
d="M261 417q73 0 130 -47q12 -10 19 -17q4 -5 4 -10q0 -7 -4 -11t-10 -4q-7 0 -11 4q-2 2 -5 5.5t-5.5 6.5t-5.5 5q-58 48 -132.5 40t-122 -67t-40 -134.5t66 -123.5t133 -40t122.5 67q4 6 11 6q6 0 10.5 -4t4.5 -10t-4 -10q-55 -68 -141 -77q-12 -1 -24 -1q-71 0 -129 47
q-68 55 -77 143q-1 12 -1 24q0 73 47 131q54 67 142 76q8 1 19 1h3z" />
    <glyph glyph-name="glyph_4" unicode="d" horiz-adv-x="381" 
d="M171 363.5q-38 -20.5 -62 -58.5q-41 -61 -27.5 -134.5t71.5 -115.5q43 -30 95 -31.5t95 29.5v301q-42 29 -92 29q-42 1 -80 -19.5zM357 751q6 0 10 -4t4 -11v-737q0 -6 -4 -10.5t-10 -4.5t-10 4.5t-4 10.5v19q-48 -26 -104 -23t-102 36q-68 49 -83 134q-4 21 -4 40
q0 62 36 117q47 71 128 87q68 14 129 -20v347q0 12 10 15h4z" />
    <glyph glyph-name="glyph_5" unicode="e" horiz-adv-x="478" 
d="M118 326q-36 -44 -40 -101h361q-6 78 -66 127q-51 42 -116 41q-85 0 -139 -67zM391 374q35 -28 55 -68.5t22 -86.5q0 -2 -1 -4v-2q1 -1 1 -2q0 -6 -4 -10t-10 -4h-376q6 -79 66 -129q59 -48 133.5 -40.5t121.5 66.5q4 5 11 5q6 0 10 -4t4 -10q0 -4 -3 -8
q-55 -68 -141 -76q-12 -1 -23 -1q-72 0 -130 47q-37 30 -56.5 72.5t-20.5 88.5v7q1 73 46 129q54 67 141 76q7 0 20 1q77 0 134 -47z" />
    <glyph glyph-name="glyph_6" unicode="f" horiz-adv-x="228" 
d="M213 717q4 -4 4 -10t-4 -10t-10 -4q-34 0 -59 -23.5t-26 -57.5v-196l85 -1h1q5 0 9.5 -4t4.5 -10t-4.5 -10t-9.5 -4h-1l-85 1v-381q0 -6 -4 -10t-10 -4t-10 4t-4 10v381h-26q-5 0 -9.5 4t-4.5 10q0 5 4 9t9 5h27v197q1 45 34 76.5t79 31.5q6 0 10 -4z" />
    <glyph glyph-name="g" unicode="g" horiz-adv-x="395" 
d="M156 359q-62 -42 -75.5 -114.5t29.5 -133.5q41 -60 113 -74t134 25v298q-45 30 -98 30q-56 0 -103 -31zM371 430q6 0 10 -4t4 -10v-362q-1 -2 -1 -5v-121q-1 -88 -62.5 -150.5t-147.5 -62.5q-39 0 -76 15q-10 3 -10 13q0 6 4 10.5t10 4.5q3 0 5 -1q33 -14 67 -14
q74 0 127.5 54t54.5 131v101q-69 -36 -146.5 -18t-122.5 83q-37 54 -37 115q0 20 4 41q16 84 87 133q53 36 118 36q52 0 98 -25v22q0 10 10 13q1 0 2 1h2z" />
    <glyph glyph-name="glyph_8" unicode="h" horiz-adv-x="402" 
d="M64 731q6 0 10 -4t4 -10v-387q23 38 59.5 61t80.5 24q67 2 116.5 -47t56.5 -122v-1l0.5 -1.5t0.5 -2.5v-1q0 -2 -1 -4v-229q0 -6 -4 -10t-10 -4t-10 4t-4 10v240q-7 61 -48.5 101t-96.5 39t-95 -43t-45 -103v-234q0 -6 -4 -10t-9 -4q-6 0 -10.5 4t-4.5 10v710q0 11 11 14
h3z" />
    <glyph glyph-name="glyph_9" unicode="i" horiz-adv-x="116" 
d="M106 533q0 -12 -8.5 -20t-19.5 -8t-19.5 8t-8.5 20q0 11 8.5 19.5t19.5 8.5t19.5 -8.5t8.5 -19.5zM78 422q6 0 10 -4t4 -10v-395q0 -6 -4 -10t-10 -4t-10 4t-4 10v395q0 11 10 14h4z" />
    <glyph glyph-name="glyph_10" unicode="j" horiz-adv-x="202" 
d="M192 516q0 -12 -8.5 -20.5t-20 -8.5t-19.5 8.5t-8 20t8 19.5t20 8q11 0 19.5 -8t8.5 -19zM164 404q5 0 9.5 -4t4.5 -10v-577q-2 -45 -35 -77q-32 -31 -75 -31h-4q-5 0 -9.5 4t-4.5 10t4.5 10t9.5 4h1q33 0 58 23t27 57v1q-1 1 -1 1.5t1 1.5v572l-1 1q0 11 11 14h4z" />
    <glyph glyph-name="glyph_11" unicode="k" horiz-adv-x="362" 
d="M64 739q6 0 10 -4t4 -10v-710q0 -6 -4 -10t-10 -4t-10 4t-4 10v711q0 11 11 13h3zM338 424q6 0 10 -4t4 -10q0 -7 -6 -11l-221 -186l221 -187q5 -4 5 -11q0 -6 -4 -10t-10 -4q-5 0 -9 3l-234 197q-5 4 -5 11t5 11l234 197q3 2 6 3q1 1 3 1h1z" />
    <glyph glyph-name="glyph_12" unicode="l" horiz-adv-x="88" 
d="M64 737q6 0 10 -4t4 -10v-710q0 -6 -4 -10t-10 -4t-10 4t-4 10v711q0 11 11 13h3z" />
    <glyph glyph-name="glyph_13" unicode="m" horiz-adv-x="714" 
d="M64 415q6 0 10 -4.5t4 -9.5v-72q23 38 59.5 60.5t79.5 23.5q53 2 96.5 -29t63.5 -82q20 49 61 79.5t92 31.5q66 2 116 -46t57 -120q1 -1 1 -2v-240q0 -5 -4 -9.5t-10 -4.5t-10 4.5t-4 9.5v233q-4 64 -46.5 106.5t-98.5 40.5q-54 -1 -94 -41t-46 -99q1 -1 0.5 -2.5t0 -2.5
t0.5 -1.5t-1 -1.5v-232q0 -5 -4 -9.5t-9 -4.5q-6 0 -10.5 4.5t-4.5 9.5v233q-4 64 -46.5 106.5t-99.5 40.5q-55 -1 -94.5 -42.5t-44.5 -102.5v-235q0 -5 -4 -9.5t-10 -4.5t-10 4.5t-4 9.5v395q0 10 10 13q1 1 2 1q1 1 2 1z" />
    <glyph glyph-name="glyph_14" unicode="n" horiz-adv-x="402" 
d="M64 412q6 0 10 -4t4 -10v-71q23 38 59.5 60.5t80.5 23.5h5q63 0 111 -46q50 -49 57 -121v-1q0 -1 0.5 -2.5t0.5 -2.5q0 -3 -1 -5v-229q0 -6 -4 -10t-10 -4t-10 4t-4 10v240q-7 61 -48.5 101t-96.5 38q-55 -1 -95 -42.5t-45 -102.5v-234q0 -6 -4 -10t-9 -4q-6 0 -10.5 4
t-4.5 10v395q0 11 11 13h3z" />
    <glyph glyph-name="glyph_15" unicode="o" horiz-adv-x="478" 
d="M130.5 74.5q53.5 -53.5 129 -53.5t128.5 53.5t53 129.5t-53 129.5t-128.5 53.5t-129 -53.5t-53.5 -129.5t53.5 -129.5zM468 204q0 -88 -61 -149.5t-147 -61.5q-87 0 -148.5 61.5t-61.5 149.5q0 87 61.5 149t148.5 62q86 0 147 -62t61 -149z" />
    <glyph glyph-name="glyph_16" unicode="p" horiz-adv-x="429" 
d="M66 430q6 0 11 -4t5 -10v-22q51 25 107 25q72 0 131 -36q78 -49 95 -133q4 -20 4 -39q0 -62 -41 -116q-50 -66 -135 -83.5t-161 18.5v-304q0 -6 -5 -10.5t-11 -4.5t-10.5 4.5t-4.5 10.5v640q-1 2 -1 3t1 3v43q-1 0 -1 1q0 11 12 14h4zM82 361v-298q67 -39 146 -25.5
t125 74.5q47 60 32.5 132.5t-82.5 113.5q-52 32 -114 32q-59 0 -107 -29z" />
    <glyph glyph-name="glyph_17" unicode="q" horiz-adv-x="480" 
d="M468 203q0 -89 -65 -151l58 -35q9 -3 9 -13q0 -6 -4 -10t-10 -4q-5 0 -9 4l-66 38q-55 -40 -122 -40q-87 0 -148 62t-61 149t61 149t148 62q86 0 147.5 -62t61.5 -149zM78 203q0 -76 53 -129.5t128 -53.5q50 0 95 28l-43 25q-7 4 -7 12q0 5 3.5 9t9.5 5h2q4 0 7 -2
l53 -31q61 55 61 137q0 76 -53 129.5t-128 53.5t-128 -53.5t-53 -129.5z" />
    <glyph glyph-name="glyph_18" unicode="r" horiz-adv-x="246" 
d="M64 418q6 0 10 -4t4 -10v-72q23 38 59.5 61t79.5 24h5q6 0 10 -4t4 -9q0 -6 -4 -10.5t-10 -4.5h-4q-55 -1 -95 -43.5t-45 -103.5v-238q0 -5 -4 -9.5t-10 -4.5t-10 4.5t-4 9.5v401q0 11 11 13h3z" />
    <glyph glyph-name="glyph_19" unicode="s" horiz-adv-x="361" 
d="M203 417q35 0 65 -12q32 -14 49 -39q4 -4 4 -10t-4 -10t-10 -4q-9 0 -12 8q-13 18 -39 29t-57 10q-44 0 -74 -22q-28 -21 -27 -47q1 -27 29 -46q30 -20 71 -21h6q2 -1 3 -1h2q59 -3 100.5 -39t41.5 -88v-3q0 -52 -42 -89q-44 -38 -106 -38h-3q-59 0 -102 36
q-45 36 -47 89h-1v3q1 6 5 10t9 4q3 0 6 -1h1l1 -1h1v-1h1q1 -1 2 -3l1 -1v-1l1 -1v-5q1 -41 37 -71t87.5 -29.5t86.5 31t34 71.5q0 40 -34 69t-83 31h-8q-1 0 -3 1h-3q-46 2 -79 24q-42 28 -43 69t38 70q38 28 90 28h5z" />
    <glyph glyph-name="glyph_20" unicode="t" horiz-adv-x="246" 
d="M104 613q6 0 10.5 -4t4.5 -10l-1 -1v-183h104q6 0 10 -4t4 -9q0 -6 -4 -10.5t-10 -4.5h-104v-339q1 -1 1 -1.5t-1 -1.5q1 -9 12 -16q13 -8 33 -8q19 0 33 9q12 8 12 16v1q0 10 9 13q2 1 5 1q6 0 10 -4t4 -10v-1q0 -23 -24 -39q-21 -14 -49 -14t-48 13q-19 12 -23 33
q-1 3 -2 5v343h-26q-6 0 -10 4t-4 10q0 5 3.5 9.5t8.5 4.5h28v184q0 10 10 13q1 1 2 1h2z" />
    <glyph glyph-name="glyph_21" unicode="u" horiz-adv-x="402" 
d="M74 412q4 -4 4 -10v-234q5 -64 47 -106.5t99 -41.5q55 2 95 44t45 102v17q-1 1 -1 2t1 2v214q0 11 10 14h4q5 0 9.5 -4t4.5 -10v-395q0 -6 -4.5 -10t-9.5 -4q-6 0 -10 4t-4 10v71q-23 -38 -59.5 -60.5t-79.5 -23.5q-67 -1 -117 47t-57 119v2l-0.5 0.5l-0.5 0.5v239
q0 11 11 14q2 1 3 1q6 0 10 -4z" />
    <glyph glyph-name="glyph_22" unicode="v" horiz-adv-x="400" 
d="M64 420q10 0 13 -9l141 -365l145 366q3 7 12 8h1q6 0 10 -4t4 -10q0 -2 -1 -5l-157 -396v-1q0 -1 -1 -2t-2 -3q-2 -3 -5 -5h-6q-8 0 -12 7q-1 1 -1 2l-1 1v2l-153 395q-1 3 -1 6q0 10 10 13h4z" />
    <glyph glyph-name="glyph_23" unicode="w" horiz-adv-x="556" 
d="M64 416q11 0 14 -10l104 -349l102 345q0 2 1 4v1q1 2 2 3q0 1 1 2t3 2q1 1 2 1q1 1 2 1h5q1 0 2 -1q4 -1 7 -4q1 -1 1 -3q1 0 1 -1v-1q1 -2 1 -4l103 -346l104 350q2 9 12 10h1q6 0 10 -4t4 -10v-4l-116 -391v-1q0 -9 -8 -13h-1l-1 -1h-9v1h-4v1q-7 4 -7 12v2l-102 345
l-102 -346v-2l-2 -4t-2 -3h-1q-1 -2 -4 -4q-1 0 -3 -1h-3q-3 0 -5 1h-1q-2 1 -3 2l-1 1q0 1 -1 2l-1 1q-1 1 -1 2v1l-1 3v1l-117 391v5q0 10 9 13h5z" />
    <glyph glyph-name="glyph_24" unicode="x" horiz-adv-x="402" 
d="M65 422q7 0 11 -5l145 -184l145 184q4 4 9 5h3q5 0 9.5 -4t4.5 -10q0 -5 -4 -9l-149 -189l149 -188q3 -4 3 -8q0 -6 -4 -10t-10 -4t-11 5l-145 184l-145 -184q-4 -5 -11 -5q-6 0 -10 4t-4 10q0 4 3 8l150 188l-150 189q-4 4 -4 10q0 10 10 13h5z" />
    <glyph glyph-name="glyph_25" unicode="y" horiz-adv-x="400" 
d="M63 407q10 0 13 -8l141 -364l146 364q3 7 11 8h2q6 0 10 -4t4 -10q0 -2 -1 -5l-274 -680q-2 -12 -13 -12q-6 0 -10 4.5t-4 10.5q0 4 2 7l113 280v1l-152 390q-1 2 -1 5q0 10 9 13h4z" />
    <glyph glyph-name="glyph_26" unicode="z" horiz-adv-x="402" 
d="M382 407v-1h4v-1h1v-1h1q0 -1 1 -1q0 -1 1 -2v-1h1v-3q1 -2 1 -4q0 -3 -2 -7h-1v-1l-2 -1l-2 -2l-290 -356h283q6 0 10 -4.5t4 -9.5t-4 -9t-10 -4h-312q-4 0 -7 1q-1 1 -2 1h-1v1h-1l-2 4v1q-2 2 -2 6q0 3 3 7q0 1 1 2l2 1l1 1l291 356h-285q-6 0 -10 4t-4 9q0 12 12 14
h320z" />
    <glyph glyph-name="glyph_108" unicode="{" horiz-adv-x="308" 
d="M293 984.5q4 -5.5 4 -13.5t-4 -13.5t-10 -5.5h-1q-26 0 -44 -20t-19 -47v-294q1 0 1 -1.5t-1 -2.5v-1q1 0 1 -0.5t-1 -3.5v-2q-1 -3 -2 -4l-2 -2l-3 -4q0 -1 -1 -1l-126 -173l127 -176q1 0 1 -1l2 -3h1v-1q0 -1 1 -1v-1h1v-2h1v-3q1 0 1 -1.5t-1 -1.5v-1q1 -1 1 -2.5
t-1 -3.5q1 0 1 -0.5t-1 -3.5v-284q1 -1 1 -2t-1 -2q1 -26 19.5 -46.5t44.5 -20.5h1q5 0 9.5 -5.5t4.5 -13.5q0 -9 -4.5 -14.5t-9.5 -5.5h-1q-32 0 -57.5 24.5t-32.5 62.5v1l-1 3q-1 2 -1 6v297l-130 181q-1 1 -2 1h-1q-8 5 -8 17q0 3 1 4v6l2 2v3l6 6l132 182v298l2 8v4
q7 38 32.5 61t57.5 23q6 0 10 -5.5z" />
    <glyph glyph-name="glyph_102" unicode="|" horiz-adv-x="88" 
d="M64 871q6 0 10 -4.5t4 -9.5v-842q0 -5 -4 -9.5t-10 -4.5t-10 4.5t-4 9.5v841q0 10 10 14h1q2 1 3 1z" />
    <glyph glyph-name="glyph_109" unicode="}" horiz-adv-x="308" 
d="M56 -196q-4 6 -4 14t4 13.5t10 5.5h1q26 0 44 20.5t19 46.5v294q-1 0 -1 1.5t1 2.5v1q-1 0 -1 0.5t1 2.5v3q1 3 2 4l2 2l3 3q0 2 1 2l125 175l-127 175q-1 0 -1 1l-2 2h-1v1q0 1 -1 1v1h-1v2h-1v4q-1 0 -1 1t1 1v1q-1 1 -1 2.5t1 4.5q-1 0 -1 0.5t1 2.5v285q-1 1 -1 2
t1 2q-1 28 -19.5 47.5t-44.5 19.5h-1q-5 0 -9.5 5.5t-4.5 14.5q0 8 4.5 13.5t9.5 5.5h1q32 0 57.5 -24t32.5 -63v-1l1 -1q1 -3 1 -7v-299l130 -181q1 -1 2 -1h1q8 -5 8 -17q0 -1 -1 -4v-6l-2 -2v-3l-6 -6l-131 -182v-298l-2 -8v-4q-7 -37 -32.5 -61t-57.5 -24q-6 0 -10 6z
" />
    <glyph glyph-name="glyph_136" unicode="~" horiz-adv-x="238" 
d="M106 943q13 0 24 -6q8 -4 14 -11q1 -1 4 -6q1 -2 3 -4v-2q1 -2 1 -3v-3q1 0 1 -1v-4h1q1 -1 5 -3q8 -4 18 -2t16.5 9.5t6.5 13.5q-1 1 -1 2.5t1 2.5q-1 0 -1 0.5t1 1.5q2 8 11 9q1 1 3 1q3 0 6 -2q4 -2 6 -6l1 -1v-1q0 -1 1 -1v-6q0 -7 -2 -14t-4 -9q-12 -21 -39 -27
q-7 -2 -14 -2q-12 0 -23 6q-13 7 -18 20v1l-1 1q-1 1 -1 2q-1 2 -1 5v1q0 2 -1 3h-1q-1 2 -5 4q-9 4 -18 2q-11 -3 -16.5 -10t-4.5 -13v-6q-1 -1 -1 -2v-1l-2 -2q0 -1 -1 -1q-2 -3 -4 -4q-3 -1 -6 -1q-12 0 -14 12q-1 4 -1 9q0 13 10 25q12 16 33 21q6 1 9 2h4z" />
    <glyph glyph-name="uni00A0" unicode="&#xa0;" horiz-adv-x="399" 
 />
    <glyph glyph-name="glyph_134" unicode="&#xa1;" horiz-adv-x="142" 
d="M89 7q-12 3 -12 14v590q0 5 4.5 9.5t10 4.5t9.5 -4.5t4 -9.5v-590q0 -5 -4 -9.5t-10 -4.5h-2zM91.5 793q-16.5 0 -29 12t-12.5 29t12.5 29t29.5 12q16 0 28 -12t12 -29t-12 -29t-28.5 -12z" />
    <glyph glyph-name="glyph_127" unicode="&#xa2;" horiz-adv-x="435" 
d="M243 739q6 0 10 -4.5t4 -9.5v-112q76 2 135 -47q12 -10 19 -17q5 -5 5 -11q0 -4 -2 -8l-4 -4q-4 -2 -8 -2q-7 0 -11 5q-5 6 -17 15q-51 42 -117 41v-366q11 0 22 1q7 0 16 2q27 6 49 18q7 4 16 9q7 5 14 11q15 13 26 26v1q5 5 11 5q4 0 8 -2q1 -1 2 -3q4 -4 4 -10v-3
q0 -1 -1 -2q-1 -2 -2 -3q-21 -26 -46 -43q-18 -12 -36 -19q-3 -2 -19 -7q-20 -5 -40 -7q-11 -2 -24 -1v-119q0 -5 -4 -9.5t-10 -4.5t-10 4.5t-4 9.5v121q-58 9 -102 45q-67 55 -75 142q-2 12 -2 23q0 73 48 132q51 64 131 76v113q0 11 10 14h4zM132 532q-5 -5 -12 -14
q-36 -44 -41 -100q-1 -10 -1 -17q1 -54 31 -100q7 -10 11 -15q11 -14 26 -26q21 -17 47 -28q11 -5 17 -6q8 -3 19 -5v362q-57 -10 -97 -51z" />
    <glyph glyph-name="glyph_128" unicode="&#xa3;" horiz-adv-x="454" 
d="M150 856q5 0 9.5 -4t4.5 -10v-406h182q6 0 10 -4t4 -10t-4 -10t-10 -4h-182v-392h266q6 0 10 -4t4 -10t-4 -10t-10 -4h-285l-1 1h-1l1 1h-3v1h-1q-5 5 -5 11q0 3 1 5v401h-72q-6 0 -10 4t-4 10q0 5 4 9t9 5h73v407q0 10 9 13h5z" />
    <glyph glyph-name="glyph_129" unicode="&#xa4;" horiz-adv-x="538" 
d="M61 649q2 1 4 1q3 0 6 -2q2 -1 4 -3l116 -116q42 36 98 36t98 -35l116 115q3 3 7 4q2 1 3 1q6 0 10 -4.5t4 -10t-4 -9.5l-115 -116q35 -43 35 -99t-35 -99l115 -115q5 -4 5 -11q0 -6 -4 -10t-10 -4q-7 0 -11 6l-116 114q-42 -35 -98 -35t-98 36l-116 -115q-4 -6 -11 -6
q-6 0 -10 4t-4 10q0 7 5 11l115 116q-35 43 -35 98.5t35 97.5l-115 117q-5 4 -5 10q0 10 9 13h2zM211 509l32 -32q5 -4 5 -11q0 -4 -2 -7t-4 -5q-3 -2 -8 -2q-7 0 -11 6l-32 31q-28 -35 -28 -77.5t28 -78.5l32 32q3 3 7 4q2 1 3 1q6 0 10 -4.5t4 -10t-4 -9.5l-32 -33
q35 -28 78 -28t78 28l-32 33q-4 4 -4 10q0 11 10 13q2 1 4 1q6 0 10 -5l32 -32q28 35 28 78.5t-28 78.5l-32 -32q-4 -6 -11 -6q-6 0 -10 4t-4 10q0 7 5 11l32 32q-35 28 -78 28t-78 -28z" />
    <glyph glyph-name="glyph_130" unicode="&#xa5;" horiz-adv-x="650" 
d="M65 863q8 0 12 -7l268 -403l268 403q3 4 9 6h4q5 0 9.5 -4t4.5 -10q0 -5 -3 -8l-278 -416v-122h127q5 0 9.5 -4.5t4.5 -10t-4.5 -9.5t-9.5 -4h-127v-56h127q5 0 9.5 -4.5t4.5 -10t-4.5 -9.5t-9.5 -4h-127v-183q0 -5 -4 -9.5t-9 -4.5q-6 0 -10.5 4.5t-4.5 9.5v183h-127
q-6 0 -10 4t-4 10q0 5 3.5 9t8.5 5h129v56h-127q-6 0 -10 4t-4 10q0 5 3.5 9t8.5 5h129v120l-278 418q-3 3 -3 8q0 11 11 14q1 0 3 1h1z" />
    <glyph glyph-name="glyph_86" unicode="&#xa6;" horiz-adv-x="88" 
d="M64 865q6 0 10 -4.5t4 -9.5v-282q0 -5 -4 -9.5t-10 -4.5t-10 4.5t-4 9.5v281q0 10 10 14h1q2 1 3 1zM64 305q6 0 10 -4.5t4 -9.5v-282q0 -5 -4 -9.5t-10 -4.5t-10 4.5t-4 9.5v281q0 10 10 14h1q2 1 3 1z" />
    <glyph glyph-name="glyph_99" unicode="&#xa7;" horiz-adv-x="416" 
d="M367 732q0 -6 -4 -10t-10 -4t-10 4t-4 10q0 47 -32.5 80t-78.5 33t-78.5 -33t-32.5 -80t32.5 -80t78.5 -33h5q72 -2 122.5 -54.5t50.5 -125.5q0 -57 -32 -103t-83 -66q34 -18 55 -51t21 -73q0 -58 -40.5 -99.5t-98.5 -41.5t-98.5 41.5t-40.5 99.5q0 6 4 10t10 4t10 -4
t4 -10q0 -47 32.5 -80t78.5 -33t78.5 33t32.5 80t-32.5 80t-78.5 33h-6q-72 2 -122 54.5t-50 125.5q0 57 32 103t83 66q-34 18 -55 51t-21 73q0 58 40.5 99.5t98.5 41.5t98.5 -41.5t40.5 -99.5zM122 546.5q-44 -44.5 -44 -107.5q0 -61 42 -105.5t102 -46.5h6q62 0 106 44.5
t44 107.5q0 62 -42.5 106t-103.5 46h-4q-62 0 -106 -44.5z" />
    <glyph glyph-name="glyph_137" unicode="&#xa8;" horiz-adv-x="302" 
d="M130 905q0 -17 -11.5 -29t-28.5 -12t-28.5 12t-11.5 29t11.5 29t28.5 12t28.5 -12t11.5 -29zM280.5 934q11.5 -12 11.5 -29t-11.5 -29t-28.5 -12t-28.5 12t-11.5 29q0 15 9 26t23 14q4 1 8 1q17 0 28.5 -12z" />
    <glyph glyph-name="copyright" unicode="&#xa9;" horiz-adv-x="0" 
 />
    <glyph glyph-name="glyph_154" unicode="&#xaa;" horiz-adv-x="194" 
d="M135 708q23 -8 30 -29q1 -1 1 -2t1 -1v-2l1 -1v-81h2q2 0 5 -1l1 -1q8 -4 8 -12v-3q-2 -5 -7 -8q-1 -2 -2 -2q-3 -1 -5 -1q-15 0 -24 11q-20 -13 -41 -13q-13 0 -26 5q-23 10 -28 32q-1 4 -1 8q0 17 13 33q15 19 38 25q17 5 34 1h2.5t2.5 -1v3v1l-0.5 0.5t-0.5 1.5
q-3 7 -14 11q-12 5 -25 2q-14 -3 -19 -10q0 -1 -1 -2q-2 -3 -6 -5q-3 -1 -6 -1q-6 0 -10 4t-4 10q0 7 5 11q13 16 34 21q8 1 11 2q15 0 31 -6zM85 623q-7 -9 -5.5 -18t10.5 -12q11 -5 26 0q8 2 14 6q6 3 10 8v27q-3 2 -5 3q-6 2 -12 2q-25 0 -38 -16z" />
    <glyph glyph-name="glyph_152" unicode="&#xab;" horiz-adv-x="390" 
d="M254 457q6 0 10 -4t4 -10q0 -10 -8 -13l-173 -129l173 -128q5 -5 5 -12q0 -6 -4 -10t-10 -4q-5 0 -9 3l-184 138q-4 2 -7 6v1q0 1 -1 2v10h1v1l2 2q0 1 1 2q1 0 2 1l1 1h1l1 1l183 138q2 2 5 2l4 2h3zM366 457q6 0 10 -4t4 -10q0 -10 -8 -13l-173 -129l173 -128
q5 -5 5 -12q0 -6 -4 -10t-10 -4q-5 0 -9 3l-184 138q-4 2 -7 6v1q0 1 -1 2v10h1v1l2 2q0 1 1 2t3 2h1l1 1l183 138q2 2 5 2l4 2h3z" />
    <glyph glyph-name="logicalnot" unicode="&#xac;" horiz-adv-x="417" 
d="M407 352q0 -6 -1.5 -10t-3.5 -4q-3 0 -4.5 4t-1.5 10v126l-346 -1v29h352q4 0 5 -9v-145z" />
    <glyph glyph-name="uni00AD" unicode="&#xad;" horiz-adv-x="229" 
d="M214 462q2 0 3.5 -4t1.5 -10t-1.5 -10t-3.5 -4h-159q-2 0 -3.5 4t-1.5 10q0 12 4 14h160z" />
    <glyph glyph-name="registered" unicode="&#xae;" horiz-adv-x="0" 
 />
    <glyph glyph-name="macron" unicode="&#xaf;" horiz-adv-x="238" 
d="M222 913q3 0 4.5 -4t1.5 -10t-1.5 -10t-4.5 -4h-166q-3 0 -4.5 4t-1.5 10q0 12 5 14h167z" />
    <glyph glyph-name="degree" unicode="&#xb0;" horiz-adv-x="227" 
d="M94 731q16 -16 39.5 -16t40 16t16.5 39.5t-16.5 40t-40 16.5t-39.5 -16.5t-16 -40t16 -39.5zM217 771q0 -35 -24.5 -59.5t-58.5 -24.5q-35 0 -59.5 24.5t-24.5 59.5t24.5 60t59.5 25q34 0 58.5 -25t24.5 -60z" />
    <glyph glyph-name="glyph_121" unicode="&#xb1;" horiz-adv-x="512" 
d="M277 716q6 0 10 -4.5t4 -9.5v-197h197q5 0 9.5 -4.5t4.5 -9.5q0 -6 -4.5 -10t-9.5 -4h-197v-197q0 -5 -4 -9.5t-9.5 -4.5t-10 4.5t-4.5 9.5v197h-196l-1 -1q-6 0 -10.5 4.5t-4.5 10.5q0 5 4 9t9 5h199v196q0 10 10 14h2q1 1 2 1zM488 225q5 0 9.5 -4.5t4.5 -9.5
q0 -6 -4.5 -10t-9.5 -4h-421q-1 -1 -2 -1q-6 0 -10.5 4.5t-4.5 10.5q0 11 12 14h426z" />
    <glyph glyph-name="glyph_157" unicode="&#xb2;" horiz-adv-x="170" 
d="M113 700q20 0 33 -13t10 -34q-2 -13 -12 -26q-1 -2 -4 -4l-0.5 -1t-1 -1t-0.5 -1l-39 -39h49l1 -1h2l1 -1h1q3 -2 4 -4q0 -1 1 -1q0 -1 1 -2v-1q0 -1 1 -2v-6l-1 -1q-1 -2 -1 -3l-1 -1q-2 -3 -6 -4q-3 -1 -5 -1h-76q-2 -1 -4 -1q-4 0 -8 3h-2l-2 4v1h-1v1q-1 0 -1 1v1
q-1 2 -1 4t1 4q0 1 1 1q0 1 1 3l2 2q2 2 4 3l55 55l1 2l1 1q0 1 1 1q1 2 2 3v1q1 0 1 1h1t1 1l1 1q4 5 5 11q1 5 -4 10q-4 5 -15.5 4.5t-20.5 -7.5t-11 -16q-1 -6 4 -10q4 -4 4 -11v-2q-1 -3 -3 -6l-4 -4q-3 -2 -7 -2q-6 0 -10 5q-12 11 -12 26q0 5 1 9q4 19 21 32.5
t38 14.5h3z" />
    <glyph glyph-name="glyph_158" unicode="&#xb3;" horiz-adv-x="166" 
d="M114 701q18 0 29 -12q12 -13 5 -33q-3 -7 -10 -15q10 -6 15 -19q2 -5 3 -10v-5q0 -7 -2 -14q-1 -3 -4 -9q-8 -13 -21 -21q-4 -2 -10 -4q-4 -1 -10 -3q-5 -1 -11 -1q-11 0 -22 5q-17 6 -24 21q-2 3 -2 8q0 6 4 10t10 4q4 0 7 -2q2 -1 4 -3q1 -1 1.5 -2t0.5 -2t1 -2
q2 -4 9 -7q5 -1 7 -1q5 -1 10 0q11 3 18 10.5t7 14.5q-1 6 -8 10q-8 4 -20 1h-8l-1 1h-1q-2 1 -3 3h-1v1l-2 2v1q-1 1 -1 2v9l1 1q0 1 1 2q0 1 0.5 1t0.5 1q2 1 3 3h1q1 1 3 1h1q9 2 17 8t10 11q1 2 0 3q-2 3 -9 3q-15 -1 -27 -13q-4 -4 -5 -6v-1q0 -1 -1 -1v-2q-1 0 -1 -1
q-3 -3 -6 -5q-3 -1 -5 -1q-6 0 -10 4t-4 10q0 3 1 6q6 17 21.5 27t34.5 11h3z" />
    <glyph glyph-name="acute" unicode="&#xb4;" horiz-adv-x="170" 
d="M50 908q0 6 4 10l71 71l20 19l8 -7l1 -1q2 -1 4 -3v-2l1 -1q1 -2 1 -5v-2q0 -1 -1 -2v-2l-2 -2v-1q-1 0 -1 -1l-1 -1l-2 -2l-79 -77q-4 -6 -10 -6q-11 0 -14 11v4z" />
    <glyph glyph-name="mu" unicode="&#xb5;" horiz-adv-x="402" 
d="M50 401q0 11 11 14q2 1 3 1q6 0 10 -4t4 -10v-234q5 -64 47 -106.5t99 -41.5q55 2 95 44t45 102v17q-1 1 -1 2t1 2v214q0 11 10 14h4q5 0 9.5 -4t4.5 -10v-395q0 -6 -4.5 -10t-9.5 -4q-6 0 -10 4t-4 10v71q-23 -38 -59.5 -60.5t-79.5 -23.5q-67 -1 -117 47q-18 17 -30 37
v-263q0 -6 -4 -10t-10 -4t-10 4t-4 10v587z" />
    <glyph glyph-name="paragraph" unicode="&#xb6;" horiz-adv-x="0" 
 />
    <glyph glyph-name="periodcentered" unicode="&#xb7;" horiz-adv-x="142" 
d="M132 499q0 -17 -12.5 -29t-28.5 -12q-17 0 -29 12t-12 29t12 29t29 12q16 0 28.5 -12t12.5 -29z" />
    <glyph glyph-name="glyph_144" unicode="&#xb8;" horiz-adv-x="170" 
d="M64 24q6 0 10 -4t4 -10v-42q15 8 32 7q22 -2 37 -19q13 -15 13 -35v-4q-2 -23 -19 -38q-15 -13 -34 -13h-6q-4 0 -9 2q-7 4 -7 12q0 6 4.5 10t9.5 4h5q11 -1 19 6t9 18q0 11 -7 19.5t-18 9.5t-19 -6t-9 -18q0 -2 -1 -4v-3q0 -5 -4 -9t-10 -4t-10 4t-4 10v94q0 10 10 13h4
z" />
    <glyph glyph-name="glyph_156" unicode="&#xb9;" horiz-adv-x="100" 
d="M86 699.5q4 -4.5 4 -9.5v-124q0 -5 -4.5 -9.5t-9.5 -4.5q-6 0 -10 4.5t-4 9.5v89q-12 2 -12 13q0 4 2 7l10 19q2 7 9 9q2 1 5 1q6 0 10 -4.5z" />
    <glyph glyph-name="glyph_155" unicode="&#xba;" horiz-adv-x="210" 
d="M200 631q0 -31 -22.5 -53t-52.5 -22q-31 0 -53 22t-22 53t22 53t53 22q30 0 52.5 -22t22.5 -53zM78 631q0 -20 13.5 -33.5t33 -13.5t33 13.5t13.5 33.5t-13.5 33.5t-33 13.5t-33 -13.5t-13.5 -33.5z" />
    <glyph glyph-name="glyph_153" unicode="&#xbb;" horiz-adv-x="388" 
d="M73 453l186 -140q1 -1 2 -1q1 -1 2 -3l1 -1v-2q2 -4 2 -7q0 -8 -7 -13l-186 -140q-4 -2 -9 -2t-9.5 4t-4.5 10q0 7 6 11l173 131l-173 130q-6 4 -6 12q0 11 11 13q1 1 3 1q5 0 9 -3zM185 453l186 -140l1 -1h1q1 -1 2 -3l1 -1v-2q2 -4 2 -7q0 -8 -7 -13l-186 -140
q-4 -2 -9 -2t-9.5 4t-4.5 10q0 7 6 11l173 131l-173 130q-6 4 -6 12q0 11 11 13q1 1 3 1q5 0 9 -3z" />
    <glyph glyph-name="glyph_91" unicode="&#xbc;" horiz-adv-x="650" 
d="M185 859q3 0 5 -1q1 -1 2 -1h1l2 -2h1q1 0 1 -1v-1q2 -1 3 -3v-2h1v-341q0 -5 -4 -9.5t-10 -4.5t-10 4.5t-4 9.5v311l-65 -42q-4 -2 -8 -2q-6 0 -10 4t-4 10q0 8 6 12l83 53q3 3 6 4q1 0 2 1q1 0 1 1h1zM626 859q5 0 9.5 -4.5t4.5 -9.5t-4 -9l-560 -840q-4 -7 -11 -7
q-6 0 -10.5 4.5t-4.5 10.5q0 4 3 8l560 840q3 4 9 6q1 0 3 1h1zM586 355q0 -1 1 -1h1l1 -1h2v-1h1q0 -1 0.5 -1t1.5 -1t1 -3q1 -2 2 -3v-233h24q6 0 10 -4t4 -10t-4 -10t-10 -4h-24v-80q0 -5 -4 -9.5t-10 -4.5t-10 4.5t-4 9.5v80h-150q-3 -1 -7 -1q-5 0 -9.5 4t-4.5 10v4
q1 0 1 1v2q2 4 6 7l164 234q2 5 6 8l4 2h1v1h6zM440 111h129v184z" />
    <glyph glyph-name="glyph_92" unicode="&#xbd;" horiz-adv-x="650" 
d="M185 859q3 0 5 -1q1 -1 2 -1h1q2 -1 3 -3h1q2 -2 3 -4v-2h1v-341q0 -5 -4 -9.5t-10 -4.5t-10 4.5t-4 9.5v311l-66 -42q-4 -3 -8 -3q-6 0 -10 4.5t-4 9.5q0 9 7 13l83 53q2 2 4 3l4 2q1 0 1 1h1zM626 859q5 0 9.5 -4.5t4.5 -9.5t-4 -9l-560 -840q-4 -7 -11 -7
q-6 0 -10.5 4.5t-4.5 10.5q0 4 3 8l560 840q3 4 9 6q1 0 3 1h1zM597 324q25 -30 20.5 -72t-34.5 -74l-2 -2l-1 -1l-123 -157h153q6 0 10 -4.5t4 -10t-4 -9.5t-10 -4h-186q-12 1 -12 14q0 9 9 13l138 177h1q1 2 2 3l0.5 0.5l0.5 0.5q1 2 3 3q20 26 23 56t-13 49
q-17 21 -48.5 19.5t-58 -26.5t-31.5 -59t13 -55q3 -4 3 -9q0 -6 -4 -10t-10 -4q-7 0 -11 5q-26 32 -19.5 76t40.5 77q35 32 78 34q43 1 69 -30z" />
    <glyph glyph-name="glyph_93" unicode="&#xbe;" horiz-adv-x="660" 
d="M646 846.5q4 -4.5 4 -9.5t-3 -9l-560 -840q-4 -7 -12 -7q-6 0 -10 4.5t-4 10.5q0 4 2 8l560 840q3 4 9 6q2 0 4 1q6 0 10 -4.5zM177 850q36 0 55 -25q20 -27 8 -65q-11 -36 -45 -63q26 -8 42.5 -29t19.5 -49q4 -44 -23 -81.5t-71 -48.5q-36 -9 -67.5 6.5t-44.5 48.5
q-1 3 -1 6q0 6 4 10t10 4q10 0 13 -10q9 -24 31 -34.5t49 -3.5q33 9 54 38.5t18 61.5t-27 48t-56 8h-1q-1 0 -1.5 -0.5l-0.5 -0.5h-3q-6 0 -10 4t-4 10q0 7 6 12h1q2 1 3 1q0 1 1 1h2q24 7 45.5 27t28.5 42q8 25 -4 40q-11 15 -35 14q-27 -2 -54.5 -23.5t-36.5 -47.5
q0 -6 -4 -9.5t-9 -3.5q-6 0 -10 4t-4 10q0 4 1 7q12 36 44.5 62t70.5 29h5zM594 347q5 -1 9 -4v-1l2 -2q3 -4 3 -9q0 -2 -1 -5v-223h24q5 0 9.5 -4t4.5 -10t-4.5 -10t-9.5 -4h-24v-80q0 -5 -4 -9.5t-10 -4.5t-10 4.5t-4 9.5v80h-160q0 1 -1 1h-1l-1 1q-1 1 -3 2v1h-1v1h-1v3
h-1q-1 2 -1 4v3q1 5 4 9l1 1q1 0 1 1l164 234q2 8 9 10q1 0 2 1h4zM451 103h128v183z" />
    <glyph glyph-name="glyph_135" unicode="&#xbf;" horiz-adv-x="434" 
d="M50 179q0 75 53 130t128 57h6q49 0 84 34.5t35 83.5t-35 83.5t-84.5 34.5t-84 -34.5t-34.5 -83.5q0 -6 -4 -10t-9.5 -4t-10 4t-4.5 10q0 60 43 103t103.5 43t104 -43t43.5 -103t-43.5 -103t-103.5 -43h-5q-64 -2 -109 -48.5t-45 -110.5q0 -66 46.5 -112.5t112.5 -46.5
t112.5 46.5t46.5 112.5q0 6 4 10t10 4t10 -4t4 -10q0 -78 -55 -132q-54 -54 -131 -54h-1q-78 0 -132.5 54t-54.5 132zM232 782q-17 0 -29 12t-12 29t12 29t29 12t28.5 -12t11.5 -29q0 -15 -9 -26.5t-23 -14.5h-8z" />
    <glyph glyph-name="Agrave" unicode="&#xc0;" 
d="M349 836l1 -1q1 0 2 -1h1v-1h1v-1h1l2 -4q0 -1 0.5 -1.5t0.5 -1.5v-2l280 -808v-5q0 -6 -4 -10t-10 -4q-10 0 -14 10l-97 282h-338l-97 -282q-4 -10 -14 -10q-6 0 -10 4t-4 10v5l280 809v1q0 1 0.5 1.5t0.5 1.5v2q1 0 1 1v1q1 0 2 1t2 1q1 2 3 2h10zM186 321h316
l-158 457zM303 1003q6 0 10 -4l71 -71l19 -20l-7 -8l-1 -1q-1 -2 -3 -4h-2l-1 -1q-2 -1 -5 -1h-2q-1 0 -2 1h-2l-2 2h-1q0 1 -1 1l-1 1l-2 2l-77 79q-6 4 -6 10q0 11 11 14h4z" />
    <glyph glyph-name="Aacute" unicode="&#xc1;" 
d="M349 836l1 -1q1 0 2 -1h1v-1h1v-1h1l2 -4q0 -1 0.5 -1.5t0.5 -1.5v-2l280 -808v-5q0 -6 -4 -10t-10 -4q-10 0 -14 10l-97 282h-338l-97 -282q-4 -10 -14 -10q-6 0 -10 4t-4 10v5l280 809v1q0 1 0.5 1.5t0.5 1.5v2q1 0 1 1v1q1 0 2 1t2 1q1 2 3 2h10zM186 321h316
l-158 457zM400 991q0 -6 -4 -10l-70 -72l-20 -19l-8 7l-1 1q-2 1 -4 3v2l-1 1q-1 2 -1 5v2q0 1 1 2v2l2 2v1q1 0 1 1l1 1l2 2l78 78q4 6 10 6q11 0 14 -11v-4z" />
    <glyph glyph-name="Acircumflex" unicode="&#xc2;" 
d="M349 836l1 -1q1 0 2 -1h1v-1h1v-1h1l2 -4q0 -1 0.5 -1.5t0.5 -1.5v-2l280 -808v-5q0 -6 -4 -10t-10 -4q-10 0 -14 10l-97 282h-338l-97 -282q-4 -10 -14 -10q-6 0 -10 4t-4 10v5l280 809v1q0 1 0.5 1.5t0.5 1.5v2q1 0 1 1v1q1 0 2 1t2 1q1 2 3 2h10zM186 321h316
l-158 457zM263 891q-11 3 -11 14q0 6 6 10l77 79l2 2l1 1q1 0 1 1h1l2 2h2q1 1 2 1h2q3 0 5 -1l1 -1h2q2 -2 3 -4l1 -1l1 -1l78 -78q5 -4 5 -10t-4.5 -10t-9.5 -4h-3q-4 1 -8 4l-71 71l-71 -71q-4 -4 -10 -4h-4z" />
    <glyph glyph-name="Atilde" unicode="&#xc3;" 
d="M349 836l1 -1q1 0 2 -1h1v-1h1v-1h1l2 -4q0 -1 0.5 -1.5t0.5 -1.5v-2l280 -808v-5q0 -6 -4 -10t-10 -4q-10 0 -14 10l-97 282h-338l-97 -282q-4 -10 -14 -10q-6 0 -10 4t-4 10v5l280 809v1q0 1 0.5 1.5t0.5 1.5v2q1 0 1 1v1q1 0 2 1t2 1q1 2 3 2h10zM186 321h316
l-158 457zM306 974q13 0 24 -6q8 -4 14 -11q1 -1 4 -6q1 -2 3 -4v-2q1 -2 1 -3v-3q1 0 1 -1v-4h1q1 -1 5 -3q8 -4 18 -2t16.5 9.5t6.5 13.5q-1 1 -1 2.5t1 2.5q-1 0 -1 0.5t1 1.5q2 8 11 9q1 1 3 1q3 0 6 -2q4 -2 6 -6l1 -1v-1q0 -1 1 -1v-2q1 -9 -2 -18q-2 -7 -4 -9
q-12 -21 -39 -27q-20 -5 -37 4q-13 7 -18 20v1l-1 1q-1 1 -1 2q-1 2 -1 5v1q0 2 -1 3h-1q-1 2 -5 4q-9 4 -18 2q-11 -3 -16.5 -10t-4.5 -13v-6q-1 -1 -1 -2v-1l-2 -2q0 -1 -1 -1q-2 -3 -4 -4q-3 -1 -6 -1q-12 0 -14 12q-4 18 8.5 34t33.5 21q6 1 9 2h4z" />
    <glyph glyph-name="Adieresis" unicode="&#xc4;" 
d="M349 836l1 -1q1 0 2 -1h1v-1h1v-1h1l2 -4q0 -1 0.5 -1.5t0.5 -1.5v-2l280 -808v-5q0 -6 -4 -10t-10 -4q-10 0 -14 10l-97 282h-338l-97 -282q-4 -10 -14 -10q-6 0 -10 4t-4 10v5l280 809v1q0 1 0.5 1.5t0.5 1.5v2q1 0 1 1v1q1 0 2 1t2 1q1 2 3 2h10zM186 321h316
l-158 457zM309 938q0 -17 -11.5 -29t-28.5 -12t-28.5 12t-11.5 29t11.5 29t28.5 12t28.5 -12t11.5 -29zM459.5 967q11.5 -12 11.5 -29t-11.5 -29t-28.5 -12t-28.5 12t-11.5 29q0 15 9 26t23 14q4 1 8 1q17 0 28.5 -12z" />
    <glyph glyph-name="Aring" unicode="&#xc5;" 
d="M349 836l1 -1q1 0 2 -1h1v-1h1v-1h1l2 -4q0 -1 0.5 -1.5t0.5 -1.5v-2l280 -808v-5q0 -6 -4 -10t-10 -4q-10 0 -14 10l-97 282h-338l-97 -282q-4 -10 -14 -10q-6 0 -10 4t-4 10v5l280 809v1q0 1 0.5 1.5t0.5 1.5v2q1 0 1 1v1q1 0 2 1t2 1q1 2 3 2h10zM186 321h316
l-158 457zM420 937q0 -31 -22.5 -53t-53 -22t-52.5 22t-22 53t22 53t53 22q30 0 52.5 -22t22.5 -53zM298 937q0 -20 13.5 -33.5t33 -13.5t33 13.5t13.5 33.5t-13.5 33.5t-33 13.5t-33 -13.5t-13.5 -33.5z" />
    <glyph glyph-name="AE" unicode="&#xc6;" horiz-adv-x="635" 
d="M348 849v-1h-4q-3 -1 -5 -3l-2 -2l-1 -1q-4 -2 -6 -7l-279 -818q-1 -2 -1 -4q0 -6 4.5 -10t9.5 -4q11 0 14 10l97 286h159v-279q0 -9 7 -13h1v-1h5q1 -1 2 -1t2 1h260q6 0 10 4t4 10q0 5 -4 9.5t-10 4.5h-250v266h250q6 0 10 4.5t4 10.5q0 5 -4 9t-10 4h-250v496h250
q6 0 10 4t4 10q0 5 -4 9.5t-10 4.5h-262q-1 0 -1 1zM334 760v-437h-149z" />
    <glyph glyph-name="Ccedilla" unicode="&#xc7;" horiz-adv-x="804" 
d="M624 17q-44 -15 -92 -20q-152 -17 -281 64q-99 63 -152 166q-49 95 -49 201q0 8 1 18q4 115 67 215q59 93 153 145.5t201 55.5h14q125 0 231 -67q6 -5 6 -13q0 -6 -4 -10t-10 -4q-5 0 -8 2q-93 59 -201 63.5t-204 -45t-155 -142.5t-63.5 -201.5t45.5 -204.5t143 -155
q121 -77 262.5 -61t242.5 117q4 3 9 3t9.5 -4t4.5 -10q0 -5 -3 -8q-62 -62 -139 -94v-36q15 8 32 7q22 -2 36.5 -19t13 -39.5t-18.5 -37.5q-15 -13 -34 -13h-6q-4 0 -9 2q-7 4 -7 12q0 6 4.5 10t9.5 4h5q11 -1 19 6t9 18q0 11 -7 19.5t-18 9.5t-19 -6t-9 -18q0 -2 -1 -4v-3
q0 -5 -4 -9t-10 -4t-10 4t-4 10v76z" />
    <glyph glyph-name="Egrave" unicode="&#xc8;" horiz-adv-x="370" 
d="M149 1004q6 0 10 -4l71 -71l19 -20l-7 -8l-1 -1q-1 -2 -3 -4h-2l-1 -1q-2 -1 -5 -1h-2q-1 0 -2 1h-2l-2 2h-1q0 1 -1 1l-1 1l-2 2l-77 79q-6 4 -6 10q0 11 11 14h4zM346 864q6 0 10 -4t4 -10t-4 -10t-10 -4h-268v-392h268q6 0 10 -4t4 -10t-4 -10t-10 -4h-268v-392h268
q6 0 10 -4t4 -10t-4 -10t-10 -4h-286q-1 1 -3 2t-3 2q0 1 -1 1v1q-1 1 -2 3t-1 5v841q0 9 8 13h288z" />
    <glyph glyph-name="Eacute" unicode="&#xc9;" horiz-adv-x="370" 
d="M137 906q0 6 4 10l70 72l20 19l8 -7l1 -1q2 -1 4 -3v-2l1 -1q1 -2 1 -5v-2q0 -1 -1 -2v-2l-2 -2v-1q-1 0 -1 -1l-1 -1l-2 -2l-78 -78q-4 -6 -10 -6q-11 0 -14 11v4zM346 864q6 0 10 -4t4 -10t-4 -10t-10 -4h-268v-392h268q6 0 10 -4t4 -10t-4 -10t-10 -4h-268v-392h268
q6 0 10 -4t4 -10t-4 -10t-10 -4h-286q-1 1 -3 2t-3 2q0 1 -1 1v1q-1 1 -2 3t-1 5v841q0 9 8 13h288z" />
    <glyph glyph-name="Ecircumflex" unicode="&#xca;" horiz-adv-x="370" 
d="M346 864q6 0 10 -4t4 -10t-4 -10t-10 -4h-268v-392h268q6 0 10 -4t4 -10t-4 -10t-10 -4h-268v-392h268q6 0 10 -4t4 -10t-4 -10t-10 -4h-286q-1 1 -3 2t-3 2q0 1 -1 1v1q-1 1 -2 3t-1 5v841q0 9 8 13h288zM123 891q-11 3 -11 14q0 6 6 10l77 79l2 2l1 1q1 0 1 1h1l2 2h2
q1 1 2 1h2q3 0 5 -1l1 -1h2q2 -2 3 -4l1 -1l1 -1l78 -78q5 -4 5 -10t-4.5 -10t-9.5 -4h-3q-4 1 -8 4l-71 71l-71 -71q-4 -4 -10 -4h-4z" />
    <glyph glyph-name="Edieresis" unicode="&#xcb;" horiz-adv-x="370" 
d="M346 864q6 0 10 -4t4 -10t-4 -10t-10 -4h-268v-392h268q6 0 10 -4t4 -10t-4 -10t-10 -4h-268v-392h268q6 0 10 -4t4 -10t-4 -10t-10 -4h-286q-1 1 -3 2t-3 2q0 1 -1 1v1q-1 1 -2 3t-1 5v841q0 9 8 13h288zM172 952q0 -17 -11.5 -29t-28.5 -12t-28.5 12t-11.5 29t11.5 29
t28.5 12t28.5 -12t11.5 -29zM322.5 981q11.5 -12 11.5 -29t-11.5 -29t-28.5 -12t-28.5 12t-11.5 29q0 15 9 26t23 14q4 1 8 1q17 0 28.5 -12z" />
    <glyph glyph-name="Igrave" unicode="&#xcc;" horiz-adv-x="175" 
d="M65 1004q6 0 10 -4l71 -71l19 -20l-7 -8l-1 -1q-1 -2 -3 -4h-2l-1 -1q-2 -1 -5 -1h-2q-1 0 -2 1h-2l-2 2h-1q0 1 -1 1l-1 1l-2 2l-77 79q-6 4 -6 10q0 11 11 14h4zM102 860q6 0 10 -4t4 -10v-840q0 -6 -4 -10t-10 -4t-10 4t-4 10v841q0 10 10 13h4z" />
    <glyph glyph-name="Iacute" unicode="&#xcd;" horiz-adv-x="169" 
d="M159 992q0 -6 -4 -10l-70 -72l-20 -19l-8 7l-1 1q-2 1 -4 3v2l-1 1q-1 2 -1 5v2q0 1 1 2v2l2 2v1q1 0 1 1l1 1l2 2l78 78q4 6 10 6q11 0 14 -11v-4zM99 860q6 0 10 -4t4 -10v-840q0 -6 -4 -10t-10 -4t-10 4t-4 10v841q0 10 10 13h4z" />
    <glyph glyph-name="Icircumflex" unicode="&#xce;" horiz-adv-x="252" 
d="M140 860q6 0 10 -4t4 -10v-840q0 -6 -4 -10t-10 -4t-10 4t-4 10v841q0 10 10 13h4zM61 893q-11 3 -11 14q0 6 6 10l77 79l2 2l1 1q1 0 1 1h1l2 2h2q1 1 2 1h2q3 0 5 -1l1 -1h2q2 -2 3 -4l1 -1l1 -1l78 -78q5 -4 5 -10t-4.5 -10t-9.5 -4h-3q-4 1 -8 4l-71 71l-71 -71
q-4 -4 -10 -4h-4z" />
    <glyph glyph-name="Idieresis" unicode="&#xcf;" horiz-adv-x="302" 
d="M166 867q6 0 10 -4t4 -10v-840q0 -6 -4 -10t-10 -4t-10 4t-4 10v841q0 10 10 13h4zM130 948q0 -17 -11.5 -29t-28.5 -12t-28.5 12t-11.5 29t11.5 29t28.5 12t28.5 -12t11.5 -29zM280.5 977q11.5 -12 11.5 -29t-11.5 -29t-28.5 -12t-28.5 12t-11.5 29q0 15 9 26t23 14
q4 1 8 1q17 0 28.5 -12z" />
    <glyph glyph-name="Eth" unicode="&#xd0;" horiz-adv-x="757" 
d="M95 442v404q-2 3 -2 6q0 10 10 14q1 0 2 1h230l1 -1h2q112 -3 206.5 -62t148.5 -158.5t54 -215.5q-1 -116 -56 -214t-149.5 -156.5t-206.5 -60.5h-232v1h-3v1h-1q-6 4 -6 12q0 3 2 6v395h-27q-8 0 -13 4t-5 10q0 12 16 14h29zM123 414v-387h212q105 2 193 56.5t139 146.5
t52 200q0 109 -51 202.5t-139 148.5t-194 58h-212v-397h277q5 0 8 -4t3 -10t-3 -10t-8 -4h-277z" />
    <glyph glyph-name="Ntilde" unicode="&#xd1;" 
d="M68 868l2 -2h1q2 -2 4 -5l2 -2v-1l533 -798v794q0 11 11 14h3q5 0 9.5 -4t4.5 -10v-842q0 -6 -4 -10t-10 -4q-4 0 -8 3t-6 8l-532 799v-795q0 -5 -4.5 -9.5t-10 -4.5t-9.5 4.5t-4 9.5v847q1 0 1 1q1 2 3 3q1 1 3 2v1q1 0 2 1h9zM325 974q13 0 24 -6q8 -4 14 -11
q1 -1 4 -6q1 -2 3 -4v-2q1 -2 1 -3v-3q1 0 1 -1v-4h1q1 -1 5 -3q8 -4 18 -2t16.5 9.5t6.5 13.5q-1 1 -1 2.5t1 2.5q-1 0 -1 0.5t1 1.5q2 8 11 9q1 1 3 1q3 0 6 -2q4 -2 6 -6l1 -1v-1q0 -1 1 -1v-2q1 -9 -2 -18q-2 -7 -4 -9q-12 -21 -39 -27q-20 -5 -37 4q-13 7 -18 20v1
l-1 1q-1 1 -1 2q-1 2 -1 5v1q0 2 -1 3h-1q-1 2 -5 4q-9 4 -18 2q-11 -3 -16.5 -10t-4.5 -13v-6q-1 -1 -1 -2v-1l-2 -2q0 -1 -1 -1q-2 -3 -4 -4q-3 -1 -6 -1q-12 0 -14 12q-4 18 8.5 34t33.5 21q6 1 9 2h4z" />
    <glyph glyph-name="Ograve" unicode="&#xd2;" horiz-adv-x="928" 
d="M791 740q58 -58 92.5 -138.5t34.5 -168.5t-34.5 -168.5t-92.5 -138.5t-138.5 -92.5t-168.5 -34.5t-168.5 34.5t-138.5 92.5t-92.5 138.5t-34.5 168.5t34.5 168.5t92.5 138.5t138.5 92.5t168.5 34.5t168.5 -34.5t138.5 -92.5zM132.5 636.5q-54.5 -93.5 -54.5 -203.5
t54.5 -203.5t148 -148t203.5 -54.5t203.5 54.5t148 148t54.5 203.5t-54.5 203.5t-148 148t-203.5 54.5t-203.5 -54.5t-148 -148zM447 1007q6 0 10 -4l71 -71l19 -20l-7 -8l-1 -1q-1 -2 -3 -4h-2l-1 -1q-2 -1 -5 -1h-2q-1 0 -2 1h-2l-2 2h-1q0 1 -1 1l-1 1l-2 2l-77 79
q-6 4 -6 10q0 11 11 14h4z" />
    <glyph glyph-name="glyph_75" unicode="&#xd3;" horiz-adv-x="928" 
d="M588 950q6 0 10 -4t4 -10t-4 -10l-67 -67q108 -11 196.5 -71t139.5 -155t51 -205q0 -88 -34.5 -168.5t-92.5 -138.5t-138.5 -92.5t-168.5 -34.5t-168.5 34.5t-138.5 92.5t-92.5 138.5t-34.5 168.5t34.5 168.5t92.5 138.5t138.5 92.5t168.5 34.5q2 0 5 -0.5t5 -0.5l84 84
q2 3 5 5h5zM270 773q-89 -55 -140.5 -146.5t-51.5 -198.5q0 -110 54.5 -203.5t148 -148t203.5 -54.5t203.5 54.5t148 148t54.5 203.5q0 107 -51 198t-139.5 146.5t-194.5 60.5l-47 -47q-4 -6 -11 -6q-6 0 -10 4.5t-4 9.5q0 7 5 11l28 28q-107 -5 -196 -60z" />
    <glyph glyph-name="Ocircumflex" unicode="&#xd4;" horiz-adv-x="928" 
d="M791 740q58 -58 92.5 -138.5t34.5 -168.5t-34.5 -168.5t-92.5 -138.5t-138.5 -92.5t-168.5 -34.5t-168.5 34.5t-138.5 92.5t-92.5 138.5t-34.5 168.5t34.5 168.5t92.5 138.5t138.5 92.5t168.5 34.5t168.5 -34.5t138.5 -92.5zM132.5 636.5q-54.5 -93.5 -54.5 -203.5
t54.5 -203.5t148 -148t203.5 -54.5t203.5 54.5t148 148t54.5 203.5t-54.5 203.5t-148 148t-203.5 54.5t-203.5 -54.5t-148 -148zM404 889q-11 3 -11 14q0 6 6 10l77 79l2 2l1 1q1 0 1 1h1l2 2h2q1 1 2 1h2q3 0 5 -1l1 -1h2q2 -2 3 -4l1 -1l1 -1l78 -78q5 -4 5 -10t-4.5 -10
t-9.5 -4h-3q-4 1 -8 4l-71 71l-71 -71q-4 -4 -10 -4h-4z" />
    <glyph glyph-name="Otilde" unicode="&#xd5;" horiz-adv-x="928" 
d="M791 740q58 -58 92.5 -138.5t34.5 -168.5t-34.5 -168.5t-92.5 -138.5t-138.5 -92.5t-168.5 -34.5t-168.5 34.5t-138.5 92.5t-92.5 138.5t-34.5 168.5t34.5 168.5t92.5 138.5t138.5 92.5t168.5 34.5t168.5 -34.5t138.5 -92.5zM132.5 636.5q-54.5 -93.5 -54.5 -203.5
t54.5 -203.5t148 -148t203.5 -54.5t203.5 54.5t148 148t54.5 203.5t-54.5 203.5t-148 148t-203.5 54.5t-203.5 -54.5t-148 -148zM466 980q13 0 24 -6q8 -4 14 -11q1 -1 4 -6q1 -2 3 -4v-2q1 -2 1 -3v-3q1 0 1 -1v-4h1q1 -1 5 -3q8 -4 18 -2t16.5 9.5t6.5 13.5q-1 1 -1 2.5
t1 2.5q-1 0 -1 0.5t1 1.5q2 8 11 9q1 1 3 1q3 0 6 -2q4 -2 6 -6l1 -1v-1q0 -1 1 -1v-2q1 -9 -2 -18q-2 -7 -4 -9q-12 -21 -39 -27q-20 -5 -37 4q-13 7 -18 20v1l-1 1q-1 1 -1 2q-1 2 -1 5v1q0 2 -1 3h-1q-1 2 -5 4q-9 4 -18 2q-11 -3 -16.5 -10t-4.5 -13v-6q-1 -1 -1 -2v-1
l-2 -2q0 -1 -1 -1q-2 -3 -4 -4q-3 -1 -6 -1q-12 0 -14 12q-4 18 8.5 34t33.5 21q6 1 9 2h4z" />
    <glyph glyph-name="Odieresis" unicode="&#xd6;" horiz-adv-x="928" 
d="M791 740q58 -58 92.5 -138.5t34.5 -168.5t-34.5 -168.5t-92.5 -138.5t-138.5 -92.5t-168.5 -34.5t-168.5 34.5t-138.5 92.5t-92.5 138.5t-34.5 168.5t34.5 168.5t92.5 138.5t138.5 92.5t168.5 34.5t168.5 -34.5t138.5 -92.5zM132.5 636.5q-54.5 -93.5 -54.5 -203.5
t54.5 -203.5t148 -148t203.5 -54.5t203.5 54.5t148 148t54.5 203.5t-54.5 203.5t-148 148t-203.5 54.5t-203.5 -54.5t-148 -148zM455 945q0 -17 -11.5 -29t-28.5 -12t-28.5 12t-11.5 29t11.5 29t28.5 12t28.5 -12t11.5 -29zM605.5 974q11.5 -12 11.5 -29t-11.5 -29
t-28.5 -12t-28.5 12t-11.5 29q0 15 9 26t23 14q4 1 8 1q17 0 28.5 -12z" />
    <glyph glyph-name="glyph_122" unicode="&#xd7;" horiz-adv-x="386" 
d="M65 568q6 0 10 -4l138 -138l138 138q4 4 9 4h2q6 0 10 -4t4 -10t-5 -10l-138 -139l138 -139q5 -4 5 -10t-4 -10t-10 -4t-11 5l-138 138l-138 -138q-4 -5 -11 -5q-6 0 -10 4t-4 10t5 10l138 139l-138 139q-5 4 -5 10q0 12 11 14h4z" />
    <glyph glyph-name="Oslash" unicode="&#xd8;" horiz-adv-x="898" 
d="M629.5 813.5q76.5 -32.5 134.5 -90.5l99 101q4 4 8 5h3q5 0 9.5 -4.5t4.5 -9.5q0 -7 -5 -11l-101 -101q105 -121 105 -280q0 -115 -56 -212.5t-152.5 -154t-209.5 -56.5q-158 0 -277 106l-118 -120q-4 -4 -10 -4t-10 4t-4 10t4 10l117 118q-57 58 -89 135.5t-32 163.5
q0 114 56 211.5t152.5 154.5t210.5 57q84 0 160.5 -32.5zM272.5 765q-90.5 -53 -142.5 -144t-52 -198q0 -81 30 -152.5t83 -126.5l552 559q-53 55 -124 85t-150 30q-106 0 -196.5 -53zM212 125q111 -97 257 -97q106 0 196 52.5t142 143.5t52 199q0 147 -97 259z" />
    <glyph glyph-name="Ugrave" unicode="&#xd9;" 
d="M64 864q6 0 10 -4t4 -10v-632q1 -79 78 -136q79 -59 190 -58q111 0 189 59q76 58 75 138v629q0 12 11 14h3q6 0 10 -4t4 -10v-644q0 -3 -2 -6v-2q-10 -80 -84 -136q-85 -65 -206 -66h-4q-118 0 -203 63q-77 57 -87 140v1h-0.5t-0.5 1v1q-1 2 -1 4v645q0 10 10 13h4z
M301 1003q6 0 10 -4l71 -71l19 -20l-7 -8l-1 -1q-1 -2 -3 -4h-2l-1 -1q-2 -1 -5 -1h-2q-1 0 -2 1h-2l-2 2h-1q0 1 -1 1l-1 1l-2 2l-77 79q-6 4 -6 10q0 11 11 14h4z" />
    <glyph glyph-name="Uacute" unicode="&#xda;" 
d="M64 864q6 0 10 -4t4 -10v-632q1 -79 78 -136q79 -59 190 -58q111 0 189 59q76 58 75 138v629q0 12 11 14h3q6 0 10 -4t4 -10v-644q0 -3 -2 -6v-2q-10 -80 -84 -136q-85 -65 -206 -66h-4q-118 0 -203 63q-77 57 -87 140v1h-0.5t-0.5 1v1q-1 2 -1 4v645q0 10 10 13h4z
M399 990q0 -6 -4 -10l-72 -70l-20 -19l-8 7l-1 1q-2 1 -4 3v2l-1 1q-1 2 -1 5v2q0 1 1 2v2l2 2v1q1 0 1 1l1 1l2 2l80 76q4 6 10 6q11 0 14 -11v-4z" />
    <glyph glyph-name="Ucircumflex" unicode="&#xdb;" 
d="M64 864q6 0 10 -4t4 -10v-632q1 -79 78 -136q79 -59 190 -58q111 0 189 59q76 58 75 138v629q0 12 11 14h3q6 0 10 -4t4 -10v-644q0 -3 -2 -6v-2q-10 -80 -84 -136q-85 -65 -206 -66h-4q-118 0 -203 63q-77 57 -87 140v1h-0.5t-0.5 1v1q-1 2 -1 4v645q0 10 10 13h4z
M248 895q-11 3 -11 14q0 6 6 10l77 79l2 2l1 1q1 0 1 1h1l2 2h2q1 1 2 1h2q3 0 5 -1l1 -1h2q2 -2 3 -4l1 -1l1 -1l78 -78q5 -4 5 -10t-4.5 -10t-9.5 -4h-3q-4 1 -8 4l-71 71l-71 -71q-4 -4 -10 -4h-4z" />
    <glyph glyph-name="Udieresis" unicode="&#xdc;" 
d="M64 864q6 0 10 -4t4 -10v-632q1 -79 78 -136q79 -59 190 -58q111 0 189 59q76 58 75 138v629q0 12 11 14h3q6 0 10 -4t4 -10v-644q0 -3 -2 -6v-2q-10 -80 -84 -136q-85 -65 -206 -66h-4q-118 0 -203 63q-77 57 -87 140v1h-0.5t-0.5 1v1q-1 2 -1 4v645q0 10 10 13h4z
M295 949q0 -17 -11.5 -29t-28.5 -12t-28.5 12t-11.5 29t11.5 29t28.5 12t28.5 -12t11.5 -29zM445.5 978q11.5 -12 11.5 -29t-11.5 -29t-28.5 -12t-28.5 12t-11.5 29q0 15 9 26t23 14q4 1 8 1q17 0 28.5 -12z" />
    <glyph glyph-name="Yacute" unicode="&#xdd;" horiz-adv-x="650" 
d="M626 857q5 0 9.5 -4.5t4.5 -9.5t-3 -9l-279 -418v-415q0 -5 -4 -9.5t-9 -4.5q-6 0 -10.5 4.5t-4.5 9.5v416l-277 417q-3 3 -3 8q0 11 12 14h3q7 0 12 -6l268 -403l268 403q3 4 9 6q1 0 3 1h1zM398 990q0 -6 -4 -10l-72 -70l-20 -19l-8 7l-1 1q-2 1 -4 3v2l-1 1q-1 2 -1 5
v2q0 1 1 2v2l2 2v1q1 0 1 1l1 1l2 2l80 76q4 6 10 6q11 0 14 -11v-4z" />
    <glyph glyph-name="germandbls" unicode="&#xdf;" horiz-adv-x="324" 
d="M263 721q35 -48 35 -113.5t-35 -113.5q-16 -23 -42 -37q32 -19 55 -60q38 -67 38 -162v-5q-1 -95 -39 -162q-41 -70 -103 -72q-6 0 -10 4t-4 9.5t4 10t9 4.5q46 1 79 58q35 61 36 149q1 89 -35 152q-32 57 -76 61h-5q-2 0 -5 1h-2q-16 3 -27 7q-9 4 -9 14q0 6 4 10t10 4
q4 0 7 -2q12 -6 23 -6h4q38 0 66 38q29 41 29 97.5t-29 96.5q-28 38 -66 38t-66 -38t-29 -95q1 0 1 -0.5t-1 -1.5h1l-1 -1l-2 -886q0 -6 -4 -10t-10 -4t-10 4t-4 10l2 885v6q2 64 35 110q36 49 88 49q53 0 88 -49z" />
    <glyph glyph-name="agrave" unicode="&#xe0;" horiz-adv-x="454" 
d="M178.5 228.5q-44.5 -18.5 -72.5 -50.5q-36 -43 -26 -85q2 -10 7 -19q15 -29 52 -43q51 -21 115.5 -4t101.5 61q1 2 3 3v121q-13 12 -36 22q-26 11 -56 11q-44 2 -88.5 -16.5zM234 422q35 -2 63 -13q37 -13 60.5 -37.5t28.5 -53.5v-2q1 -1 1 -4v-260q1 -12 11 -18
q12 -10 31 -10h1q5 0 9.5 -4t4.5 -9q0 -6 -4.5 -10t-9.5 -4h-1q-28 0 -48 15q-18 14 -21 35v3h-1v1l-2.5 -2.5t-2.5 -1.5q-12 -9 -28 -20q-31 -19 -64 -27q-14 -3 -34 -6q-12 -1 -23 -1q-41 0 -77 14q-62 24 -75 80q-3 13 -3 25q0 43 35 83q32 38 82 58.5t101 18.5
q36 -1 65 -13q12 -5 25 -12h1v58q0 24 -19 45.5t-52 33.5q-53 19 -110 7t-84 -45q-4 -5 -11 -5q-6 0 -10 3.5t-4 9.5q0 5 3 9q22 28 59 43.5t80 16.5q8 0 23 -1zM191 552q6 0 10 -4l71 -71l19 -20l-7 -8l-1 -1q-1 -2 -3 -4h-2l-1 -1q-2 -1 -5 -1h-2q-1 0 -2 1h-2l-2 2h-1
q0 1 -1 1l-1 1l-2 2l-77 79q-6 4 -6 10q0 11 11 14h4z" />
    <glyph glyph-name="aacute" unicode="&#xe1;" horiz-adv-x="454" 
d="M178.5 228.5q-44.5 -18.5 -72.5 -50.5q-36 -43 -26 -85q2 -10 7 -19q15 -29 52 -43q51 -21 115.5 -4t101.5 61q1 2 3 3v121q-13 12 -36 22q-26 11 -56 11q-44 2 -88.5 -16.5zM234 422q35 -2 63 -13q37 -13 60.5 -37.5t28.5 -53.5v-2q1 -1 1 -4v-260q1 -12 11 -18
q12 -10 31 -10h1q5 0 9.5 -4t4.5 -9q0 -6 -4.5 -10t-9.5 -4h-1q-28 0 -48 15q-18 14 -21 35v3h-1v1l-2.5 -2.5t-2.5 -1.5q-12 -9 -28 -20q-31 -19 -64 -27q-14 -3 -34 -6q-12 -1 -23 -1q-41 0 -77 14q-62 24 -75 80q-3 13 -3 25q0 43 35 83q32 38 82 58.5t101 18.5
q36 -1 65 -13q12 -5 25 -12h1v58q0 24 -19 45.5t-52 33.5q-53 19 -110 7t-84 -45q-4 -5 -11 -5q-6 0 -10 3.5t-4 9.5q0 5 3 9q22 28 59 43.5t80 16.5q8 0 23 -1zM179 454q0 6 4 10l70 72l20 19l8 -7l1 -1q2 -1 4 -3v-2l1 -1q1 -2 1 -5v-2q0 -1 -1 -2v-2l-2 -2v-1q-1 0 -1 -1
l-1 -1l-2 -2l-78 -78q-4 -6 -10 -6q-11 0 -14 11v4z" />
    <glyph glyph-name="acircumflex" unicode="&#xe2;" horiz-adv-x="454" 
d="M178.5 228.5q-44.5 -18.5 -72.5 -50.5q-36 -43 -26 -85q2 -10 7 -19q15 -29 52 -43q51 -21 115.5 -4t101.5 61q1 2 3 3v121q-13 12 -36 22q-26 11 -56 11q-44 2 -88.5 -16.5zM234 422q35 -2 63 -13q37 -13 60.5 -37.5t28.5 -53.5v-2q1 -1 1 -4v-260q1 -12 11 -18
q12 -10 31 -10h1q5 0 9.5 -4t4.5 -9q0 -6 -4.5 -10t-9.5 -4h-1q-28 0 -48 15q-18 14 -21 35v3h-1v1l-2.5 -2.5t-2.5 -1.5q-12 -9 -28 -20q-31 -19 -64 -27q-14 -3 -34 -6q-12 -1 -23 -1q-41 0 -77 14q-62 24 -75 80q-3 13 -3 25q0 43 35 83q32 38 82 58.5t101 18.5
q36 -1 65 -13q12 -5 25 -12h1v58q0 24 -19 45.5t-52 33.5q-53 19 -110 7t-84 -45q-4 -5 -11 -5q-6 0 -10 3.5t-4 9.5q0 5 3 9q22 28 59 43.5t80 16.5q8 0 23 -1zM143 445q-11 3 -11 14q0 6 6 10l77 79l2 2l1 1q1 0 1 1h1l2 2h2q1 1 2 1h2q3 0 5 -1l1 -1h2q2 -2 3 -4l1 -1
l1 -1l78 -78q5 -4 5 -10t-4.5 -10t-9.5 -4h-3q-4 1 -8 4l-71 71l-71 -71q-4 -4 -10 -4h-4z" />
    <glyph glyph-name="atilde" unicode="&#xe3;" horiz-adv-x="454" 
d="M178.5 228.5q-44.5 -18.5 -72.5 -50.5q-36 -43 -26 -85q2 -10 7 -19q15 -29 52 -43q51 -21 115.5 -4t101.5 61q1 2 3 3v121q-13 12 -36 22q-26 11 -56 11q-44 2 -88.5 -16.5zM234 422q35 -2 63 -13q37 -13 60.5 -37.5t28.5 -53.5v-2q1 -1 1 -4v-260q1 -12 11 -18
q12 -10 31 -10h1q5 0 9.5 -4t4.5 -9q0 -6 -4.5 -10t-9.5 -4h-1q-28 0 -48 15q-18 14 -21 35v3h-1v1l-2.5 -2.5t-2.5 -1.5q-12 -9 -28 -20q-31 -19 -64 -27q-14 -3 -34 -6q-12 -1 -23 -1q-41 0 -77 14q-62 24 -75 80q-3 13 -3 25q0 43 35 83q32 38 82 58.5t101 18.5
q36 -1 65 -13q12 -5 25 -12h1v58q0 24 -19 45.5t-52 33.5q-53 19 -110 7t-84 -45q-4 -5 -11 -5q-6 0 -10 3.5t-4 9.5q0 5 3 9q22 28 59 43.5t80 16.5q8 0 23 -1zM189 543q13 0 24 -6q8 -4 14 -11q1 -1 4 -6q1 -2 3 -4v-2q1 -2 1 -3v-3q1 0 1 -1v-4h1q1 -1 5 -3q8 -4 18 -2
t16.5 9.5t6.5 13.5q-1 1 -1 2.5t1 2.5q-1 0 -1 0.5t1 1.5q2 8 11 9q1 1 3 1q3 0 6 -2q4 -2 6 -6l1 -1v-1q0 -1 1 -1v-2q1 -9 -2 -18q-2 -7 -4 -9q-12 -21 -39 -27q-20 -5 -37 4q-13 7 -18 20v1l-1 1q-1 1 -1 2q-1 2 -1 5v1q0 2 -1 3h-1q-1 2 -5 4q-9 4 -18 2
q-11 -3 -16.5 -10t-4.5 -13v-6q-1 -1 -1 -2v-1l-2 -2q0 -1 -1 -1q-2 -3 -4 -4q-3 -1 -6 -1q-12 0 -14 12q-4 18 8.5 34t33.5 21q6 1 9 2h4z" />
    <glyph glyph-name="adieresis" unicode="&#xe4;" horiz-adv-x="454" 
d="M178.5 228.5q-44.5 -18.5 -72.5 -50.5q-36 -43 -26 -85q2 -10 7 -19q15 -29 52 -43q51 -21 115.5 -4t101.5 61q1 2 3 3v121q-13 12 -36 22q-26 11 -56 11q-44 2 -88.5 -16.5zM234 422q35 -2 63 -13q37 -13 60.5 -37.5t28.5 -53.5v-2q1 -1 1 -4v-260q1 -12 11 -18
q12 -10 31 -10h1q5 0 9.5 -4t4.5 -9q0 -6 -4.5 -10t-9.5 -4h-1q-28 0 -48 15q-18 14 -21 35v3h-1v1l-2.5 -2.5t-2.5 -1.5q-12 -9 -28 -20q-31 -19 -64 -27q-14 -3 -34 -6q-12 -1 -23 -1q-41 0 -77 14q-62 24 -75 80q-3 13 -3 25q0 43 35 83q32 38 82 58.5t101 18.5
q36 -1 65 -13q12 -5 25 -12h1v58q0 24 -19 45.5t-52 33.5q-53 19 -110 7t-84 -45q-4 -5 -11 -5q-6 0 -10 3.5t-4 9.5q0 5 3 9q22 28 59 43.5t80 16.5q8 0 23 -1zM179 503q0 -17 -11.5 -29t-28.5 -12t-28.5 12t-11.5 29t11.5 29t28.5 12t28.5 -12t11.5 -29zM329.5 532
q11.5 -12 11.5 -29t-11.5 -29t-28.5 -12t-28.5 12t-11.5 29q0 15 9 26t23 14q4 1 8 1q17 0 28.5 -12z" />
    <glyph glyph-name="aring" unicode="&#xe5;" horiz-adv-x="454" 
d="M178.5 228.5q-44.5 -18.5 -72.5 -50.5q-36 -43 -26 -85q2 -10 7 -19q15 -29 52 -43q51 -21 115.5 -4t101.5 61q1 2 3 3v121q-13 12 -36 22q-26 11 -56 11q-44 2 -88.5 -16.5zM234 422q35 -2 63 -13q37 -13 60.5 -37.5t28.5 -53.5v-2q1 -1 1 -4v-260q1 -12 11 -18
q12 -10 31 -10h1q5 0 9.5 -4t4.5 -9q0 -6 -4.5 -10t-9.5 -4h-1q-28 0 -48 15q-18 14 -21 35v3h-1v1l-2.5 -2.5t-2.5 -1.5q-12 -9 -28 -20q-31 -19 -64 -27q-14 -3 -34 -6q-12 -1 -23 -1q-41 0 -77 14q-62 24 -75 80q-3 13 -3 25q0 43 35 83q32 38 82 58.5t101 18.5
q36 -1 65 -13q12 -5 25 -12h1v58q0 24 -19 45.5t-52 33.5q-53 19 -110 7t-84 -45q-4 -5 -11 -5q-6 0 -10 3.5t-4 9.5q0 5 3 9q22 28 59 43.5t80 16.5q8 0 23 -1zM276 516.5q0 -22.5 -14.5 -38.5t-34.5 -16t-34.5 16t-14.5 38.5t14.5 38.5t34.5 16t34.5 -16t14.5 -38.5z
M196 516.5q0 -14.5 9 -24.5t21.5 -10t21.5 10t9 24.5t-9 24.5t-21.5 10t-21.5 -10t-9 -24.5z" />
    <glyph glyph-name="ae" unicode="&#xe6;" horiz-adv-x="685" 
d="M490 392q-58 -7 -95 -66q-26 -41 -31 -97q3 -4 3 -8h279q-4 81 -53 132q-39 41 -89 40q-8 0 -14 -1zM105 180q-34 -41 -25 -81.5t55 -59.5q47 -19 105.5 -4t94.5 54v97q-1 11 -1 14q-2 3 -2 6.5t2 7.5v4q-13 10 -27 16q-24 9 -52 10q-42 1 -83.5 -16.5t-66.5 -47.5z
M614 372q58 -61 61 -156q0 -2 -1 -4v-2q1 -2 1 -3q0 -6 -4 -10t-10 -4h-297q4 -82 52 -132q46 -47 102 -40q58 8 96 67q4 7 12 7q6 0 10 -4t4 -10q0 -5 -3 -8q-44 -70 -114 -79q-10 -1 -19 -1q-60 0 -108 49q-18 19 -32 43q0 -3 -2 -6q-1 -1 -1 -2l-2 -2q0 -1 -1 -2l-2 -1
q-1 -1 -2 -1q-42 -47 -107 -64q-28 -7 -55 -7q-35 0 -67 12q-60 25 -72 80q-3 12 -3 24q0 42 33 82q30 37 77 57t96 18q33 -1 62 -13q6 -3 17 -9v68q-11 40 -66 61q-49 18 -102 7t-78 -43q-4 -8 -13 -8q-6 0 -10 4t-4 10t5 11q24 31 66 47q32 12 68 12q10 0 19 -1
q30 -2 60 -13q54 -20 75 -63l1 -1q7 -4 7 -12v-3q0 1 8 14q45 70 116 79q8 1 17 1q62 0 110 -49z" />
    <glyph glyph-name="ccedilla" unicode="&#xe7;" horiz-adv-x="441" 
d="M349 15v-34q15 8 32 7q22 -2 37 -19q13 -15 13 -35v-4q-2 -23 -19 -38q-15 -13 -34 -13h-6q-4 0 -9 2q-7 4 -7 12q0 6 4.5 10t9.5 4h5q11 -1 19 6t9 18q0 11 -7 19.5t-18 9.5t-19 -6t-9 -18q0 -2 -1 -4v-3q0 -5 -4 -9t-10 -4t-10 4t-4 10v74q-19 -5 -40 -8
q-86 -9 -153.5 46t-76.5 143q-1 12 -1 24q0 73 47 131q54 67 142 76q8 1 19 1h3q73 0 130 -47q12 -10 19 -17q4 -5 4 -10q0 -7 -4 -11t-10 -4q-7 0 -11 4q-2 2 -5 5.5t-5.5 6.5t-5.5 5q-58 48 -132.5 40t-122 -67t-40 -134.5t66 -123.5t133 -40t122.5 67q4 6 11 6
q6 0 10.5 -4t4.5 -10t-4 -10q-31 -39 -73 -58z" />
    <glyph glyph-name="egrave" unicode="&#xe8;" horiz-adv-x="478" 
d="M118 318q-36 -44 -40 -101h361q-6 78 -66 127q-51 42 -116 41q-85 0 -139 -67zM391 366q35 -28 55 -68.5t22 -86.5q0 -2 -1 -4v-2q1 -1 1 -2q0 -6 -4 -10t-10 -4h-376q6 -79 66 -129q59 -48 133.5 -40.5t121.5 66.5q4 5 11 5q6 0 10 -4t4 -10q0 -4 -3 -8
q-55 -68 -141 -76q-12 -1 -23 -1q-72 0 -130 47q-37 30 -56.5 72.5t-20.5 88.5v7q1 73 46 129q54 67 141 76q7 0 20 1q77 0 134 -47zM206 552q6 0 10 -4l71 -71l19 -20l-7 -8l-1 -1q-1 -2 -3 -4h-2l-1 -1q-2 -1 -5 -1h-2q-1 0 -2 1h-2l-2 2h-1q0 1 -1 1l-1 1l-2 2l-77 79
q-6 4 -6 10q0 11 11 14h4z" />
    <glyph glyph-name="eacute" unicode="&#xe9;" horiz-adv-x="478" 
d="M118 318q-36 -44 -40 -101h361q-6 78 -66 127q-51 42 -116 41q-85 0 -139 -67zM391 366q35 -28 55 -68.5t22 -86.5q0 -2 -1 -4v-2q1 -1 1 -2q0 -6 -4 -10t-10 -4h-376q6 -79 66 -129q59 -48 133.5 -40.5t121.5 66.5q4 5 11 5q6 0 10 -4t4 -10q0 -4 -3 -8
q-55 -68 -141 -76q-12 -1 -23 -1q-72 0 -130 47q-37 30 -56.5 72.5t-20.5 88.5v7q1 73 46 129q54 67 141 76q7 0 20 1q77 0 134 -47zM196 451q0 6 3 11l67 75l19 20l9 -7l1 -1q2 -1 4 -3v-2h1q1 -2 1 -5v-2q0 -1 -1 -2v-1l1 -1q-1 -2 -2 -3v-1q-1 0 -1 -1l-1 -1l-2 -2
l-74 -81q-4 -6 -10 -7q-11 0 -15 10v4z" />
    <glyph glyph-name="ecircumflex" unicode="&#xea;" horiz-adv-x="478" 
d="M118 318q-36 -44 -40 -101h361q-6 78 -66 127q-51 42 -116 41q-85 0 -139 -67zM391 366q35 -28 55 -68.5t22 -86.5q0 -2 -1 -4v-2q1 -1 1 -2q0 -6 -4 -10t-10 -4h-376q6 -79 66 -129q59 -48 133.5 -40.5t121.5 66.5q4 5 11 5q6 0 10 -4t4 -10q0 -4 -3 -8
q-55 -68 -141 -76q-12 -1 -23 -1q-72 0 -130 47q-37 30 -56.5 72.5t-20.5 88.5v7q1 73 46 129q54 67 141 76q7 0 20 1q77 0 134 -47zM185 441q-11 3 -11 14q0 6 6 10l77 79l2 2l1 1q1 0 1 1h1l2 2h2q1 1 2 1h2q3 0 5 -1l1 -1h2q2 -2 3 -4l1 -1l1 -1l78 -78q5 -4 5 -10
t-4.5 -10t-9.5 -4h-3q-4 1 -8 4l-71 71l-71 -71q-4 -4 -10 -4h-4z" />
    <glyph glyph-name="edieresis" unicode="&#xeb;" horiz-adv-x="478" 
d="M118 318q-36 -44 -40 -101h361q-6 78 -66 127q-51 42 -116 41q-85 0 -139 -67zM391 366q35 -28 55 -68.5t22 -86.5q0 -2 -1 -4v-2q1 -1 1 -2q0 -6 -4 -10t-10 -4h-376q6 -79 66 -129q59 -48 133.5 -40.5t121.5 66.5q4 5 11 5q6 0 10 -4t4 -10q0 -4 -3 -8
q-55 -68 -141 -76q-12 -1 -23 -1q-72 0 -130 47q-37 30 -56.5 72.5t-20.5 88.5v7q1 73 46 129q54 67 141 76q7 0 20 1q77 0 134 -47zM225 501q0 -17 -11.5 -29t-28.5 -12t-28.5 12t-11.5 29t11.5 29t28.5 12t28.5 -12t11.5 -29zM375.5 530q11.5 -12 11.5 -29t-11.5 -29
t-28.5 -12t-28.5 12t-11.5 29q0 15 9 26t23 14q4 1 8 1q17 0 28.5 -12z" />
    <glyph glyph-name="igrave" unicode="&#xec;" horiz-adv-x="175" 
d="M103 424q6 0 10 -4t4 -10v-395q0 -6 -4 -10t-10 -4t-10 4t-4 10v395q0 11 10 14h4zM65 579q6 0 10 -4l71 -71l19 -20l-7 -8l-1 -1q-1 -2 -3 -4h-2l-1 -1q-2 -1 -5 -1h-2q-1 0 -2 1h-2l-2 2h-1q0 1 -1 1l-1 1l-2 2l-77 79q-6 4 -6 10q0 11 11 14h4z" />
    <glyph glyph-name="iacute" unicode="&#xed;" horiz-adv-x="169" 
d="M100 424q6 0 10 -4t4 -10v-395q0 -6 -4 -10t-10 -4t-10 4t-4 10v395q0 11 10 14h4zM50 481q0 6 4 10l70 72l20 19l8 -7l1 -1q2 -1 4 -3v-2l1 -1q1 -2 1 -5v-2q0 -1 -1 -2v-2l-2 -2v-1q-1 0 -1 -1l-1 -1l-2 -2l-78 -78q-4 -6 -10 -6q-11 0 -14 11v4z" />
    <glyph glyph-name="icircumflex" unicode="&#xee;" horiz-adv-x="252" 
d="M143 424q6 0 10 -4t4 -10v-395q0 -6 -4 -10t-10 -4t-10 4t-4 10v395q0 11 10 14h4zM61 432q-11 3 -11 14q0 6 6 10l77 79l2 2l1 1q1 0 1 1h1l2 2h2q1 1 2 1h2q3 0 5 -1l1 -1h2q2 -2 3 -4l1 -1l1 -1l78 -78q5 -4 5 -10t-4.5 -10t-9.5 -4h-3q-4 1 -8 4l-71 71l-71 -71
q-4 -4 -10 -4h-4z" />
    <glyph glyph-name="idieresis" unicode="&#xef;" horiz-adv-x="302" 
d="M171 420q6 0 10 -4t4 -10v-395q0 -6 -4 -10t-10 -4t-10 4t-4 10v395q0 11 10 14h4zM130 494q0 -17 -11.5 -29t-28.5 -12t-28.5 12t-11.5 29t11.5 29t28.5 12t28.5 -12t11.5 -29zM280.5 523q11.5 -12 11.5 -29t-11.5 -29t-28.5 -12t-28.5 12t-11.5 29q0 15 9 26t23 14
q4 1 8 1q17 0 28.5 -12z" />
    <glyph glyph-name="ntilde" unicode="&#xf1;" horiz-adv-x="402" 
d="M64 412q6 0 10 -4t4 -10v-71q23 38 59.5 60.5t80.5 23.5q66 2 116 -46.5t57 -120.5v-1q0 -1 0.5 -2.5t0.5 -2.5q0 -3 -1 -5v-229q0 -6 -4 -10t-10 -4t-10 4t-4 10v240q-7 61 -48.5 101t-96.5 38q-55 -1 -95 -42.5t-45 -102.5v-234q0 -6 -4 -10t-9 -4q-6 0 -10.5 4
t-4.5 10v395q0 11 11 13h3zM182 530q13 0 24 -6q8 -4 14 -11q1 -1 4 -6q1 -2 3 -4v-2q1 -2 1 -3v-3q1 0 1 -1v-4h1q1 -1 5 -3q8 -4 18 -2t16.5 9.5t6.5 13.5q-1 1 -1 2.5t1 2.5q-1 0 -1 0.5t1 1.5q2 8 11 9q1 1 3 1q3 0 6 -2q4 -2 6 -6l1 -1v-1q0 -1 1 -1v-2q1 -9 -2 -18
q-2 -7 -4 -9q-12 -21 -39 -27q-20 -5 -37 4q-13 7 -18 20v1l-1 1q-1 1 -1 2q-1 2 -1 5v1q0 2 -1 3h-1q-1 2 -5 4q-9 4 -18 2q-11 -3 -16.5 -10t-4.5 -13v-6q-1 -1 -1 -2v-1l-2 -2q0 -1 -1 -1q-2 -3 -4 -4q-3 -1 -6 -1q-12 0 -14 12q-4 18 8.5 34t33.5 21q6 1 9 2h4z" />
    <glyph glyph-name="ograve" unicode="&#xf2;" horiz-adv-x="478" 
d="M468 204q0 -88 -61 -149.5t-147 -61.5q-87 0 -148.5 61.5t-61.5 149.5q0 87 61.5 149t148 62t147.5 -62t61 -149zM77 204q0 -76 53.5 -129.5t129 -53.5t128.5 53.5t53 129.5t-53 129.5t-128.5 53.5t-129 -53.5t-53.5 -129.5zM214 583q6 0 10 -4l71 -71l19 -20l-7 -8
l-1 -1q-1 -2 -3 -4h-2l-1 -1q-2 -1 -5 -1h-2q-1 0 -2 1h-2l-2 2h-1q0 1 -1 1l-1 1l-2 2l-77 79q-6 4 -6 10q0 11 11 14h4z" />
    <glyph glyph-name="glyph_76" unicode="&#xf3;" horiz-adv-x="478" 
d="M377 482q3 0 5 -1q3 -1 6 -3q3 -4 3 -9q0 -7 -5 -11l-53 -55q60 -23 97.5 -76.5t37.5 -119.5q0 -88 -61 -149.5t-148 -61.5t-148 61.5t-61 149.5q0 87 61 148.5t148 61.5q21 0 42 -4l65 65q3 3 7 4h4zM222 386q-10 -2 -17 -4q-52 -17 -86.5 -59.5t-39.5 -97.5
q-1 -9 -1 -18q0 -57 30.5 -102.5t79.5 -66.5q8 -4 17 -6q25 -8 54 -8q10 0 18 1q69 7 116 59t47 123q0 86 -65 140q-31 25 -64 35l-42 -42q-2 -2 -5 -3q0 -1 -1 -1q-2 -1 -4.5 -1t-4.5 1q-1 0 -2 1q-8 4 -8 13q0 5 5 10l28 29h-18q-20 0 -37 -3z" />
    <glyph glyph-name="ocircumflex" unicode="&#xf4;" horiz-adv-x="478" 
d="M468 204q0 -88 -61 -149.5t-147 -61.5q-87 0 -148.5 61.5t-61.5 149.5q0 87 61.5 149t148 62t147.5 -62t61 -149zM77 204q0 -76 53.5 -129.5t129 -53.5t128.5 53.5t53 129.5t-53 129.5t-128.5 53.5t-129 -53.5t-53.5 -129.5zM179 432q-11 3 -11 14q0 6 6 10l77 79l2 2
l1 1q1 0 1 1h1l2 2h2q1 1 2 1h2q3 0 5 -1l1 -1h2q2 -2 3 -4l1 -1l1 -1l78 -78q5 -4 5 -10t-4.5 -10t-9.5 -4h-3q-4 1 -8 4l-71 71l-71 -71q-4 -4 -10 -4h-4z" />
    <glyph glyph-name="otilde" unicode="&#xf5;" horiz-adv-x="478" 
d="M468 204q0 -88 -61 -149.5t-147 -61.5q-87 0 -148.5 61.5t-61.5 149.5q0 87 61.5 149t148 62t147.5 -62t61 -149zM77 204q0 -76 53.5 -129.5t129 -53.5t128.5 53.5t53 129.5t-53 129.5t-128.5 53.5t-129 -53.5t-53.5 -129.5zM219 563q13 0 24 -6q8 -4 14 -11q1 -1 4 -6
q1 -2 3 -4v-2q1 -2 1 -3v-3q1 0 1 -1v-4h1q1 -1 5 -3q8 -4 18 -2t16.5 9.5t6.5 13.5q-1 1 -1 2.5t1 2.5q-1 0 -1 0.5t1 1.5q2 8 11 9q1 1 3 1q3 0 6 -2q4 -2 6 -6l1 -1v-1q0 -1 1 -1v-2q1 -9 -2 -18q-2 -7 -4 -9q-12 -21 -39 -27q-20 -5 -37 4q-13 7 -18 20v1l-1 1
q-1 1 -1 2q-1 2 -1 5v1q0 2 -1 3h-1q-1 2 -5 4q-9 4 -18 2q-11 -3 -16.5 -10t-4.5 -13v-6q-1 -1 -1 -2v-1l-2 -2q0 -1 -1 -1q-2 -3 -4 -4q-3 -1 -6 -1q-12 0 -14 12q-4 18 8.5 34t33.5 21q6 1 9 2h4z" />
    <glyph glyph-name="odieresis" unicode="&#xf6;" horiz-adv-x="478" 
d="M468 204q0 -88 -61 -149.5t-147 -61.5q-87 0 -148.5 61.5t-61.5 149.5q0 87 61.5 149t148 62t147.5 -62t61 -149zM77 204q0 -76 53.5 -129.5t129 -53.5t128.5 53.5t53 129.5t-53 129.5t-128.5 53.5t-129 -53.5t-53.5 -129.5zM231 529q0 -17 -11.5 -29t-28.5 -12t-28.5 12
t-11.5 29t11.5 29t28.5 12t28.5 -12t11.5 -29zM381.5 558q11.5 -12 11.5 -29t-11.5 -29t-28.5 -12t-28.5 12t-11.5 29q0 15 9 26t23 14q4 1 8 1q17 0 28.5 -12z" />
    <glyph glyph-name="glyph_123" unicode="&#xf7;" horiz-adv-x="510" 
d="M323 519q0 -20 -14 -34t-34 -14t-34 14t-14 34t14 34t34 14t34 -14t14 -34zM486 408q5 0 9.5 -4t4.5 -10t-4.5 -10t-9.5 -4h-422q-5 0 -9.5 4t-4.5 10q0 5 4 9.5t10 4.5h422zM323 267q0 -20 -14 -34t-34 -14t-34 14t-14 34t14 34t34 14t34 -14t14 -34z" />
    <glyph glyph-name="oslash" unicode="&#xf8;" horiz-adv-x="483" 
d="M459 419q3 0 5.5 -1.5t4.5 -3.5q4 -4 4 -10t-5 -10l-49 -50q46 -50 52 -117q1 -10 1 -21q0 -52 -24 -97t-65 -73q-42 -29 -93 -34q-10 -1 -21 -1q-77 0 -136 54l-57 -57q-2 -2 -4 -3q-3 -3 -7 -3q-6 0 -10.5 4.5t-4.5 10.5q0 7 7 12l56 56q-47 57 -47 131
q0 84 59.5 144.5t143.5 60.5q63 0 114 -35q1 -1 15 -13l50 51q2 3 6 4h2q1 1 3 1zM152 336.5q-50 -45.5 -57 -112.5q-1 -9 -1 -18q0 -62 39 -111l46 47l200 202q-48 38 -110 38q-67 0 -117 -45.5zM152 75q50 -46 117 -46q73 0 124 51.5t51 125.5q0 67 -45 118z" />
    <glyph glyph-name="ugrave" unicode="&#xf9;" horiz-adv-x="402" 
d="M74 412q4 -4 4 -10v-234q5 -64 47 -106.5t99 -41.5q55 2 95 44t45 102v17q-1 1 -1 2t1 2v214q0 11 10 14h4q5 0 9.5 -4t4.5 -10v-395q0 -6 -4.5 -10t-9.5 -4q-6 0 -10 4t-4 10v71q-23 -38 -59.5 -60.5t-79.5 -23.5q-67 -1 -117 47t-57 119v2l-0.5 0.5l-0.5 0.5v239
q0 11 11 14q2 1 3 1q6 0 10 -4zM189 583q6 0 10 -4l71 -71l19 -20l-7 -8l-1 -1q-1 -2 -3 -4h-2l-1 -1q-2 -1 -5 -1h-2q-1 0 -2 1h-2l-2 2h-1q0 1 -1 1l-1 1l-2 2l-77 79q-6 4 -6 10q0 11 11 14h4z" />
    <glyph glyph-name="uacute" unicode="&#xfa;" horiz-adv-x="402" 
d="M74 412q4 -4 4 -10v-234q5 -64 47 -106.5t99 -41.5q55 2 95 44t45 102v17q-1 1 -1 2t1 2v214q0 11 10 14h4q5 0 9.5 -4t4.5 -10v-395q0 -6 -4.5 -10t-9.5 -4q-6 0 -10 4t-4 10v71q-23 -38 -59.5 -60.5t-79.5 -23.5q-67 -1 -117 47t-57 119v2l-0.5 0.5l-0.5 0.5v239
q0 11 11 14q2 1 3 1q6 0 10 -4zM165 484q0 6 4 10l72 70l20 19l8 -7l1 -1q2 -1 4 -3v-2l1 -1q1 -2 1 -5v-2q0 -1 -1 -2v-2l-2 -2v-1q-1 0 -1 -1l-1 -1l-2 -2l-80 -76q-4 -6 -10 -6q-11 0 -14 11v4z" />
    <glyph glyph-name="ucircumflex" unicode="&#xfb;" horiz-adv-x="402" 
d="M74 412q4 -4 4 -10v-234q5 -64 47 -106.5t99 -41.5q55 2 95 44t45 102v17q-1 1 -1 2t1 2v214q0 11 10 14h4q5 0 9.5 -4t4.5 -10v-395q0 -6 -4.5 -10t-9.5 -4q-6 0 -10 4t-4 10v71q-23 -38 -59.5 -60.5t-79.5 -23.5q-67 -1 -117 47t-57 119v2l-0.5 0.5l-0.5 0.5v239
q0 11 11 14q2 1 3 1q6 0 10 -4zM137 457q-11 3 -11 14q0 6 6 10l77 79l2 2l1 1q1 0 1 1h1l2 2h2q1 1 2 1h2q3 0 5 -1l1 -1h2q2 -2 3 -4l1 -1l1 -1l78 -78q5 -4 5 -10t-4.5 -10t-9.5 -4h-3q-4 1 -8 4l-71 71l-71 -71q-4 -4 -10 -4h-4z" />
    <glyph glyph-name="udieresis" unicode="&#xfc;" horiz-adv-x="402" 
d="M175 510q0 -17 -11.5 -29t-28.5 -12t-28.5 12t-11.5 29t11.5 29t28.5 12t28.5 -12t11.5 -29zM325.5 539q11.5 -12 11.5 -29t-11.5 -29t-28.5 -12t-28.5 12t-11.5 29q0 15 9 26t23 14q4 1 8 1q17 0 28.5 -12zM74 412q4 -4 4 -10v-234q5 -64 47 -106.5t99 -41.5q55 2 95 44
t45 102v17q-1 1 -1 2t1 2v214q0 11 10 14h4q5 0 9.5 -4t4.5 -10v-395q0 -6 -4.5 -10t-9.5 -4q-6 0 -10 4t-4 10v71q-23 -38 -59.5 -60.5t-79.5 -23.5q-67 -1 -117 47t-57 119v2l-0.5 0.5l-0.5 0.5v239q0 11 11 14q2 1 3 1q6 0 10 -4z" />
    <glyph glyph-name="yacute" unicode="&#xfd;" horiz-adv-x="400" 
d="M63 407q10 0 13 -8l141 -364l146 364q3 7 11 8h2q6 0 10 -4t4 -10q0 -2 -1 -5l-274 -680q-2 -12 -13 -12q-6 0 -10 4.5t-4 10.5q0 4 2 7l113 280v1l-152 390q-1 2 -1 5q0 10 9 13h4zM179 567q6 0 10 -4l71 -71l19 -20l-7 -8l-1 -1q-1 -2 -3 -4h-2l-1 -1q-2 -1 -5 -1h-2
q-1 0 -2 1h-2l-2 2h-1q0 1 -1 1l-1 1l-2 2l-77 79q-6 4 -6 10q0 11 11 14h4z" />
    <glyph glyph-name="ydieresis" unicode="&#xff;" horiz-adv-x="400" 
d="M63 407q10 0 13 -8l141 -364l146 364q3 7 11 8h2q6 0 10 -4t4 -10q0 -2 -1 -5l-274 -680q-2 -12 -13 -12q-6 0 -10 4.5t-4 10.5q0 4 2 7l113 280v1l-152 390q-1 2 -1 5q0 10 9 13h4zM176 510q0 -17 -11.5 -29t-28.5 -12t-28.5 12t-11.5 29t11.5 29t28.5 12t28.5 -12
t11.5 -29zM326.5 539q11.5 -12 11.5 -29t-11.5 -29t-28.5 -12t-28.5 12t-11.5 29q0 15 9 26t23 14q4 1 8 1q17 0 28.5 -12z" />
    <glyph glyph-name="Amacron" unicode="&#x100;" 
d="M349 836l1 -1q1 0 2 -1h1v-1h1v-1h1l2 -4q0 -1 0.5 -1.5t0.5 -1.5v-2l280 -808v-5q0 -6 -4 -10t-10 -4q-10 0 -14 10l-97 282h-338l-97 -282q-4 -10 -14 -10q-6 0 -10 4t-4 10v5l280 809v1q0 1 0.5 1.5t0.5 1.5v2q1 0 1 1v1q1 0 2 1t2 1q1 2 3 2h10zM186 321h316
l-158 457zM429 916q3 0 4.5 -4t1.5 -10t-1.5 -10t-4.5 -4h-166q-3 0 -4.5 4t-1.5 10q0 12 5 14h167z" />
    <glyph glyph-name="amacron" unicode="&#x101;" horiz-adv-x="454" 
d="M178.5 228.5q-44.5 -18.5 -72.5 -50.5q-36 -43 -26 -85q2 -10 7 -19q15 -29 52 -43q51 -21 115.5 -4t101.5 61q1 2 3 3v121q-13 12 -36 22q-26 11 -56 11q-44 2 -88.5 -16.5zM234 422q35 -2 63 -13q37 -13 60.5 -37.5t28.5 -53.5v-2q1 -1 1 -4v-260q1 -12 11 -18
q12 -10 31 -10h1q5 0 9.5 -4t4.5 -9q0 -6 -4.5 -10t-9.5 -4h-1q-28 0 -48 15q-18 14 -21 35v3h-1v1l-2.5 -2.5t-2.5 -1.5q-12 -9 -28 -20q-31 -19 -64 -27q-14 -3 -34 -6q-12 -1 -23 -1q-41 0 -77 14q-62 24 -75 80q-3 13 -3 25q0 43 35 83q32 38 82 58.5t101 18.5
q36 -1 65 -13q12 -5 25 -12h1v58q0 24 -19 45.5t-52 33.5q-53 19 -110 7t-84 -45q-4 -5 -11 -5q-6 0 -10 3.5t-4 9.5q0 5 3 9q22 28 59 43.5t80 16.5q8 0 23 -1zM311 511q3 0 4.5 -4t1.5 -10t-1.5 -10t-4.5 -4h-166q-3 0 -4.5 4t-1.5 10q0 12 5 14h167z" />
    <glyph glyph-name="Abreve" unicode="&#x102;" 
d="M349 836l1 -1q1 0 2 -1h1v-1h1v-1h1l2 -4q0 -1 0.5 -1.5t0.5 -1.5v-2l280 -808v-5q0 -6 -4 -10t-10 -4q-10 0 -14 10l-97 282h-338l-97 -282q-4 -10 -14 -10q-6 0 -10 4t-4 10v5l280 809v1q0 1 0.5 1.5t0.5 1.5v2q1 0 1 1v1q1 0 2 1t2 1q1 2 3 2h10zM186 321h316
l-158 457zM401 961q3 0 5 -1t4 -3l1 -1q0 -1 1 -1q1 -1 1 -2l1 -1v-2q1 -1 1 -2v-2q0 -3 -2 -6q-7 -21 -21 -35q-7 -7 -10 -9q-4 -4 -10 -7q-10 -6 -22 -7q-5 -1 -11 -1q-24 1 -43.5 18.5t-24.5 45.5v3q0 7 7 11v1q4 2 7 2h1q2 0 5 -2q2 -1 3 -2t2 -1q3 -3 3 -7
q7 -40 41 -41q6 0 14 3q19 5 28 27q3 4 5 10q0 6 4 9q2 1 3 1l1 1q2 0 4 1h2z" />
    <glyph glyph-name="abreve" unicode="&#x103;" horiz-adv-x="454" 
d="M178.5 228.5q-44.5 -18.5 -72.5 -50.5q-36 -43 -26 -85q2 -10 7 -19q15 -29 52 -43q51 -21 115.5 -4t101.5 61q1 2 3 3v121q-13 12 -36 22q-26 11 -56 11q-44 2 -88.5 -16.5zM234 422q35 -2 63 -13q37 -13 60.5 -37.5t28.5 -53.5v-2q1 -1 1 -4v-260q1 -12 11 -18
q12 -10 31 -10h1q5 0 9.5 -4t4.5 -9q0 -6 -4.5 -10t-9.5 -4h-1q-28 0 -48 15q-18 14 -21 35v3h-1v1l-2.5 -2.5t-2.5 -1.5q-12 -9 -28 -20q-31 -19 -64 -27q-14 -3 -34 -6q-12 -1 -23 -1q-41 0 -77 14q-62 24 -75 80q-3 13 -3 25q0 43 35 83q32 38 82 58.5t101 18.5
q36 -1 65 -13q12 -5 25 -12h1v58q0 24 -19 45.5t-52 33.5q-53 19 -110 7t-84 -45q-4 -5 -11 -5q-6 0 -10 3.5t-4 9.5q0 5 3 9q22 28 59 43.5t80 16.5q8 0 23 -1zM300 536q3 0 5 -1t4 -3l1 -1q0 -1 1 -1q1 -1 1 -2l1 -1v-2q1 -1 1 -2v-2q0 -3 -2 -6q-7 -21 -21 -35
q-7 -7 -10 -9q-4 -4 -10 -7q-10 -6 -22 -7q-5 -1 -11 -1q-24 1 -43.5 18.5t-24.5 45.5v3q0 7 7 11v1q4 2 7 2h1q2 0 5 -2q2 -1 3 -2t2 -1q3 -3 3 -7q7 -40 41 -41q6 0 14 3q19 5 28 27q3 4 5 10q0 6 4 9q2 1 3 1l1 1q2 0 4 1h2z" />
    <glyph glyph-name="glyph_63" unicode="&#x104;" horiz-adv-x="724" 
d="M349 838v-1h3v-1l2 -2h1v-1q1 0 2 -1v-1q0 -1 1 -2v-1q0 -1 1 -2v-1l275 -799l55 55q3 3 7 4q2 1 4 1q5 0 9.5 -4.5t4.5 -9.5q0 -6 -5 -10l-140 -140q-4 -6 -11 -6q-5 0 -9.5 4t-4.5 10q0 7 5 11l63 63v1q0 1 -1 1l-98 286h-337l-98 -286q-3 -9 -14 -9q-5 0 -9.5 4
t-4.5 10q0 2 1 5l280 809v5q3 5 7 7q1 0 2 1h9zM185 320h319l-159 461z" />
    <glyph glyph-name="glyph_64" unicode="&#x105;" horiz-adv-x="472" 
d="M235 423q32 -2 62 -13q37 -13 60.5 -37.5t28.5 -54.5q1 -3 1 -5v-262q1 -8 12 -16l1.5 -0.5t1.5 -1.5l35 35q3 3 7 5h4q3 0 6 -1l4 -4q4 -4 4 -9q0 -6 -5 -10l-24 -25q3 0 6 -2q0 -1 1 -2q4 -4 4 -9q0 -2 -1 -3q0 -1 -1 -2l-2 -4q-1 -1 -3 -2l-1 -1q-1 0 -2 -1
q-2 -1 -4 -1h-1q-8 0 -20 3l-69 -70l-2 -2q-1 0 -2 -1h-1q-3 -1 -5 -1q-6 0 -10.5 4t-4.5 10t5 10l61 62q-18 14 -21 36v2l-1 1q-46 -41 -110 -53.5t-120 8.5q-63 25 -76 82q-3 12 -3 25q0 42 35 83q33 38 82.5 59t100.5 19q36 -1 66 -13q15 -6 24 -12l1 -1v66q-3 21 -22 40
t-50 30q-39 14 -82 11t-76 -20q-8 -5 -19 -14q-10 -8 -16 -14q-1 -3 -3 -4q-4 -3 -9 -3t-9.5 4.5t-4.5 10t4 9.5q22 28 59.5 43.5t79.5 16.5q8 0 24 -1zM179 228q-14 -5 -28 -14q-27 -15 -45 -36q-7 -9 -15 -22q-18 -33 -11 -62q10 -42 60 -62q51 -20 115.5 -3.5t101.5 59.5
q1 2 2 3v121q-15 14 -36 23q-24 9 -56 10q-45 1 -88 -17z" />
    <glyph glyph-name="glyph_67" unicode="&#x106;" horiz-adv-x="807" 
d="M577 932q6 0 10 -4t4 -10t-4 -10l-51 -51q97 -11 181 -64q8 -4 8 -13q0 -5 -4.5 -9.5t-9.5 -4.5t-9 3q-87 56 -192 62l-63 -63q-4 -5 -11 -5q-6 0 -10 4t-4 10t5 10l44 45q-99 -3 -186.5 -52t-142.5 -136q-59 -93 -63 -201t45.5 -204t142.5 -155q121 -77 262.5 -61
t242.5 117q4 4 10 4t10.5 -4t4.5 -10t-5 -10q-107 -108 -259 -124q-26 -3 -51 -3q-124 0 -230 67q-100 64 -153 167q-49 94 -49 199q0 9 1 18q4 115 68 215q59 93 153.5 145.5t200.5 55.5q14 1 26 0l68 67q2 3 5 5h5z" />
    <glyph glyph-name="glyph_68" unicode="&#x107;" horiz-adv-x="435" 
d="M369 475l1 -1q1 1 2 1q3 0 6 -1q3 -2 5 -4q3 -4 3 -9q0 -7 -5 -11l-47 -48q31 -12 57 -33q12 -10 19 -18q5 -4 5 -11q0 -4 -2 -7t-4 -5q-3 -2 -7 -2q-2 0 -4 1h-3q-3 2 -5 5q-5 5 -17 15q-27 22 -61 33l-48 -48q-1 -2 -3 -4q-4 -1 -7 -1q-9 0 -13 8h-1q-1 3 -1 6t1 6
q1 0 1 1l4 4l34 34q-41 5 -80 -8.5t-68 -42.5q-5 -6 -12 -14q-48 -59 -40 -134.5t66 -123.5t133 -40q17 2 34 7q16 5 32 13q7 4 15 10q7 4 14 10q16 13 27 26v1q4 5 10 5q5 0 8 -2l3 -3q4 -4 4 -9q0 -2 -1 -4q0 -1 -1 -2q0 -1 -1 -3q-48 -58 -122 -73q-15 -4 -19 -4
q-12 -1 -24 -1q-72 0 -130 47q-67 56 -76 143q-1 12 -1 23q0 73 47 131q55 68 141 77q33 3 65 -4l58 59q3 3 7 4z" />
    <glyph glyph-name="Ccircumflex" unicode="&#x108;" horiz-adv-x="804" 
d="M717 795q6 -5 6 -13q0 -6 -4 -10t-10 -4q-5 0 -8 2q-93 59 -201 63.5t-204 -45t-155 -142.5t-63.5 -201.5t45.5 -204.5t143 -155q121 -77 262.5 -61t242.5 117q4 3 9 3t9.5 -4t4.5 -10q0 -5 -3 -8q-108 -108 -259 -125q-27 -2 -52 -2q-122 0 -229 66q-99 63 -152 166
q-49 95 -49 201q0 8 1 18q4 115 67 215q59 93 153 145.5t201 55.5q133 4 245 -67zM354 895q-11 3 -11 14q0 6 6 10l77 79l2 2l1 1q1 0 1 1h1l2 2h2q1 1 2 1h2q3 0 5 -1l1 -1h2q2 -2 3 -4l1 -1l1 -1l78 -78q5 -4 5 -10t-4.5 -10t-9.5 -4h-3q-4 1 -8 4l-71 71l-71 -71
q-4 -4 -10 -4h-4z" />
    <glyph glyph-name="ccircumflex" unicode="&#x109;" horiz-adv-x="436" 
d="M391 370q12 -10 19 -17q4 -5 4 -10q0 -7 -4 -11t-10 -4q-7 0 -11 4q-2 2 -5 5.5t-5.5 6.5t-5.5 5q-58 48 -132.5 40t-122 -67t-40 -134.5t66 -123.5t133 -40t122.5 67q4 6 11 6q6 0 10.5 -4t4.5 -10t-4 -10q-55 -68 -141 -77q-12 -1 -24 -1q-71 0 -129 47q-68 55 -77 143
q-1 12 -1 24q0 73 47 131q54 67 142 76q8 1 19 1q75 1 133 -47zM180 445q-11 3 -11 14q0 6 6 10l77 79l2 2l1 1q1 0 1 1h1l2 2h2q1 1 2 1h2q3 0 5 -1l1 -1h2q2 -2 3 -4l1 -1l1 -1l78 -78q5 -4 5 -10t-4.5 -10t-9.5 -4h-3q-4 1 -8 4l-71 71l-71 -71q-4 -4 -10 -4h-4z" />
    <glyph glyph-name="Cdotaccent" unicode="&#x10a;" horiz-adv-x="804" 
d="M717 795q6 -5 6 -13q0 -6 -4 -10t-10 -4q-5 0 -8 2q-93 59 -201 63.5t-204 -45t-155 -142.5t-63.5 -201.5t45.5 -204.5t143 -155q121 -77 262.5 -61t242.5 117q4 3 9 3t9.5 -4t4.5 -10q0 -5 -3 -8q-108 -108 -259 -125q-27 -2 -52 -2q-122 0 -229 66q-99 63 -152 166
q-49 95 -49 201q0 8 1 18q4 115 67 215q59 93 153 145.5t201 55.5q133 4 245 -67zM495.5 974q11.5 -12 11.5 -29t-11.5 -29t-28.5 -12t-28.5 12t-11.5 29q0 15 9 26t23 14q4 1 8 1q17 0 28.5 -12z" />
    <glyph glyph-name="cdotaccent" unicode="&#x10b;" horiz-adv-x="436" 
d="M391 370q12 -10 19 -17q4 -5 4 -10q0 -7 -4 -11t-10 -4q-7 0 -11 4q-2 2 -5 5.5t-5.5 6.5t-5.5 5q-58 48 -132.5 40t-122 -67t-40 -134.5t66 -123.5t133 -40t122.5 67q4 6 11 6q6 0 10.5 -4t4.5 -10t-4 -10q-55 -68 -141 -77q-12 -1 -24 -1q-71 0 -129 47q-68 55 -77 143
q-1 12 -1 24q0 73 47 131q54 67 142 76q8 1 19 1q75 1 133 -47zM291.5 525q11.5 -12 11.5 -29t-11.5 -29t-28.5 -12t-28.5 12t-11.5 29q0 15 9 26t23 14q4 1 8 1q17 0 28.5 -12z" />
    <glyph glyph-name="Ccaron" unicode="&#x10c;" horiz-adv-x="804" 
d="M717 795q6 -5 6 -13q0 -6 -4 -10t-10 -4q-5 0 -8 2q-93 59 -201 63.5t-204 -45t-155 -142.5t-63.5 -201.5t45.5 -204.5t143 -155q121 -77 262.5 -61t242.5 117q4 3 9 3t9.5 -4t4.5 -10q0 -5 -3 -8q-108 -108 -259 -125q-27 -2 -52 -2q-122 0 -229 66q-99 63 -152 166
q-49 95 -49 201q0 8 1 18q4 115 67 215q59 93 153 145.5t201 55.5q133 4 245 -67zM563 1009q11 -3 11 -14q0 -6 -6 -10l-77 -80l-2 -2l-1 -1q-1 0 -1 -1h-1l-2 -2h-2q-1 -1 -2 -1h-2q-3 0 -5 1l-1 1h-2q-2 2 -3 4l-1 1l-1 1l-78 77q-5 4 -5 10t4.5 10t9.5 4h3q4 -1 8 -3
l71 -71l71 71q4 5 10 5h4z" />
    <glyph glyph-name="ccaron" unicode="&#x10d;" horiz-adv-x="436" 
d="M391 370q12 -10 19 -17q4 -5 4 -10q0 -7 -4 -11t-10 -4q-7 0 -11 4q-2 2 -5 5.5t-5.5 6.5t-5.5 5q-58 48 -132.5 40t-122 -67t-40 -134.5t66 -123.5t133 -40t122.5 67q4 6 11 6q6 0 10.5 -4t4.5 -10t-4 -10q-55 -68 -141 -77q-12 -1 -24 -1q-71 0 -129 47q-68 55 -77 143
q-1 12 -1 24q0 73 47 131q54 67 142 76q8 1 19 1q75 1 133 -47zM350 555q11 -3 11 -14q0 -6 -6 -10l-77 -79l-2 -2l-1 -1q-1 0 -1 -1h-1l-2 -2h-2q-1 -1 -2 -1h-2q-3 0 -5 1l-1 1h-2q-2 2 -3 4l-1 1l-1 1l-78 78q-5 4 -5 10t4.5 10t9.5 4h3q4 -1 8 -4l71 -71l71 71q4 4 10 4
h4z" />
    <glyph glyph-name="Dcaron" unicode="&#x10e;" horiz-adv-x="714" 
d="M375 1007q11 -3 11 -14q0 -6 -6 -10l-77 -80l-2 -2l-1 -1q-1 0 -1 -1h-1l-2 -2h-2q-1 -1 -2 -1h-2q-3 0 -5 1l-1 1h-2q-2 2 -3 4l-1 1l-1 1l-78 77q-5 4 -5 10t4.5 10t9.5 4h3q4 -1 8 -3l71 -71l71 71q4 5 10 5h4zM292 869l1 -1h2q112 -3 206.5 -62t148.5 -158.5
t54 -215.5q-1 -116 -56 -214t-149.5 -156.5t-206.5 -60.5h-232v1h-3v1h-1q-6 4 -6 12q0 3 2 6v827q-2 3 -2 6q0 10 10 14q1 0 2 1h230zM80 29h212q105 2 193 56.5t139 146.5t52 200q0 109 -51 202.5t-139 148.5t-194 58h-212v-812z" />
    <glyph glyph-name="dcaron" unicode="&#x10f;" horiz-adv-x="497" 
d="M171 364.5q-38 -20.5 -62 -58.5q-41 -61 -27.5 -134.5t71.5 -115.5q43 -30 95 -31.5t95 29.5v301q-42 29 -92 29q-42 1 -80 -19.5zM357 752q6 0 10 -4t4 -11v-737q0 -6 -4 -10.5t-10 -4.5t-10 4.5t-4 10.5v19q-48 -26 -104 -23t-102 36q-68 49 -83 134q-4 21 -4 40
q0 62 36 117q47 71 128 87q68 14 129 -20v347q0 12 10 15h4zM405 652q-5 0 -9.5 4t-4.5 10q0 4 3 8l40 63q-12 4 -20.5 14.5t-8.5 23.5q0 17 12.5 29t29.5 12q16 0 28 -12t12 -29q0 -18 -14 -30l-56 -86q-3 -5 -8 -7h-4z" />
    <glyph glyph-name="Dcroat" unicode="&#x110;" horiz-adv-x="764" 
d="M102 442v404q-2 3 -2 6q0 10 10 14q1 0 2 1h230l1 -1h2q112 -3 206.5 -62t148.5 -158.5t54 -215.5q-1 -116 -56 -214t-149.5 -156.5t-206.5 -60.5h-232v1h-3v1h-1q-6 4 -6 12q0 3 2 6v395h-44q-3 0 -5.5 4t-2.5 10q0 12 8 14h44zM130 414v-387h212q105 2 193 56.5
t139 146.5t52 200q0 109 -51 202.5t-139 148.5t-194 58h-212v-397h274q6 0 10 -4t4 -10t-4 -10t-10 -4h-274z" />
    <glyph glyph-name="dcroat" unicode="&#x111;" horiz-adv-x="452" 
d="M171 363.5q-38 -20.5 -62 -58.5q-41 -61 -27.5 -134.5t71.5 -115.5q43 -30 95 -31.5t95 29.5v301q-42 29 -92 29q-42 1 -80 -19.5zM343 530h-180q-4 0 -6.5 4t-2.5 10q0 12 8 14h181v178q0 12 10 15h4q6 0 10 -4t4 -11v-178h62q4 0 6.5 -4t2.5 -10t-2.5 -10t-6.5 -4h-62
v-531q0 -6 -4 -10.5t-10 -4.5t-10 4.5t-4 10.5v19q-48 -26 -104 -23t-102 36q-68 49 -83 134q-4 21 -4 40q0 62 36 117q47 71 128 87q68 14 129 -20v141z" />
    <glyph glyph-name="Emacron" unicode="&#x112;" horiz-adv-x="370" 
d="M346 864q6 0 10 -4t4 -10t-4 -10t-10 -4h-268v-392h268q6 0 10 -4t4 -10t-4 -10t-10 -4h-268v-392h268q6 0 10 -4t4 -10t-4 -10t-10 -4h-286q-1 1 -3 2t-3 2q0 1 -1 1v1q-1 1 -2 3t-1 5v841q0 9 8 13h288zM304 913q3 0 4.5 -4t1.5 -10t-1.5 -10t-4.5 -4h-166q-3 0 -4.5 4
t-1.5 10q0 12 5 14h167z" />
    <glyph glyph-name="emacron" unicode="&#x113;" horiz-adv-x="478" 
d="M118 318q-36 -44 -40 -101h361q-6 78 -66 127q-51 42 -116 41q-85 0 -139 -67zM391 366q35 -28 55 -68.5t22 -86.5q0 -2 -1 -4v-2q1 -1 1 -2q0 -6 -4 -10t-10 -4h-376q6 -79 66 -129q59 -48 133.5 -40.5t121.5 66.5q4 5 11 5q6 0 10 -4t4 -10q0 -4 -3 -8
q-55 -68 -141 -76q-12 -1 -23 -1q-72 0 -130 47q-37 30 -56.5 72.5t-20.5 88.5v7q1 73 46 129q54 67 141 76q7 0 20 1q77 0 134 -47zM346 511q3 0 4.5 -4t1.5 -10t-1.5 -10t-4.5 -4h-166q-3 0 -4.5 4t-1.5 10q0 12 5 14h167z" />
    <glyph glyph-name="Ebreve" unicode="&#x114;" horiz-adv-x="370" 
d="M346 864q6 0 10 -4t4 -10t-4 -10t-10 -4h-268v-392h268q6 0 10 -4t4 -10t-4 -10t-10 -4h-268v-392h268q6 0 10 -4t4 -10t-4 -10t-10 -4h-286q-1 1 -3 2t-3 2q0 1 -1 1v1q-1 1 -2 3t-1 5v841q0 9 8 13h288zM268 981q3 0 5 -1t4 -3l1 -1q0 -1 1 -1q1 -1 1 -2l1 -1v-2
q1 -1 1 -2v-2q0 -3 -2 -6q-7 -21 -21 -35q-7 -7 -10 -9q-4 -4 -10 -7q-10 -6 -22 -7q-5 -1 -11 -1q-24 1 -43.5 18.5t-24.5 45.5v3q0 7 7 11v1q4 2 7 2h1q2 0 5 -2q2 -1 3 -2t2 -1q3 -3 3 -7q7 -40 41 -41q6 0 14 3q19 5 28 27q3 4 5 10q0 6 4 9q2 1 3 1l1 1q2 0 4 1h2z" />
    <glyph glyph-name="ebreve" unicode="&#x115;" horiz-adv-x="478" 
d="M118 318q-36 -44 -40 -101h361q-6 78 -66 127q-51 42 -116 41q-85 0 -139 -67zM391 366q35 -28 55 -68.5t22 -86.5q0 -2 -1 -4v-2q1 -1 1 -2q0 -6 -4 -10t-10 -4h-376q6 -79 66 -129q59 -48 133.5 -40.5t121.5 66.5q4 5 11 5q6 0 10 -4t4 -10q0 -4 -3 -8
q-55 -68 -141 -76q-12 -1 -23 -1q-72 0 -130 47q-37 30 -56.5 72.5t-20.5 88.5v7q1 73 46 129q54 67 141 76q7 0 20 1q77 0 134 -47zM326 528q3 0 5 -1t4 -3l1 -1q0 -1 1 -1q1 -1 1 -2l1 -1v-2q1 -1 1 -2v-2q0 -3 -2 -6q-7 -21 -21 -35q-7 -7 -10 -9q-4 -4 -10 -7
q-10 -6 -22 -7q-5 -1 -11 -1q-24 1 -43.5 18.5t-24.5 45.5v3q0 7 7 11v1q4 2 7 2h1q2 0 5 -2q2 -1 3 -2t2 -1q3 -3 3 -7q7 -40 41 -41q6 0 14 3q19 5 28 27q3 4 5 10q0 6 4 9q2 1 3 1l1 1q2 0 4 1h2z" />
    <glyph glyph-name="Edotaccent" unicode="&#x116;" horiz-adv-x="370" 
d="M346 864q6 0 10 -4t4 -10t-4 -10t-10 -4h-268v-392h268q6 0 10 -4t4 -10t-4 -10t-10 -4h-268v-392h268q6 0 10 -4t4 -10t-4 -10t-10 -4h-286q-1 1 -3 2t-3 2q0 1 -1 1v1q-1 1 -2 3t-1 5v841q0 9 8 13h288zM244.5 975q11.5 -12 11.5 -29t-11.5 -29t-28.5 -12t-28.5 12
t-11.5 29q0 15 9 26t23 14q4 1 8 1q17 0 28.5 -12z" />
    <glyph glyph-name="edotaccent" unicode="&#x117;" horiz-adv-x="478" 
d="M118 318q-36 -44 -40 -101h361q-6 78 -66 127q-51 42 -116 41q-85 0 -139 -67zM391 366q35 -28 55 -68.5t22 -86.5q0 -2 -1 -4v-2q1 -1 1 -2q0 -6 -4 -10t-10 -4h-376q6 -79 66 -129q59 -48 133.5 -40.5t121.5 66.5q4 5 11 5q6 0 10 -4t4 -10q0 -4 -3 -8
q-55 -68 -141 -76q-12 -1 -23 -1q-72 0 -130 47q-37 30 -56.5 72.5t-20.5 88.5v7q1 73 46 129q54 67 141 76q7 0 20 1q77 0 134 -47zM282.5 528q11.5 -12 11.5 -29t-11.5 -29t-28.5 -12t-28.5 12t-11.5 29q0 15 9 26t23 14q4 1 8 1q17 0 28.5 -12z" />
    <glyph glyph-name="glyph_65" unicode="&#x118;" horiz-adv-x="370" 
d="M64 861q3 0 5 -1h277q6 0 10 -4.5t4 -9.5q0 -6 -4 -10t-10 -4h-266v-392h266q6 0 10 -4.5t4 -9.5q0 -6 -4 -10t-10 -4h-266v-392h157l56 56q3 3 8 4h3q6 0 10 -4t4 -10t-5 -10l-36 -36h69q6 0 10 -4.5t4 -9.5q0 -6 -4 -10t-10 -4h-97l-76 -76q-4 -5 -10 -5t-10 4.5t-4 10
t4 10.5l56 56h-150v1h-2v1h-1v1q-5 4 -5 11q0 3 1 5v409q-2 2 -2 5t2 6v408q-1 3 -1 5.5t1 5.5v1q0 1 1 2q1 2 3 4q1 0 2 1l4 2h1z" />
    <glyph glyph-name="glyph_66" unicode="&#x119;" horiz-adv-x="480" 
d="M393 371q72 -60 77 -155v-11q0 -2 -1 -4v-2q-3 -4 -7 -5q-3 -1 -5 -1h-377q6 -78 67 -128q58 -48 133 -40q7 1 16 3q27 5 49 17q7 4 16 10l14 10q15 13 26 27v1q5 4 11 4q4 0 8 -2l2 -2q4 -5 4 -10v-4l-1 -1l-2 -4q-14 -17 -29 -30v-1q-1 -1 -2 -3l-118 -119q-3 -3 -8 -3
q-6 0 -10 4t-4 10q0 5 3 9l62 63q-6 -2 -15 -3q-14 -3 -20 -4q-86 -9 -153 46q-73 61 -77 156q-2 4 -2 8t2 8l0.5 0.5l0.5 0.5q3 71 46 124q55 68 140 77q8 1 21 1q75 0 133 -47zM133 337q-6 -6 -13 -14q-36 -45 -40 -102h361q-6 79 -66 128q-50 41 -115 41q-75 0 -127 -53z
" />
    <glyph glyph-name="Ecaron" unicode="&#x11a;" horiz-adv-x="370" 
d="M346 864q6 0 10 -4t4 -10t-4 -10t-10 -4h-268v-392h268q6 0 10 -4t4 -10t-4 -10t-10 -4h-268v-392h268q6 0 10 -4t4 -10t-4 -10t-10 -4h-286q-1 1 -3 2t-3 2q0 1 -1 1v1q-1 1 -2 3t-1 5v841q0 9 8 13h288zM306 1014q11 -3 11 -14q0 -6 -6 -10l-77 -80l-2 -2l-1 -1
q-1 0 -1 -1h-1l-2 -2h-2q-1 -1 -2 -1h-2q-3 0 -5 1l-1 1h-2q-2 2 -3 4l-1 1l-1 1l-78 77q-5 4 -5 10t4.5 10t9.5 4h3q4 -1 8 -3l71 -71l71 71q4 5 10 5h4z" />
    <glyph glyph-name="ecaron" unicode="&#x11b;" horiz-adv-x="478" 
d="M118 318q-36 -44 -40 -101h361q-6 78 -66 127q-51 42 -116 41q-85 0 -139 -67zM391 366q35 -28 55 -68.5t22 -86.5q0 -2 -1 -4v-2q1 -1 1 -2q0 -6 -4 -10t-10 -4h-376q6 -79 66 -129q59 -48 133.5 -40.5t121.5 66.5q4 5 11 5q6 0 10 -4t4 -10q0 -4 -3 -8
q-55 -68 -141 -76q-12 -1 -23 -1q-72 0 -130 47q-37 30 -56.5 72.5t-20.5 88.5v7q1 73 46 129q54 67 141 76q7 0 20 1q77 0 134 -47zM357 555q11 -3 11 -14q0 -6 -6 -10l-77 -79l-2 -2l-1 -1q-1 0 -1 -1h-1l-2 -2h-2q-1 -1 -2 -1h-2q-3 0 -5 1l-1 1h-2q-2 2 -3 4l-1 1l-1 1
l-78 78q-5 4 -5 10t4.5 10t9.5 4h3q4 -1 8 -4l71 -71l71 71q4 4 10 4h4z" />
    <glyph glyph-name="Gcircumflex" unicode="&#x11c;" horiz-adv-x="806" 
d="M715 796q7 -4 7 -12q0 -6 -4 -10t-10 -4q-4 0 -8 2q-93 59 -201 63t-204 -46.5t-154.5 -143.5t-62.5 -201.5t46 -204t143 -154.5q120 -75 259.5 -60.5t240.5 112.5v289h-155q-6 0 -10 4t-4 10t3.5 10t8.5 4h174q1 0 2 -1q1 0 1 -1h1q7 -4 7 -12v-301q1 -2 1 -5
q0 -4 -2 -7v-1q0 -1 -1 -2l-0.5 -0.5t-1.5 -0.5q-1 -2 -3 -3q-108 -106 -258 -122q-26 -3 -51 -3q-121 0 -227 66q-99 63 -152 166q-50 95 -50 202v16q4 115 67 215q59 93 153 146t200 57q133 4 245 -67zM396 899q-11 3 -11 14q0 6 6 10l77 79l2 2l1 1q1 0 1 1h1l2 2h2
q1 1 2 1h2q3 0 5 -1l1 -1h2q2 -2 3 -4l1 -1l1 -1l78 -78q5 -4 5 -10t-4.5 -10t-9.5 -4h-3q-4 1 -8 4l-71 71l-71 -71q-4 -4 -10 -4h-4z" />
    <glyph glyph-name="gcircumflex" unicode="&#x11d;" horiz-adv-x="395" 
d="M156 359q-62 -42 -75.5 -114.5t29.5 -133.5q41 -60 113 -74t134 25v298q-45 30 -98 30q-56 0 -103 -31zM371 430q6 0 10 -4t4 -10v-362q-1 -2 -1 -5v-121q-1 -88 -62.5 -150.5t-147.5 -62.5q-39 0 -76 15q-10 3 -10 13q0 6 4 10.5t10 4.5q3 0 5 -1q33 -14 67 -14
q74 0 127.5 54t54.5 131v101q-69 -36 -146.5 -18t-122.5 83q-37 54 -37 115q0 20 4 41q16 84 87 133q53 36 118 36q52 0 98 -25v22q0 10 10 13q1 0 2 1h2zM178 445q-11 3 -11 14q0 6 6 10l77 79l2 2l1 1q1 0 1 1h1l2 2h2q1 1 2 1h2q3 0 5 -1l1 -1h2q2 -2 3 -4l1 -1l1 -1
l78 -78q5 -4 5 -10t-4.5 -10t-9.5 -4h-3q-4 1 -8 4l-71 71l-71 -71q-4 -4 -10 -4h-4z" />
    <glyph glyph-name="Gbreve" unicode="&#x11e;" horiz-adv-x="806" 
d="M715 796q7 -4 7 -12q0 -6 -4 -10t-10 -4q-4 0 -8 2q-93 59 -201 63t-204 -46.5t-154.5 -143.5t-62.5 -201.5t46 -204t143 -154.5q120 -75 259.5 -60.5t240.5 112.5v289h-155q-6 0 -10 4t-4 10t3.5 10t8.5 4h174q1 0 2 -1q1 0 1 -1h1q7 -4 7 -12v-301q1 -2 1 -5
q0 -4 -2 -7v-1q0 -1 -1 -2l-0.5 -0.5t-1.5 -0.5q-1 -2 -3 -3q-108 -106 -258 -122q-26 -3 -51 -3q-121 0 -227 66q-99 63 -152 166q-50 95 -50 202v16q4 115 67 215q59 93 153 146t200 57q133 4 245 -67zM544 986q3 0 5 -1t4 -3l1 -1q0 -1 1 -1q1 -1 1 -2l1 -1v-2q1 -1 1 -2
v-2q0 -3 -2 -6q-7 -21 -21 -35q-7 -7 -10 -9q-4 -4 -10 -7q-10 -6 -22 -7q-5 -1 -11 -1q-24 1 -43.5 18.5t-24.5 45.5v3q0 7 7 11v1q4 2 7 2h1q2 0 5 -2q2 -1 3 -2t2 -1q3 -3 3 -7q7 -40 41 -41q6 0 14 3q19 5 28 27q3 4 5 10q0 6 4 9q2 1 3 1l1 1q2 0 4 1h2z" />
    <glyph glyph-name="gbreve" unicode="&#x11f;" horiz-adv-x="395" 
d="M156 359q-62 -42 -75.5 -114.5t29.5 -133.5q41 -60 113 -74t134 25v298q-45 30 -98 30q-56 0 -103 -31zM371 430q6 0 10 -4t4 -10v-362q-1 -2 -1 -5v-121q-1 -88 -62.5 -150.5t-147.5 -62.5q-39 0 -76 15q-10 3 -10 13q0 6 4 10.5t10 4.5q3 0 5 -1q33 -14 67 -14
q74 0 127.5 54t54.5 131v101q-69 -36 -146.5 -18t-122.5 83q-37 54 -37 115q0 20 4 41q16 84 87 133q53 36 118 36q52 0 98 -25v22q0 10 10 13q1 0 2 1h2zM321 546q3 0 5 -1t4 -3l1 -1q0 -1 1 -1q1 -1 1 -2l1 -1v-2q1 -1 1 -2v-2q0 -3 -2 -6q-7 -21 -21 -35q-7 -7 -10 -9
q-4 -4 -10 -7q-10 -6 -22 -7q-5 -1 -11 -1q-24 1 -43.5 18.5t-24.5 45.5v3q0 7 7 11v1q4 2 7 2h1q2 0 5 -2q2 -1 3 -2t2 -1q3 -3 3 -7q7 -40 41 -41q6 0 14 3q19 5 28 27q3 4 5 10q0 6 4 9q2 1 3 1l1 1q2 0 4 1h2z" />
    <glyph glyph-name="Gdotaccent" unicode="&#x120;" horiz-adv-x="806" 
d="M715 796q7 -4 7 -12q0 -6 -4 -10t-10 -4q-4 0 -8 2q-93 59 -201 63t-204 -46.5t-154.5 -143.5t-62.5 -201.5t46 -204t143 -154.5q120 -75 259.5 -60.5t240.5 112.5v289h-155q-6 0 -10 4t-4 10t3.5 10t8.5 4h174q1 0 2 -1q1 0 1 -1h1q7 -4 7 -12v-301q1 -2 1 -5
q0 -4 -2 -7v-1q0 -1 -1 -2l-0.5 -0.5t-1.5 -0.5q-1 -2 -3 -3q-108 -106 -258 -122q-26 -3 -51 -3q-121 0 -227 66q-99 63 -152 166q-50 95 -50 202v16q4 115 67 215q59 93 153 146t200 57q133 4 245 -67zM534 945q0 -17 -12.5 -29t-29 -12t-28.5 12t-12 29t12 29t29 12
q16 0 28.5 -12t12.5 -29z" />
    <glyph glyph-name="gdotaccent" unicode="&#x121;" horiz-adv-x="395" 
d="M156 359q-62 -42 -75.5 -114.5t29.5 -133.5q41 -60 113 -74t134 25v298q-45 30 -98 30q-56 0 -103 -31zM371 430q6 0 10 -4t4 -10v-362q-1 -2 -1 -5v-121q-1 -88 -62.5 -150.5t-147.5 -62.5q-39 0 -76 15q-10 3 -10 13q0 6 4 10.5t10 4.5q3 0 5 -1q33 -14 67 -14
q74 0 127.5 54t54.5 131v101q-69 -36 -146.5 -18t-122.5 83q-37 54 -37 115q0 20 4 41q16 84 87 133q53 36 118 36q52 0 98 -25v22q0 10 10 13q1 0 2 1h2zM309 512q0 -17 -12.5 -29t-29 -12t-28.5 12t-12 29t12 29t29 12q16 0 28.5 -12t12.5 -29z" />
    <glyph glyph-name="Gcommaaccent" unicode="&#x122;" horiz-adv-x="806" 
d="M630 20q-47 -17 -100 -22q-150 -17 -278 63q-99 63 -152 166q-50 95 -50 202v16q4 115 67 215q59 93 153 146t200 57h14q125 0 231 -67q7 -4 7 -12q0 -6 -4 -10t-10 -4q-4 0 -8 2q-93 59 -201 63t-204 -46.5t-154.5 -143.5t-62.5 -201.5t46 -204t143 -154.5
q120 -75 259.5 -60.5t240.5 112.5v289h-155q-6 0 -10 4t-4 10t3.5 10t8.5 4h174q1 0 2 -1q1 0 1 -1h1q7 -4 7 -12v-301q1 -2 1 -5q0 -4 -2 -7v-1q0 -1 -1 -2t-2 -1q-1 -2 -3 -3q-59 -58 -130 -89v-39q15 8 32 7q22 -2 36.5 -19t13 -39.5t-18.5 -37.5q-15 -13 -34 -13h-6
q-4 0 -9 2q-7 4 -7 12q0 6 4.5 10t9.5 4h5q11 -1 19 6t9 18q0 11 -7 19.5t-18 9.5t-19 -6t-9 -18q0 -2 -1 -4v-3q0 -5 -4 -9t-10 -4t-10 4t-4 10v79z" />
    <glyph glyph-name="gcommaaccent" unicode="&#x123;" horiz-adv-x="395" 
d="M156 359q-62 -42 -75.5 -114.5t29.5 -133.5q41 -60 113 -74t134 25v298q-45 30 -98 30q-56 0 -103 -31zM371 430q6 0 10 -4t4 -10v-362q-1 -2 -1 -5v-121q-1 -88 -62.5 -150.5t-147.5 -62.5q-39 0 -76 15q-10 3 -10 13q0 6 4 10.5t10 4.5q3 0 5 -1q33 -14 67 -14
q74 0 127.5 54t54.5 131v101q-69 -36 -146.5 -18t-122.5 83q-37 54 -37 115q0 20 4 41q16 84 87 133q53 36 118 36q52 0 98 -25v22q0 10 10 13q1 0 2 1h2zM276 614q5 0 9.5 -4t3.5 -10q0 -4 -3 -8l-41 -62q12 -4 20 -15t8 -24q0 -17 -13 -28.5t-29.5 -11t-28 12.5t-11.5 29
q1 18 15 30l58 85q3 4 8 6h4z" />
    <glyph glyph-name="Hcircumflex" unicode="&#x124;" horiz-adv-x="650" 
d="M65 863q6 0 10 -4t4 -10v-406h532v406q0 12 12 14h2q6 0 10 -4t4 -10v-417q1 -2 1 -3q0 -2 -1 -4v-416q0 -6 -4 -10t-9 -4q-6 0 -10.5 4t-4.5 10v406h-532v-406q0 -6 -4 -10t-9 -4q-6 0 -10.5 4t-4.5 10v414q-1 3 -1 6t1 5v416q0 10 10 13h4zM269 896q-11 3 -11 14
q0 6 6 10l77 79l2 2l1 1q1 0 1 1h1l2 2h2q1 1 2 1h2q3 0 5 -1l1 -1h2q2 -2 3 -4l1 -1l1 -1l78 -78q5 -4 5 -10t-4.5 -10t-9.5 -4h-3q-4 1 -8 4l-71 71l-71 -71q-4 -4 -10 -4h-4z" />
    <glyph glyph-name="hcircumflex" unicode="&#x125;" horiz-adv-x="402" 
d="M64 731q6 0 10 -4t4 -10v-387q23 38 59.5 61t80.5 24q67 2 116.5 -47t56.5 -122v-1l0.5 -1.5t0.5 -2.5v-1q0 -2 -1 -4v-229q0 -6 -4 -10t-10 -4t-10 4t-4 10v240q-7 61 -48.5 101t-96.5 39t-95 -43t-45 -103v-234q0 -6 -4 -10t-9 -4q-6 0 -10.5 4t-4.5 10v710q0 11 11 14
h3zM137 891q-11 3 -11 14q0 6 6 10l77 79l2 2l1 1q1 0 1 1h1l2 2h2q1 1 2 1h2q3 0 5 -1l1 -1h2q2 -2 3 -4l1 -1l1 -1l78 -78q5 -4 5 -10t-4.5 -10t-9.5 -4h-3q-4 1 -8 4l-71 71l-71 -71q-4 -4 -10 -4h-4z" />
    <glyph glyph-name="Hbar" unicode="&#x126;" horiz-adv-x="720" 
d="M85 558v292q0 10 10 13h4q6 0 10 -4t4 -10v-291h532v291q0 12 12 14h2q6 0 10 -4t4 -10v-291h16q9 0 15 -4t6 -10t-6 -10t-15 -4h-16v-98q1 -2 1 -3.5t-1 -3.5v-416q0 -6 -4 -10t-9 -4q-6 0 -10.5 4t-4.5 10v406h-532v-406q0 -6 -4 -10t-9 -4q-6 0 -10.5 4t-4.5 10v414
q-1 3 -1 6t1 5v96h-14q-9 0 -15 4t-6 10q0 12 18 14h17zM113 530v-87h532v87h-532z" />
    <glyph glyph-name="hbar" unicode="&#x127;" horiz-adv-x="438" 
d="M86 562v155q0 11 11 14h3q6 0 10 -4t4 -10v-155h192q3 0 5.5 -4t2.5 -10t-2.5 -10t-5.5 -4h-192v-204q23 38 59.5 61t80.5 24q67 2 116.5 -47t56.5 -122v-1l1 -1v-4q0 -2 -1 -4v-229q0 -6 -4 -10t-10 -4t-10 4t-4 10v240q-7 61 -48.5 101t-96.5 39t-95 -43t-45 -103v-234
q0 -6 -4 -10t-9 -4q-6 0 -10.5 4t-4.5 10v527h-28q-2 0 -5 4t-3 10q0 12 7 14h29z" />
    <glyph glyph-name="Itilde" unicode="&#x128;" horiz-adv-x="238" 
d="M134 860q6 0 10 -4t4 -10v-840q0 -6 -4 -10t-10 -4t-10 4t-4 10v841q0 10 10 13h4zM106 974q13 0 24 -6q8 -4 14 -11q1 -1 4 -6q1 -2 3 -4v-2q1 -2 1 -3v-3q1 0 1 -1v-4h1q1 -1 5 -3q8 -4 18 -2t16.5 9.5t6.5 13.5q-1 1 -1 2.5t1 2.5q-1 0 -1 0.5t1 1.5q2 8 11 9q1 1 3 1
q3 0 6 -2q4 -2 6 -6l1 -1v-1q0 -1 1 -1v-6q0 -7 -2 -14t-4 -9q-12 -21 -39 -27q-20 -5 -37 4q-13 7 -18 20v1l-1 1q-1 1 -1 2q-1 2 -1 5v1q0 2 -1 3h-1q-1 2 -5 4q-9 4 -18 2q-11 -3 -16.5 -10t-4.5 -13v-6q-1 -1 -1 -2v-1l-2 -2q0 -1 -1 -1q-2 -3 -4 -4q-3 -1 -6 -1
q-12 0 -14 12q-1 4 -1 9q0 13 10 25q12 16 33 21q6 1 9 2h4z" />
    <glyph glyph-name="itilde" unicode="&#x129;" horiz-adv-x="238" 
d="M132 422q6 0 10 -4t4 -10v-395q0 -6 -4 -10t-10 -4t-10 4t-4 10v395q0 11 10 14h4zM106 568q13 0 24 -6q8 -4 14 -11q1 -1 4 -6q1 -2 3 -4v-2q1 -2 1 -3v-3q1 0 1 -1v-4h1q1 -1 5 -3q8 -4 18 -2t16.5 9.5t6.5 13.5q-1 1 -1 2.5t1 2.5q-1 0 -1 0.5t1 1.5q2 8 11 9q1 1 3 1
q3 0 6 -2q4 -2 6 -6l1 -1v-1q0 -1 1 -1v-6q0 -7 -2 -14t-4 -9q-12 -21 -39 -27q-20 -5 -37 4q-13 7 -18 20v1l-1 1q-1 1 -1 2q-1 2 -1 5v1q0 2 -1 3h-1q-1 2 -5 4q-9 4 -18 2q-11 -3 -16.5 -10t-4.5 -13v-6q-1 -1 -1 -2v-1l-2 -2q0 -1 -1 -1q-2 -3 -4 -4q-3 -1 -6 -1
q-12 0 -14 12q-1 4 -1 9q0 13 10 25q12 16 33 21q6 1 9 2h4z" />
    <glyph glyph-name="Imacron" unicode="&#x12a;" horiz-adv-x="238" 
d="M135 860q6 0 10 -4t4 -10v-840q0 -6 -4 -10t-10 -4t-10 4t-4 10v841q0 10 10 13h4zM222 913q3 0 4.5 -4t1.5 -10t-1.5 -10t-4.5 -4h-166q-3 0 -4.5 4t-1.5 10q0 12 5 14h167z" />
    <glyph glyph-name="imacron" unicode="&#x12b;" horiz-adv-x="238" 
d="M138 420q6 0 10 -4t4 -10v-395q0 -6 -4 -10t-10 -4t-10 4t-4 10v395q0 11 10 14h4zM222 548q3 0 4.5 -4t1.5 -10t-1.5 -10t-4.5 -4h-166q-3 0 -4.5 4t-1.5 10q0 12 5 14h167z" />
    <glyph glyph-name="Ibreve" unicode="&#x12c;" horiz-adv-x="204" 
d="M120 860q6 0 10 -4t4 -10v-840q0 -6 -4 -10t-10 -4t-10 4t-4 10v841q0 10 10 13h4zM181 985q3 0 4 -1q2 -1 4 -3l1 -1q0 -1 1 -1q1 -1 1 -2l1 -1v-2q1 -1 1 -2v-2q0 -3 -2 -6q-7 -21 -21 -35q-6 -7 -9 -9q-4 -4 -11 -7q-10 -6 -22 -7q-5 -1 -11 -1q-24 1 -43.5 18.5
t-24.5 45.5v3q0 7 7 11v1q4 2 7 2h1q2 0 5 -2q2 -1 3 -2t2 -1q3 -3 3 -7q7 -40 41 -41q6 0 14 3q19 5 29 27q2 4 4 10q0 6 4 9q2 1 3 1l1 1q2 0 5 1h2z" />
    <glyph glyph-name="ibreve" unicode="&#x12d;" horiz-adv-x="204" 
d="M121 422q6 0 10 -4t4 -10v-395q0 -6 -4 -10t-10 -4t-10 4t-4 10v395q0 11 10 14h4zM181 582q3 0 4 -1q2 -1 4 -3l1 -1q0 -1 1 -1q1 -1 1 -2l1 -1v-2q1 -1 1 -2v-2q0 -3 -2 -6q-7 -21 -21 -35q-6 -7 -9 -9q-4 -4 -11 -7q-10 -6 -22 -7q-5 -1 -11 -1q-24 1 -43.5 18.5
t-24.5 45.5v3q0 7 7 11v1q4 2 7 2h1q2 0 5 -2q2 -1 3 -2t2 -1q3 -3 3 -7q7 -40 41 -41q6 0 14 3q19 5 29 27q2 4 4 10q0 6 4 9q2 1 3 1l1 1q2 0 5 1h2z" />
    <glyph glyph-name="Iogonek" unicode="&#x12e;" horiz-adv-x="143" 
d="M92 14v833q0 10 10 13h4q6 0 10 -4t4 -10v-825q7 -1 11 -8h1q1 -4 1 -7v-1q0 -2 -1 -5q-2 -1 -3 -2t-1 -2q-3 -3 -7 -3q-41 -4 -44 -38q0 -6 2 -14q4 -20 26 -31q3 -2 9 -4q6 -1 9 -5q1 -2 1 -3v-1l2 -4v-2q0 -3 -2 -5q-1 -2 -3 -4l-1 -1q-1 0 -1 -1q-1 -1 -2 -1l-1 -1
h-1l-1 1q-1 -1 -2 -1h-2q-3 0 -6 2q-20 8 -34 24q-7 6 -8 9q-4 5 -6 11q-6 10 -6 22v12q2 23 21 42q9 9 21 14z" />
    <glyph glyph-name="iogonek" unicode="&#x12f;" horiz-adv-x="144" 
d="M125.5 545.5q8.5 -8.5 8.5 -19.5q0 -12 -8.5 -20t-19.5 -8t-19.5 8t-8.5 19.5t8.5 20t19.5 8.5t19.5 -8.5zM92 14v387q0 11 10 14h4q6 0 10 -4t4 -10v-380q7 -1 11 -8h1q1 -4 1 -7v-1q0 -2 -1 -5q-2 -1 -3 -2t-1 -2q-3 -3 -7 -3q-41 -4 -44 -38q0 -6 2 -14q4 -20 26 -31
q3 -2 9 -4q6 -1 9 -5q1 -2 1 -3v-1l2 -4v-2q0 -3 -2 -5q-1 -2 -3 -4l-1 -1q-1 0 -1 -1q-1 -1 -2 -1l-1 -1h-1l-1 1q-1 -1 -2 -1h-2q-3 0 -6 2q-20 8 -34 24q-7 6 -8 9q-4 5 -6 11q-6 10 -6 22v12q2 23 21 42q9 9 21 14z" />
    <glyph glyph-name="Idotaccent" unicode="&#x130;" horiz-adv-x="116" 
d="M106 939q0 -12 -8.5 -20t-19.5 -8t-19.5 8t-8.5 20q0 11 8.5 19.5t19.5 8.5t19.5 -8.5t8.5 -19.5zM76 860q6 0 10 -4t4 -10v-840q0 -6 -4 -10t-10 -4t-10 4t-4 10v841q0 10 10 13h4z" />
    <glyph glyph-name="dotlessi" unicode="&#x131;" horiz-adv-x="88" 
d="M64 422q6 0 10 -4t4 -10v-395q0 -6 -4 -10t-10 -4t-10 4t-4 10v395q0 11 10 14h4z" />
    <glyph glyph-name="IJ" unicode="&#x132;" horiz-adv-x="409" 
d="M64 859q6 0 10 -4t4 -10v-840q0 -6 -4 -10t-10 -4t-10 4t-4 10v841q0 10 10 13h4zM395 863q4 -4 4 -10v-704q-1 -64 -47.5 -108t-110.5 -42q-62 1 -106 46t-44 108q0 11 10 14h4q6 0 10 -4t4 -10q0 -52 36 -88.5t87 -37.5q53 -2 90.5 34.5t38.5 88.5v703q0 11 10 14h4
q6 0 10 -4z" />
    <glyph glyph-name="ij" unicode="&#x133;" horiz-adv-x="202" 
d="M128 532.5q0 -11.5 -8.5 -19.5t-19.5 -8t-19.5 8t-8.5 19.5t8.5 20t19.5 8.5t19.5 -8.5t8.5 -20zM100 422q6 0 10 -4t4 -10v-395q0 -6 -4 -10t-10 -4t-10 4t-4 10v395q0 11 10 14h4zM192 535q0 -12 -8.5 -20.5t-20 -8.5t-19.5 8.5t-8 20t8 19.5t20 8q11 0 19.5 -8
t8.5 -19zM164 423q5 0 9.5 -4t4.5 -10v-577q-2 -45 -35 -77q-32 -31 -75 -31h-4q-5 0 -9.5 4t-4.5 10t4.5 10t9.5 4h1q33 0 58 23t27 57v1q-1 1 -1 1.5t1 1.5v572l-1 1q0 11 11 14h4z" />
    <glyph glyph-name="Jcircumflex" unicode="&#x134;" horiz-adv-x="450" 
d="M354 859q4 -4 4 -10v-704q-1 -64 -47 -108q-45 -42 -106 -42h-5q-62 1 -106 46t-44 108q0 11 10 14h4q6 0 10 -4t4 -10q0 -52 36 -88.5t87 -37.5q53 -2 90.5 34.5t38.5 88.5v703q0 11 10 14h4q6 0 10 -4zM259 899q-11 3 -11 14q0 6 6 10l77 79l2 2l1 1q1 0 1 1h1l2 2h2
q1 1 2 1h2q3 0 5 -1l1 -1h2q2 -2 3 -4l1 -1l1 -1l78 -78q5 -4 5 -10t-4.5 -10t-9.5 -4h-3q-4 1 -8 4l-71 71l-71 -71q-4 -4 -10 -4h-4z" />
    <glyph glyph-name="jcircumflex" unicode="&#x135;" horiz-adv-x="274" 
d="M164 423q5 0 9.5 -4t4.5 -10v-577q-2 -45 -35 -77q-32 -31 -75 -31h-4q-5 0 -9.5 4t-4.5 10t4.5 10t9.5 4h1q33 0 58 23t27 57v1q-1 1 -1 1.5t1 1.5v572l-1 1q0 11 11 14h4zM83 485q-11 3 -11 14q0 6 6 10l77 79l2 2l1 1q1 0 1 1h1l2 2h2q1 1 2 1h2q3 0 5 -1l1 -1h2
q2 -2 3 -4l1 -1l1 -1l78 -78q5 -4 5 -10t-4.5 -10t-9.5 -4h-3q-4 1 -8 4l-71 71l-71 -71q-4 -4 -10 -4h-4z" />
    <glyph glyph-name="Kcommaaccent" unicode="&#x136;" horiz-adv-x="512" 
d="M74 863.5q4 -4.5 4 -9.5v-525l398 532q4 4 9 6h3q5 0 9.5 -4t4.5 -10q0 -5 -4 -9l-290 -387q1 -1 2 -3l289 -433q3 -3 3 -8q0 -6 -4.5 -10.5t-10.5 -4.5q-8 0 -12 7l-285 428l-112 -149v-271q0 -6 -4 -10t-10 -4t-10 4t-4 10v840q0 11 11 14q1 0 3 1q6 0 10 -4.5zM219 23
q8 5 21 5l17 -3q17 -4 29 -16q14 -16 13.5 -38.5t-16.5 -37.5t-38 -15h-1q-23 0 -38 17h-1q-3 3 -5 8q-3 8 3 14q4 4 10 4t10 -4l3 -3q8 -8 18.5 -8.5t18.5 7.5t8.5 19t-7 19t-18 8.5t-18.5 -7.5l-4 -2l-1 -1v-0.5t-1 -0.5q-3 -4 -9 -4t-10 4t-4.5 9.5t3.5 9.5q9 11 17 16z
" />
    <glyph glyph-name="kcommaaccent" unicode="&#x137;" horiz-adv-x="362" 
d="M64 739q6 0 10 -4t4 -10v-710q0 -6 -4 -10t-10 -4t-10 4t-4 10v711q0 11 11 13h3zM338 424q6 0 10 -4t4 -10q0 -7 -6 -11l-221 -186l221 -187q5 -4 5 -11q0 -6 -4 -10t-10 -4q-5 0 -9 3l-234 197q-5 4 -5 11t5 11l234 197q3 2 6 3q1 1 3 1h1zM139 22q8 5 21 5l17 -3
q17 -4 29 -16q14 -16 13.5 -38.5t-16.5 -37.5t-38 -15h-1q-23 0 -38 17h-1q-3 3 -5 8q-3 8 3 14q4 4 10 4t10 -4l3 -3q8 -8 18.5 -8.5t18.5 7.5t8.5 19t-7 19t-18 8.5t-18.5 -7.5l-4 -2l-1 -1v-0.5t-1 -0.5q-3 -4 -9 -4t-10 4t-4.5 9.5t3.5 9.5q9 11 17 16z" />
    <glyph glyph-name="kgreenlandic" unicode="&#x138;" horiz-adv-x="362" 
d="M64 434q6 0 10 -2.5t4 -5.5v-417q0 -3 -4 -5.5t-10 -2.5t-10 2.5t-4 5.5v417q0 7 11 8h3zM338 424q6 0 10 -4t4 -10q0 -7 -6 -11l-221 -186l221 -187q5 -4 5 -11q0 -6 -4 -10t-10 -4q-5 0 -9 3l-234 197q-5 4 -5 11t5 11l234 197q3 2 6 3q1 1 3 1h1z" />
    <glyph glyph-name="Lacute" unicode="&#x139;" horiz-adv-x="399" 
d="M101 864q4 -4 4 -10v-826h270q6 0 10 -4.5t4 -9.5q0 -6 -4 -10t-10 -4h-284q-6 0 -10 4t-4 10v840q0 11 10 14h4q6 0 10 -4zM50 907q0 6 4 10l70 72l19 19l8 -7l1 -1q2 -1 5 -3v-2l1 -1q1 -2 1 -5v-2q0 -1 -1 -2v-2l-2 -2v-1q-1 0 -1 -1l-1 -1l-2 -2l-78 -78
q-4 -6 -10 -6q-11 0 -14 11v4z" />
    <glyph glyph-name="lacute" unicode="&#x13a;" horiz-adv-x="168" 
d="M95 737q6 0 10 -4t4 -10v-710q0 -6 -4 -10t-10 -4t-10 4t-4 10v711q0 11 11 13h3zM50 791q0 6 4 10l69 73l20 19l8 -6l1 -1q2 -1 4 -3v-2l1 -1q1 -2 1 -5v-2q0 -1 -1 -2v-2q0 -1 -1 -2v-1q-1 0 -1 -1l-1 -1l-2 -2l-78 -79q-4 -6 -10 -6q-11 -1 -14 10v4z" />
    <glyph glyph-name="Lcommaaccent" unicode="&#x13b;" horiz-adv-x="372" 
d="M169 0h-105q-6 0 -10 4t-4 10v840q0 11 10 14h4q6 0 10 -4t4 -10v-826h270q6 0 10 -4.5t4 -9.5q0 -6 -4 -10t-10 -4h-87q9 -14 9 -32q-1 -23 -17 -38t-38 -15h-1q-23 0 -38 17h-1q-3 3 -5 8q-3 8 3 14q4 4 10 4t10 -4l3 -3q8 -8 18.5 -8.5t18.5 7.5t8.5 19t-7 19t-18 8.5
t-18.5 -7.5l-4 -2l-1 -1q0 -1 -1 -1q-3 -4 -9 -4t-10 4t-4 10q-1 3 0 5z" />
    <glyph glyph-name="lcommaaccent" unicode="&#x13c;" horiz-adv-x="161" 
d="M66 17v707q0 11 11 13h3q6 0 10 -4t4 -10v-698l15 -3q16 -4 28 -16q14 -15 14 -35v-3q-1 -23 -17 -38q-15 -15 -38 -15h-1q-23 0 -38 17q-3 3 -6 8q-1 3 -1 5q0 5 4 9t10.5 4t9.5 -4q2 -2 4 -3q7 -8 18 -8.5t19 7.5q7 8 7.5 19t-6.5 19t-18 8.5t-19 -7.5q-1 -1 -3 -2
l-1 -1l-1 -1q-4 -4 -9.5 -4t-10 4t-4.5 10q0 5 4 9q6 8 12 13z" />
    <glyph glyph-name="Lcaron" unicode="&#x13d;" horiz-adv-x="372" 
d="M74 864q4 -4 4 -10v-826h270q6 0 10 -4.5t4 -9.5q0 -6 -4 -10t-10 -4h-284q-6 0 -10 4t-4 10v840q0 11 10 14h4q6 0 10 -4zM116 781q-5 0 -10 4t-5 9q0 4 3 9l38 64q-12 3 -21 13.5t-9 23.5q-1 17 11 29.5t29 13.5h1q16 0 28 -11q12 -12 13 -29q0 -18 -13 -31l-54 -88
q-2 -5 -7 -7h-4z" />
    <glyph glyph-name="lcaron" unicode="&#x13e;" horiz-adv-x="202" 
d="M64 737q6 0 10 -4t4 -10v-710q0 -6 -4 -10t-10 -4t-10 4t-4 10v711q0 11 11 13h3zM114 637q-5 0 -10 4t-5 9q0 4 3 9l38 64q-12 3 -21 13.5t-9 23.5q-1 17 11 29.5t29 13.5h1q16 0 28 -11q12 -12 13 -29q0 -18 -13 -31l-54 -88q-2 -5 -7 -7h-4z" />
    <glyph glyph-name="Ldot" unicode="&#x13f;" horiz-adv-x="372" 
d="M74 864q4 -4 4 -10v-826h270q6 0 10 -4.5t4 -9.5q0 -6 -4 -10t-10 -4h-284q-6 0 -10 4t-4 10v840q0 11 10 14h4q6 0 10 -4zM167 491.5q0 -16.5 -12.5 -29t-29 -12.5t-28.5 12t-12 29t12 29t28.5 12t29 -12t12.5 -28.5z" />
    <glyph glyph-name="ldot" unicode="&#x140;" horiz-adv-x="197" 
d="M187 398q0 -17 -12.5 -29.5t-29 -12.5t-28.5 12t-12 29t12 29t28.5 12t29 -12t12.5 -28zM64 737q6 0 10 -4t4 -10v-710q0 -6 -4 -10t-10 -4t-10 4t-4 10v711q0 11 11 13h3z" />
    <glyph glyph-name="glyph_79" unicode="&#x141;" horiz-adv-x="426" 
d="M119 870q5 0 9.5 -4.5t4.5 -9.5v-392l63 64q3 3 7 4q1 1 3 1q6 0 10 -4t4 -10t-4 -10l-83 -83v-398h269q6 0 10 -4t4 -9q0 -6 -4 -10.5t-10 -4.5h-287q0 1 -1 1h-1v1h-1q0 1 -1 1q-2 1 -3 3v1h-1q-2 4 -2 7v384l-29 -29q-4 -7 -12 -7q-6 0 -10 4t-4 10q0 8 6 12l49 48
v419q0 10 9 13q1 1 2 1q1 1 3 1z" />
    <glyph glyph-name="glyph_80" unicode="&#x142;" horiz-adv-x="222" 
d="M132 735q6 0 10 -4t4 -10v-292l46 28q2 1 4 1q1 1 2 1q6 0 10 -4.5t4 -9.5q0 -8 -6 -12l-60 -36v-386q0 -6 -4 -10t-10 -4t-10 4t-4 10v370l-47 -28q-4 -2 -7 -2q-6 0 -10 4.5t-4 10.5q0 8 7 12l61 36v307q0 11 10 14h4z" />
    <glyph glyph-name="glyph_77" unicode="&#x143;" horiz-adv-x="650" 
d="M454 952q5 0 9.5 -4t4.5 -10t-5 -10l-140 -140q-4 -5 -11 -5q-6 0 -10 4t-4 10t5 10l140 140q2 3 5 5h6zM67 864q1 0 3 -1q1 -1 2 -1h1q2 -2 3 -5q1 0 1 -1v-1q1 -1 1 -2l532 -797v794q0 6 4 10t9 4h1q6 0 10 -4t4 -10v-836q2 -3 2 -6q0 -6 -4 -10t-10 -4t-10 4v1h-1v1
q-1 1 -1 2h-1l-1 1q0 2 -1 3l-533 799v-795q0 -6 -4 -10t-9.5 -4t-10 4t-4.5 10v841q0 3 1 5l1 1v1l1 1q1 2 3 3l1 1q1 0 1.5 0.5l0.5 0.5h8z" />
    <glyph glyph-name="glyph_78" unicode="&#x144;" horiz-adv-x="402" 
d="M352 485q1 1 3 1q3 0 5 -2q3 -1 5 -3q4 -4 4 -9q0 -7 -5 -11l-62 -62q2 -1 5 -3.5t4 -2.5q33 -23 54.5 -59.5t25.5 -80.5v-1q0 -1 0.5 -2.5t0.5 -2.5q0 -2 -1 -4v-233q-1 0 -1 -1v-1l-1 -1q0 -2 -1 -3l-1 -1q-2 -2 -5 -3q-3 -2 -6 -2q-1 0 -3 1l-2 2h-2q-3 2 -4 5
q-1 1 -1 2q-1 1 -1 2v243q-5 42 -27 74.5t-55 49.5l-34 -34q-1 -1 -1 -2q-2 -1 -3 -1t-1 -1q-2 -1 -5 -1q-7 0 -12 6v1q-2 4 -2 7q0 7 4 11l26 26q-2 0 -4 0.5t-3 0.5q-15 3 -28 3q-59 -2 -100 -49t-40 -113v-223l-1 -1q-1 -2 -1 -3q-1 0 -1 -1q-2 -2 -5 -3t-6 -1
q-5 0 -9.5 4t-4.5 10v394q0 6 4.5 10t9.5 4h7q3 -2 5 -5q0 -1 1 -2h1v-78q4 5 9 13q32 44 80 62q14 5 33 8q12 1 18 2q24 0 49 -7q4 -2 8 -3l69 70q3 3 7 4h1z" />
    <glyph glyph-name="Ncommaaccent" unicode="&#x145;" 
d="M68 868l2 -2h1q2 -2 4 -5l2 -2v-1l533 -798v794q0 11 11 14h3q5 0 9.5 -4t4.5 -10v-842q0 -6 -4 -10t-10 -4q-4 0 -8 3t-6 8l-532 799v-795q0 -5 -4.5 -9.5t-10 -4.5t-9.5 4.5t-4 9.5v847q1 0 1 1q1 2 3 3q1 1 3 2v1q1 0 2 1h9zM312 21q8 5 21 5l17 -3q17 -4 29 -16
q14 -16 13.5 -38.5t-16.5 -37.5t-38 -15h-1q-23 0 -38 17h-1q-3 3 -5 8q-3 8 3 14q4 4 10 4t10 -4l3 -3q8 -8 18.5 -8.5t18.5 7.5t8.5 19t-7 19t-18 8.5t-18.5 -7.5l-4 -2l-1 -1v-0.5t-1 -0.5q-3 -4 -9 -4t-10 4t-4.5 9.5t3.5 9.5q9 11 17 16z" />
    <glyph glyph-name="ncommaaccent" unicode="&#x146;" horiz-adv-x="402" 
d="M64 412q6 0 10 -4t4 -10v-71q23 38 59.5 60.5t80.5 23.5h5q63 0 111 -46q50 -49 57 -121v-1q0 -1 0.5 -2.5t0.5 -2.5q0 -3 -1 -5v-229q0 -6 -4 -10t-10 -4t-10 4t-4 10v240q-7 61 -48.5 101t-96.5 38q-55 -1 -95 -42.5t-45 -102.5v-234q0 -6 -4 -10t-9.5 -4t-10 4
t-4.5 10v395q0 11 11 13h3zM194 23q8 5 21 5l17 -3q17 -4 29 -16q14 -16 13.5 -38.5t-16.5 -37.5t-38 -15h-1q-23 0 -38 17h-1q-3 3 -5 8q-3 8 3 14q4 4 10 4t10 -4l3 -3q8 -8 18.5 -8.5t18.5 7.5t8.5 19t-7 19t-18 8.5t-18.5 -7.5l-4 -2l-1 -1v-0.5t-1 -0.5q-3 -4 -9 -4
t-10 4t-4.5 9.5t3.5 9.5q9 11 17 16z" />
    <glyph glyph-name="Ncaron" unicode="&#x147;" 
d="M68 868l2 -2h1q2 -2 4 -5l2 -2v-1l533 -798v794q0 11 11 14h3q5 0 9.5 -4t4.5 -10v-842q0 -6 -4 -10t-10 -4q-4 0 -8 3t-6 8l-532 799v-795q0 -5 -4.5 -9.5t-10 -4.5t-9.5 4.5t-4 9.5v847q1 0 1 1q1 2 3 3q1 1 3 2v1q1 0 2 1h9zM460 1012q11 -3 11 -14q0 -6 -6 -10
l-77 -80l-2 -2l-1 -1q-1 0 -1 -1h-1l-2 -2h-2q-1 -1 -2 -1h-2q-3 0 -5 1l-1 1h-2q-2 2 -3 4l-1 1l-1 1l-78 77q-5 4 -5 10t4.5 10t9.5 4h3q4 -1 8 -3l71 -71l71 71q4 5 10 5h4z" />
    <glyph glyph-name="ncaron" unicode="&#x148;" horiz-adv-x="402" 
d="M64 412q6 0 10 -4t4 -10v-71q23 38 59.5 60.5t80.5 23.5q66 2 116 -46.5t57 -120.5v-1q0 -1 0.5 -2.5t0.5 -2.5q0 -3 -1 -5v-229q0 -6 -4 -10t-10 -4t-10 4t-4 10v240q-7 61 -48.5 101t-96.5 38q-55 -1 -95 -42.5t-45 -102.5v-234q0 -6 -4 -10t-9 -4q-6 0 -10.5 4
t-4.5 10v395q0 11 11 13h3zM304 590q11 -3 11 -14q0 -6 -6 -10l-77 -80l-2 -2l-1 -1q-1 0 -1 -1h-1l-2 -2h-2q-1 -1 -2 -1h-2q-3 0 -5 1l-1 1h-2q-2 2 -3 4l-1 1l-1 1l-78 77q-5 4 -5 10t4.5 10t9.5 4h3q4 -1 8 -3l71 -71l71 71q4 5 10 5h4z" />
    <glyph glyph-name="napostrophe" unicode="&#x149;" horiz-adv-x="463" 
d="M125 404q6 0 10 -4t4 -10v-71q23 38 59.5 60.5t80.5 23.5q66 2 116 -46.5t57 -120.5v-1q0 -1 0.5 -2.5t0.5 -2.5q0 -3 -1 -5v-229q0 -6 -4 -10t-10 -4t-10 4t-4 10v240q-7 61 -48.5 101t-96.5 38q-55 -1 -95 -42.5t-45 -102.5v-234q0 -6 -4 -10t-9 -4q-6 0 -10.5 4
t-4.5 10v395q0 11 11 13h3zM64 366q-5 0 -9.5 4t-4.5 10q0 4 3 8l39 64q-13 4 -21.5 14t-8.5 23q-1 17 11.5 29.5t29.5 13.5h1q15 0 27 -12t13 -29q0 -18 -14 -30l-54 -87q-3 -6 -8 -8h-4z" />
    <glyph glyph-name="Omacron" unicode="&#x14c;" horiz-adv-x="928" 
d="M791 740q58 -58 92.5 -138.5t34.5 -168.5t-34.5 -168.5t-92.5 -138.5t-138.5 -92.5t-168.5 -34.5t-168.5 34.5t-138.5 92.5t-92.5 138.5t-34.5 168.5t34.5 168.5t92.5 138.5t138.5 92.5t168.5 34.5t168.5 -34.5t138.5 -92.5zM132.5 636.5q-54.5 -93.5 -54.5 -203.5
t54.5 -203.5t148 -148t203.5 -54.5t203.5 54.5t148 148t54.5 203.5t-54.5 203.5t-148 148t-203.5 54.5t-203.5 -54.5t-148 -148zM574 956q3 0 4.5 -4t1.5 -10t-1.5 -10t-4.5 -4h-166q-3 0 -4.5 4t-1.5 10q0 12 5 14h167z" />
    <glyph glyph-name="omacron" unicode="&#x14d;" horiz-adv-x="478" 
d="M468 204q0 -88 -61 -149.5t-147 -61.5q-87 0 -148.5 61.5t-61.5 149.5q0 87 61.5 149t148 62t147.5 -62t61 -149zM77 204q0 -76 53.5 -129.5t129 -53.5t128.5 53.5t53 129.5t-53 129.5t-128.5 53.5t-129 -53.5t-53.5 -129.5zM343 541q3 0 4.5 -4t1.5 -10t-1.5 -10
t-4.5 -4h-166q-3 0 -4.5 4t-1.5 10q0 12 5 14h167z" />
    <glyph glyph-name="Obreve" unicode="&#x14e;" horiz-adv-x="928" 
d="M791 740q58 -58 92.5 -138.5t34.5 -168.5t-34.5 -168.5t-92.5 -138.5t-138.5 -92.5t-168.5 -34.5t-168.5 34.5t-138.5 92.5t-92.5 138.5t-34.5 168.5t34.5 168.5t92.5 138.5t138.5 92.5t168.5 34.5t168.5 -34.5t138.5 -92.5zM132.5 636.5q-54.5 -93.5 -54.5 -203.5
t54.5 -203.5t148 -148t203.5 -54.5t203.5 54.5t148 148t54.5 203.5t-54.5 203.5t-148 148t-203.5 54.5t-203.5 -54.5t-148 -148zM545 989q3 0 5 -1t4 -3l1 -1q0 -1 1 -1q1 -1 1 -2l1 -1v-2q1 -1 1 -2v-2q0 -3 -2 -6q-7 -21 -21 -35q-7 -7 -10 -9q-4 -4 -10 -7q-10 -6 -22 -7
q-5 -1 -11 -1q-24 1 -43.5 18.5t-24.5 45.5v3q0 7 7 11v1q4 2 7 2h1q2 0 5 -2q2 -1 3 -2t2 -1q3 -3 3 -7q7 -40 41 -41q6 0 14 3q19 5 28 27q3 4 5 10q0 6 4 9q2 1 3 1l1 1q2 0 4 1h2z" />
    <glyph glyph-name="obreve" unicode="&#x14f;" horiz-adv-x="478" 
d="M468 204q0 -88 -61 -149.5t-147 -61.5q-87 0 -148.5 61.5t-61.5 149.5q0 87 61.5 149t148 62t147.5 -62t61 -149zM77 204q0 -76 53.5 -129.5t129 -53.5t128.5 53.5t53 129.5t-53 129.5t-128.5 53.5t-129 -53.5t-53.5 -129.5zM321 558q3 0 5 -1t4 -3l1 -1q0 -1 1 -1
q1 -1 1 -2l1 -1v-2q1 -1 1 -2v-2q0 -3 -2 -6q-7 -21 -21 -35q-7 -7 -10 -9q-4 -4 -10 -7q-10 -6 -22 -7q-5 -1 -11 -1q-24 1 -43.5 18.5t-24.5 45.5v3q0 7 7 11v1q4 2 7 2h1q2 0 5 -2q2 -1 3 -2t2 -1q3 -3 3 -7q7 -40 41 -41q6 0 14 3q19 5 28 27q3 4 5 10q0 6 4 9q2 1 3 1
l1 1q2 0 4 1h2z" />
    <glyph glyph-name="Ohungarumlaut" unicode="&#x150;" horiz-adv-x="928" 
d="M791 740q58 -58 92.5 -138.5t34.5 -168.5t-34.5 -168.5t-92.5 -138.5t-138.5 -92.5t-168.5 -34.5t-168.5 34.5t-138.5 92.5t-92.5 138.5t-34.5 168.5t34.5 168.5t92.5 138.5t138.5 92.5t168.5 34.5t168.5 -34.5t138.5 -92.5zM132.5 636.5q-54.5 -93.5 -54.5 -203.5
t54.5 -203.5t148 -148t203.5 -54.5t203.5 54.5t148 148t54.5 203.5t-54.5 203.5t-148 148t-203.5 54.5t-203.5 -54.5t-148 -148zM657 994q0 -6 -4 -10l-72 -70l-20 -19l-8 7l-1 1q-2 1 -4 3v2l-1 1q-1 2 -1 5v2q0 1 1 2v2l2 2v1q1 0 1 1l1 1l2 2l80 76q4 6 10 6q11 0 14 -11
v-4zM492 996q0 -6 -4 -10l-72 -70l-20 -19l-8 7l-1 1q-2 1 -4 3v2l-1 1q-1 2 -1 5v2q0 1 1 2v2l2 2v1q1 0 1 1l1 1l2 2l80 76q4 6 10 6q11 0 14 -11v-4z" />
    <glyph glyph-name="ohungarumlaut" unicode="&#x151;" horiz-adv-x="478" 
d="M468 204q0 -88 -61 -149.5t-147 -61.5q-87 0 -148.5 61.5t-61.5 149.5q0 87 61.5 149t148 62t147.5 -62t61 -149zM77 204q0 -76 53.5 -129.5t129 -53.5t128.5 53.5t53 129.5t-53 129.5t-128.5 53.5t-129 -53.5t-53.5 -129.5zM425 565q0 -6 -4 -10l-72 -70l-20 -19l-8 7
l-1 1q-2 1 -4 3v2l-1 1q-1 2 -1 5v2q0 1 1 2v2l2 2v1q1 0 1 1l1 1l2 2l80 76q4 6 10 6q11 0 14 -11v-4zM260 567q0 -6 -4 -10l-72 -70l-20 -19l-8 7l-1 1q-2 1 -4 3v2l-1 1q-1 2 -1 5v2q0 1 1 2v2l2 2v1q1 0 1 1l1 1l2 2l80 76q4 6 10 6q11 0 14 -11v-4z" />
    <glyph glyph-name="OE" unicode="&#x152;" horiz-adv-x="1051" 
d="M159 643q-64 -82 -77 -183.5t26 -195.5t121 -158q82 -63 182 -76.5t194 24.5t157 119v475q-1 1 -1 2q-29 35 -67 64q-109 84 -246 79q-84 -3 -160 -41.5t-129 -108.5zM776 823q2 0 5 -1h246q6 0 10 -4t4 -10t-4 -10t-10 -4h-237v-368h237q6 0 10 -4.5t4 -9.5q0 -6 -4 -10
t-10 -4h-237v-226q1 -2 1 -4t-1 -4v-135h237q6 0 10 -4t4 -10t-4 -10t-10 -4h-253q-1 1 -2 1h-1v1h-1q-2 1 -4 4h-1v1q-2 3 -3 7v114q-70 -75 -167 -107q-65 -22 -132 -22q-33 0 -67 5q-102 16 -185 80q-88 68 -130 169q-31 76 -31 155q0 27 3 54q14 108 82 196
q60 78 146.5 119.5t180.5 41.5q11 0 26 -1q125 -7 224 -84q27 -20 50 -44v111q-1 2 -1 5q0 4 2 7v2q2 2 4 3l2 2t1.5 1t0.5 1h5z" />
    <glyph glyph-name="oe" unicode="&#x153;" horiz-adv-x="700" 
d="M197 405q-62 -19 -96 -86q-33 -68 -17 -145.5t71 -117.5q53 -39 114 -21q63 19 96 85q1 2 2 3q-17 43 -18 92q-1 2 -1 4t1 4q0 50 18 94q-3 2 -4 5q-20 38 -52 61q-40 30 -85 27q-15 -1 -29 -5zM506 405q-58 -8 -96 -67q-28 -44 -31 -105h282q-5 81 -53 132
q-40 41 -89 41q-7 0 -13 -1zM239 438q11 0 21 -2q36 -7 68 -30q33 -24 54 -61q1 1 2.5 4t2.5 4q44 71 115 80q10 1 19 1q61 0 108 -49q58 -61 61 -157q0 -2 -1 -3q1 -3 1 -5q0 -6 -4 -10.5t-10 -4.5v1h-297q5 -82 52 -132q46 -47 103 -40q58 8 95 66q4 8 12 8q6 0 10 -4
t4 -10q0 -5 -2 -8q-45 -71 -115 -80q-10 -1 -19 -1q-60 0 -108 50q-16 17 -29 39q-39 -66 -105 -86q-24 -7 -47 -7q-48 0 -92 32q-64 47 -82 135q-6 27 -6 54q0 57 27 110q38 77 112 99q16 5 35 6q8 1 15 1z" />
    <glyph glyph-name="Racute" unicode="&#x154;" horiz-adv-x="512" 
d="M213 864q97 -5 163 -74t61 -162q-4 -75 -55 -132t-127 -74l243 -405q4 -4 4 -9q0 -6 -4.5 -10t-9.5 -4q-10 0 -14 9l-248 415q-17 -2 -19 -2h-127v-406q0 -6 -4 -10t-10 -4t-10 4t-4 10v414q-2 3 -2 6t2 6v408q-1 3 -1 6q0 7 6 12h1q1 1 3 1v1h152zM80 444h126
q82 2 140.5 55.5t62.5 130.5q4 81 -53.5 141.5t-144.5 64.5h-131v-392zM275 992q0 -6 -4 -10l-70 -72l-20 -19l-8 7l-1 1q-2 1 -4 3v2l-1 1q-1 2 -1 5v2q0 1 1 2v2l2 2v1q1 0 1 1l1 1l2 2l78 78q4 6 10 6q11 0 14 -11v-4z" />
    <glyph glyph-name="racute" unicode="&#x155;" horiz-adv-x="246" 
d="M64 418q6 0 10 -4t4 -10v-72q23 38 59.5 61t79.5 24h5q6 0 10 -4t4 -9q0 -6 -4 -10.5t-10 -4.5h-4q-55 -1 -95 -43.5t-45 -103.5v-238q0 -5 -4 -9.5t-10 -4.5t-10 4.5t-4 9.5v401q0 11 11 13h3zM87 481q0 6 4 10l70 72l20 19l8 -7l1 -1q2 -1 4 -3v-2l1 -1q1 -2 1 -5v-2
q0 -1 -1 -2v-2l-2 -2v-1q-1 0 -1 -1l-1 -1l-2 -2l-78 -78q-4 -6 -10 -6q-11 0 -14 11v4z" />
    <glyph glyph-name="Rcommaaccent" unicode="&#x156;" horiz-adv-x="512" 
d="M213 864q97 -5 163 -74t61 -162q-4 -75 -55 -132t-127 -74l243 -405q4 -4 4 -9q0 -6 -4.5 -10t-9.5 -4q-10 0 -14 9l-248 415q-17 -2 -19 -2h-127v-406q0 -6 -4 -10t-10 -4t-10 4t-4 10v414q-2 3 -2 6t2 6v408q-1 3 -1 6q0 7 6 12h1q1 1 3 1v1h152zM80 444h126
q82 2 140.5 55.5t62.5 130.5q4 81 -53.5 141.5t-144.5 64.5h-131v-392zM219 23q8 5 21 5l17 -3q17 -4 29 -16q14 -16 13.5 -38.5t-16.5 -37.5t-38 -15h-1q-23 0 -38 17h-1q-3 3 -5 8q-3 8 3 14q4 4 10 4t10 -4l3 -3q8 -8 18.5 -8.5t18.5 7.5t8.5 19t-7 19t-18 8.5
t-18.5 -7.5l-4 -2l-1 -1v-0.5t-1 -0.5q-3 -4 -9 -4t-10 4t-4.5 9.5t3.5 9.5q9 11 17 16z" />
    <glyph glyph-name="rcommaaccent" unicode="&#x157;" horiz-adv-x="246" 
d="M64 418q6 0 10 -4t4 -10v-72q23 38 59.5 61t79.5 24h5q6 0 10 -4t4 -9q0 -6 -4 -10.5t-10 -4.5h-4q-55 -1 -95 -43.5t-45 -103.5v-238q0 -5 -4 -9.5t-10 -4.5t-10 4.5t-4 9.5v401q0 11 11 13h3zM147 22q8 5 21 5l17 -3q17 -4 29 -16q14 -16 13.5 -38.5t-16.5 -37.5
t-38 -15h-1q-23 0 -38 17h-1q-3 3 -5 8q-3 8 3 14q4 4 10 4t10 -4l3 -3q8 -8 18.5 -8.5t18.5 7.5t8.5 19t-7 19t-18 8.5t-18.5 -7.5l-4 -2l-1 -1v-0.5t-1 -0.5q-3 -4 -9 -4t-10 4t-4.5 9.5t3.5 9.5q9 11 17 16z" />
    <glyph glyph-name="Rcaron" unicode="&#x158;" horiz-adv-x="512" 
d="M213 864q97 -5 163 -74t61 -162q-4 -75 -55 -132t-127 -74l243 -405q4 -4 4 -9q0 -6 -4.5 -10t-9.5 -4q-10 0 -14 9l-248 415q-17 -2 -19 -2h-127v-406q0 -6 -4 -10t-10 -4t-10 4t-4 10v414q-2 3 -2 6t2 6v408q-1 3 -1 6q0 7 6 12h1q1 1 3 1v1h152zM80 444h126
q82 2 140.5 55.5t62.5 130.5q4 81 -53.5 141.5t-144.5 64.5h-131v-392zM284 1009q11 -3 11 -14q0 -6 -6 -10l-77 -80l-2 -2l-1 -1q-1 0 -1 -1h-1l-2 -2h-2q-1 -1 -2 -1h-2q-3 0 -5 1l-1 1h-2q-2 2 -3 4l-1 1l-1 1l-78 77q-5 4 -5 10t4.5 10t9.5 4h3q4 -1 8 -3l71 -71l71 71
q4 5 10 5h4z" />
    <glyph glyph-name="rcaron" unicode="&#x159;" horiz-adv-x="252" 
d="M65 418q6 0 10 -4t4 -10v-72q23 38 59.5 61t79.5 24h5q6 0 10 -4t4 -9.5t-4 -10t-10 -4.5h-4q-55 -1 -95 -43.5t-45 -103.5v-238q0 -5 -4 -9.5t-10 -4.5t-10 4.5t-4 9.5v401q0 11 11 13h3zM231 555q11 -3 11 -14q0 -6 -6 -10l-77 -79l-2 -2l-1 -1q-1 0 -1 -1h-1l-2 -2h-2
q-1 -1 -2 -1h-2q-3 0 -5 1l-1 1h-2q-2 2 -3 4l-1 1l-1 1l-78 78q-5 4 -5 10t4.5 10t9.5 4h3q4 -1 8 -4l71 -71l71 71q4 4 10 4h4z" />
    <glyph glyph-name="glyph_69" unicode="&#x15a;" horiz-adv-x="564" 
d="M428 931q6 0 10 -4t4 -10t-4 -10l-61 -61q54 -22 87.5 -71.5t33.5 -109.5q0 -6 -4 -10t-9.5 -4t-10 4t-4.5 10q0 55 -32 98.5t-83 60.5l-57 -57q-4 -5 -11 -5q-6 0 -10 4t-4 10t5 10l44 45q-14 2 -20 2q-69 0 -118.5 -49t-49.5 -119t49.5 -119t118.5 -49h7
q102 -3 173.5 -76.5t71.5 -175.5q0 -104 -73.5 -178t-177.5 -74q-105 0 -179 74t-74 178q0 6 4.5 10t10 4t9.5 -4t4 -10q0 -93 65.5 -158.5t158.5 -65.5t158.5 65.5t65.5 158.5q0 91 -63.5 156t-154.5 68h-6q-81 0 -138.5 57.5t-57.5 138.5t57.5 138.5t138.5 57.5
q22 0 45 -5l71 70q2 3 5 5h5z" />
    <glyph glyph-name="glyph_70" unicode="&#x15b;" horiz-adv-x="361" 
d="M318 486v-1q1 1 2 1q3 0 6 -1q3 -2 5 -4q4 -4 4 -9q0 -7 -6 -11l-55 -56q1 0 8 -4q17 -10 25 -19q4 -3 10 -12v-1q2 -3 2 -8q0 -3 -1 -6q-2 -5 -7 -7q-2 -1 -5 -1q-7 0 -12 6q-13 19 -42 30l-40 -40l-2 -2q-1 0 -2 -1q-1 0 -1 -1h-5q-6 0 -10 4t-4 10q0 4 2 7q1 1 1 2
l1 1l28 28q-14 2 -21 2q-22 -1 -41 -6q-10 -3 -18.5 -7t-14.5 -9q-28 -20 -27.5 -47t29.5 -47q8 -5 16 -8q24 -11 54 -12h7q2 0 3 -1h2q59 -2 100.5 -38.5t41.5 -88.5v-2q0 -53 -43 -90q-44 -38 -105 -38h-2q-61 0 -105 36q-45 37 -46 91v1q0 6 4 10t10 4h14v-14
q0 -25 15 -47.5t40 -35.5q8 -5 21 -9q24 -8 48 -8q52 0 87 30t34 72q0 10 -2 20q-9 33 -41 56t-74 24h-9q0 1 -1 1h-1q-49 2 -83 25q-41 28 -43 68q-1 42 39 71q36 26 90 27q24 0 46 -6l65 66q3 3 7 4q1 1 2 1z" />
    <glyph glyph-name="Scircumflex" unicode="&#x15c;" horiz-adv-x="564" 
d="M498 673q0 -6 -4 -10t-10 -4t-10 4t-4 10q0 70 -49 119t-119 49t-119 -49t-49 -119t49 -119t119 -49h7q102 -3 173.5 -76.5t71.5 -175.5q0 -104 -74 -178t-178 -74t-178 74t-74 178q0 6 4 10t10 4t10 -4t4 -10q0 -93 65.5 -158.5t158.5 -65.5t158.5 65.5t65.5 158.5
q0 91 -63.5 156t-154.5 68h-6q-81 0 -138.5 57.5t-57.5 138.5t57.5 138.5t138.5 57.5t138.5 -57.5t57.5 -138.5zM215 897q-11 3 -11 14q0 6 6 10l77 81l2 2l1 1q1 0 1 1h1l2 2h2q1 1 2 1h2q3 0 5 -1l1 -1h2q2 -2 3 -4l1 -1l1 -1l78 -76q5 -4 5 -10t-4.5 -10t-9.5 -5h-3
q-4 1 -8 3l-71 71l-71 -71q-4 -5 -10 -5h-2q-1 -1 -2 -1z" />
    <glyph glyph-name="scircumflex" unicode="&#x15d;" horiz-adv-x="361" 
d="M268 404.5q32 -13.5 49 -38.5q4 -4 4 -10t-4 -10t-10 -4q-9 0 -12 8q-13 18 -39 29t-57 10q-44 0 -74 -22q-28 -21 -27 -47q1 -27 29 -46q30 -20 71 -21h6q2 -1 3 -1h2q59 -3 100.5 -39t41.5 -88v-3q0 -52 -42 -89q-44 -38 -106 -38h-3q-59 0 -102 36q-45 36 -47 89h-1v3
q1 6 5 10t9 4q3 0 6 -1h1l1 -1h1v-1h1q1 -1 2 -3l1 -1v-1l1 -1v-5q1 -41 37 -71t87.5 -29.5t86.5 31t34 71.5q0 40 -34 69t-83 31h-8q-1 0 -3 1h-3q-46 2 -79 24q-42 28 -43 69t38 70q38 28 90 28q38 1 70 -12.5zM118 445q-11 3 -11 14q0 6 6 10l77 79l2 2l1 1q1 0 1 1h1
l2 2h2q1 1 2 1h2q3 0 5 -1l1 -1h2q2 -2 3 -4l1 -1l1 -1l78 -78q5 -4 5 -10t-4.5 -10t-9.5 -4h-3q-4 1 -8 4l-71 71l-71 -71q-4 -4 -10 -4h-4z" />
    <glyph glyph-name="Scedilla" unicode="&#x15e;" horiz-adv-x="564" 
d="M398 19q-44 -18 -96 -18q-104 0 -178 74t-74 178q0 6 4 10t10 4t10 -4t4 -10q0 -93 65.5 -158.5t158.5 -65.5t158.5 65.5t65.5 158.5q0 91 -63.5 156t-154.5 68h-6q-81 0 -138.5 57.5t-57.5 138.5t57.5 138.5t138.5 57.5t138.5 -57.5t57.5 -138.5q0 -6 -4 -10t-10 -4
t-10 4t-4 10q0 70 -49 119t-119 49t-119 -49t-49 -119t49 -119t119 -49h7q102 -3 173.5 -76.5t71.5 -175.5q0 -104 -74 -178q-25 -25 -54 -42v-41q15 8 32 7q22 -2 36.5 -19t13 -39.5t-18.5 -37.5q-15 -13 -34 -13h-6q-4 0 -9 2q-7 4 -7 12q0 6 4.5 10t9.5 4h5q11 -1 19 6
t9 18q0 11 -7 19.5t-18 9.5t-19 -6t-9 -18q0 -2 -1 -4v-3q0 -5 -4 -9t-10 -4t-10 4t-4 10v78z" />
    <glyph glyph-name="scedilla" unicode="&#x15f;" horiz-adv-x="399" 
d="M279 13q-34 -18 -76 -18q-61 -1 -105.5 35.5t-46.5 89.5h-1v3q1 6 5 10t9 4q3 0 6 -1h1l1 -1h1v-1h1q1 -1 2 -3l1 -1v-1l1 -1v-5q1 -41 37 -71t87.5 -29.5t86.5 31t34 71.5q0 40 -34 69t-83 31h-8q-1 0 -3 1h-3q-46 2 -79 24q-42 28 -43 69t38 70q38 28 90 28h5
q35 0 65 -12q32 -14 49 -39q4 -4 4 -10t-4 -10t-10 -4q-9 0 -12 8q-13 18 -39 29t-57 10q-44 0 -74 -22q-28 -21 -27 -47q1 -27 29 -46q30 -20 71 -21h6q2 -1 3 -1h2q59 -3 100.5 -39t41.5 -88q1 -54 -42 -92q-1 -1 -2 -1v-40q15 8 32 7q22 -2 37 -19q13 -15 13 -35v-4
q-2 -23 -19 -38q-15 -13 -34 -13h-6q-4 0 -9 2q-7 4 -7 12q0 6 4.5 10t9.5 4h5q11 -1 19 6t9 18q0 11 -7 19.5t-18 9.5t-19 -6t-9 -18q0 -2 -1 -4v-3q0 -5 -4 -9t-10 -4t-10 4t-4 10v72z" />
    <glyph glyph-name="Scaron" unicode="&#x160;" horiz-adv-x="564" 
d="M498 673q0 -6 -4 -10t-10 -4t-10 4t-4 10q0 70 -49 119t-119 49t-119 -49t-49 -119t49 -119t119 -49h7q102 -3 173.5 -76.5t71.5 -175.5q0 -104 -74 -178t-178 -74t-178 74t-74 178q0 6 4 10t10 4t10 -4t4 -10q0 -93 65.5 -158.5t158.5 -65.5t158.5 65.5t65.5 158.5
q0 91 -63.5 156t-154.5 68h-6q-81 0 -138.5 57.5t-57.5 138.5t57.5 138.5t138.5 57.5t138.5 -57.5t57.5 -138.5zM385 1009q11 -3 11 -14q0 -6 -6 -10l-77 -80l-2 -2l-1 -1q-1 0 -1 -1h-1l-2 -2h-2q-1 -1 -2 -1h-2q-3 0 -5 1l-1 1h-2q-2 2 -3 4l-1 1l-1 1l-78 77q-5 4 -5 10
t4.5 10t9.5 4h3q4 -1 8 -3l71 -71l71 71q4 5 10 5h4z" />
    <glyph glyph-name="scaron" unicode="&#x161;" horiz-adv-x="361" 
d="M268 404.5q32 -13.5 49 -38.5q4 -4 4 -10t-4 -10t-10 -4q-9 0 -12 8q-13 18 -39 29t-57 10q-44 0 -74 -22q-28 -21 -27 -47q1 -27 29 -46q30 -20 71 -21h6q2 -1 3 -1h2q59 -3 100.5 -39t41.5 -88v-3q0 -52 -42 -89q-44 -38 -106 -38h-3q-59 0 -102 36q-45 36 -47 89h-1v3
q1 6 5 10t9 4q3 0 6 -1h1l1 -1h1v-1h1q1 -1 2 -3l1 -1v-1l1 -1v-5q1 -41 37 -71t87.5 -29.5t86.5 31t34 71.5q0 40 -34 69t-83 31h-8q-1 0 -3 1h-3q-46 2 -79 24q-42 28 -43 69t38 70q38 28 90 28q38 1 70 -12.5zM288 555q11 -3 11 -14q0 -6 -6 -10l-77 -79l-2 -2l-1 -1
q-1 0 -1 -1h-1l-2 -2h-2q-1 -1 -2 -1h-2q-3 0 -5 1l-1 1h-2q-2 2 -3 4l-1 1l-1 1l-78 78q-5 4 -5 10t4.5 10t9.5 4h3q4 -1 8 -4l71 -71l71 71q4 4 10 4h4z" />
    <glyph glyph-name="Tcommaaccent" unicode="&#x162;" horiz-adv-x="650" 
d="M332 836h-268q-6 0 -10 4t-4 11q0 12 12 14h564q6 0 10 -4t4 -10q0 -7 -4 -11t-10 -4h-266v-846q15 8 32 7q22 -2 36.5 -19t13 -39.5t-18.5 -37.5q-15 -13 -34 -13h-6q-4 0 -9 2q-7 4 -7 12q0 6 4.5 10t9.5 4h5q11 -1 19 6t9 18q0 11 -7 19.5t-18 9.5t-19 -6t-9 -18
q0 -2 -1 -4v-3q0 -5 -4 -9t-10 -4t-10 4t-4 10v897z" />
    <glyph glyph-name="tcommaaccent" unicode="&#x163;" horiz-adv-x="307" 
d="M187 -4q-11 -3 -24 -3q-28 0 -48 13q-19 12 -23 33q-1 3 -2 5v343h-26q-6 0 -10 4t-4 10q0 5 3.5 9.5t8.5 4.5h28v184q0 10 10 13q1 1 2 1h2q6 0 10.5 -4t4.5 -10l-1 -1v-183h104q6 0 10 -4t4 -9.5t-4 -10t-10 -4.5h-104v-339q1 -1 1 -1.5t-1 -1.5q1 -9 12 -16
q13 -8 33 -8q19 0 33 9q12 8 12 16v1q0 10 9 13q2 1 5 1q6 0 10 -4t4 -10v-1q0 -22 -21 -37v-39q15 8 32 7q22 -2 37 -19q13 -15 13 -35v-4q-2 -23 -19 -38q-15 -13 -34 -13h-6q-4 0 -9 2q-7 4 -7 12q0 6 4.5 10t9.5 4h5q11 -1 19 6t9 18q0 11 -7 19.5t-18 9.5t-19 -6
t-9 -18q0 -2 -1 -4v-3q0 -5 -4 -9t-10 -4t-10 4t-4 10v77z" />
    <glyph glyph-name="Tcaron" unicode="&#x164;" horiz-adv-x="650" 
d="M626 865q6 0 10 -4t4 -10q0 -7 -4 -11t-10 -4h-266v-824q0 -6 -4 -10t-10 -4t-10 4t-4 10v824h-268q-6 0 -10 4t-4 11q0 12 12 14h564zM426 1009q11 -3 11 -14q0 -6 -6 -10l-77 -80l-2 -2l-1 -1q-1 0 -1 -1h-1l-2 -2h-2q-1 -1 -2 -1h-2q-3 0 -5 1l-1 1h-2q-2 2 -3 4l-1 1
l-1 1l-78 77q-5 4 -5 10t4.5 10t9.5 4h3q4 -1 8 -3l71 -71l71 71q4 5 10 5h4z" />
    <glyph glyph-name="tcaron" unicode="&#x165;" horiz-adv-x="263" 
d="M104 613q6 0 10.5 -4t4.5 -10l-1 -1v-183h104q6 0 10 -4t4 -9.5t-4 -10t-10 -4.5h-104v-339q1 -1 1 -1.5t-1 -1.5q1 -9 12 -16q13 -8 33 -8q19 0 33 9q12 8 12 16v1q0 10 9 13q2 1 5 1q6 0 10 -4t4 -10v-1q0 -23 -24 -39q-21 -14 -49 -14t-48 13q-19 12 -23 33q-1 3 -2 5
v343h-26q-6 0 -10 4t-4 10q0 5 3.5 9.5t8.5 4.5h28v184q0 10 10 13q1 1 2 1h2zM172 521q-5 0 -9.5 4t-4.5 10q0 4 3 7l41 63q-13 4 -21 15t-8 25q0 17 11.5 28.5t28.5 11.5t28.5 -11.5t11.5 -28.5q0 -18 -11 -29l-2 -2l-56 -87q-2 -4 -7 -6h-5z" />
    <glyph glyph-name="Tbar" unicode="&#x166;" horiz-adv-x="650" 
d="M332 558v278h-268q-6 0 -10 4t-4 11q0 12 12 14h564q6 0 10 -4t4 -10q0 -7 -4 -11t-10 -4h-266v-278h180q5 0 9 -4t4 -10t-4 -10t-9 -4h-180v-518q0 -6 -4 -10t-10 -4t-10 4t-4 10v518h-182q-5 0 -9 4t-4 10q0 12 11 14h184z" />
    <glyph glyph-name="tbar" unicode="&#x167;" horiz-adv-x="248" 
d="M90 270v117h-26q-6 0 -10 4t-4 10q0 5 3.5 9.5t8.5 4.5h28v184q0 10 10 13q1 1 2 1h2q6 0 10.5 -4t4.5 -10l-1 -1v-183h104q6 0 10 -4t4 -9.5t-4 -10t-10 -4.5h-104v-117h114q3 0 4.5 -4t1.5 -10t-1.5 -10t-4.5 -4h-114v-194q1 -1 1 -1.5t-1 -1.5q1 -9 12 -16
q13 -8 33 -8q19 0 33 9q12 8 12 16v1q0 10 9 13q2 1 5 1q6 0 10 -4t4 -10v-1q0 -23 -24 -39q-21 -14 -49 -14t-48 13q-19 12 -23 33q-1 3 -2 5v198h-34q-2 0 -4 4t-2 10q0 12 5 14h35z" />
    <glyph glyph-name="Utilde" unicode="&#x168;" 
d="M64 864q6 0 10 -4t4 -10v-632q1 -79 78 -136q79 -59 190 -58q111 0 189 59q76 58 75 138v629q0 12 11 14h3q6 0 10 -4t4 -10v-644q0 -3 -2 -6v-2q-10 -80 -84 -136q-85 -65 -206 -66h-4q-118 0 -203 63q-77 57 -87 140v1h-0.5t-0.5 1v1q-1 2 -1 4v645q0 10 10 13h4z
M298 974q13 0 24 -6q8 -4 14 -11q1 -1 4 -6q1 -2 3 -4v-2q1 -2 1 -3v-3q1 0 1 -1v-4h1q1 -1 5 -3q8 -4 18 -2t16.5 9.5t6.5 13.5q-1 1 -1 2.5t1 2.5q-1 0 -1 0.5t1 1.5q2 8 11 9q1 1 3 1q3 0 6 -2q4 -2 6 -6l1 -1v-1q0 -1 1 -1v-2q1 -9 -2 -18q-2 -7 -4 -9q-12 -21 -39 -27
q-20 -5 -37 4q-13 7 -18 20v1l-1 1q-1 1 -1 2q-1 2 -1 5v1q0 2 -1 3h-1q-1 2 -5 4q-9 4 -18 2q-11 -3 -16.5 -10t-4.5 -13v-6q-1 -1 -1 -2v-1l-2 -2q0 -1 -1 -1q-2 -3 -4 -4q-3 -1 -6 -1q-12 0 -14 12q-4 18 8.5 34t33.5 21q6 1 9 2h4z" />
    <glyph glyph-name="utilde" unicode="&#x169;" horiz-adv-x="402" 
d="M74 412q4 -4 4 -10v-234q5 -64 47 -106.5t99 -41.5q55 2 95 44t45 102v17q-1 1 -1 2t1 2v214q0 11 10 14h4q5 0 9.5 -4t4.5 -10v-395q0 -6 -4.5 -10t-9.5 -4q-6 0 -10 4t-4 10v71q-23 -38 -59.5 -60.5t-79.5 -23.5q-67 -1 -117 47t-57 119v2l-0.5 0.5l-0.5 0.5v239
q0 11 11 14q2 1 3 1q6 0 10 -4zM186 530q13 0 24 -6q8 -4 14 -11q1 -1 4 -6q1 -2 3 -4v-2q1 -2 1 -3v-3q1 0 1 -1v-4h1q1 -1 5 -3q8 -4 18 -2t16.5 9.5t6.5 13.5q-1 1 -1 2.5t1 2.5q-1 0 -1 0.5t1 1.5q2 8 11 9q1 1 3 1q3 0 6 -2q4 -2 6 -6l1 -1v-1q0 -1 1 -1v-2
q1 -9 -2 -18q-2 -7 -4 -9q-12 -21 -39 -27q-20 -5 -37 4q-13 7 -18 20v1l-1 1q-1 1 -1 2q-1 2 -1 5v1q0 2 -1 3h-1q-1 2 -5 4q-9 4 -18 2q-11 -3 -16.5 -10t-4.5 -13v-6q-1 -1 -1 -2v-1l-2 -2q0 -1 -1 -1q-2 -3 -4 -4q-3 -1 -6 -1q-12 0 -14 12q-4 18 8.5 34t33.5 21
q6 1 9 2h4z" />
    <glyph glyph-name="Umacron" unicode="&#x16a;" 
d="M64 864q6 0 10 -4t4 -10v-632q1 -79 78 -136q79 -59 190 -58q111 0 189 59q76 58 75 138v629q0 12 11 14h3q6 0 10 -4t4 -10v-644q0 -3 -2 -6v-2q-10 -80 -84 -136q-85 -65 -206 -66h-4q-118 0 -203 63q-77 57 -87 140v1h-0.5t-0.5 1v1q-1 2 -1 4v645q0 10 10 13h4z
M418 913q3 0 4.5 -4t1.5 -10t-1.5 -10t-4.5 -4h-166q-3 0 -4.5 4t-1.5 10q0 12 5 14h167z" />
    <glyph glyph-name="umacron" unicode="&#x16b;" horiz-adv-x="402" 
d="M74 412q4 -4 4 -10v-234q5 -64 47 -106.5t99 -41.5q55 2 95 44t45 102v17q-1 1 -1 2t1 2v214q0 11 10 14h4q5 0 9.5 -4t4.5 -10v-395q0 -6 -4.5 -10t-9.5 -4q-6 0 -10 4t-4 10v71q-23 -38 -59.5 -60.5t-79.5 -23.5q-67 -1 -117 47t-57 119v2l-0.5 0.5l-0.5 0.5v239
q0 11 11 14q2 1 3 1q6 0 10 -4zM307 548q3 0 4.5 -4t1.5 -10t-1.5 -10t-4.5 -4h-166q-3 0 -4.5 4t-1.5 10q0 12 5 14h167z" />
    <glyph glyph-name="Ubreve" unicode="&#x16c;" 
d="M64 864q6 0 10 -4t4 -10v-632q1 -79 78 -136q79 -59 190 -58q111 0 189 59q76 58 75 138v629q0 12 11 14h3q6 0 10 -4t4 -10v-644q0 -3 -2 -6v-2q-10 -80 -84 -136q-85 -65 -206 -66h-4q-118 0 -203 63q-77 57 -87 140v1h-0.5t-0.5 1v1q-1 2 -1 4v645q0 10 10 13h4z
M394 981q3 0 5 -1t4 -3l1 -1q0 -1 1 -1q1 -1 1 -2l1 -1v-2q1 -1 1 -2v-2q0 -3 -2 -6q-7 -21 -21 -35q-7 -7 -10 -9q-4 -4 -10 -7q-10 -6 -22 -7q-5 -1 -11 -1q-24 1 -43.5 18.5t-24.5 45.5v3q0 7 7 11v1q4 2 7 2h1q2 0 5 -2q2 -1 3 -2t2 -1q3 -3 3 -7q7 -40 41 -41q6 0 14 3
q19 5 28 27q3 4 5 10q0 6 4 9q2 1 3 1l1 1q2 0 4 1h2z" />
    <glyph glyph-name="ubreve" unicode="&#x16d;" horiz-adv-x="402" 
d="M74 412q4 -4 4 -10v-234q5 -64 47 -106.5t99 -41.5q55 2 95 44t45 102v17q-1 1 -1 2t1 2v214q0 11 10 14h4q5 0 9.5 -4t4.5 -10v-395q0 -6 -4.5 -10t-9.5 -4q-6 0 -10 4t-4 10v71q-23 -38 -59.5 -60.5t-79.5 -23.5q-67 -1 -117 47t-57 119v2l-0.5 0.5l-0.5 0.5v239
q0 11 11 14q2 1 3 1q6 0 10 -4zM281 528q3 0 5 -1t4 -3l1 -1q0 -1 1 -1q1 -1 1 -2l1 -1v-2q1 -1 1 -2v-2q0 -3 -2 -6q-7 -21 -21 -35q-7 -7 -10 -9q-4 -4 -10 -7q-10 -6 -22 -7q-5 -1 -11 -1q-24 1 -43.5 18.5t-24.5 45.5v3q0 7 7 11v1q4 2 7 2h1q2 0 5 -2q2 -1 3 -2t2 -1
q3 -3 3 -7q7 -40 41 -41q6 0 14 3q19 5 28 27q3 4 5 10q0 6 4 9q2 1 3 1l1 1q2 0 4 1h2z" />
    <glyph glyph-name="Uring" unicode="&#x16e;" 
d="M64 864q6 0 10 -4t4 -10v-632q1 -79 78 -136q79 -59 190 -58q111 0 189 59q76 58 75 138v629q0 12 11 14h3q6 0 10 -4t4 -10v-644q0 -3 -2 -6v-2q-10 -80 -84 -136q-85 -65 -206 -66h-4q-118 0 -203 63q-77 57 -87 140v1h-0.5t-0.5 1v1q-1 2 -1 4v645q0 10 10 13h4z
M418 937q0 -31 -22.5 -53t-53 -22t-52.5 22t-22 53t22 53t53 22q30 0 52.5 -22t22.5 -53zM296 937q0 -20 13.5 -33.5t33 -13.5t33 13.5t13.5 33.5t-13.5 33.5t-33 13.5t-33 -13.5t-13.5 -33.5z" />
    <glyph glyph-name="uring" unicode="&#x16f;" horiz-adv-x="402" 
d="M74 412q4 -4 4 -10v-234q5 -64 47 -106.5t99 -41.5q55 2 95 44t45 102v17q-1 1 -1 2t1 2v214q0 11 10 14h4q5 0 9.5 -4t4.5 -10v-395q0 -6 -4.5 -10t-9.5 -4q-6 0 -10 4t-4 10v71q-23 -38 -59.5 -60.5t-79.5 -23.5q-67 -1 -117 47t-57 119v2l-0.5 0.5l-0.5 0.5v239
q0 11 11 14q2 1 3 1q6 0 10 -4zM276 516.5q0 -22.5 -14.5 -38.5t-34.5 -16t-34.5 16t-14.5 38.5t14.5 38.5t34.5 16t34.5 -16t14.5 -38.5zM196 516.5q0 -14.5 9 -24.5t21.5 -10t21.5 10t9 24.5t-9 24.5t-21.5 10t-21.5 -10t-9 -24.5z" />
    <glyph glyph-name="Uhungarumlaut" unicode="&#x170;" 
d="M64 864q6 0 10 -4t4 -10v-632q1 -79 78 -136q79 -59 190 -58q111 0 189 59q76 58 75 138v629q0 12 11 14h3q6 0 10 -4t4 -10v-644q0 -3 -2 -6v-2q-10 -80 -84 -136q-85 -65 -206 -66h-4q-118 0 -203 63q-77 57 -87 140v1h-0.5t-0.5 1v1q-1 2 -1 4v645q0 10 10 13h4z
M487 994q0 -6 -4 -10l-72 -70l-20 -19l-8 7l-1 1q-2 1 -4 3v2l-1 1q-1 2 -1 5v2q0 1 1 2v2l2 2v1q1 0 1 1l1 1l2 2l80 76q4 6 10 6q11 0 14 -11v-4zM322 996q0 -6 -4 -10l-72 -70l-20 -19l-8 7l-1 1q-2 1 -4 3v2l-1 1q-1 2 -1 5v2q0 1 1 2v2l2 2v1q1 0 1 1l1 1l2 2l80 76
q4 6 10 6q11 0 14 -11v-4z" />
    <glyph glyph-name="uhungarumlaut" unicode="&#x171;" horiz-adv-x="402" 
d="M74 412q4 -4 4 -10v-234q5 -64 47 -106.5t99 -41.5q55 2 95 44t45 102v17q-1 1 -1 2t1 2v214q0 11 10 14h4q5 0 9.5 -4t4.5 -10v-395q0 -6 -4.5 -10t-9.5 -4q-6 0 -10 4t-4 10v71q-23 -38 -59.5 -60.5t-79.5 -23.5q-67 -1 -117 47t-57 119v2l-0.5 0.5l-0.5 0.5v239
q0 11 11 14q2 1 3 1q6 0 10 -4zM384 565q0 -6 -4 -10l-72 -70l-20 -19l-8 7l-1 1q-2 1 -4 3v2l-1 1q-1 2 -1 5v2q0 1 1 2v2l2 2v1q1 0 1 1l1 1l2 2l80 76q4 6 10 6q11 0 14 -11v-4zM219 567q0 -6 -4 -10l-72 -70l-20 -19l-8 7l-1 1q-2 1 -4 3v2l-1 1q-1 2 -1 5v2q0 1 1 2v2
l2 2v1q1 0 1 1l1 1l2 2l80 76q4 6 10 6q11 0 14 -11v-4z" />
    <glyph glyph-name="Uogonek" unicode="&#x172;" 
d="M396 0q-24 -3 -50 -4q-121 -1 -207 63q-77 57 -87 140v1q-1 0 -1 1v1q-1 2 -1 4v645q0 10 10 13h4q6 0 10 -4t4 -10v-632q1 -79 78 -136q79 -59 190 -58q111 0 189 59q76 58 75 138v629q0 12 11 14h3q6 0 10 -4t4 -10v-644q0 -3 -2 -6v-2q-10 -80 -84 -136
q-37 -29 -82 -45v-1q-2 -1 -3 -2t-1 -2q-3 -3 -7 -3q-41 -4 -44 -38q0 -6 2 -14q4 -20 26 -31q3 -2 9 -4q6 -1 9 -5q1 -2 1 -3v-1l2 -4v-2q0 -3 -2 -5q-1 -2 -3 -4l-1 -1q-1 0 -1 -1q-1 -1 -2 -1l-1 -1h-1l-1 1q-1 -1 -2 -1h-2q-3 0 -6 2q-20 8 -34 24q-7 6 -8 9q-4 5 -6 11
q-6 10 -6 22q-1 6 0 12q1 14 8 26z" />
    <glyph glyph-name="uogonek" unicode="&#x173;" horiz-adv-x="402" 
d="M212 -6q-59 3 -104 46q-50 48 -57 119v3h-1v239q0 11 11 14q2 1 3 1q6 0 10 -4t4 -10v-234q5 -64 47 -106.5t99 -41.5q55 2 95 44t45 102v17q-1 1 -1 2t1 2v214q0 11 10 14h4q5 0 9.5 -4t4.5 -10v-395q0 -6 -4.5 -10t-10 -4t-9.5 4t-4 10v71q-23 -38 -59 -60
q-11 -7 -23 -12l-1 -1q-1 -1 -1 -2q-3 -3 -7 -3q-41 -4 -44 -38q0 -6 2 -14q4 -20 26 -31q3 -2 9 -4q6 -1 9 -5q1 -2 1 -3v-1l2 -4v-2q0 -3 -2 -5q-1 -2 -3 -4l-1 -1q-1 0 -1 -1q-1 -1 -2 -1l-1 -1h-1l-1 1q-1 -1 -2 -1h-2q-3 0 -6 2q-20 8 -34 24q-7 6 -8 9q-4 5 -6 11
q-6 10 -6 22q-1 6 0 12q1 16 10 30z" />
    <glyph glyph-name="Wcircumflex" unicode="&#x174;" horiz-adv-x="978" 
d="M954 868q5 0 9.5 -4.5t4.5 -9.5q0 -3 -1 -5l-221 -836l-1 -3q-1 -1 -1 -3v-1l-1 -1q-3 -4 -7 -5q-3 -2 -5 -2t-3 1q-1 0 -2 1v-1l-1 1h-1q-4 3 -6 7v4l-209 787l-209 -789q-2 -10 -13 -10t-14 10l-222 840q-1 2 -1 4q0 11 11 14h3q11 0 14 -11l209 -788l208 788
q3 11 14 11t13 -11l210 -788l208 788q2 8 9 11q2 0 3 1h2zM425 897q-11 3 -11 14q0 6 6 10l77 81l2 2l1 1q1 0 1 1h1l2 2h2q1 1 2 1h2q3 0 5 -1l1 -1h2q2 -2 3 -4l1 -1l1 -1l78 -76q5 -4 5 -10t-4.5 -10t-9.5 -5h-3q-4 1 -8 3l-71 71l-71 -71q-4 -5 -10 -5h-2q-1 -1 -2 -1z
" />
    <glyph glyph-name="wcircumflex" unicode="&#x175;" horiz-adv-x="556" 
d="M64 416q11 0 14 -10l104 -349l102 345q0 2 1 4v1q1 2 2 3q0 1 1 2t3 2q1 1 2 1q1 1 2 1h5q1 0 2 -1q4 -1 7 -4q1 -1 1 -3q1 0 1 -1v-1q1 -2 1 -4l103 -346l104 350q2 9 12 10h1q6 0 10 -4t4 -10v-4l-116 -391v-1q0 -9 -8 -13h-1l-1 -1h-9v1h-4v1q-7 4 -7 12v2l-102 345
l-102 -346v-2l-2 -4t-2 -3h-1q-1 -2 -4 -4q-1 0 -3 -1h-3q-3 0 -5 1h-1q-2 1 -3 2l-1 1q0 1 -1 2l-1 1q-1 1 -1 2v1l-1 3v1l-117 391v5q0 10 9 13h5zM215 445q-11 3 -11 14q0 6 6 10l77 79l2 2l1 1q1 0 1 1h1l2 2h2q1 1 2 1h2q3 0 5 -1l1 -1h2q2 -2 3 -4l1 -1l1 -1l78 -78
q5 -4 5 -10t-4.5 -10t-9.5 -4h-3q-4 1 -8 4l-71 71l-71 -71q-4 -4 -10 -4h-4z" />
    <glyph glyph-name="Ycircumflex" unicode="&#x176;" horiz-adv-x="650" 
d="M259 897q-11 3 -11 14q0 6 6 10l77 81l2 2l1 1q1 0 1 1h1l2 2h2q1 1 2 1h2q3 0 5 -1l1 -1h2q2 -2 3 -4l1 -1l1 -1l78 -76q5 -4 5 -10t-4.5 -10t-9.5 -5h-3q-4 1 -8 3l-71 71l-71 -71q-4 -5 -10 -5h-2q-1 -1 -2 -1zM626 857q5 0 9.5 -4.5t4.5 -9.5t-3 -9l-279 -418v-415
q0 -5 -4 -9.5t-9 -4.5q-6 0 -10.5 4.5t-4.5 9.5v416l-277 417q-3 3 -3 8q0 11 12 14h3q7 0 12 -6l268 -403l268 403q3 4 9 6q1 0 3 1h1z" />
    <glyph glyph-name="ycircumflex" unicode="&#x177;" horiz-adv-x="400" 
d="M63 407q10 0 13 -8l141 -364l146 364q3 7 11 8h2q6 0 10 -4t4 -10q0 -2 -1 -5l-274 -680q-2 -12 -13 -12q-6 0 -10 4.5t-4 10.5q0 4 2 7l113 280v1l-152 390q-1 2 -1 5q0 10 9 13h4zM143 445q-11 3 -11 14q0 6 6 10l77 79l2 2l1 1q1 0 1 1h1l2 2h2q1 1 2 1h2q3 0 5 -1
l1 -1h2q2 -2 3 -4l1 -1l1 -1l78 -78q5 -4 5 -10t-4.5 -10t-9.5 -4h-3q-4 1 -8 4l-71 71l-71 -71q-4 -4 -10 -4h-4z" />
    <glyph glyph-name="Ydieresis" unicode="&#x178;" horiz-adv-x="650" 
d="M626 857q5 0 9.5 -4.5t4.5 -9.5t-3 -9l-279 -418v-415q0 -5 -4 -9.5t-9 -4.5q-6 0 -10.5 4.5t-4.5 9.5v416l-277 417q-3 3 -3 8q0 11 12 14h3q7 0 12 -6l268 -403l268 403q3 4 9 6q1 0 3 1h1zM304 949q0 -17 -11.5 -29t-28.5 -12t-28.5 12t-11.5 29t11.5 29t28.5 12
t28.5 -12t11.5 -29zM454.5 978q11.5 -12 11.5 -29t-11.5 -29t-28.5 -12t-28.5 12t-11.5 29q0 15 9 26t23 14q4 1 8 1q17 0 28.5 -12z" />
    <glyph glyph-name="glyph_71" unicode="&#x179;" horiz-adv-x="650" 
d="M325 950q6 0 10 -4t4 -9.5t-4 -10.5l-64 -63h358q1 -1 2 -1q0 -1 1 -1h2q2 -2 4 -5q2 -4 2 -7v-4q-1 -1 -1 -2q-1 0 -1 -1l-0.5 -1t-1.5 -2l-544 -816h534q6 0 10 -4.5t4 -9.5q0 -6 -4 -10t-10 -4h-553q-4 -3 -9 -3q-6 0 -10 4t-4 10q0 2 1 4q0 1 1 2v1q1 5 6 8l542 814
h-357l-48 -49q-4 -5 -11 -5q-6 0 -10 4t-4 10q0 7 5 11l29 29h-139q-6 0 -10 4t-4 10q0 5 4 9t9 5h168l83 83q2 3 5 4h5z" />
    <glyph glyph-name="glyph_72" unicode="&#x17a;" horiz-adv-x="404" 
d="M262 474q3 0 6 -1t5 -4q4 -4 4 -9q0 -7 -6 -10l-40 -40h143q3 1 6 1h3q1 -1 2 -1h1q3 -2 5 -5t2 -7v-4q0 -1 -1 -2q0 -1 -1 -1v-1l-2 -2v-1l-1 -1q-1 0 -2 -1l-291 -361h287v-1h5q7 -4 7 -12q0 -10 -10 -13q-2 -1 -5 -1h-312q-3 0 -6 1h-1q0 1 -1 1q-2 1 -3 3l-2 2t-1 2
v1q-1 0 -1 1q-1 1 -1 2.5t1 3.5l1 1v3l1.5 1.5l0.5 0.5v1q1 0 3 2l291 360h-145l-50 -49q-1 -2 -3 -3q-4 -3 -8 -3q-6 0 -10 4.5t-4 9.5q0 8 6 12l29 29h-100q-5 0 -9.5 4t-4.5 10q0 11 12 13h130l59 59q3 4 7 5h4z" />
    <glyph glyph-name="glyph_73" unicode="&#x17b;" horiz-adv-x="650" 
d="M388 987.5q0 -17.5 -12.5 -30t-30 -12.5t-29.5 12.5t-12 30t12 30t30 12.5q17 0 29.5 -12.5t12.5 -30zM629 862q1 -1 2 -1h1v-1h3v-2l2 -2v-1h1q2 -4 2 -8v-5l-2 -2l-2 -2l-543 -816h533q6 0 10 -4.5t4 -9.5q0 -6 -4 -10t-10 -4h-555q-3 -2 -5 -2q-10 0 -13 9q-1 2 -1 4
v3q0 8 6 12l542 814h-534q-1 -1 -2 -1q-6 0 -10 4.5t-4 10.5q0 5 3.5 9t8.5 5h567z" />
    <glyph glyph-name="glyph_74" unicode="&#x17c;" horiz-adv-x="402" 
d="M240 475.5q0 -11.5 -7.5 -19.5t-19 -8t-20 8t-8.5 19.5t8.5 20t20.5 8.5q11 0 18.5 -8.5t7.5 -20zM382 407v-1h4v-1h1v-1h1q0 -1 1 -1q0 -1 1 -2v-1h1v-3q1 -2 1 -4q0 -3 -2 -7h-1v-1l-2 -1l-2 -2l-290 -356h283q6 0 10 -4.5t4 -9.5t-4 -9t-10 -4h-312q-4 0 -7 1
q-1 1 -2 1h-1v1h-1l-2 4v1q-2 2 -2 6q0 3 3 7q0 1 1 2l2 1l1 1l291 356h-285q-6 0 -10 4t-4 9q0 12 12 14h320z" />
    <glyph glyph-name="Zcaron" unicode="&#x17d;" horiz-adv-x="652" 
d="M630 867q3 0 5 -2q1 0 1 -1h1v-1q1 0 2 -1v-1h1v-4q1 0 1 -1v-7h-1q0 -1 -0.5 -2l-1 -2t-0.5 -2l-544 -816h534q5 0 9.5 -4t4.5 -10t-4.5 -10t-9.5 -4h-563q-2 0 -4 1h-2v2h-3v1q-4 5 -4 10q0 7 5 11h1q0 1 1 1l541 814h-535q-6 0 -10.5 4t-4.5 10q0 12 12 14h568z
M454 1009q11 -3 11 -14q0 -6 -6 -10l-77 -80l-2 -2l-1 -1q-1 0 -1 -1h-1l-2 -2h-2q-1 -1 -2 -1h-2q-3 0 -5 1l-1 1h-2q-2 2 -3 4l-1 1l-1 1l-78 77q-5 4 -5 10t4.5 10t9.5 4h3q4 -1 8 -3l71 -71l71 71q4 5 10 5h4z" />
    <glyph glyph-name="zcaron" unicode="&#x17e;" horiz-adv-x="402" 
d="M382 407v-1h4v-1h1v-1h1q0 -1 1 -1q0 -1 1 -2v-1h1v-3q1 -2 1 -4q0 -3 -2 -7h-1v-1l-2 -1l-2 -2l-290 -356h283q6 0 10 -4.5t4 -9.5t-4 -9t-10 -4h-312q-4 0 -7 1q-1 1 -2 1h-1v1h-1l-2 4v1q-2 2 -2 6q0 3 3 7q0 1 1 2l2 1l1 1l291 356h-285q-6 0 -10 4t-4 9q0 12 12 14
h320zM318 555q11 -3 11 -14q0 -6 -6 -10l-77 -79l-2 -2l-1 -1q-1 0 -1 -1h-1l-2 -2h-2q-1 -1 -2 -1h-2q-3 0 -5 1l-1 1h-2q-2 2 -3 4l-1 1l-1 1l-78 78q-5 4 -5 10t4.5 10t9.5 4h3q4 -1 8 -4l71 -71l71 71q4 4 10 4h4z" />
    <glyph glyph-name="uni01CD" unicode="&#x1cd;" 
d="M349 836l1 -1q1 0 2 -1h1v-1h1v-1h1l2 -4q0 -1 0.5 -1.5t0.5 -1.5v-2l280 -808v-5q0 -6 -4 -10t-10 -4q-10 0 -14 10l-97 282h-338l-97 -282q-4 -10 -14 -10q-6 0 -10 4t-4 10v5l280 809v1q0 1 0.5 1.5t0.5 1.5v2q1 0 1 1v1q1 0 2 1t2 1q1 2 3 2h10zM186 321h316
l-158 457zM425 1012q11 -3 11 -14q0 -6 -6 -10l-77 -80l-2 -2l-1 -1q-1 0 -1 -1h-1l-2 -2h-2q-1 -1 -2 -1h-2q-3 0 -5 1l-1 1h-2q-2 2 -3 4l-1 1l-1 1l-78 77q-5 4 -5 10t4.5 10t9.5 4h3q4 -1 8 -3l71 -71l71 71q4 5 10 5h4z" />
    <glyph glyph-name="uni01CE" unicode="&#x1ce;" horiz-adv-x="454" 
d="M178.5 228.5q-44.5 -18.5 -72.5 -50.5q-36 -43 -26 -85q2 -10 7 -19q15 -29 52 -43q51 -21 115.5 -4t101.5 61q1 2 3 3v121q-13 12 -36 22q-26 11 -56 11q-44 2 -88.5 -16.5zM234 422q35 -2 63 -13q37 -13 60.5 -37.5t28.5 -53.5v-2q1 -1 1 -4v-260q1 -12 11 -18
q12 -10 31 -10h1q5 0 9.5 -4t4.5 -9q0 -6 -4.5 -10t-9.5 -4h-1q-28 0 -48 15q-18 14 -21 35v3h-1v1l-2.5 -2.5t-2.5 -1.5q-12 -9 -28 -20q-31 -19 -64 -27q-14 -3 -34 -6q-12 -1 -23 -1q-41 0 -77 14q-62 24 -75 80q-3 13 -3 25q0 43 35 83q32 38 82 58.5t101 18.5
q36 -1 65 -13q12 -5 25 -12h1v58q0 24 -19 45.5t-52 33.5q-53 19 -110 7t-84 -45q-4 -5 -11 -5q-6 0 -10 3.5t-4 9.5q0 5 3 9q22 28 59 43.5t80 16.5q8 0 23 -1zM320 587q11 -3 11 -14q0 -6 -6 -10l-77 -80l-2 -2l-1 -1q-1 0 -1 -1h-1l-2 -2h-2q-1 -1 -2 -1h-2q-3 0 -5 1
l-1 1h-2q-2 2 -3 4l-1 1l-1 1l-78 77q-5 4 -5 10t4.5 10t9.5 4h3q4 -1 8 -3l71 -71l71 71q4 5 10 5h4z" />
    <glyph glyph-name="uni01CF" unicode="&#x1cf;" horiz-adv-x="252" 
d="M144 860q6 0 10 -4t4 -10v-840q0 -6 -4 -10t-10 -4t-10 4t-4 10v841q0 10 10 13h4zM231 1006q11 -3 11 -14q0 -6 -6 -10l-77 -80l-2 -2l-1 -1q-1 0 -1 -1h-1l-2 -2h-2q-1 -1 -2 -1h-2q-3 0 -5 1l-1 1h-2q-2 2 -3 4l-1 1l-1 1l-78 77q-5 4 -5 10t4.5 10t9.5 4h3q4 -1 8 -3
l71 -71l71 71q4 5 10 5h4z" />
    <glyph glyph-name="uni01D0" unicode="&#x1d0;" horiz-adv-x="252" 
d="M140 422q6 0 10 -4t4 -10v-395q0 -6 -4 -10t-10 -4t-10 4t-4 10v395q0 11 10 14h4zM231 582q11 -3 11 -14q0 -6 -6 -10l-77 -80l-2 -2l-1 -1q-1 0 -1 -1h-1l-2 -2h-2q-1 -1 -2 -1h-2q-3 0 -5 1l-1 1h-2q-2 2 -3 4l-1 1l-1 1l-78 77q-5 4 -5 10t4.5 10t9.5 4h3q4 -1 8 -3
l71 -71l71 71q4 5 10 5h4z" />
    <glyph glyph-name="uni01D1" unicode="&#x1d1;" horiz-adv-x="928" 
d="M791 740q58 -58 92.5 -138.5t34.5 -168.5t-34.5 -168.5t-92.5 -138.5t-138.5 -92.5t-168.5 -34.5t-168.5 34.5t-138.5 92.5t-92.5 138.5t-34.5 168.5t34.5 168.5t92.5 138.5t138.5 92.5t168.5 34.5t168.5 -34.5t138.5 -92.5zM132.5 636.5q-54.5 -93.5 -54.5 -203.5
t54.5 -203.5t148 -148t203.5 -54.5t203.5 54.5t148 148t54.5 203.5t-54.5 203.5t-148 148t-203.5 54.5t-203.5 -54.5t-148 -148zM573 1000q11 -3 12 -14q0 -6 -6 -10l-76 -80l-2 -2l-1 -1q-1 0 -1 -1h-1l-2 -2h-2q-1 -1 -2 -1h-2q-3 0 -5 1l-1 1h-2q-2 2 -3 4l-1 1l-1 1
l-79 77q-5 4 -5 10q-1 6 3.5 10t9.5 4h3q4 -1 8 -4l72 -70l70 72q4 4 10 4h4z" />
    <glyph glyph-name="uni01D2" unicode="&#x1d2;" horiz-adv-x="478" 
d="M468 202q0 -88 -61 -149.5t-147 -61.5q-87 0 -148.5 61.5t-61.5 149.5q0 87 61.5 149t148 62t147.5 -62t61 -149zM77 202q0 -76 53.5 -129.5t129 -53.5t128.5 53.5t53 129.5t-53 129.5t-128.5 53.5t-129 -53.5t-53.5 -129.5zM345 572q11 -3 11 -14q0 -6 -6 -10l-77 -79
l-2 -2l-1 -1q-1 0 -1 -1h-1l-2 -2h-2q-1 -1 -2 -1h-2q-3 0 -5 1l-1 1h-2q-2 2 -3 4l-1 1l-1 1l-78 78q-5 4 -5 10t4.5 10t9.5 4h3q4 -1 8 -4l71 -71l71 71q4 4 10 4h4z" />
    <glyph glyph-name="uni01D3" unicode="&#x1d3;" 
d="M64 864q6 0 10 -4t4 -10v-632q1 -79 78 -136q79 -59 190 -58q111 0 189 59q76 58 75 138v629q0 12 11 14h3q6 0 10 -4t4 -10v-644q0 -3 -2 -6v-2q-10 -80 -84 -136q-85 -65 -206 -66h-4q-118 0 -203 63q-77 57 -87 140v1h-0.5t-0.5 1v1q-1 2 -1 4v645q0 10 10 13h4z
M417 1007q11 -2 11 -13q0 -6 -6 -11l-75 -81l-2 -2l-1 -1q-1 0 -1 -1h-1l-2 -2h-2q-1 -1 -2 -1h-2q-3 0 -5 1l-1 1h-2q-2 2 -3 4l-1 1l-1 1l-80 76q-5 3 -5 9t4.5 10.5t9.5 4.5h3q4 -1 8 -4l73 -69l69 73q4 4 10 4h4z" />
    <glyph glyph-name="uni01D4" unicode="&#x1d4;" horiz-adv-x="402" 
d="M74 412q4 -4 4 -10v-234q5 -64 47 -106.5t99 -41.5q55 2 95 44t45 102v17q-1 1 -1 2t1 2v214q0 11 10 14h4q5 0 9.5 -4t4.5 -10v-395q0 -6 -4.5 -10t-9.5 -4q-6 0 -10 4t-4 10v71q-23 -38 -59.5 -60.5t-79.5 -23.5q-67 -1 -117 47t-57 119v2l-0.5 0.5l-0.5 0.5v239
q0 11 11 14q2 1 3 1q6 0 10 -4zM307 567q11 -3 11 -14q0 -6 -6 -10l-77 -79l-2 -2l-1 -1q-1 0 -1 -1h-1l-2 -2h-2q-1 -1 -2 -1h-2q-3 0 -5 1l-1 1h-2q-2 2 -3 4l-1 1l-1 1l-78 78q-5 4 -5 10t4.5 10t9.5 4h3q4 -1 8 -4l71 -71l71 71q4 4 10 4h4z" />
    <glyph glyph-name="uni01D5" unicode="&#x1d5;" 
d="M64 864q6 0 10 -4t4 -10v-632q1 -79 78 -136q79 -59 190 -58q111 0 189 59q76 58 75 138v629q0 12 11 14h3q6 0 10 -4t4 -10v-644q0 -3 -2 -6v-2q-10 -80 -84 -136q-85 -65 -206 -66h-4q-118 0 -203 63q-77 57 -87 140v1h-0.5t-0.5 1v1q-1 2 -1 4v645q0 10 10 13h4z
M295 882q0 -17 -11.5 -29t-28.5 -12t-28.5 12t-11.5 29t11.5 29t28.5 12t28.5 -12t11.5 -29zM445.5 911q11.5 -12 11.5 -29t-11.5 -29t-28.5 -12t-28.5 12t-11.5 29q0 15 9 26t23 14q4 1 8 1q17 0 28.5 -12zM420 976q3 0 4.5 -4t1.5 -10t-1.5 -10t-4.5 -4h-166q-3 0 -4.5 4
t-1.5 10q0 12 5 14h167z" />
    <glyph glyph-name="uni01D6" unicode="&#x1d6;" horiz-adv-x="402" 
d="M175 510q0 -17 -11.5 -29t-28.5 -12t-28.5 12t-11.5 29t11.5 29t28.5 12t28.5 -12t11.5 -29zM325.5 539q11.5 -12 11.5 -29t-11.5 -29t-28.5 -12t-28.5 12t-11.5 29q0 15 9 26t23 14q4 1 8 1q17 0 28.5 -12zM74 412q4 -4 4 -10v-234q5 -64 47 -106.5t99 -41.5q55 2 95 44
t45 102v17q-1 1 -1 2t1 2v214q0 11 10 14h4q5 0 9.5 -4t4.5 -10v-395q0 -6 -4.5 -10t-9.5 -4q-6 0 -10 4t-4 10v71q-23 -38 -59.5 -60.5t-79.5 -23.5q-67 -1 -117 47t-57 119v2l-0.5 0.5l-0.5 0.5v239q0 11 11 14q2 1 3 1q6 0 10 -4zM302 601q3 0 4.5 -4t1.5 -10t-1.5 -10
t-4.5 -4h-166q-3 0 -4.5 4t-1.5 10q0 12 5 14h167z" />
    <glyph glyph-name="uni01D7" unicode="&#x1d7;" 
d="M64 864q6 0 10 -4t4 -10v-632q1 -79 78 -136q79 -59 190 -58q111 0 189 59q76 58 75 138v629q0 12 11 14h3q6 0 10 -4t4 -10v-644q0 -3 -2 -6v-2q-10 -80 -84 -136q-85 -65 -206 -66h-4q-118 0 -203 63q-77 57 -87 140v1h-0.5t-0.5 1v1q-1 2 -1 4v645q0 10 10 13h4z
M299 861q0 -17 -11.5 -29t-28.5 -12t-28.5 12t-11.5 29t11.5 29t28.5 12t28.5 -12t11.5 -29zM449.5 890q11.5 -12 11.5 -29t-11.5 -29t-28.5 -12t-28.5 12t-11.5 29q0 15 9 26t23 14q4 1 8 1q17 0 28.5 -12zM300 924q0 6 4 10l70 72l20 19l8 -7l1 -1q2 -1 4 -3v-2l1 -1
q1 -2 1 -5v-2q0 -1 -1 -2v-2l-2 -2v-1q-1 0 -1 -1l-1 -1l-2 -2l-78 -78q-4 -6 -10 -6q-11 0 -14 11v4z" />
    <glyph glyph-name="uni01D8" unicode="&#x1d8;" horiz-adv-x="402" 
d="M175 510q0 -17 -11.5 -29t-28.5 -12t-28.5 12t-11.5 29t11.5 29t28.5 12t28.5 -12t11.5 -29zM325.5 539q11.5 -12 11.5 -29t-11.5 -29t-28.5 -12t-28.5 12t-11.5 29q0 15 9 26t23 14q4 1 8 1q17 0 28.5 -12zM74 412q4 -4 4 -10v-234q5 -64 47 -106.5t99 -41.5q55 2 95 44
t45 102v17q-1 1 -1 2t1 2v214q0 11 10 14h4q5 0 9.5 -4t4.5 -10v-395q0 -6 -4.5 -10t-9.5 -4q-6 0 -10 4t-4 10v71q-23 -38 -59.5 -60.5t-79.5 -23.5q-67 -1 -117 47t-57 119v2l-0.5 0.5l-0.5 0.5v239q0 11 11 14q2 1 3 1q6 0 10 -4zM179 582q0 6 4 10l70 72l20 19l8 -7
l1 -1q2 -1 4 -3v-2l1 -1q1 -2 1 -5v-2q0 -1 -1 -2v-2l-2 -2v-1q-1 0 -1 -1l-1 -1l-2 -2l-78 -78q-4 -6 -10 -6q-11 0 -14 11v4z" />
    <glyph glyph-name="uni01D9" unicode="&#x1d9;" 
d="M64 864q6 0 10 -4t4 -10v-632q1 -79 78 -136q79 -59 190 -58q111 0 189 59q76 58 75 138v629q0 12 11 14h3q6 0 10 -4t4 -10v-644q0 -3 -2 -6v-2q-10 -80 -84 -136q-85 -65 -206 -66h-4q-118 0 -203 63q-77 57 -87 140v1h-0.5t-0.5 1v1q-1 2 -1 4v645q0 10 10 13h4z
M299 861q0 -17 -11.5 -29t-28.5 -12t-28.5 12t-11.5 29t11.5 29t28.5 12t28.5 -12t11.5 -29zM449.5 890q11.5 -12 11.5 -29t-11.5 -29t-28.5 -12t-28.5 12t-11.5 29q0 15 9 26t23 14q4 1 8 1q17 0 28.5 -12zM427 1006q11 -3 11 -14q0 -6 -6 -10l-77 -80l-2 -2l-1 -1
q-1 0 -1 -1h-1l-2 -2h-2q-1 -1 -2 -1h-2q-3 0 -5 1l-1 1h-2q-2 2 -3 4l-1 1l-1 1l-78 77q-5 4 -5 10t4.5 10t9.5 4h3q4 -1 8 -3l71 -71l71 71q4 5 10 5h4z" />
    <glyph glyph-name="uni01DA" unicode="&#x1da;" horiz-adv-x="402" 
d="M175 510q0 -17 -11.5 -29t-28.5 -12t-28.5 12t-11.5 29t11.5 29t28.5 12t28.5 -12t11.5 -29zM325.5 539q11.5 -12 11.5 -29t-11.5 -29t-28.5 -12t-28.5 12t-11.5 29q0 15 9 26t23 14q4 1 8 1q17 0 28.5 -12zM74 412q4 -4 4 -10v-234q5 -64 47 -106.5t99 -41.5q55 2 95 44
t45 102v17q-1 1 -1 2t1 2v214q0 11 10 14h4q5 0 9.5 -4t4.5 -10v-395q0 -6 -4.5 -10t-9.5 -4q-6 0 -10 4t-4 10v71q-23 -38 -59.5 -60.5t-79.5 -23.5q-67 -1 -117 47t-57 119v2l-0.5 0.5l-0.5 0.5v239q0 11 11 14q2 1 3 1q6 0 10 -4zM301 666q11 -3 11 -14q0 -6 -6 -10
l-77 -80l-2 -2l-1 -1q-1 0 -1 -1h-1l-2 -2h-2q-1 -1 -2 -1h-2q-3 0 -5 1l-1 1h-2q-2 2 -3 4l-1 1l-1 1l-78 77q-5 4 -5 10t4.5 10t9.5 4h3q4 -1 8 -3l71 -71l71 71q4 5 10 5h4z" />
    <glyph glyph-name="uni01DB" unicode="&#x1db;" 
d="M64 864q6 0 10 -4t4 -10v-632q1 -79 78 -136q79 -59 190 -58q111 0 189 59q76 58 75 138v629q0 12 11 14h3q6 0 10 -4t4 -10v-644q0 -3 -2 -6v-2q-10 -80 -84 -136q-85 -65 -206 -66h-4q-118 0 -203 63q-77 57 -87 140v1h-0.5t-0.5 1v1q-1 2 -1 4v645q0 10 10 13h4z
M299 861q0 -17 -11.5 -29t-28.5 -12t-28.5 12t-11.5 29t11.5 29t28.5 12t28.5 -12t11.5 -29zM449.5 890q11.5 -12 11.5 -29t-11.5 -29t-28.5 -12t-28.5 12t-11.5 29q0 15 9 26t23 14q4 1 8 1q17 0 28.5 -12zM287 1020q1 0 2 -1q6 0 10 -4l69 -73l18 -21l-8 -8l-1 -1
q-1 -2 -3 -4h-2l-1 -1h-7q-1 0 -2 1h-2l-2 2h-1q0 1 -1 1l-1 1l-2 2l-74 82q-6 4 -6 10q1 11 12 14h2z" />
    <glyph glyph-name="uni01DC" unicode="&#x1dc;" horiz-adv-x="402" 
d="M175 510q0 -17 -11.5 -29t-28.5 -12t-28.5 12t-11.5 29t11.5 29t28.5 12t28.5 -12t11.5 -29zM325.5 539q11.5 -12 11.5 -29t-11.5 -29t-28.5 -12t-28.5 12t-11.5 29q0 15 9 26t23 14q4 1 8 1q17 0 28.5 -12zM74 412q4 -4 4 -10v-234q5 -64 47 -106.5t99 -41.5q55 2 95 44
t45 102v17q-1 1 -1 2t1 2v214q0 11 10 14h4q5 0 9.5 -4t4.5 -10v-395q0 -6 -4.5 -10t-9.5 -4q-6 0 -10 4t-4 10v71q-23 -38 -59.5 -60.5t-79.5 -23.5q-67 -1 -117 47t-57 119v2l-0.5 0.5l-0.5 0.5v239q0 11 11 14q2 1 3 1q6 0 10 -4zM171 679q6 0 10 -4l73 -69l19 -20l-7 -8
l-1 -1q-1 -2 -3 -4h-2l-1 -1q-2 -1 -5 -1h-2q-1 0 -2 1h-2l-2 2h-1q0 1 -1 1l-1 1l-2 2l-79 77q-6 4 -6 10q0 11 11 14h4z" />
    <glyph glyph-name="uni01DD" unicode="&#x1dd;" horiz-adv-x="478" 
d="M400 86q36 44 40 101h-361q6 -78 66 -127q51 -42 116 -41q85 0 139 67zM127 38q-35 28 -55 68.5t-22 86.5q0 2 1 4v2q-1 1 -1 2q0 6 4 10t10 4h376q-6 79 -66 129q-59 48 -133.5 40.5t-121.5 -66.5q-4 -5 -11 -5q-6 0 -10 4t-4 10q0 4 3 8q55 68 141 77q12 1 23 1
q72 0 130 -48q37 -30 56.5 -72.5t20.5 -88.5v-7q-1 -73 -46 -129q-54 -67 -141 -75q-7 0 -20 -1q-77 0 -134 46z" />
    <glyph glyph-name="uni01DE" unicode="&#x1de;" 
d="M349 836l1 -1q1 0 2 -1h1v-1h1v-1h1l2 -4q0 -1 0.5 -1.5t0.5 -1.5v-2l280 -808v-5q0 -6 -4 -10t-10 -4q-10 0 -14 10l-97 282h-338l-97 -282q-4 -10 -14 -10q-6 0 -10 4t-4 10v5l280 809v1q0 1 0.5 1.5t0.5 1.5v2q1 0 1 1v1q1 0 2 1t2 1q1 2 3 2h10zM186 321h316
l-158 457zM309 938q0 -17 -11.5 -29t-28.5 -12t-28.5 12t-11.5 29t11.5 29t28.5 12t28.5 -12t11.5 -29zM459.5 967q11.5 -12 11.5 -29t-11.5 -29t-28.5 -12t-28.5 12t-11.5 29q0 15 9 26t23 14q4 1 8 1q17 0 28.5 -12zM429 1020q3 0 4.5 -4t1.5 -10t-1.5 -10t-4.5 -4h-166
q-3 0 -4.5 4t-1.5 10q0 12 5 14h167z" />
    <glyph glyph-name="uni01DF" unicode="&#x1df;" horiz-adv-x="454" 
d="M178.5 228.5q-44.5 -18.5 -72.5 -50.5q-36 -43 -26 -85q2 -10 7 -19q15 -29 52 -43q51 -21 115.5 -4t101.5 61q1 2 3 3v121q-13 12 -36 22q-26 11 -56 11q-44 2 -88.5 -16.5zM234 422q35 -2 63 -13q37 -13 60.5 -37.5t28.5 -53.5v-2q1 -1 1 -4v-260q1 -12 11 -18
q12 -10 31 -10h1q5 0 9.5 -4t4.5 -9q0 -6 -4.5 -10t-9.5 -4h-1q-28 0 -48 15q-18 14 -21 35v3h-1v1l-2.5 -2.5t-2.5 -1.5q-12 -9 -28 -20q-31 -19 -64 -27q-14 -3 -34 -6q-12 -1 -23 -1q-41 0 -77 14q-62 24 -75 80q-3 13 -3 25q0 43 35 83q32 38 82 58.5t101 18.5
q36 -1 65 -13q12 -5 25 -12h1v58q0 24 -19 45.5t-52 33.5q-53 19 -110 7t-84 -45q-4 -5 -11 -5q-6 0 -10 3.5t-4 9.5q0 5 3 9q22 28 59 43.5t80 16.5q8 0 23 -1zM179 503q0 -17 -11.5 -29t-28.5 -12t-28.5 12t-11.5 29t11.5 29t28.5 12t28.5 -12t11.5 -29zM329.5 532
q11.5 -12 11.5 -29t-11.5 -29t-28.5 -12t-28.5 12t-11.5 29q0 15 9 26t23 14q4 1 8 1q17 0 28.5 -12zM307 597q3 0 4.5 -4t1.5 -10t-1.5 -10t-4.5 -4h-166q-3 0 -4.5 4t-1.5 10q0 12 5 14h167z" />
    <glyph glyph-name="uni01E0" unicode="&#x1e0;" 
d="M349 836l1 -1q1 0 2 -1h1v-1h1v-1h1l2 -4q0 -1 0.5 -1.5t0.5 -1.5v-2l280 -808v-5q0 -6 -4 -10t-10 -4q-10 0 -14 10l-97 282h-338l-97 -282q-4 -10 -14 -10q-6 0 -10 4t-4 10v5l280 809v1q0 1 0.5 1.5t0.5 1.5v2q1 0 1 1v1q1 0 2 1t2 1q1 2 3 2h10zM186 321h316
l-158 457zM384 932q0 -17 -11.5 -29t-28.5 -12t-28.5 12t-11.5 29t11.5 29t28.5 12t28.5 -12t11.5 -29zM429 1020q3 0 4.5 -4t1.5 -10t-1.5 -10t-4.5 -4h-166q-3 0 -4.5 4t-1.5 10q0 12 5 14h167z" />
    <glyph glyph-name="uni01E1" unicode="&#x1e1;" horiz-adv-x="454" 
d="M178.5 228.5q-44.5 -18.5 -72.5 -50.5q-36 -43 -26 -85q2 -10 7 -19q15 -29 52 -43q51 -21 115.5 -4t101.5 61q1 2 3 3v121q-13 12 -36 22q-26 11 -56 11q-44 2 -88.5 -16.5zM234 422q35 -2 63 -13q37 -13 60.5 -37.5t28.5 -53.5v-2q1 -1 1 -4v-260q1 -12 11 -18
q12 -10 31 -10h1q5 0 9.5 -4t4.5 -9q0 -6 -4.5 -10t-9.5 -4h-1q-28 0 -48 15q-18 14 -21 35v3h-1v1l-2.5 -2.5t-2.5 -1.5q-12 -9 -28 -20q-31 -19 -64 -27q-14 -3 -34 -6q-12 -1 -23 -1q-41 0 -77 14q-62 24 -75 80q-3 13 -3 25q0 43 35 83q32 38 82 58.5t101 18.5
q36 -1 65 -13q12 -5 25 -12h1v58q0 24 -19 45.5t-52 33.5q-53 19 -110 7t-84 -45q-4 -5 -11 -5q-6 0 -10 3.5t-4 9.5q0 5 3 9q22 28 59 43.5t80 16.5q8 0 23 -1zM264 503q0 -17 -11.5 -29t-28.5 -12t-28.5 12t-11.5 29t11.5 29t28.5 12t28.5 -12t11.5 -29zM307 597
q3 0 4.5 -4t1.5 -10t-1.5 -10t-4.5 -4h-166q-3 0 -4.5 4t-1.5 10q0 12 5 14h167z" />
    <glyph glyph-name="uni01E2" unicode="&#x1e2;" horiz-adv-x="635" 
d="M334 760v-437h-149zM348 849v-1h-4q-3 -1 -5 -3l-2 -2l-1 -1q-4 -2 -6 -7l-279 -818q-1 -2 -1 -4q0 -6 4.5 -10t9.5 -4q11 0 14 10l97 286h159v-279q0 -9 7 -13h1v-1h5q1 -1 2 -1t2 1h260q6 0 10 4t4 10q0 5 -4 9.5t-10 4.5h-250v266h250q6 0 10 4.5t4 10.5q0 5 -4 9
t-10 4h-250v496h250q6 0 10 4t4 10q0 5 -4 9.5t-10 4.5h-262q-1 0 -1 1zM311 915q-5 -2 -5 -14q0 -6 1.5 -10t4.5 -4h166q3 0 4.5 4t1.5 10t-1.5 10t-4.5 4h-167z" />
    <glyph glyph-name="uni01E3" unicode="&#x1e3;" horiz-adv-x="685" 
d="M490 392q-58 -7 -95 -66q-26 -41 -31 -97q3 -4 3 -8h279q-4 81 -53 132q-39 41 -89 40q-8 0 -14 -1zM105 180q-34 -41 -25 -81.5t55 -59.5q47 -19 105.5 -4t94.5 54v97q-1 11 -1 14q-2 3 -2 6.5t2 7.5v4q-13 10 -27 16q-24 9 -52 10q-42 1 -83.5 -16.5t-66.5 -47.5z
M614 372q58 -61 61 -156q0 -2 -1 -4v-2q1 -2 1 -3q0 -6 -4 -10t-10 -4h-297q4 -82 52 -132q46 -47 102 -40q58 8 96 67q4 7 12 7q6 0 10 -4t4 -10q0 -5 -3 -8q-44 -70 -114 -79q-10 -1 -19 -1q-60 0 -108 49q-18 19 -32 43q0 -3 -2 -6q-1 -1 -1 -2l-2 -2q0 -1 -1 -2l-2 -1
q-1 -1 -2 -1q-42 -47 -107 -64q-28 -7 -55 -7q-35 0 -67 12q-60 25 -72 80q-3 12 -3 24q0 42 33 82q30 37 77 57t96 18q33 -1 62 -13q6 -3 17 -9v68q-11 40 -66 61q-49 18 -102 7t-78 -43q-4 -8 -13 -8q-6 0 -10 4t-4 10t5 11q24 31 65.5 46.5t87.5 11.5q30 -2 60 -13
q54 -20 75 -63l1 -1q7 -4 7 -12v-3q0 1 8 14q45 70 116 79q8 1 17 1q62 0 110 -49zM458 517q3 0 4.5 -4t1.5 -10t-1.5 -10t-4.5 -4h-166q-3 0 -4.5 4t-1.5 10q0 12 5 14h167z" />
    <glyph glyph-name="uni01E4" unicode="&#x1e4;" horiz-adv-x="859" 
d="M767 296h-159q-4 0 -6 4t-2 10q0 12 7 14h160v102h-155q-6 0 -10 4t-4 10t3.5 10t8.5 4h174q1 0 2 -1q1 0 1 -1h1q7 -4 7 -12v-116h46q4 0 6 -4t2 -10t-2 -10t-6 -4h-46v-157q1 -2 1 -5q0 -4 -2 -7v-1q0 -1 -1 -2t-2 -1q-1 -2 -3 -3q-108 -106 -258 -122q-26 -3 -51 -3
q-121 0 -227 66q-99 63 -152 166q-50 95 -50 202v16q4 115 67 215q59 93 153 146t200 57h14q125 0 231 -67q7 -4 7 -12q0 -6 -4 -10t-10 -4q-4 0 -8 2q-93 59 -201 63t-204 -46.5t-154.5 -143.5t-62.5 -201.5t46 -204t143 -154.5q120 -75 259.5 -60.5t240.5 112.5v159z" />
    <glyph glyph-name="uni01E5" unicode="&#x1e5;" horiz-adv-x="442" 
d="M156 359q-62 -42 -75.5 -114.5t29.5 -133.5q41 -60 113 -74t134 25v298q-45 30 -98 30q-56 0 -103 -31zM356 -75l-165 -1q-4 0 -6 4t-2 10q0 12 7 14h166v77q-69 -36 -146.5 -18t-122.5 83q-37 54 -37 115q0 20 4 41q16 84 87 133q53 36 118 36q52 0 98 -25v22
q0 10 10 13q1 0 2 1h2q6 0 10 -4t4 -10v-362q-1 -2 -1 -5v-97h40q4 0 6 -4t2 -10t-2 -10t-6 -4l-40 1q-2 -86 -62 -147q-62 -63 -148 -63q-39 0 -76 15q-10 3 -10 13q0 6 4 10.5t10 4.5q3 0 5 -1q33 -14 67 -14q74 0 128 54q52 53 54 128z" />
    <glyph glyph-name="Gcaron" unicode="&#x1e6;" horiz-adv-x="806" 
d="M715 796q7 -4 7 -12q0 -6 -4 -10t-10 -4q-4 0 -8 2q-93 59 -201 63t-204 -46.5t-154.5 -143.5t-62.5 -201.5t46 -204t143 -154.5q120 -75 259.5 -60.5t240.5 112.5v289h-155q-6 0 -10 4t-4 10t3.5 10t8.5 4h174q1 0 2 -1q1 0 1 -1h1q7 -4 7 -12v-301q1 -2 1 -5
q0 -4 -2 -7v-1q0 -1 -1 -2l-0.5 -0.5t-1.5 -0.5q-1 -2 -3 -3q-108 -106 -258 -122q-26 -3 -51 -3q-121 0 -227 66q-99 63 -152 166q-50 95 -50 202v16q4 115 67 215q59 93 153 146t200 57q133 4 245 -67zM589 1014q11 -3 11 -14q0 -6 -6 -10l-77 -80l-2 -2l-1 -1q-1 0 -1 -1
h-1l-2 -2h-2q-1 -1 -2 -1h-2q-3 0 -5 1l-1 1h-2q-2 2 -3 4l-1 1l-1 1l-78 77q-5 4 -5 10t4.5 10t9.5 4h3q4 -1 8 -3l71 -71l71 71q4 5 10 5h4z" />
    <glyph glyph-name="gcaron" unicode="&#x1e7;" horiz-adv-x="395" 
d="M156 359q-62 -42 -75.5 -114.5t29.5 -133.5q41 -60 113 -74t134 25v298q-45 30 -98 30q-56 0 -103 -31zM371 430q6 0 10 -4t4 -10v-362q-1 -2 -1 -5v-121q-1 -88 -62.5 -150.5t-147.5 -62.5q-39 0 -76 15q-10 3 -10 13q0 6 4 10.5t10 4.5q3 0 5 -1q33 -14 67 -14
q74 0 127.5 54t54.5 131v101q-69 -36 -146.5 -18t-122.5 83q-37 54 -37 115q0 20 4 41q16 84 87 133q53 36 118 36q52 0 98 -25v22q0 10 10 13q1 0 2 1h2zM348 555q11 -3 11 -14q0 -6 -6 -10l-77 -79l-2 -2l-1 -1q-1 0 -1 -1h-1l-2 -2h-2q-1 -1 -2 -1h-2q-3 0 -5 1l-1 1h-2
q-2 2 -3 4l-1 1l-1 1l-78 78q-5 4 -5 10t4.5 10t9.5 4h3q4 -1 8 -4l71 -71l71 71q4 4 10 4h4z" />
    <glyph glyph-name="uni01E8" unicode="&#x1e8;" horiz-adv-x="512" 
d="M306 1014q11 -3 11 -14q0 -6 -6 -10l-77 -80l-2 -2l-1 -1q-1 0 -1 -1h-1l-2 -2h-2q-1 -1 -2 -1h-2q-3 0 -5 1l-1 1h-2q-2 2 -3 4l-1 1l-1 1l-78 77q-5 4 -5 10t4.5 10t9.5 4h3q4 -1 8 -3l71 -71l71 71q4 5 10 5h4zM74 863.5q4 -4.5 4 -9.5v-525l398 532q4 4 9 6h3
q5 0 9.5 -4t4.5 -10q0 -5 -4 -9l-290 -387q1 -1 2 -3l289 -433q3 -3 3 -8q0 -6 -4.5 -10.5t-10.5 -4.5q-8 0 -12 7l-285 428l-112 -149v-271q0 -6 -4 -10t-10 -4t-10 4t-4 10v840q0 11 11 14q1 0 3 1q6 0 10 -4.5z" />
    <glyph glyph-name="uni01E9" unicode="&#x1e9;" horiz-adv-x="362" 
d="M253 822q11 -3 11 -14q0 -6 -6 -10l-77 -79l-2 -2l-1 -1q-1 0 -1 -1h-1l-2 -2h-2q-1 -1 -2 -1h-2q-3 0 -5 1l-1 1h-2q-2 2 -3 4l-1 1l-1 1l-78 78q-5 4 -5 10t4.5 10t9.5 4h3q4 -1 8 -4l71 -71l71 71q4 4 10 4h4zM64 739q6 0 10 -4t4 -10v-710q0 -6 -4 -10t-10 -4t-10 4
t-4 10v711q0 11 11 13h3zM338 424q6 0 10 -4t4 -10q0 -7 -6 -11l-221 -186l221 -187q5 -4 5 -11q0 -6 -4 -10t-10 -4q-5 0 -9 3l-234 197q-5 4 -5 11t5 11l234 197q3 2 6 3q1 1 3 1h1z" />
    <glyph glyph-name="uni01EA" unicode="&#x1ea;" horiz-adv-x="928" 
d="M280.5 784.5q-93.5 -54.5 -148 -148t-54.5 -203.5t54.5 -203.5t148 -148t203.5 -54.5t203.5 54.5t148 148t54.5 203.5t-54.5 203.5t-148 148t-203.5 54.5t-203.5 -54.5zM551 4q-33 -5 -67 -5q-88 0 -168.5 34.5t-138.5 92.5t-92.5 138.5t-34.5 168.5t34.5 168.5
t92.5 138.5t138.5 92.5t168.5 34.5t168.5 -34.5t138.5 -92.5t92.5 -138.5t34.5 -168.5t-34.5 -168.5t-92.5 -138.5t-138 -92q-14 -6 -28 -11l-1 -1q-1 -1 -1 -2q-3 -3 -7 -3q-41 -4 -44 -38q0 -6 2 -14q4 -20 26 -31q3 -2 9 -4q6 -1 9 -5q1 -2 1 -3v-1l2 -4v-2q0 -3 -2 -5
q-1 -2 -3 -4l-1 -1q-1 0 -1 -1q-1 -1 -2 -1l-1 -1h-1l-1 1q-1 -1 -2 -1h-2q-3 0 -6 2q-20 8 -34 24q-7 6 -8 9q-4 5 -6 11q-6 10 -6 22q-1 6 0 12q1 12 6 22z" />
    <glyph glyph-name="uni01EB" unicode="&#x1eb;" horiz-adv-x="478" 
d="M259.5 387q-75.5 0 -129 -53.5t-53.5 -129.5t53.5 -129.5t129 -53.5t128.5 53.5t53 129.5t-53 129.5t-128.5 53.5zM315 0q-17 -9 -19 -31q0 -6 2 -14q4 -20 26 -31q3 -2 9 -4q6 -1 9 -5q1 -2 1 -3v-1l2 -4v-2q0 -3 -2 -5q-1 -2 -3 -4l-1 -1q-1 0 -1 -1q-1 -1 -2 -1l-1 -1
h-1l-1 1q-1 -1 -2 -1h-2q-3 0 -6 2q-20 8 -34 24q-7 6 -8 9q-4 5 -6 11q-6 10 -6 22q-1 6 0 12q1 12 6 22q-8 -1 -15 -1q-87 0 -148.5 61.5t-61.5 149.5q0 87 61.5 149t148 62t147.5 -62t61 -149q0 -88 -61 -149q-27 -28 -59 -43q-1 -1 -1 -2q-3 -3 -7 -3q-3 0 -6 -1
q-9 -3 -19 -6z" />
    <glyph glyph-name="uni01EC" unicode="&#x1ec;" horiz-adv-x="928" 
d="M280.5 784.5q-93.5 -54.5 -148 -148t-54.5 -203.5t54.5 -203.5t148 -148t203.5 -54.5t203.5 54.5t148 148t54.5 203.5t-54.5 203.5t-148 148t-203.5 54.5t-203.5 -54.5zM551 4q-33 -5 -67 -5q-88 0 -168.5 34.5t-138.5 92.5t-92.5 138.5t-34.5 168.5t34.5 168.5
t92.5 138.5t138.5 92.5t168.5 34.5t168.5 -34.5t138.5 -92.5t92.5 -138.5t34.5 -168.5t-34.5 -168.5t-92.5 -138.5t-138 -92q-14 -6 -28 -11l-1 -1q-1 -1 -1 -2q-3 -3 -7 -3q-41 -4 -44 -38q0 -6 2 -14q4 -20 26 -31q3 -2 9 -4q6 -1 9 -5q1 -2 1 -3v-1l2 -4v-2q0 -3 -2 -5
q-1 -2 -3 -4l-1 -1q-1 0 -1 -1q-1 -1 -2 -1l-1 -1h-1l-1 1q-1 -1 -2 -1h-2q-3 0 -6 2q-20 8 -34 24q-7 6 -8 9q-4 5 -6 11q-6 10 -6 22q-1 6 0 12q1 12 6 22zM567 937q3 0 4.5 -4t1.5 -10t-1.5 -10t-4.5 -4h-166q-3 0 -4.5 4t-1.5 10q0 12 5 14h167z" />
    <glyph glyph-name="uni01ED" unicode="&#x1ed;" horiz-adv-x="478" 
d="M130.5 333.5q-53.5 -53.5 -53.5 -129.5t53.5 -129.5t129 -53.5t128.5 53.5t53 129.5t-53 129.5t-128.5 53.5t-129 -53.5zM348 12q-1 -1 -1 -2q-3 -3 -7 -3q-3 0 -6 -1q-9 -3 -19 -6q-17 -9 -19 -31q0 -6 2 -14q4 -20 26 -31q3 -2 9 -4q6 -1 9 -5q1 -2 1 -3v-1l2 -4v-2
q0 -3 -2 -5q-1 -2 -3 -4l-1 -1q-1 0 -1 -1q-1 -1 -2 -1l-1 -1h-1l-1 1q-1 -1 -2 -1h-2q-3 0 -6 2q-20 8 -34 24q-7 6 -8 9q-4 5 -6 11q-6 10 -6 22q-1 6 0 12q1 12 6 22q-8 -1 -15 -1q-87 0 -148.5 61.5t-61.5 149.5q0 87 61.5 149t148.5 62q86 0 147 -62t61 -149
q0 -88 -61 -149q-27 -28 -59 -43zM347 471q3 0 4.5 -4t1.5 -10t-1.5 -10t-4.5 -4h-166q-3 0 -4.5 4t-1.5 10q0 12 5 14h167z" />
    <glyph glyph-name="uni01F0" unicode="&#x1f0;" horiz-adv-x="273" 
d="M164 423q5 0 9.5 -4t4.5 -10v-577q-2 -45 -35 -77q-32 -31 -75 -31h-4q-5 0 -9.5 4t-4.5 10t4.5 10t9.5 4h1q33 0 58 23t27 57v1q-1 1 -1 1.5t1 1.5v572l-1 1q0 11 11 14h4zM251 598q11 -3 12 -14q0 -6 -6 -10l-74 -82l-2 -2l-1 -1q-1 0 -1 -1h-1l-2 -2h-2q-1 -1 -2 -1
h-2q-3 0 -5 1l-1 1h-2q-2 2 -3 4l-1 1l-1 1l-81 75q-5 4 -5 10t4 10t9 4h3q4 0 8 -3l74 -69l68 73q4 4 10 5h4z" />
    <glyph glyph-name="uni01F1" unicode="&#x1f1;" horiz-adv-x="1146" 
d="M1124 867q3 0 5 -2q1 0 1 -1h1v-1q1 0 2 -1v-1h1v-4q1 0 1 -1v-7h-1q0 -1 -0.5 -2l-1 -2t-0.5 -2l-544 -816h534q5 0 9.5 -4t4.5 -10t-4.5 -10t-9.5 -4h-563q-2 0 -4 1h-2v2h-3v1q-4 5 -4 10q0 7 5 11h1q0 1 1 1l541 814h-535q-6 0 -10.5 4t-4.5 10q0 12 12 14h568z
M292 869l1 -1h2q112 -3 206.5 -62t148.5 -158.5t54 -215.5q-1 -116 -56 -214t-149.5 -156.5t-206.5 -60.5h-232v1h-3v1h-1q-6 4 -6 12q0 3 2 6v827q-2 3 -2 6q0 10 10 14q1 0 2 1h230zM80 29h212q105 2 193 56.5t139 146.5t52 200q0 109 -51 202.5t-139 148.5t-194 58h-212
v-812z" />
    <glyph glyph-name="uni01F2" unicode="&#x1f2;" horiz-adv-x="1070" 
d="M80 25h212q105 2 193 56.5t139 146.5t52 200q0 109 -51 202.5t-139 148.5t-194 58h-212v-812zM292 865l1 -1h2q112 -3 206.5 -62t148.5 -158.5t54 -215.5q-1 -116 -56 -214t-149.5 -156.5t-206.5 -60.5h-232v1h-3v1h-1q-6 4 -6 12q0 3 2 6v827q-2 3 -2 6q0 10 10 14
q1 0 2 1h230zM1050 407v-1h4v-1h1v-1h1q0 -1 1 -1q0 -1 1 -2v-1h1v-3q1 -2 1 -4q0 -3 -2 -7h-1v-1l-2 -1l-2 -2l-290 -356h283q6 0 10 -4.5t4 -9.5t-4 -9t-10 -4h-312q-4 0 -7 1q-1 1 -2 1h-1v1h-1l-2 4v1q-2 2 -2 6q0 3 3 7q0 1 1 2l2 1l1 1l291 356h-285q-6 0 -10 4t-4 9
q0 12 12 14h320z" />
    <glyph glyph-name="uni01F3" unicode="&#x1f3;" horiz-adv-x="740" 
d="M720 401v-1h4v-1h1v-1h1q0 -1 1 -1q0 -1 1 -2v-1h1v-3q1 -2 1 -4q0 -3 -2 -7h-1v-1l-2 -1l-2 -2l-290 -356h283q6 0 10 -4.5t4 -9.5t-4 -9t-10 -4h-312q-4 0 -7 1q-1 1 -2 1h-1v1h-1l-2 4v1q-2 2 -2 6q0 3 3 7q0 1 1 2l2 1l1 1l291 356h-285q-6 0 -10 4t-4 9q0 12 12 14
h320zM171 363.5q-38 -20.5 -62 -58.5q-41 -61 -27.5 -134.5t71.5 -115.5q43 -30 95 -31.5t95 29.5v301q-42 29 -92 29q-42 1 -80 -19.5zM357 751q6 0 10 -4t4 -11v-737q0 -6 -4 -10.5t-10 -4.5t-10 4.5t-4 10.5v19q-48 -26 -104 -23t-102 36q-68 49 -83 134q-4 21 -4 40
q0 62 36 117q47 71 128 87q68 14 129 -20v347q0 12 10 15h4z" />
    <glyph glyph-name="uni01F4" unicode="&#x1f4;" horiz-adv-x="806" 
d="M715 796q7 -4 7 -12q0 -6 -4 -10t-10 -4q-4 0 -8 2q-93 59 -201 63t-204 -46.5t-154.5 -143.5t-62.5 -201.5t46 -204t143 -154.5q120 -75 259.5 -60.5t240.5 112.5v289h-155q-6 0 -10 4t-4 10t3.5 10t8.5 4h174q1 0 2 -1q1 0 1 -1h1q7 -4 7 -12v-301q1 -2 1 -5
q0 -4 -2 -7v-1q0 -1 -1 -2l-0.5 -0.5t-1.5 -0.5q-1 -2 -3 -3q-108 -106 -258 -122q-26 -3 -51 -3q-121 0 -227 66q-99 63 -152 166q-50 95 -50 202v16q4 115 67 215q59 93 153 146t200 57q133 4 245 -67zM555 997q0 -6 -4 -10l-70 -72l-20 -19l-8 7l-1 1q-2 1 -4 3v2l-1 1
q-1 2 -1 5v2q0 1 1 2v2l2 2v1q1 0 1 1l1 1l2 2l78 78q4 6 10 6q11 0 14 -11v-4z" />
    <glyph glyph-name="uni01F5" unicode="&#x1f5;" horiz-adv-x="395" 
d="M298 573q0 -6 -4 -10l-70 -72l-20 -19l-8 7l-1 1q-2 1 -4 3v2l-1 1q-1 2 -1 5v2q0 1 1 2v2l2 2v1q1 0 1 1l1 1l2 2l78 78q4 6 10 6q11 0 14 -11v-4zM156 359q-62 -42 -75.5 -114.5t29.5 -133.5q41 -60 113 -74t134 25v298q-45 30 -98 30q-56 0 -103 -31zM371 430
q6 0 10 -4t4 -10v-362q-1 -2 -1 -5v-121q-1 -88 -62.5 -150.5t-147.5 -62.5q-39 0 -76 15q-10 3 -10 13q0 6 4 10.5t10 4.5q3 0 5 -1q33 -14 67 -14q74 0 127.5 54t54.5 131v101q-69 -36 -146.5 -18t-122.5 83q-37 54 -37 115q0 20 4 41q16 84 87 133q53 36 118 36
q52 0 98 -25v22q0 10 10 13q1 0 2 1h2z" />
    <glyph glyph-name="uni01F8" unicode="&#x1f8;" 
d="M68 868l2 -2h1q2 -2 4 -5l2 -2v-1l533 -798v794q0 11 11 14h3q5 0 9.5 -4t4.5 -10v-842q0 -6 -4 -10t-10 -4q-4 0 -8 3t-6 8l-532 799v-795q0 -5 -4.5 -9.5t-10 -4.5t-9.5 4.5t-4 9.5v847q1 0 1 1q1 2 3 3q1 1 3 2v1q1 0 2 1h9zM306 982h4q5 0 8 -3l79 -62l22 -17l-6 -9
l-1 -1l-2 -4q-1 0 -2 -1l-1 -1q-2 -1 -5 -1h-2q-1 -1 -2 0h-2l-2 2h-1q-1 1 -2 0l-1 1l-2 2l-86 69q-7 3 -7 9q-2 11 9 15q1 1 2 1z" />
    <glyph glyph-name="uni01F9" unicode="&#x1f9;" horiz-adv-x="402" 
d="M180 587h4q5 0 8 -3l79 -62l22 -17l-6 -9l-1 -1l-2 -4q-1 0 -2 -1l-1 -1q-2 -1 -5 -1h-2q-1 -1 -2 0h-2l-2 2h-1q-1 1 -2 0l-1 1l-2 2l-86 69q-7 3 -7 9q-2 11 9 15q1 1 2 1zM64 412q6 0 10 -4t4 -10v-71q23 38 59.5 60.5t80.5 23.5q66 2 116 -46.5t57 -120.5v-1
q0 -1 0.5 -2.5t0.5 -2.5q0 -3 -1 -5v-229q0 -6 -4 -10t-10 -4t-10 4t-4 10v240q-7 61 -48.5 101t-96.5 38q-55 -1 -95 -42.5t-45 -102.5v-234q0 -6 -4 -10t-9 -4q-6 0 -10.5 4t-4.5 10v395q0 11 11 13h3z" />
    <glyph glyph-name="Aringacute" unicode="&#x1fa;" 
d="M186 321h316l-158 457zM311.5 866.5q-13.5 -13.5 -13.5 -33.5t13.5 -33.5t33 -13.5t33 13.5t13.5 33.5t-13.5 33.5t-33 13.5t-33 -13.5zM282 928q0 1 1 2q1 6 6 8l83 57l22 16l7 -9l1 -1l3 -3v-2l1 -1q0 -3 -1 -5v-2q1 -2 -1 -2v-2q-2 -1 -3 -1v-1q-1 -1 -1 -2l-1 -1
q-1 -1 -2 -1l-92 -62q-5 -5 -11 -4q-11 2 -11 14q-1 1 -1 2zM378 766l260 -751v-5q0 -6 -4 -10t-10 -4q-10 0 -14 10l-97 282h-338l-97 -282q-4 -10 -14 -10q-6 0 -10 4t-4 10v5l260 751q-10 6 -18 14q-22 22 -22 53t22 53t52.5 22t53 -22t22.5 -53t-22 -53q-10 -9 -20 -14z
" />
    <glyph glyph-name="aringacute" unicode="&#x1fb;" horiz-adv-x="454" 
d="M178.5 228.5q-44.5 -18.5 -72.5 -50.5q-36 -43 -26 -85q2 -10 7 -19q15 -29 52 -43q51 -21 115.5 -4t101.5 61q1 2 3 3v121q-13 12 -36 22q-26 11 -56 11q-44 2 -88.5 -16.5zM234 422q35 -2 63 -13q37 -13 60.5 -37.5t28.5 -53.5v-2q1 -1 1 -4v-260q1 -12 11 -18
q12 -10 31 -10h1q5 0 9.5 -4t4.5 -9q0 -6 -4.5 -10t-9.5 -4h-1q-28 0 -48 15q-18 14 -21 35v3h-1v1l-2.5 -2.5t-2.5 -1.5q-12 -9 -28 -20q-31 -19 -64 -27q-14 -3 -34 -6q-12 -1 -23 -1q-41 0 -77 14q-62 24 -75 80q-3 13 -3 25q0 43 35 83q32 38 82 58.5t101 18.5
q36 -1 65 -13q12 -5 25 -12h1v58q0 24 -19 45.5t-52 33.5q-53 19 -110 7t-84 -45q-4 -5 -11 -5q-6 0 -10 3.5t-4 9.5q0 5 3 9q22 28 59 43.5t80 16.5q8 0 23 -1zM276 516.5q0 -22.5 -14.5 -38.5t-34.5 -16t-34.5 16t-14.5 38.5t14.5 38.5t34.5 16t34.5 -16t14.5 -38.5z
M196 516.5q0 -14.5 9 -24.5t21.5 -10t21.5 10t9 24.5t-9 24.5t-21.5 10t-21.5 -10t-9 -24.5zM162 600q0 1 1 2q1 6 6 8l83 57l22 16l7 -9l1 -1l3 -3v-2l1 -1q0 -3 -1 -5v-2q1 -2 -1 -2v-2q-2 -1 -3 -1v-1q-1 -1 -1 -2l-1 -1q-1 -1 -2 -1l-92 -62q-5 -5 -11 -4q-11 2 -11 14
q-1 1 -1 2z" />
    <glyph glyph-name="AEacute" unicode="&#x1fc;" horiz-adv-x="635" 
d="M334 760v-437h-149zM348 849v-1h-4q-3 -1 -5 -3l-2 -2l-1 -1q-4 -2 -6 -7l-279 -818q-1 -2 -1 -4q0 -6 4.5 -10t9.5 -4q11 0 14 10l97 286h159v-279q0 -9 7 -13h1v-1h5q1 -1 2 -1t2 1h260q6 0 10 4t4 10q0 5 -4 9.5t-10 4.5h-250v266h250q6 0 10 4.5t4 10.5q0 5 -4 9
t-10 4h-250v496h250q6 0 10 4t4 10q0 5 -4 9.5t-10 4.5h-262q-1 0 -1 1zM402 982q-3 11 -14 11q-6 0 -10 -6l-78 -78l-2 -2l-1 -1q0 -1 -1 -1v-1l-2 -2v-2q-1 -1 -1 -2v-2q0 -3 1 -5l1 -1v-2q2 -2 4 -3l1 -1l8 -7l20 19l70 72q4 4 4 10v4z" />
    <glyph glyph-name="aeacute" unicode="&#x1fd;" horiz-adv-x="685" 
d="M490 392q-58 -7 -95 -66q-26 -41 -31 -97q3 -4 3 -8h279q-4 81 -53 132q-39 41 -89 40q-8 0 -14 -1zM105 180q-34 -41 -25 -81.5t55 -59.5q47 -19 105.5 -4t94.5 54v97q-1 11 -1 14q-2 3 -2 6.5t2 7.5v4q-13 10 -27 16q-24 9 -52 10q-42 1 -83.5 -16.5t-66.5 -47.5z
M614 372q58 -61 61 -156q0 -2 -1 -4v-2q1 -2 1 -3q0 -6 -4 -10t-10 -4h-297q4 -82 52 -132q46 -47 102 -40q58 8 96 67q4 7 12 7q6 0 10 -4t4 -10q0 -5 -3 -8q-44 -70 -114 -79q-10 -1 -19 -1q-60 0 -108 49q-18 19 -32 43q0 -3 -2 -6q-1 -1 -1 -2l-2 -2q0 -1 -1 -2l-2 -1
q-1 -1 -2 -1q-42 -47 -107 -64q-28 -7 -55 -7q-35 0 -67 12q-60 25 -72 80q-3 12 -3 24q0 42 33 82q30 37 77 57t96 18q33 -1 62 -13q6 -3 17 -9v68q-11 40 -66 61q-49 18 -102 7t-78 -43q-4 -8 -13 -8q-6 0 -10 4t-4 10t5 11q24 31 65.5 46.5t87.5 11.5q30 -2 60 -13
q54 -20 75 -63l1 -1q7 -4 7 -12v-3q0 1 8 14q45 70 116 79q8 1 17 1q62 0 110 -49zM434 557q0 -6 -4 -10l-70 -72l-20 -19l-8 7l-1 1q-2 1 -4 3v2l-1 1q-1 2 -1 5v2q0 1 1 2v2l2 2v1q1 0 1 1l1 1l2 2l78 78q4 6 10 6q11 0 14 -11v-4z" />
    <glyph glyph-name="Oslashacute" unicode="&#x1fe;" horiz-adv-x="898" 
d="M130 621q-52 -91 -52 -198q0 -81 30 -152.5t83 -126.5l552 559q-53 55 -124 85t-150 30q-106 0 -196.5 -53t-142.5 -144zM212 125q111 -97 257 -97q106 0 196 52.5t142 143.5t52 199q0 147 -97 259zM532 985q0 -6 -4 -10l-70 -72l-20 -19l-8 7l-1 1q-2 1 -4 3v2l-1 1
q-1 2 -1 5v2q0 1 1 2v2l2 2v1q1 0 1 1l1 1l2 2l78 78q4 6 10 6q11 0 14 -11v-4zM764 723l99 101q4 4 8 5h3q5 0 9.5 -4.5t4.5 -9.5q0 -7 -5 -11l-101 -101q105 -121 105 -280q0 -115 -56 -212.5t-152.5 -154t-209.5 -56.5q-158 0 -277 106l-118 -120q-4 -4 -10 -4t-10 4
t-4 10t4 10l117 118q-57 58 -89 135.5t-32 163.5q0 114 56 211.5t152.5 154.5t210.5 57q84 0 160.5 -32.5t134.5 -90.5z" />
    <glyph glyph-name="oslashacute" unicode="&#x1ff;" horiz-adv-x="483" 
d="M95 222q-1 -9 -1 -18q0 -62 39 -111l46 47l200 202q-48 38 -110 38q-67 0 -117 -45.5t-57 -112.5zM152 73q50 -46 117 -46q73 0 124 51.5t51 125.5q0 67 -45 118zM317 540q0 -6 -4 -10l-70 -72l-20 -19l-8 7l-1 1q-2 1 -4 3v2l-1 1q-1 2 -1 5v2q0 1 1 2v2l2 2v1q1 0 1 1
l1 1l2 2l78 78q4 6 10 6q11 0 14 -11v-4zM459 417q3 0 5.5 -1.5t4.5 -3.5q4 -4 4 -10t-5 -10l-49 -50q46 -50 52 -117q1 -10 1 -21q0 -52 -24 -97t-65 -73q-42 -29 -93 -34q-10 -1 -21 -1q-77 0 -136 54l-57 -57q-2 -2 -4 -3q-3 -3 -7 -3q-6 0 -10.5 4.5t-4.5 10.5q0 7 7 12
l56 56q-47 57 -47 131q0 84 59.5 144.5t143.5 60.5q63 0 114 -35q1 -1 15 -13l50 51q2 3 6 4h2q1 1 3 1z" />
    <glyph glyph-name="uni0200" unicode="&#x200;" 
d="M349 836l1 -1q1 0 2 -1h1v-1h1v-1h1l2 -4q0 -1 0.5 -1.5t0.5 -1.5v-2l280 -808v-5q0 -6 -4 -10t-10 -4q-10 0 -14 10l-97 282h-338l-97 -282q-4 -10 -14 -10q-6 0 -10 4t-4 10v5l280 809v1q0 1 0.5 1.5t0.5 1.5v2q1 0 1 1v1q1 0 2 1t2 1q1 2 3 2h10zM186 321h316
l-158 457zM241 1011q6 0 10 -4l71 -71l19 -20l-7 -8l-1 -1q-1 -2 -3 -4h-2l-1 -1q-2 -1 -5 -1h-2q-1 0 -2 1h-2l-2 2h-1q0 1 -1 1l-1 1l-2 2l-77 79q-6 4 -6 10q0 11 11 14h4zM361 1011q6 0 10 -4l71 -71l19 -20l-7 -8l-1 -1q-1 -2 -3 -4h-2l-1 -1q-2 -1 -5 -1h-2q-1 0 -2 1
h-2l-2 2h-1q0 1 -1 1l-1 1l-2 2l-77 79q-6 4 -6 10q0 11 11 14h4z" />
    <glyph glyph-name="uni0201" unicode="&#x201;" horiz-adv-x="454" 
d="M113 563q6 0 10 -4l71 -71l19 -20l-7 -8l-1 -1q-1 -2 -3 -4h-2l-1 -1q-2 -1 -5 -1h-2q-1 0 -2 1h-2l-2 2h-1q0 1 -1 1l-1 1l-2 2l-77 79q-6 4 -6 10q0 11 11 14h4zM233 563q6 0 10 -4l71 -71l19 -20l-7 -8l-1 -1q-1 -2 -3 -4h-2l-1 -1q-2 -1 -5 -1h-2q-1 0 -2 1h-2l-2 2
h-1q0 1 -1 1l-1 1l-2 2l-77 79q-6 4 -6 10q0 11 11 14h4zM178.5 228.5q-44.5 -18.5 -72.5 -50.5q-36 -43 -26 -85q2 -10 7 -19q15 -29 52 -43q51 -21 115.5 -4t101.5 61q1 2 3 3v121q-13 12 -36 22q-26 11 -56 11q-44 2 -88.5 -16.5zM234 422q35 -2 63 -13
q37 -13 60.5 -37.5t28.5 -53.5v-2q1 -1 1 -4v-260q1 -12 11 -18q12 -10 31 -10h1q5 0 9.5 -4t4.5 -9q0 -6 -4.5 -10t-9.5 -4h-1q-28 0 -48 15q-18 14 -21 35v3h-1v1l-2.5 -2.5t-2.5 -1.5q-12 -9 -28 -20q-31 -19 -64 -27q-14 -3 -34 -6q-12 -1 -23 -1q-41 0 -77 14
q-62 24 -75 80q-3 13 -3 25q0 43 35 83q32 38 82 58.5t101 18.5q36 -1 65 -13q12 -5 25 -12h1v58q0 24 -19 45.5t-52 33.5q-53 19 -110 7t-84 -45q-4 -5 -11 -5q-6 0 -10 3.5t-4 9.5q0 5 3 9q22 28 59 43.5t80 16.5q8 0 23 -1z" />
    <glyph glyph-name="uni0202" unicode="&#x202;" 
d="M349 836l1 -1q1 0 2 -1h1v-1h1v-1h1l2 -4q0 -1 0.5 -1.5t0.5 -1.5v-2l280 -808v-5q0 -6 -4 -10t-10 -4q-10 0 -14 10l-97 282h-338l-97 -282q-4 -10 -14 -10q-6 0 -10 4t-4 10v5l280 809v1q0 1 0.5 1.5t0.5 1.5v2q1 0 1 1v1q1 0 2 1t2 1q1 2 3 2h10zM186 321h316
l-158 457zM290 902q-3 0 -5 1t-4 3l-1 1q0 1 -1 1q-1 1 -1 2l-1 1v2q-1 1 -1 2v2q0 3 2 6q7 21 21 35q7 7 10 9q4 4 10 7q10 6 22 7q5 1 11 1q24 -1 43.5 -18.5t24.5 -45.5v-3q0 -7 -7 -11v-1q-4 -2 -7 -2h-1q-2 0 -5 2q-2 1 -3 2t-2 1q-3 3 -3 7q-7 40 -41 41q-6 0 -14 -3
q-19 -5 -28 -27q-3 -4 -5 -10q0 -6 -4 -9q-2 -1 -3 -1l-1 -1q-2 0 -4 -1h-2z" />
    <glyph glyph-name="uni0203" unicode="&#x203;" horiz-adv-x="454" 
d="M178.5 228.5q-44.5 -18.5 -72.5 -50.5q-36 -43 -26 -85q2 -10 7 -19q15 -29 52 -43q51 -21 115.5 -4t101.5 61q1 2 3 3v121q-13 12 -36 22q-26 11 -56 11q-44 2 -88.5 -16.5zM234 422q35 -2 63 -13q37 -13 60.5 -37.5t28.5 -53.5v-2q1 -1 1 -4v-260q1 -12 11 -18
q12 -10 31 -10h1q5 0 9.5 -4t4.5 -9q0 -6 -4.5 -10t-9.5 -4h-1q-28 0 -48 15q-18 14 -21 35v3h-1v1l-2.5 -2.5t-2.5 -1.5q-12 -9 -28 -20q-31 -19 -64 -27q-14 -3 -34 -6q-12 -1 -23 -1q-41 0 -77 14q-62 24 -75 80q-3 13 -3 25q0 43 35 83q32 38 82 58.5t101 18.5
q36 -1 65 -13q12 -5 25 -12h1v58q0 24 -19 45.5t-52 33.5q-53 19 -110 7t-84 -45q-4 -5 -11 -5q-6 0 -10 3.5t-4 9.5q0 5 3 9q22 28 59 43.5t80 16.5q8 0 23 -1zM167 487q-3 0 -5 1t-4 3l-1 1q0 1 -1 1q-1 1 -1 2l-1 1v2q-1 1 -1 2v2q0 3 2 6q7 21 21 35q7 7 10 9q4 4 10 7
q10 6 22 7q5 1 11 1q24 -1 43.5 -18.5t24.5 -45.5v-3q0 -7 -7 -11v-1q-4 -2 -7 -2h-1q-2 0 -5 2q-2 1 -3 2t-2 1q-3 3 -3 7q-7 40 -41 41q-6 0 -14 -3q-19 -5 -28 -27q-3 -4 -5 -10q0 -6 -4 -9q-2 -1 -3 -1l-1 -1q-2 0 -4 -1h-2z" />
    <glyph glyph-name="uni0204" unicode="&#x204;" horiz-adv-x="370" 
d="M100 1008q6 0 10 -4l70 -72l19 -20l-7 -8l-1 -1q-1 -2 -3 -4h-2l-1 -1q-2 -1 -5 -1h-2q-1 0 -2 1h-2l-2 2h-1q0 1 -1 1l-1 1l-2 2l-76 80q-6 4 -6 10q0 11 11 14h4zM346 864q6 0 10 -4t4 -10t-4 -10t-10 -4h-268v-392h268q6 0 10 -4t4 -10t-4 -10t-10 -4h-268v-392h268
q6 0 10 -4t4 -10t-4 -10t-10 -4h-286q-1 1 -3 2t-3 2q0 1 -1 1v1q-1 1 -2 3t-1 5v841q0 9 8 13h288zM231 1006q6 0 10 -4l70 -72l19 -20l-7 -8l-1 -1q-1 -2 -3 -4h-2l-1 -1q-2 -1 -5 -1h-2q-1 0 -2 1h-2l-2 2h-1q0 1 -1 1l-1 1l-2 2l-76 80q-6 4 -6 10q0 11 11 14h4z" />
    <glyph glyph-name="uni0205" unicode="&#x205;" horiz-adv-x="478" 
d="M118 318q-36 -44 -40 -101h361q-6 78 -66 127q-51 42 -116 41q-85 0 -139 -67zM391 366q35 -28 55 -68.5t22 -86.5q0 -2 -1 -4v-2q1 -1 1 -2q0 -6 -4 -10t-10 -4h-376q6 -79 66 -129q59 -48 133.5 -40.5t121.5 66.5q4 5 11 5q6 0 10 -4t4 -10q0 -4 -3 -8
q-55 -68 -141 -76q-12 -1 -23 -1q-72 0 -130 47q-37 30 -56.5 72.5t-20.5 88.5v7q1 73 46 129q54 67 141 76q7 0 20 1q77 0 134 -47zM162 578q6 0 10 -4l70 -72l19 -20l-7 -8l-1 -1q-1 -2 -3 -4h-2l-1 -1q-2 -1 -5 -1h-2q-1 0 -2 1h-2l-2 2h-1q0 1 -1 1l-1 1l-2 2l-76 80
q-6 4 -6 10q0 11 11 14h4zM293 576q6 0 10 -4l70 -72l19 -20l-7 -8l-1 -1q-1 -2 -3 -4h-2l-1 -1q-2 -1 -5 -1h-2q-1 0 -2 1h-2l-2 2h-1q0 1 -1 1l-1 1l-2 2l-76 80q-6 4 -6 10q0 11 11 14h4z" />
    <glyph glyph-name="uni0206" unicode="&#x206;" horiz-adv-x="370" 
d="M346 864q6 0 10 -4t4 -10t-4 -10t-10 -4h-268v-392h268q6 0 10 -4t4 -10t-4 -10t-10 -4h-268v-392h268q6 0 10 -4t4 -10t-4 -10t-10 -4h-286q-1 1 -3 2t-3 2q0 1 -1 1v1q-1 1 -2 3t-1 5v841q0 9 8 13h288zM154 899q-3 0 -5 1t-4 3l-1 1q0 1 -1 1q-1 1 -1 2h-1v2
q-2 1 -2 2v2q0 3 2 7q6 21 19 36q7 7 10 9q4 4 9 8q10 6 22 8q5 1 11 1q24 0 44.5 -16.5t26.5 -43.5v-3q1 -7 -6 -12v-1q-4 -2 -7 -2h-1q-2 0 -5 2q-2 1 -3 2h-2q-3 3 -4 7q-9 40 -43 39q-6 0 -13 -4q-19 -6 -27 -28q-3 -4 -5 -10q1 -6 -3 -9q-2 -1 -3 -2l-1 -1q-2 0 -4 -1
h-2z" />
    <glyph glyph-name="uni0207" unicode="&#x207;" horiz-adv-x="478" 
d="M118 318q-36 -44 -40 -101h361q-6 78 -66 127q-51 42 -116 41q-85 0 -139 -67zM391 366q35 -28 55 -68.5t22 -86.5q0 -2 -1 -4v-2q1 -1 1 -2q0 -6 -4 -10t-10 -4h-376q6 -79 66 -129q59 -48 133.5 -40.5t121.5 66.5q4 5 11 5q6 0 10 -4t4 -10q0 -4 -3 -8
q-55 -68 -141 -76q-12 -1 -23 -1q-72 0 -130 47q-37 30 -56.5 72.5t-20.5 88.5v7q1 73 46 129q54 67 141 76q7 0 20 1q77 0 134 -47zM210 449q-3 0 -5 1t-4 3l-1 1q0 1 -1 1q-1 1 -1 2l-1 1v2q-1 1 -1 2v2q0 3 2 6q7 21 21 35q7 7 10 9q4 4 10 7q10 6 22 7q5 1 11 1
q24 -1 43.5 -18.5t24.5 -45.5v-3q0 -7 -7 -11v-1q-4 -2 -7 -2h-1q-2 0 -5 2q-2 1 -3 2t-2 1q-3 3 -3 7q-7 40 -41 41q-6 0 -14 -3q-19 -5 -28 -27q-3 -4 -5 -10q0 -6 -4 -9q-2 -1 -3 -1l-1 -1q-2 0 -4 -1h-2z" />
    <glyph glyph-name="uni0208" unicode="&#x208;" horiz-adv-x="295" 
d="M188 860q6 0 10 -4t4 -10v-840q0 -6 -4 -10t-10 -4t-10 4t-4 10v841q0 10 10 13h4zM65 1011q6 0 10 -4l71 -71l19 -20l-7 -8l-1 -1q-1 -2 -3 -4h-2l-1 -1q-2 -1 -5 -1h-2q-1 0 -2 1h-2l-2 2h-1q0 1 -1 1l-1 1l-2 2l-77 79q-6 4 -6 10q0 11 11 14h4zM185 1011q6 0 10 -4
l71 -71l19 -20l-7 -8l-1 -1q-1 -2 -3 -4h-2l-1 -1q-2 -1 -5 -1h-2q-1 0 -2 1h-2l-2 2h-1q0 1 -1 1l-1 1l-2 2l-77 79q-6 4 -6 10q0 11 11 14h4z" />
    <glyph glyph-name="uni0209" unicode="&#x209;" horiz-adv-x="295" 
d="M188 422q6 0 10 -4t4 -10v-395q0 -6 -4 -10t-10 -4t-10 4t-4 10v395q0 11 10 14h4zM65 596q6 0 10 -4l71 -71l19 -20l-7 -8l-1 -1q-1 -2 -3 -4h-2l-1 -1q-2 -1 -5 -1h-2q-1 0 -2 1h-2l-2 2h-1q0 1 -1 1l-1 1l-2 2l-77 79q-6 4 -6 10q0 11 11 14h4zM185 596q6 0 10 -4
l71 -71l19 -20l-7 -8l-1 -1q-1 -2 -3 -4h-2l-1 -1q-2 -1 -5 -1h-2q-1 0 -2 1h-2l-2 2h-1q0 1 -1 1l-1 1l-2 2l-77 79q-6 4 -6 10q0 11 11 14h4z" />
    <glyph glyph-name="uni020A" unicode="&#x20a;" horiz-adv-x="204" 
d="M117 860q6 0 10 -4t4 -10v-840q0 -6 -4 -10t-10 -4t-10 4t-4 10v841q0 10 10 13h4zM65 903q-3 0 -5 1t-4 3l-1 1q0 1 -1 1q-1 1 -1 2h-2v2q-1 1 -1 2v2q0 3 2 7q6 21 19 36q7 7 10 9q3 4 9 8q10 6 22 8q5 1 11 1q24 0 44.5 -16.5t26.5 -43.5v-3q0 -7 -6 -12v-1
q-4 -2 -7 -2h-1q-2 0 -5 2q-2 1 -3 2h-2q-4 3 -4 7q-9 40 -43 39q-6 0 -14 -4q-18 -6 -26 -28q-3 -4 -5 -10q1 -6 -3 -9q-2 -1 -3 -2l-1 -1q-2 0 -4 -1h-2z" />
    <glyph glyph-name="uni020B" unicode="&#x20b;" horiz-adv-x="204" 
d="M123 422q6 0 10 -4t4 -10v-395q0 -6 -4 -10t-10 -4t-10 4t-4 10v395q0 11 10 14h4zM65 488q-3 0 -5 1t-4 3l-1 1q0 1 -1 1q-1 1 -1 2h-2v2q-1 1 -1 2v2q0 3 2 7q6 21 19 36q7 7 10 9q3 4 9 8q10 6 22 8q5 1 11 1q24 0 44.5 -16.5t26.5 -43.5v-3q0 -7 -6 -12v-1
q-4 -2 -7 -2h-1q-2 0 -5 2q-2 1 -3 2h-2q-4 3 -4 7q-9 40 -43 39q-6 0 -14 -4q-18 -6 -26 -28q-3 -4 -5 -10q1 -6 -3 -9q-2 -1 -3 -2l-1 -1q-2 0 -4 -1h-2z" />
    <glyph glyph-name="uni020C" unicode="&#x20c;" horiz-adv-x="928" 
d="M791 740q58 -58 92.5 -138.5t34.5 -168.5t-34.5 -168.5t-92.5 -138.5t-138.5 -92.5t-168.5 -34.5t-168.5 34.5t-138.5 92.5t-92.5 138.5t-34.5 168.5t34.5 168.5t92.5 138.5t138.5 92.5t168.5 34.5t168.5 -34.5t138.5 -92.5zM132.5 636.5q-54.5 -93.5 -54.5 -203.5
t54.5 -203.5t148 -148t203.5 -54.5t203.5 54.5t148 148t54.5 203.5t-54.5 203.5t-148 148t-203.5 54.5t-203.5 -54.5t-148 -148zM370 1011q6 0 10 -4l71 -71l19 -20l-7 -8l-1 -1q-1 -2 -3 -4h-2l-1 -1q-2 -1 -5 -1h-2q-1 0 -2 1h-2l-2 2h-1q0 1 -1 1l-1 1l-2 2l-77 79
q-6 4 -6 10q0 11 11 14h4zM490 1011q6 0 10 -4l71 -71l19 -20l-7 -8l-1 -1q-1 -2 -3 -4h-2l-1 -1q-2 -1 -5 -1h-2q-1 0 -2 1h-2l-2 2h-1q0 1 -1 1l-1 1l-2 2l-77 79q-6 4 -6 10q0 11 11 14h4z" />
    <glyph glyph-name="uni020D" unicode="&#x20d;" horiz-adv-x="478" 
d="M468 202q0 -88 -61 -149.5t-147 -61.5q-87 0 -148.5 61.5t-61.5 149.5q0 87 61.5 149t148 62t147.5 -62t61 -149zM77 202q0 -76 53.5 -129.5t129 -53.5t128.5 53.5t53 129.5t-53 129.5t-128.5 53.5t-129 -53.5t-53.5 -129.5zM144 549q6 0 10 -4l71 -71l19 -20l-7 -8
l-1 -1q-1 -2 -3 -4h-2l-1 -1q-2 -1 -5 -1h-2q-1 0 -2 1h-2l-2 2h-1q0 1 -1 1l-1 1l-2 2l-77 79q-6 4 -6 10q0 11 11 14h4zM264 549q6 0 10 -4l71 -71l19 -20l-7 -8l-1 -1q-1 -2 -3 -4h-2l-1 -1q-2 -1 -5 -1h-2q-1 0 -2 1h-2l-2 2h-1q0 1 -1 1l-1 1l-2 2l-77 79q-6 4 -6 10
q0 11 11 14h4z" />
    <glyph glyph-name="uni020E" unicode="&#x20e;" horiz-adv-x="928" 
d="M791 740q58 -58 92.5 -138.5t34.5 -168.5t-34.5 -168.5t-92.5 -138.5t-138.5 -92.5t-168.5 -34.5t-168.5 34.5t-138.5 92.5t-92.5 138.5t-34.5 168.5t34.5 168.5t92.5 138.5t138.5 92.5t168.5 34.5t168.5 -34.5t138.5 -92.5zM132.5 636.5q-54.5 -93.5 -54.5 -203.5
t54.5 -203.5t148 -148t203.5 -54.5t203.5 54.5t148 148t54.5 203.5t-54.5 203.5t-148 148t-203.5 54.5t-203.5 -54.5t-148 -148zM422 899q-3 0 -5 1t-4 3l-1 1q0 1 -1 1q-1 1 -1 2h-1v2q-2 1 -2 2v2q0 3 2 7q6 21 19 36q7 7 10 9q4 4 9 8q10 6 22 8q5 1 11 1
q24 0 44.5 -16.5t26.5 -43.5v-3q1 -7 -6 -12v-1q-4 -2 -7 -2h-1q-2 0 -5 2q-2 1 -3 2h-2q-3 3 -4 7q-9 40 -43 39q-6 0 -13 -4q-19 -6 -27 -28q-3 -4 -5 -10q1 -6 -3 -9q-2 -1 -3 -2l-1 -1q-2 0 -4 -1h-2z" />
    <glyph glyph-name="uni020F" unicode="&#x20f;" horiz-adv-x="478" 
d="M468 202q0 -88 -61 -149.5t-147 -61.5q-87 0 -148.5 61.5t-61.5 149.5q0 87 61.5 149t148 62t147.5 -62t61 -149zM77 202q0 -76 53.5 -129.5t129 -53.5t128.5 53.5t53 129.5t-53 129.5t-128.5 53.5t-129 -53.5t-53.5 -129.5zM207 423q-3 0 -5 1t-4 3l-1 1q0 1 -1 1
q-1 1 -1 2h-1v2q-2 1 -2 2v2q0 3 2 7q6 21 19 36q7 7 10 9q4 4 9 8q10 6 22 8q5 1 11 1q24 0 44.5 -16.5t26.5 -43.5v-3q1 -7 -6 -12v-1q-4 -2 -7 -2h-1q-2 0 -5 2q-2 1 -3 2h-2q-3 3 -4 7q-9 40 -43 39q-6 0 -13 -4q-19 -6 -27 -28q-3 -4 -5 -10q1 -6 -3 -9q-2 -1 -3 -2
l-1 -1q-2 0 -4 -1h-2z" />
    <glyph glyph-name="uni0210" unicode="&#x210;" horiz-adv-x="512" 
d="M213 864q97 -5 163 -74t61 -162q-4 -75 -55 -132t-127 -74l243 -405q4 -4 4 -9q0 -6 -4.5 -10t-9.5 -4q-10 0 -14 9l-248 415q-17 -2 -19 -2h-127v-406q0 -6 -4 -10t-10 -4t-10 4t-4 10v414q-2 3 -2 6t2 6v408q-1 3 -1 6q0 7 6 12h1q1 1 3 1v1h152zM80 444h126
q82 2 140.5 55.5t62.5 130.5q4 81 -53.5 141.5t-144.5 64.5h-131v-392zM100 1013q6 0 10 -4l71 -71l19 -20l-7 -8l-1 -1q-1 -2 -3 -4h-2l-1 -1q-2 -1 -5 -1h-2q-1 0 -2 1h-2l-2 2h-1q0 1 -1 1l-1 1l-2 2l-77 79q-6 4 -6 10q0 11 11 14h4zM220 1013q6 0 10 -4l71 -71l19 -20
l-7 -8l-1 -1q-1 -2 -3 -4h-2l-1 -1q-2 -1 -5 -1h-2q-1 0 -2 1h-2l-2 2h-1q0 1 -1 1l-1 1l-2 2l-77 79q-6 4 -6 10q0 11 11 14h4z" />
    <glyph glyph-name="uni0211" unicode="&#x211;" horiz-adv-x="295" 
d="M96 416q6 0 10 -4t4 -10v-72q23 38 59.5 61t79.5 24h5q6 0 10 -4t4 -9.5t-4 -10t-10 -4.5h-4q-55 -1 -95 -43.5t-45 -103.5v-238q0 -5 -4 -9.5t-10 -4.5t-10 4.5t-4 9.5v401q0 11 11 13h3zM65 569q6 0 10 -4l71 -71l19 -20l-7 -8l-1 -1q-1 -2 -3 -4h-2l-1 -1q-2 -1 -5 -1
h-2q-1 0 -2 1h-2l-2 2h-1q0 1 -1 1l-1 1l-2 2l-77 79q-6 4 -6 10q0 11 11 14h4zM185 569q6 0 10 -4l71 -71l19 -20l-7 -8l-1 -1q-1 -2 -3 -4h-2l-1 -1q-2 -1 -5 -1h-2q-1 0 -2 1h-2l-2 2h-1q0 1 -1 1l-1 1l-2 2l-77 79q-6 4 -6 10q0 11 11 14h4z" />
    <glyph glyph-name="uni0212" unicode="&#x212;" horiz-adv-x="512" 
d="M213 864q97 -5 163 -74t61 -162q-4 -75 -55 -132t-127 -74l243 -405q4 -4 4 -9q0 -6 -4.5 -10t-9.5 -4q-10 0 -14 9l-248 415q-17 -2 -19 -2h-127v-406q0 -6 -4 -10t-10 -4t-10 4t-4 10v414q-2 3 -2 6t2 6v408q-1 3 -1 6q0 7 6 12h1q1 1 3 1v1h152zM80 444h126
q82 2 140.5 55.5t62.5 130.5q4 81 -53.5 141.5t-144.5 64.5h-131v-392zM163 903q-3 0 -5 1t-4 3l-1 1q0 1 -1 1q-1 1 -1 2h-2v2q-1 1 -1 2v2q0 3 2 7q6 21 19 36q7 7 10 9q3 4 9 8q10 6 22 8q5 1 11 1q24 0 44.5 -16.5t26.5 -43.5v-3q0 -7 -6 -12v-1q-4 -2 -7 -2h-1
q-2 0 -5 2q-2 1 -3 2h-2q-4 3 -4 7q-9 40 -43 39q-6 0 -14 -4q-18 -6 -26 -28q-3 -4 -5 -10q1 -6 -3 -9q-2 -1 -3 -2l-1 -1q-2 0 -4 -1h-2z" />
    <glyph glyph-name="uni0213" unicode="&#x213;" horiz-adv-x="246" 
d="M64 418q6 0 10 -4t4 -10v-72q23 38 59.5 61t79.5 24h5q6 0 10 -4t4 -9q0 -6 -4 -10.5t-10 -4.5h-4q-55 -1 -95 -43.5t-45 -103.5v-238q0 -5 -4 -9.5t-10 -4.5t-10 4.5t-4 9.5v401q0 11 11 13h3zM77 478q-3 0 -5 1t-4 3l-1 1q0 1 -1 1q-1 1 -1 2h-2v2q-1 1 -1 2v2q0 3 2 7
q6 21 19 36q7 7 10 9q3 4 9 8q10 6 22 8q5 1 11 1q24 0 44.5 -16.5t26.5 -43.5v-3q0 -7 -6 -12v-1q-4 -2 -7 -2h-1q-2 0 -5 2q-2 1 -3 2h-2q-4 3 -4 7q-9 40 -43 39q-6 0 -14 -4q-18 -6 -26 -28q-3 -4 -5 -10q1 -6 -3 -9q-2 -1 -3 -2l-1 -1q-2 0 -4 -1h-2z" />
    <glyph glyph-name="uni0214" unicode="&#x214;" 
d="M64 864q6 0 10 -4t4 -10v-632q1 -79 78 -136q79 -59 190 -58q111 0 189 59q76 58 75 138v629q0 12 11 14h3q6 0 10 -4t4 -10v-644q0 -3 -2 -6v-2q-10 -80 -84 -136q-85 -65 -206 -66h-4q-118 0 -203 63q-77 57 -87 140v1h-0.5t-0.5 1v1q-1 2 -1 4v645q0 10 10 13h4z
M216 982q6 0 10 -4l71 -71l19 -20l-7 -8l-1 -1q-1 -2 -3 -4h-2l-1 -1q-2 -1 -5 -1h-2q-1 0 -2 1h-2l-2 2h-1q0 1 -1 1l-1 1l-2 2l-77 79q-6 4 -6 10q0 11 11 14h4zM336 982q6 0 10 -4l71 -71l19 -20l-7 -8l-1 -1q-1 -2 -3 -4h-2l-1 -1q-2 -1 -5 -1h-2q-1 0 -2 1h-2l-2 2h-1
q0 1 -1 1l-1 1l-2 2l-77 79q-6 4 -6 10q0 11 11 14h4z" />
    <glyph glyph-name="uni0215" unicode="&#x215;" horiz-adv-x="402" 
d="M74 412q4 -4 4 -10v-234q5 -64 47 -106.5t99 -41.5q55 2 95 44t45 102v17q-1 1 -1 2t1 2v214q0 11 10 14h4q5 0 9.5 -4t4.5 -10v-395q0 -6 -4.5 -10t-9.5 -4q-6 0 -10 4t-4 10v71q-23 -38 -59.5 -60.5t-79.5 -23.5q-67 -1 -117 47t-57 119v2l-0.5 0.5l-0.5 0.5v239
q0 11 11 14q2 1 3 1q6 0 10 -4zM101 613q6 0 10 -4l71 -71l19 -20l-7 -8l-1 -1q-1 -2 -3 -4h-2l-1 -1q-2 -1 -5 -1h-2q-1 0 -2 1h-2l-2 2h-1q0 1 -1 1l-1 1l-2 2l-77 79q-6 4 -6 10q0 11 11 14h4zM221 613q6 0 10 -4l71 -71l19 -20l-7 -8l-1 -1q-1 -2 -3 -4h-2l-1 -1
q-2 -1 -5 -1h-2q-1 0 -2 1h-2l-2 2h-1q0 1 -1 1l-1 1l-2 2l-77 79q-6 4 -6 10q0 11 11 14h4z" />
    <glyph glyph-name="uni0216" unicode="&#x216;" 
d="M64 864q6 0 10 -4t4 -10v-632q1 -79 78 -136q79 -59 190 -58q111 0 189 59q76 58 75 138v629q0 12 11 14h3q6 0 10 -4t4 -10v-644q0 -3 -2 -6v-2q-10 -80 -84 -136q-85 -65 -206 -66h-4q-118 0 -203 63q-77 57 -87 140v1h-0.5t-0.5 1v1q-1 2 -1 4v645q0 10 10 13h4z
M276 894q-3 0 -5 1t-4 3l-1 1q0 1 -1 1q-1 1 -1 2h-2v2q-1 1 -1 2v2q0 3 2 7q6 21 19 36q7 7 10 9q3 4 9 8q10 6 22 8q5 1 11 1q24 0 44.5 -16.5t26.5 -43.5v-3q0 -7 -6 -12v-1q-4 -2 -7 -2h-1q-2 0 -5 2q-2 1 -3 2h-2q-4 3 -4 7q-9 40 -43 39q-6 0 -14 -4q-18 -6 -26 -28
q-3 -4 -5 -10q1 -6 -3 -9q-2 -1 -3 -2l-1 -1q-2 0 -4 -1h-2z" />
    <glyph glyph-name="uni0217" unicode="&#x217;" horiz-adv-x="402" 
d="M74 412q4 -4 4 -10v-234q5 -64 47 -106.5t99 -41.5q55 2 95 44t45 102v17q-1 1 -1 2t1 2v214q0 11 10 14h4q5 0 9.5 -4t4.5 -10v-395q0 -6 -4.5 -10t-9.5 -4q-6 0 -10 4t-4 10v71q-23 -38 -59.5 -60.5t-79.5 -23.5q-67 -1 -117 47t-57 119v2l-0.5 0.5l-0.5 0.5v239
q0 11 11 14q2 1 3 1q6 0 10 -4zM156 505q-3 0 -5 1t-4 3l-1 1q0 1 -1 1q-1 1 -1 2h-2v2q-1 1 -1 2v2q0 3 2 7q6 21 19 36q7 7 10 9q3 4 9 8q10 6 22 8q5 1 11 1q24 0 44.5 -16.5t26.5 -43.5v-3q0 -7 -6 -12v-1q-4 -2 -7 -2h-1q-2 0 -5 2q-2 1 -3 2h-2q-4 3 -4 7
q-9 40 -43 39q-6 0 -14 -4q-18 -6 -26 -28q-3 -4 -5 -10q1 -6 -3 -9q-2 -1 -3 -2l-1 -1q-2 0 -4 -1h-2z" />
    <glyph glyph-name="Scommaaccent" unicode="&#x218;" horiz-adv-x="564" 
d="M389 46q39 16 72 49q65 65 65 158q0 91 -63.5 156t-154.5 68h-6q-81 0 -138.5 57.5t-57.5 138.5t57.5 138.5t138.5 57.5t138.5 -57.5t57.5 -138.5q0 -6 -4 -10t-10 -4t-10 4t-4 10q0 70 -49 119t-119 49t-119 -49t-49 -119t49 -119t119 -49h7q102 -3 173.5 -76.5
t71.5 -175.5q0 -104 -74 -178q-32 -32 -71 -51q-1 -1 -1 -2q-3 -3 -7 -3q-3 0 -5 -1q-11 -4 -22 -7q-15 -10 -17 -30q0 -6 2 -14q4 -20 26 -31q3 -2 9 -4q6 -1 9 -5q1 -2 1 -3v-1l2 -4v-2q0 -3 -2 -5q-1 -2 -3 -4l-1 -1q-1 0 -1 -1q-1 -1 -2 -1l-1 -1h-1l-1 1q-1 -1 -2 -1
h-2q-3 0 -6 2q-20 8 -34 24q-7 6 -8 9q-4 5 -6 11q-6 10 -6 22q-1 6 0 12q1 10 5 19q-16 -2 -33 -2q-104 0 -178 74t-74 178q0 6 4 10t10 4t10 -4t4 -10q0 -93 65.5 -158.5t158.5 -65.5q34 0 65 9q10 5 22 8z" />
    <glyph glyph-name="scommaaccent" unicode="&#x219;" horiz-adv-x="361" 
d="M258 34q17 7 31 20q35 30 34 71q0 40 -34 69t-83 31h-8q-1 0 -3 1h-3q-46 2 -79 24q-42 28 -43 69t38 70q38 28 90 28h5q35 0 65 -12q32 -14 49 -39q4 -4 4 -10t-4 -10t-10 -4q-9 0 -12 8q-13 18 -39 29t-57 10q-44 0 -74 -22q-28 -21 -27 -47q1 -27 29 -46
q30 -20 71 -21h6q2 -1 3 -1h2q59 -3 100.5 -39t41.5 -88v-3q0 -52 -42 -89q-9 -8 -19 -14q-1 -2 -1 -3q-2 -1 -3 -2t-1 -2q-3 -3 -7 -3q-5 -1 -10 -1q-7 -4 -15 -6q-17 -9 -19 -31q0 -6 2 -14q4 -20 26 -31q3 -2 9 -4q6 -1 9 -5q1 -2 1 -3v-1l2 -4v-2q0 -3 -2 -5
q-1 -2 -3 -4l-1 -1q-1 0 -1 -1q-1 -1 -2 -1l-1 -1h-1l-1 1q-1 -1 -2 -1h-2q-3 0 -6 2q-20 8 -34 24q-7 6 -8 9q-4 5 -6 11q-6 10 -6 22q-1 6 0 12q1 12 6 22q-5 -1 -10 -1q-61 -1 -105.5 35.5t-46.5 89.5h-1v3q1 6 5 10t9 4q3 0 6 -1h1l1 -1h1v-1h1q1 -1 2 -3l1 -1v-1l1 -1
v-5q1 -41 37 -71t88 -29q24 0 44 7q6 2 11 4z" />
    <glyph glyph-name="uni021A" unicode="&#x21a;" horiz-adv-x="650" 
d="M626 865q6 0 10 -4t4 -10q0 -7 -4 -11t-10 -4h-266v-824q0 -6 -4 -10t-10 -4t-10 4t-4 10v824h-268q-6 0 -10 4t-4 11q0 12 12 14h564zM340 -18q0 3 3 5q1 2 3 4l1 1q1 0 1 1q1 1 2 0l1 1h1l1 -1q1 1 2 1h2q3 0 6 -2q19 -10 32 -26q7 -6 8 -9q3 -6 5 -12q5 -10 5 -22
q0 -6 -1 -12q-4 -23 -23.5 -40.5t-47.5 -18.5h-3q-7 2 -10 9h-1q-1 4 -1 7v1q0 2 1 5l4 2q1 1 1 2q3 3 7 2q41 2 46 36q1 6 -1 14q-3 20 -24 32q-3 2 -9 5q-6 1 -8 5q-1 2 -1 3v1q-1 3 -2 5v1z" />
    <glyph glyph-name="uni021B" unicode="&#x21b;" horiz-adv-x="251" 
d="M104 613q6 0 10.5 -4t4.5 -10l-1 -1v-183h104q6 0 10 -4t4 -9.5t-4 -10t-10 -4.5h-104v-339q1 -1 1 -1.5t-1 -1.5q1 -9 12 -16q13 -8 33 -8q19 0 33 9q12 8 12 16v1q0 10 9 13q2 1 5 1q6 0 10 -4t4 -10v-1q0 -23 -24 -39q-21 -14 -49 -14t-48 13q-19 12 -23 33q-1 3 -2 5
v343h-26q-6 0 -10 4t-4 10q0 5 3.5 9.5t8.5 4.5h28v184q0 10 10 13q1 1 2 1h2zM168 -20q0 3 3 5q1 2 3 4l1 1q1 0 1 1q1 1 2 0l1 1h1l1 -1q1 1 2 1h2q3 0 6 -2q19 -10 32 -26q7 -6 8 -9q3 -6 5 -12q5 -10 5 -22q0 -6 -1 -12q-4 -23 -23.5 -40.5t-47.5 -18.5h-3q-7 2 -10 9
h-1q-1 4 -1 7v1q0 2 1 5l4 2q1 1 1 2q3 3 7 2q41 2 46 36q1 6 -1 14q-3 20 -24 32q-3 2 -9 5q-6 1 -8 5q-1 2 -1 3v1l-2 4v2z" />
    <glyph glyph-name="uni021E" unicode="&#x21e;" horiz-adv-x="650" 
d="M65 863q6 0 10 -4t4 -10v-406h532v406q0 12 12 14h2q6 0 10 -4t4 -10v-417q1 -2 1 -3q0 -2 -1 -4v-416q0 -6 -4 -10t-9 -4q-6 0 -10.5 4t-4.5 10v406h-532v-406q0 -6 -4 -10t-9 -4q-6 0 -10.5 4t-4.5 10v414q-1 3 -1 6t1 5v416q0 10 10 13h4zM430 989q11 -3 11 -14
q0 -6 -6 -10l-77 -80l-2 -2l-1 -1q-1 0 -1 -1h-1l-2 -2h-2q-1 -1 -2 -1h-2q-3 0 -5 1l-1 1h-2q-2 2 -3 4l-1 1l-1 1l-78 77q-5 4 -5 10t4.5 10t9.5 4h3q4 -1 8 -3l71 -71l71 71q4 5 10 5h4z" />
    <glyph glyph-name="uni021F" unicode="&#x21f;" horiz-adv-x="402" 
d="M64 731q6 0 10 -4t4 -10v-387q23 38 59.5 61t80.5 24q67 2 116.5 -47t56.5 -122v-1l0.5 -1.5t0.5 -2.5v-1q0 -2 -1 -4v-229q0 -6 -4 -10t-10 -4t-10 4t-4 10v240q-7 61 -48.5 101t-96.5 39t-95 -43t-45 -103v-234q0 -6 -4 -10t-9 -4q-6 0 -10.5 4t-4.5 10v710q0 11 11 14
h3zM270 802q11 -3 11 -14q0 -6 -6 -10l-77 -80l-2 -2l-1 -1q-1 0 -1 -1h-1l-2 -2h-2q-1 -1 -2 -1h-2q-3 0 -5 1l-1 1h-2q-2 2 -3 4l-1 1l-1 1l-78 77q-5 4 -5 10t4.5 10t9.5 4h3q4 -1 8 -3l71 -71l71 71q4 5 10 5h4z" />
    <glyph glyph-name="uni0226" unicode="&#x226;" 
d="M349 836l1 -1q1 0 2 -1h1v-1h1v-1h1l2 -4q0 -1 0.5 -1.5t0.5 -1.5v-2l280 -808v-5q0 -6 -4 -10t-10 -4q-10 0 -14 10l-97 282h-338l-97 -282q-4 -10 -14 -10q-6 0 -10 4t-4 10v5l280 809v1q0 1 0.5 1.5t0.5 1.5v2q1 0 1 1v1q1 0 2 1t2 1q1 2 3 2h10zM186 321h316
l-158 457zM384 932q0 -17 -11.5 -29t-28.5 -12t-28.5 12t-11.5 29t11.5 29t28.5 12t28.5 -12t11.5 -29z" />
    <glyph glyph-name="uni0227" unicode="&#x227;" horiz-adv-x="454" 
d="M178.5 228.5q-44.5 -18.5 -72.5 -50.5q-36 -43 -26 -85q2 -10 7 -19q15 -29 52 -43q51 -21 115.5 -4t101.5 61q1 2 3 3v121q-13 12 -36 22q-26 11 -56 11q-44 2 -88.5 -16.5zM234 422q35 -2 63 -13q37 -13 60.5 -37.5t28.5 -53.5v-2q1 -1 1 -4v-260q1 -12 11 -18
q12 -10 31 -10h1q5 0 9.5 -4t4.5 -9q0 -6 -4.5 -10t-9.5 -4h-1q-28 0 -48 15q-18 14 -21 35v3h-1v1l-2.5 -2.5t-2.5 -1.5q-12 -9 -28 -20q-31 -19 -64 -27q-14 -3 -34 -6q-12 -1 -23 -1q-41 0 -77 14q-62 24 -75 80q-3 13 -3 25q0 43 35 83q32 38 82 58.5t101 18.5
q36 -1 65 -13q12 -5 25 -12h1v58q0 24 -19 45.5t-52 33.5q-53 19 -110 7t-84 -45q-4 -5 -11 -5q-6 0 -10 3.5t-4 9.5q0 5 3 9q22 28 59 43.5t80 16.5q8 0 23 -1zM264 503q0 -17 -11.5 -29t-28.5 -12t-28.5 12t-11.5 29t11.5 29t28.5 12t28.5 -12t11.5 -29z" />
    <glyph glyph-name="uni0228" unicode="&#x228;" horiz-adv-x="386" 
d="M58 864q-8 -4 -8 -13v-841q0 -3 1 -5t2 -3v-1q1 0 1 -1q1 -1 3 -2t3 -2h286q6 0 10 4t4 10t-4 10t-10 4h-268v392h268q6 0 10 4t4 10t-4 10t-10 4h-268v392h268q6 0 10 4t4 10t-4 10t-10 4h-288zM276 20q-10 -3 -10 -13v-94q0 -6 4 -10t10 -4t10 4t4 9v3q1 2 1 4
q1 11 9 18t19 6t18 -9.5t7 -19.5q-1 -11 -9 -18t-19 -6h-5q-5 0 -9.5 -4t-4.5 -10q0 -8 7 -12q5 -2 9 -2h6q19 0 34 13q17 15 19 38v4q0 20 -13 35q-15 17 -37 19q-17 1 -32 -7v42q0 6 -4 10t-10 4h-4z" />
    <glyph glyph-name="uni0229" unicode="&#x229;" horiz-adv-x="478" 
d="M257 385q65 1 116 -41q60 -49 66 -127h-361q4 57 40 101q54 67 139 67zM257 413q-13 -1 -20 -1q-87 -9 -141 -76q-45 -56 -46 -129v-7q1 -46 20.5 -88.5t56.5 -72.5q67 -55 153 -46.5t141 76.5q3 4 3 8q0 6 -4 10t-10 4q-7 0 -11 -5q-47 -59 -121.5 -66.5t-133.5 40.5
q-60 50 -66 129h376q6 0 10 4t4 10q0 1 -1 2v2q1 2 1 4q-2 46 -22 86.5t-55 68.5q-57 47 -134 47zM344 30q-10 -3 -10 -13v-94q0 -6 4 -10t10 -4t10 4t4 9v3q1 2 1 4q1 11 9 18t19 6t18 -9.5t7 -19.5q-1 -11 -9 -18t-19 -6h-5q-5 0 -9.5 -4t-4.5 -10q0 -8 7 -12q5 -2 9 -2h6
q19 0 34 13q17 15 18.5 37.5t-13 39.5t-36.5 19q-17 1 -32 -7v42q0 6 -4 10t-10 4h-4z" />
    <glyph glyph-name="uni022A" unicode="&#x22a;" horiz-adv-x="928" 
d="M791 740q58 -58 92.5 -138.5t34.5 -168.5t-34.5 -168.5t-92.5 -138.5t-138.5 -92.5t-168.5 -34.5t-168.5 34.5t-138.5 92.5t-92.5 138.5t-34.5 168.5t34.5 168.5t92.5 138.5t138.5 92.5t168.5 34.5t168.5 -34.5t138.5 -92.5zM132.5 636.5q-54.5 -93.5 -54.5 -203.5
t54.5 -203.5t148 -148t203.5 -54.5t203.5 54.5t148 148t54.5 203.5t-54.5 203.5t-148 148t-203.5 54.5t-203.5 -54.5t-148 -148zM442 918q0 -17 -11.5 -29t-28.5 -12t-28.5 12t-11.5 29t11.5 29t28.5 12t28.5 -12t11.5 -29zM592.5 947q11.5 -12 11.5 -29t-11.5 -29
t-28.5 -12t-28.5 12t-11.5 29q0 15 9 26t23 14q4 1 8 1q17 0 28.5 -12zM567 1012q3 0 4.5 -4t1.5 -10t-1.5 -10t-4.5 -4h-166q-3 0 -4.5 4t-1.5 10q0 12 5 14h167z" />
    </font>
</defs>
</svg>
